<svg width="30" height="30" viewBox="0 0 30 30" fill="none" xmlns="http://www.w3.org/2000/svg">
<path d="M3.75 16.875H7.5V24.375H3.75" stroke="black" stroke-width="0.9375"/>
<path d="M7.5 17.8125H11.25C11.7473 17.8125 12.2242 18.01 12.5758 18.3617C12.9275 18.7133 13.125 19.1902 13.125 19.6875H17.3438C17.7167 19.6875 18.0744 19.8357 18.3381 20.0994C18.6018 20.3631 18.75 20.7208 18.75 21.0938C18.75 21.4667 18.6018 21.8244 18.3381 22.0881C18.0744 22.3518 17.7167 22.5 17.3438 22.5H12.1875" stroke="black" stroke-width="0.9375"/>
<path d="M18.75 21.0001L21.8578 19.1251C22.283 18.8718 22.7691 18.7389 23.2641 18.7407C23.62 18.7404 23.9725 18.8102 24.3015 18.9461C24.6304 19.082 24.9294 19.2814 25.1813 19.5329L26.25 20.6251L17.8453 25.6689C17.2092 26.0492 16.4818 26.2501 15.7406 26.2501C15.2506 26.2497 14.7647 26.1608 14.3063 25.9876L7.5 23.4376" stroke="black" stroke-width="0.9375"/>
<path d="M17.8125 16.875C21.4369 16.875 24.375 13.9369 24.375 10.3125C24.375 6.68813 21.4369 3.75 17.8125 3.75C14.1881 3.75 11.25 6.68813 11.25 10.3125C11.25 13.9369 14.1881 16.875 17.8125 16.875Z" stroke="black" stroke-width="0.9375"/>
<path d="M17.0298 10.3126C16.63 10.2907 16.2538 10.1164 15.9785 9.82568C15.7032 9.53491 15.5498 9.14972 15.5498 8.74932C15.5498 8.34891 15.7032 7.96372 15.9785 7.67295C16.2538 7.38219 16.63 7.20794 17.0298 7.18604" stroke="black" stroke-width="0.9375"/>
<path d="M18.5952 10.3125C18.995 10.3344 19.3712 10.5087 19.6465 10.7994C19.9218 11.0902 20.0752 11.4754 20.0752 11.8758C20.0752 12.2762 19.9218 12.6614 19.6465 12.9521C19.3712 13.2429 18.995 13.4172 18.5952 13.4391" stroke="black" stroke-width="0.9375"/>
<path d="M17.8125 5.625V7.18594" stroke="black" stroke-width="0.9375"/>
<path d="M17.8125 13.439V14.9999" stroke="black" stroke-width="0.9375"/>
<path d="M17.0298 10.3125H18.5954" stroke="black" stroke-width="0.9375"/>
<path d="M20.1563 7.96885C20.1563 7.96885 19.3735 7.18604 18.5954 7.18604H17.0298" stroke="black" stroke-width="0.9375"/>
<path d="M15.4688 12.6562C15.4688 12.6562 16.2516 13.4391 17.0297 13.4391H18.5953" stroke="black" stroke-width="0.9375"/>
</svg>
