<svg width="581" height="291" viewBox="0 0 581 291" fill="none" xmlns="http://www.w3.org/2000/svg">
<g clip-path="url(#clip0_559_446)">
<path d="M191.335 291C173.804 291 156.299 290.686 138.82 290.059C113.845 289.163 88.0192 288.237 64.0153 274.935C47.2236 265.631 32.3519 250.703 21.0085 231.764C13.4267 218.928 7.86742 205.002 4.52589 190.476C-1.70735 164.029 -1.49504 136.473 5.14498 110.125C7.47189 101.091 10.6797 92.3076 14.7224 83.8994C32.2274 47.6814 64.1553 23.3692 102.32 17.1973C102.635 17.1564 102.954 17.1496 103.27 17.177C103.442 17.1862 103.613 17.196 103.787 17.1887L104.012 17.1174C104.588 16.9175 105.179 16.7659 105.78 16.6641C164.639 7.90922 226.862 25.6235 285.717 67.8904C331.224 100.576 391.534 118.176 470.092 121.697L471.208 121.756C493.076 123.011 514.23 132.019 532.384 147.808C550.303 163.391 563.757 184.182 571.291 207.934C572.217 210.83 573.067 213.844 573.815 216.893C574.511 219.726 574.462 222.691 573.672 225.5C572.882 228.309 571.377 230.865 569.305 232.921V232.926L569.11 233.127C568.639 233.595 568.143 234.044 567.636 234.462L567.041 234.952C562.02 239.084 558.055 242.348 553.309 244.883C550.144 246.563 546.778 247.833 543.292 248.662C524.148 253.326 504.707 257.649 485.509 261.513C448.226 269.024 409.961 275.22 371.776 279.928C311.912 287.303 251.652 291.001 191.335 291ZM102.824 18.4597C102.707 18.4586 102.589 18.4666 102.473 18.4835C64.6658 24.5978 33.0402 48.6713 15.7087 84.5308C11.706 92.8556 8.52989 101.552 6.22611 110.497C-0.353399 136.611 -0.56307 163.922 5.61473 190.134C8.92355 204.521 14.4289 218.314 21.9375 231.028C33.1699 249.781 47.8895 264.559 64.5052 273.765C88.2936 286.947 113.997 287.87 138.855 288.761C216.601 291.536 294.445 288.151 371.655 278.638C409.815 273.932 448.056 267.74 485.315 260.234C504.5 256.373 523.927 252.053 543.058 247.392C546.46 246.583 549.745 245.344 552.834 243.706C557.484 241.222 561.412 237.989 566.384 233.896L566.98 233.406C567.415 233.047 567.843 232.663 568.252 232.263L568.369 232.14C572.455 228.025 574.044 222.596 572.729 217.246V217.245C571.988 214.229 571.148 211.247 570.231 208.381C554.84 159.86 515.023 125.57 471.153 123.053L470.044 122.995C434.16 121.386 402.758 116.929 374.049 109.369C339.777 100.344 309.857 86.7591 285.12 68.9916C226.489 26.8866 164.526 9.23825 105.923 17.9516C105.376 18.046 104.837 18.1855 104.313 18.3687L103.908 18.4819C103.678 18.4922 103.448 18.4894 103.218 18.4737C103.083 18.4667 102.952 18.4597 102.824 18.4597Z" fill="#F0F0F0"/>
<path d="M181.48 94.8113C179.858 93.2556 178.197 84.5798 176.126 83.699C177.674 87.1191 176.55 88.0246 176.542 91.778C176.561 93.9094 176.312 96.0347 175.8 98.1038H140.7V70.7347C140.7 68.2755 141.185 65.8404 142.127 63.5684C143.069 61.2964 144.449 59.232 146.19 57.493C147.93 55.7541 149.996 54.3748 152.27 53.4337C154.544 52.4927 156.981 52.0084 159.443 52.0084C160.382 52.0267 161.315 52.1633 162.221 52.4148C165.238 53.2286 167.987 54.8208 170.194 57.0316C172.401 59.2424 173.987 61.9941 174.793 65.0107C177.469 74.7826 181.724 91.0488 181.48 94.8113Z" fill="#2F2E41"/>
<path d="M142.76 128.48L142.777 107.148L130.226 108.268L134.656 121.723L132.583 155.541C131.577 155.766 130.659 156.279 129.941 157.017C129.222 157.755 128.733 158.685 128.535 159.696C128.337 160.706 128.437 161.752 128.823 162.707C129.209 163.661 129.865 164.483 130.711 165.071C131.556 165.659 132.555 165.989 133.585 166.021C134.615 166.052 135.631 165.783 136.511 165.247C137.391 164.71 138.095 163.93 138.539 163.001C138.982 162.071 139.145 161.033 139.008 160.013L142.76 128.48Z" fill="#FFB6B6"/>
<path d="M167.459 280.924L172.53 280.923L174.942 261.383H167.458L167.459 280.924Z" fill="#FFB6B6"/>
<path d="M165.742 278.425L173.758 277.947V281.378L181.378 286.636C181.755 286.896 182.038 287.269 182.187 287.701C182.336 288.133 182.343 288.601 182.207 289.038C182.071 289.474 181.799 289.855 181.431 290.126C181.062 290.397 180.617 290.543 180.159 290.543H170.616L168.972 287.149L168.329 290.543H164.731L165.742 278.425Z" fill="#2F2E41"/>
<path d="M138.141 280.924L143.212 280.923L145.623 261.383H138.14L138.141 280.924Z" fill="#FFB6B6"/>
<path d="M136.424 278.425L144.439 277.947V281.378L152.06 286.636C152.436 286.896 152.72 287.269 152.869 287.701C153.018 288.133 153.025 288.601 152.889 289.038C152.753 289.474 152.481 289.855 152.112 290.126C151.744 290.397 151.298 290.543 150.841 290.543H141.298L139.653 287.149L139.011 290.543H135.413L136.424 278.425Z" fill="#2F2E41"/>
<path d="M162.944 84.1106L152.44 84.3164L145.025 92.1361L139.081 93.0072C136.392 93.4012 133.92 94.7055 132.078 96.7019C130.236 98.6984 129.135 101.266 128.96 103.976L129.99 109.628H136.169L139.744 130.597C138.354 134.135 138.259 136.929 141.112 138.026L149.968 154.694L176.126 142.964C177.452 140.686 177.877 138.397 176.521 136.172L178.391 104.071H184.679C184.679 98.0677 182.646 93.0064 176.674 92.3383C174.303 92.0819 171.92 91.9457 169.535 91.9303L162.944 84.1106Z" fill="#E6E6E6"/>
<path d="M176.126 142.965C176.126 142.965 150.586 147.492 141.112 138.026C141.112 138.026 140.15 139.657 138.701 142.363C138.284 143.141 137.479 143.668 136.993 144.611C136.551 145.467 135.415 146.52 134.933 147.492C134.546 148.274 135.167 149.295 134.764 150.139C129.912 160.307 124.244 174.65 125.459 184.121C126.243 190.229 127.862 204.44 129.566 219.705C129.699 220.897 128.621 222.429 128.755 223.631C128.881 224.765 130.22 225.568 130.346 226.704C130.43 227.459 129.495 228.228 129.578 228.982C129.67 229.808 130.78 230.619 130.872 231.442C133.207 252.519 135.345 272.196 135.345 272.196H147.291L149.545 227.255L147.703 210.873L152.028 177.742L158.001 209.227L158.769 226.946L165.082 273.019H176.126V228.418L176.949 226.101L176.126 223.129L176.949 219.927L176.126 216.44V142.965Z" fill="#2F2E41"/>
<path d="M166.168 78.0245C164.541 80.1841 162.226 81.7256 159.605 82.3952C156.984 83.0648 154.213 82.8225 151.748 81.7083C149.283 80.5941 147.271 78.6744 146.044 76.2653C144.817 73.8563 144.448 71.1015 144.997 68.4547C145.546 65.8079 146.981 63.4269 149.066 61.7038C151.15 59.9807 153.76 59.0183 156.465 58.975C159.17 58.9318 161.809 59.8103 163.948 61.4658C166.087 63.1214 167.597 65.4553 168.231 68.0832C168.265 68.2258 168.294 68.3676 168.322 68.5148C168.657 70.1619 168.638 71.8613 168.266 73.5006C167.895 75.1399 167.18 76.6818 166.168 78.0245Z" fill="#FFB6B6"/>
<path d="M163.686 71.2368C163.433 69.9702 162.794 68.8128 161.857 67.9236C161.949 69.1374 161.781 70.3569 161.362 71.5002C158.231 71.7773 155.085 71.1547 152.296 69.7058C150.195 68.2818 147.522 68.4052 144.408 69.7058C144.408 68.1924 144.706 66.6938 145.285 65.2955C145.865 63.8973 146.714 62.6269 147.785 61.5567C148.857 60.4866 150.128 59.6378 151.528 59.0587C152.927 58.4797 154.427 58.1817 155.942 58.1819H158.001C161.06 58.1825 163.993 59.3968 166.156 61.5578C168.319 63.7188 169.534 66.6496 169.535 69.7058C167.634 70.387 165.677 70.8993 163.686 71.2368Z" fill="#2F2E41"/>
<path d="M73.5789 218.113C91.8789 218.113 106.714 203.29 106.714 185.006C106.714 166.722 91.8789 151.9 73.5789 151.9C55.2789 151.9 40.4438 166.722 40.4438 185.006C40.4438 203.29 55.2789 218.113 73.5789 218.113Z" fill="#F0F0F0"/>
<path d="M284.734 66.2128C303.034 66.2128 317.869 51.3905 317.869 33.1064C317.869 14.8222 303.034 0 284.734 0C266.434 0 251.599 14.8222 251.599 33.1064C251.599 51.3905 266.434 66.2128 284.734 66.2128Z" fill="#F0F0F0"/>
<path d="M547.865 223.306C566.165 223.306 581 208.484 581 190.199C581 171.915 566.165 157.093 547.865 157.093C529.565 157.093 514.73 171.915 514.73 190.199C514.73 208.484 529.565 223.306 547.865 223.306Z" fill="#F0F0F0"/>
<path d="M344.506 36.7168V111.788C344.507 113.347 343.891 114.844 342.793 115.952C341.696 117.06 340.204 117.691 338.644 117.708C338.622 117.71 338.601 117.711 338.579 117.71H329.834C322.837 117.71 316.127 114.933 311.179 109.99C306.231 105.046 303.452 98.3417 303.452 91.3507V36.7168C303.452 35.1461 304.076 33.6397 305.188 32.529C306.299 31.4183 307.807 30.7944 309.379 30.7944H312.923C311.281 35.579 333.561 37.5934 334.784 30.7944H338.579C340.151 30.7944 341.659 31.4184 342.77 32.529C343.882 33.6397 344.506 35.1461 344.506 36.7168Z" fill="#07933C"/>
<path d="M318.556 25.1808C318.556 24.975 318.638 24.7778 318.783 24.6323C318.929 24.4868 319.127 24.4049 319.332 24.4047H324.615C324.821 24.4053 325.018 24.4873 325.163 24.6328C325.308 24.7783 325.389 24.9754 325.389 25.1808C325.389 25.3863 325.308 25.5834 325.163 25.7288C325.018 25.8743 324.821 25.9564 324.615 25.957H319.332C319.127 25.9567 318.929 25.8749 318.783 25.7294C318.638 25.5839 318.556 25.3866 318.556 25.1808Z" fill="#3F3D56"/>
<path d="M340.394 127.232H306.988C304.397 127.229 301.912 126.2 300.079 124.368C298.247 122.537 297.216 120.055 297.213 117.465V64.9877C297.029 64.8561 296.88 64.6827 296.777 64.4819C296.674 64.281 296.62 64.0586 296.621 63.833V58.5552C296.62 58.3296 296.674 58.1072 296.777 57.9065C296.88 57.7057 297.029 57.5324 297.213 57.4008V55.9843C297.029 55.8528 296.88 55.6794 296.777 55.4786C296.674 55.2779 296.62 55.0555 296.621 54.8299V49.5518C296.62 49.3262 296.674 49.1038 296.777 48.9031C296.88 48.7023 297.029 48.529 297.213 48.3974V45.8373C296.986 45.7158 296.797 45.535 296.665 45.3144C296.534 45.0937 296.465 44.8415 296.465 44.5846V39.3069C296.465 39.05 296.534 38.7977 296.665 38.577C296.797 38.3563 296.986 38.1755 297.213 38.0539V31.0388C297.216 28.4493 298.247 25.9668 300.079 24.1357C301.912 22.3047 304.397 21.2748 306.988 21.2719H340.394C342.986 21.2748 345.47 22.3048 347.303 24.1358C349.135 25.9668 350.166 28.4494 350.169 31.0388V46.3302C350.345 46.4402 350.49 46.5931 350.591 46.7746C350.692 46.9561 350.745 47.1601 350.745 47.3676V57.4312C350.745 57.6388 350.692 57.8428 350.591 58.0244C350.49 58.2059 350.345 58.3589 350.169 58.469V117.465C350.166 120.055 349.135 122.537 347.303 124.368C345.47 126.199 342.986 127.229 340.394 127.232ZM306.988 22.5702C304.741 22.5727 302.587 23.4657 300.998 25.0534C299.409 26.641 298.515 28.7936 298.512 31.0388V39.1582L297.887 39.1823C297.855 39.1835 297.824 39.197 297.801 39.2202C297.778 39.2434 297.765 39.2744 297.765 39.3069V44.5846C297.765 44.6171 297.778 44.648 297.801 44.6712C297.824 44.6943 297.855 44.7079 297.887 44.7092L298.512 44.733V49.309L298.018 49.4307C297.99 49.4373 297.966 49.4527 297.948 49.4746C297.931 49.4965 297.921 49.5237 297.92 49.5518V54.8299C297.921 54.858 297.931 54.8851 297.948 54.907C297.966 54.9289 297.991 54.9444 298.018 54.951L298.512 55.0727V58.3124L298.018 58.4341C297.99 58.4407 297.966 58.4561 297.948 58.478C297.931 58.4999 297.921 58.5271 297.92 58.5552V63.833C297.921 63.8611 297.931 63.8883 297.948 63.9103C297.966 63.9322 297.99 63.9477 298.018 63.9543L298.512 64.0761V117.465C298.515 119.711 299.409 121.863 300.998 123.451C302.587 125.039 304.741 125.932 306.988 125.934H340.394C342.641 125.931 344.795 125.038 346.384 123.451C347.973 121.863 348.867 119.711 348.87 117.465V57.3574H349.445V47.4418H348.87V31.0388C348.867 28.7936 347.973 26.641 346.384 25.0534C344.795 23.4658 342.641 22.5727 340.394 22.5702L306.988 22.5702Z" fill="#3F3D56"/>
<path d="M327.566 25.957C327.995 25.957 328.343 25.6095 328.343 25.1808C328.343 24.7522 327.995 24.4047 327.566 24.4047C327.137 24.4047 326.79 24.7522 326.79 25.1808C326.79 25.6095 327.137 25.957 327.566 25.957Z" fill="#3F3D56"/>
<path d="M158.581 175.531H71.6583C70.424 175.527 69.241 175.036 68.3681 174.164C67.4952 173.292 67.0033 172.11 67 170.877V128.56C67.0032 127.326 67.4949 126.145 68.3677 125.272C69.2405 124.4 70.4233 123.909 71.6577 123.905H158.58C159.815 123.909 160.997 124.4 161.87 125.272C162.743 126.144 163.235 127.326 163.239 128.559V170.876C163.235 172.11 162.744 173.291 161.871 174.164C160.998 175.036 159.815 175.527 158.581 175.531Z" fill="white"/>
<path d="M158.581 175.531H71.6583C70.424 175.527 69.241 175.036 68.3681 174.164C67.4952 173.292 67.0033 172.11 67 170.877V128.56C67.0032 127.326 67.4949 126.145 68.3677 125.272C69.2405 124.4 70.4233 123.909 71.6577 123.905H158.58C159.815 123.909 160.997 124.4 161.87 125.272C162.743 126.144 163.235 127.326 163.239 128.559V170.876C163.235 172.11 162.744 173.291 161.871 174.164C160.998 175.036 159.815 175.527 158.581 175.531ZM71.6583 125.204C70.7682 125.206 69.9153 125.561 69.2859 126.19C68.6565 126.819 68.3019 127.671 68.2994 128.56V170.876C68.302 171.766 68.6568 172.618 69.2863 173.247C69.9158 173.876 70.7688 174.23 71.659 174.232H158.58C159.47 174.23 160.323 173.875 160.952 173.246C161.582 172.617 161.937 171.765 161.939 170.876V128.56C161.936 127.67 161.582 126.818 160.952 126.189C160.323 125.561 159.47 125.206 158.58 125.204L71.6583 125.204Z" fill="#3F3D56"/>
<path d="M119.778 169.277C102.635 169.277 84.7596 169.113 78.0901 169.007C77.2126 168.989 76.3769 168.629 75.7615 168.004C75.1462 167.378 74.7998 166.537 74.7964 165.66V130.632C74.7967 130.318 74.9215 130.016 75.1435 129.794C75.3654 129.572 75.6665 129.446 75.9808 129.445H154.255C154.569 129.446 154.87 129.57 155.093 129.792C155.315 130.014 155.441 130.314 155.442 130.628V154.395C155.427 158.274 153.891 161.994 151.164 164.755C148.436 167.516 144.734 169.099 140.852 169.164C134.636 169.245 127.275 169.277 119.778 169.277Z" fill="#07933C"/>
<path d="M149.608 152.211H78.8816C78.2894 152.21 77.712 152.026 77.228 151.685C76.744 151.344 76.3767 150.863 76.1762 150.306L68.171 127.867C68.0167 127.434 67.9686 126.971 68.0308 126.516C68.0929 126.061 68.2635 125.627 68.5281 125.251C68.7928 124.876 69.1438 124.569 69.5517 124.357C69.9596 124.145 70.4125 124.034 70.8723 124.033L159.279 123.91C159.7 123.91 160.115 124.001 160.496 124.178C160.877 124.356 161.214 124.614 161.484 124.936C161.754 125.258 161.95 125.635 162.059 126.04C162.167 126.446 162.185 126.871 162.112 127.284L162.18 127.313L161.926 127.905L161.924 127.911L152.246 150.472C152.026 150.988 151.658 151.429 151.189 151.738C150.72 152.047 150.17 152.212 149.608 152.211ZM159.283 125.208L70.8748 125.331C70.6229 125.332 70.3748 125.392 70.1514 125.509C69.9279 125.625 69.7356 125.793 69.5906 125.998C69.4456 126.204 69.3521 126.442 69.3181 126.691C69.284 126.94 69.3104 127.194 69.3949 127.431L77.3998 149.869C77.5098 150.174 77.7111 150.438 77.9764 150.625C78.2417 150.812 78.558 150.912 78.8826 150.913H149.608C149.916 150.913 150.217 150.823 150.473 150.654C150.73 150.485 150.931 150.244 151.052 149.961L160.729 127.399C160.832 127.16 160.874 126.899 160.85 126.64C160.827 126.381 160.74 126.132 160.597 125.915C160.454 125.698 160.259 125.519 160.029 125.396C159.8 125.273 159.544 125.208 159.283 125.208Z" fill="#07933C"/>
<path d="M114.987 157.096C118.046 157.096 120.525 154.618 120.525 151.562C120.525 148.506 118.046 146.029 114.987 146.029C111.929 146.029 109.449 148.506 109.449 151.562C109.449 154.618 111.929 157.096 114.987 157.096Z" fill="white"/>
<path d="M324.193 109.059C327.252 109.059 329.731 106.582 329.731 103.526C329.731 100.47 327.252 97.9924 324.193 97.9924C321.134 97.9924 318.655 100.47 318.655 103.526C318.655 106.582 321.134 109.059 324.193 109.059Z" fill="white"/>
<path d="M533.656 183.786L518.862 169.193C518.142 168.477 517.287 167.91 516.347 167.525C515.408 167.139 514.401 166.943 513.385 166.947H513.333C512.309 166.95 511.297 167.156 510.353 167.552C509.41 167.949 508.554 168.529 507.836 169.258C504.529 172.603 502.647 177.098 502.588 181.8C502.529 186.502 504.296 191.044 507.518 194.471C507.674 194.64 507.836 194.802 507.999 194.964C508.899 195.858 509.892 196.652 510.962 197.333C513.886 199.222 517.297 200.221 520.779 200.209H520.889C523.279 200.201 525.644 199.72 527.846 198.793C530.049 197.865 532.045 196.511 533.721 194.808C535.173 193.337 535.981 191.35 535.969 189.284C535.957 187.217 535.125 185.24 533.656 183.786ZM532.798 193.893C530.052 196.658 526.435 198.392 522.558 198.803C518.681 199.215 514.781 198.278 511.514 196.152C510.579 195.534 509.707 194.828 508.908 194.042C505.721 190.897 503.914 186.615 503.886 182.139C503.858 177.662 505.611 173.358 508.759 170.173C509.357 169.564 510.071 169.08 510.859 168.749C511.646 168.418 512.492 168.247 513.346 168.245H513.385C514.231 168.242 515.069 168.406 515.852 168.727C516.634 169.047 517.346 169.519 517.946 170.115L532.74 184.714C533.964 185.924 534.658 187.571 534.669 189.291C534.68 191.012 534.007 192.667 532.798 193.893Z" fill="#3F3D56"/>
<path d="M485.116 135.892L470.322 121.293C468.866 119.849 466.896 119.041 464.845 119.047H464.8C463.775 119.051 462.761 119.258 461.816 119.655C460.872 120.053 460.015 120.634 459.297 121.364C456.562 124.139 454.789 127.716 454.237 131.571C453.685 135.426 454.384 139.356 456.23 142.786L456.237 142.792C456.998 144.195 457.944 145.49 459.05 146.642C459.173 146.785 459.316 146.927 459.459 147.07C462.856 150.439 467.452 152.326 472.239 152.315H472.356C474.746 152.305 477.111 151.822 479.313 150.894C481.515 149.966 483.512 148.611 485.187 146.908C485.907 146.18 486.476 145.317 486.861 144.37C487.247 143.422 487.442 142.408 487.435 141.385C487.429 140.362 487.221 139.351 486.823 138.408C486.425 137.465 485.845 136.611 485.116 135.892ZM484.258 145.999C482.703 147.58 480.85 148.837 478.806 149.698C476.762 150.559 474.568 151.008 472.349 151.017H472.239C468.907 151.016 465.651 150.03 462.878 148.184C460.106 146.339 457.942 143.715 456.658 140.644C455.374 137.572 455.027 134.19 455.662 130.922C456.297 127.655 457.885 124.648 460.226 122.279C461.437 121.056 463.085 120.362 464.807 120.352C466.529 120.341 468.186 121.013 469.413 122.221L484.206 136.814C485.43 138.026 486.123 139.674 486.133 141.396C486.143 143.118 485.469 144.773 484.258 145.999Z" fill="#3F3D56"/>
<path d="M534.602 188.374L518.292 172.279C517.222 171.226 515.778 170.64 514.277 170.649C512.775 170.659 511.339 171.263 510.283 172.329C508.961 173.663 507.916 175.244 507.206 176.981C506.497 178.719 506.137 180.579 506.148 182.456C506.158 184.333 506.539 186.189 507.268 187.919C507.997 189.648 509.06 191.218 510.397 192.536C511.733 193.855 513.317 194.898 515.057 195.605C516.797 196.312 518.659 196.669 520.538 196.656C522.416 196.644 524.273 196.261 526.004 195.531C527.734 194.8 529.303 193.736 530.622 192.4L534.602 188.374Z" fill="#07933C"/>
<path d="M486.064 140.477L469.755 124.383C468.685 123.33 467.241 122.743 465.74 122.753C464.238 122.762 462.802 123.366 461.745 124.432C460.424 125.766 459.379 127.347 458.669 129.085C457.96 130.823 457.6 132.683 457.611 134.56C457.621 136.436 458.002 138.293 458.731 140.022C459.46 141.752 460.523 143.321 461.86 144.64C463.196 145.959 464.78 147.001 466.52 147.708C468.26 148.415 470.122 148.773 472.001 148.76C473.879 148.747 475.736 148.365 477.467 147.634C479.197 146.904 480.766 145.84 482.085 144.503L486.064 140.477Z" fill="#07933C"/>
<path d="M516.679 198.398L516.289 199.424C514.457 198.729 512.681 198.032 510.961 197.333C480.503 184.915 465.963 170.381 456.237 142.792L456.23 142.786C455.769 141.488 455.321 140.159 454.885 138.8L455.912 138.469C456.255 139.776 456.757 141.036 457.406 142.221C457.939 143.734 458.487 145.207 459.05 146.642C468.191 169.927 481.673 183.234 507.518 194.471C508.817 195.036 510.149 195.596 511.514 196.152C513.098 197.183 514.844 197.943 516.679 198.398Z" fill="#3F3D56"/>
<path d="M470.051 151.134L469.138 152.058L502.882 185.357L503.796 184.433L470.051 151.134Z" fill="#3F3D56"/>
<path d="M184.364 123.542L184.381 102.209L171.83 103.33L176.26 116.784L160.181 141.136C159.176 141.362 158.258 141.874 157.539 142.612C156.82 143.35 156.332 144.281 156.134 145.291C155.935 146.301 156.035 147.347 156.421 148.302C156.808 149.256 157.464 150.078 158.309 150.666C159.155 151.255 160.153 151.584 161.183 151.616C162.213 151.647 163.23 151.378 164.11 150.842C164.989 150.305 165.694 149.525 166.137 148.596C166.581 147.666 166.744 146.628 166.607 145.608L184.364 123.542Z" fill="#FFB6B6"/>
</g>
<defs>
<clipPath id="clip0_559_446">
<rect width="581" height="291" fill="white"/>
</clipPath>
</defs>
</svg>
