<svg width="30" height="30" viewBox="0 0 30 30" fill="none" xmlns="http://www.w3.org/2000/svg">
<g clip-path="url(#clip0_475_847)">
<path d="M22.125 22.5762C21.8906 22.9629 21.4863 23.1621 21.0762 23.1621C20.8477 23.1621 20.6309 23.1035 20.4316 22.9805L20.5781 23.0742C21.1641 23.4375 21.3398 24.2051 20.9824 24.7793C20.748 25.1602 20.3438 25.3652 19.9336 25.3652C19.7637 25.3652 19.5996 25.3301 19.4414 25.2598L19.4648 25.2832C20.0449 25.6406 20.2324 26.4082 19.8691 26.9883C19.6348 27.375 19.2305 27.5742 18.8145 27.5742C18.6035 27.5742 18.3867 27.5215 18.1934 27.4043C18.668 27.791 18.791 28.4707 18.457 29.0156C18.0879 29.6074 17.3203 29.7656 16.7578 29.4199L11.0215 25.8926L7.77539 24.416L6.67383 21.5801L0.755859 18.2168V8.98828L10.1602 14.0918L13.0195 12.3047L15.4219 12.9434L14.4609 16.5469L21.7266 20.877C22.3008 21.2285 22.4824 22.002 22.125 22.5762Z" fill="#FEDD8E"/>
<path d="M22.125 22.5762C21.9316 22.8926 21.6211 23.0859 21.293 23.1445C21.3809 22.6641 21.1699 22.1484 20.7246 21.873L13.459 17.543L14.4199 13.9395L12.8203 13.7988L9.96094 15.5859L0.755859 10.5293V8.98828L10.1602 14.0918L13.0195 12.3047L15.4219 12.9434L14.4609 16.5469L21.7266 20.877C22.3008 21.2285 22.4824 22.002 22.125 22.5762Z" fill="#FEE9B4"/>
<path d="M18.6152 28.5762C18.5918 28.7227 18.5332 28.875 18.4512 29.0098C18.082 29.6016 17.3145 29.7598 16.752 29.4141L11.0156 25.8867L7.76953 24.4102L6.66797 21.5742L0.75 18.2109V16.6465L7.67578 20.5781L8.77734 23.4141L12.0234 24.8906L17.7539 28.418C17.9531 28.541 18.1758 28.5996 18.4043 28.5996C18.4746 28.5996 18.5449 28.5938 18.6152 28.5762Z" fill="#FDD367"/>
<path d="M29.2441 6.61523V15.9199L24.6094 18.1465L21.7207 20.877L14.4551 16.5469L13.9805 17.9824C13.6289 19.0488 12.6797 19.7988 11.5488 19.8867L10.3066 19.916L12.1758 15.1348L15.4102 12.9375H18.2754L29.2441 6.61523Z" fill="#FEE9B4"/>
<path d="M29.2441 6.62109V8.20312L19.1074 14.0508H16.2363L13.002 16.2422L11.5781 19.875C11.5723 19.8809 11.6367 19.8809 10.3066 19.916L12.1758 15.1348L15.4102 12.9434H18.2812L29.2441 6.62109Z" fill="#FFF3D9"/>
<path d="M29.2441 14.4434V15.9199L24.6094 18.1406L21.7266 20.8711L20.502 20.1445L23.7891 17.0332L29.2441 14.4434Z" fill="#FEDD8E"/>
<path d="M9.3106 25.8399C9.20513 26.0215 8.97076 26.0801 8.78912 25.9747L7.35357 25.1309C7.17193 25.0254 7.11334 24.7911 7.21881 24.6094L8.06256 23.1739C8.16803 22.9922 8.4024 22.9337 8.58404 23.0391L10.0196 23.8829C10.2012 23.9883 10.2598 24.2227 10.1544 24.4044" fill="#FEE9B4"/>
<path d="M12.2169 25.6524L11.3731 27.0879C11.2676 27.2696 11.0333 27.3282 10.8516 27.2227L9.41607 26.379C9.23443 26.2735 9.17584 26.0391 9.28131 25.8575L10.1251 24.4219C10.2305 24.2403 10.4649 24.1817 10.6465 24.2872L12.0821 25.1309C12.2637 25.2364 12.3223 25.4708 12.2169 25.6524Z" fill="#FEE9B4"/>
<path d="M14.2794 26.9004L13.4356 28.336C13.3301 28.5176 13.0958 28.5762 12.9141 28.4708L11.4844 27.627C11.3028 27.5215 11.2442 27.2872 11.3497 27.1055L12.1934 25.67C12.2989 25.4883 12.5333 25.4297 12.7149 25.5352L14.1504 26.379C14.3262 26.4844 14.3848 26.7188 14.2794 26.9004Z" fill="#FEE9B4"/>
<path d="M16.3477 28.1485L15.504 29.584C15.3985 29.7657 15.1641 29.8243 14.9825 29.7188L13.5469 28.8751C13.3653 28.7696 13.3067 28.5352 13.4122 28.3536L14.2559 26.918C14.3614 26.7364 14.5958 26.6778 14.7774 26.7833L16.2129 27.627C16.3887 27.7325 16.4532 27.9669 16.3477 28.1485Z" fill="#FEE9B4"/>
<path d="M29.3613 6.42187C29.291 6.38086 29.2031 6.38086 29.1328 6.42187L18.2227 12.7148H15.4453C12.9961 12.0879 13.0371 12.0117 12.8848 12.1113L10.1484 13.8281L0.861328 8.78906C0.726563 8.70703 0.521484 8.80664 0.521484 8.99414V18.2578C0.521484 18.3809 0.621094 18.4863 0.75 18.4863L6.48633 21.75L7.3418 23.959L7.01953 24.5098C6.85547 24.791 6.9375 25.166 7.23633 25.3418L8.67188 26.1855C8.84766 26.291 9.0293 26.2617 9.03516 26.2617C9.08203 26.3965 9.16992 26.5137 9.29883 26.5898L10.7344 27.4336C10.9277 27.5449 11.0918 27.5098 11.0977 27.5098C11.1445 27.6445 11.2324 27.7617 11.3613 27.8379L12.7969 28.6816C12.9727 28.7871 13.1543 28.7578 13.1602 28.7578C13.207 28.8926 13.2949 29.0098 13.4238 29.0859L14.8594 29.9297C15.1523 30.0937 15.5156 30.0059 15.6855 29.7129L15.9727 29.2266L16.623 29.625C17.3027 30.0352 18.1992 29.8359 18.6328 29.1445C18.8906 28.7227 18.9199 28.2305 18.7441 27.8086C19.2832 27.8379 19.7695 27.5625 20.0449 27.1172C20.3145 26.6836 20.3555 26.1094 20.0625 25.5996C20.5137 25.5527 20.918 25.3066 21.1582 24.9141C21.457 24.4277 21.4453 23.8594 21.1816 23.3965C21.6445 23.3613 22.0605 23.1094 22.3066 22.7051C22.6816 22.1016 22.5586 21.3223 22.0605 20.8652L24.7266 18.3457L29.332 16.1367C29.4141 16.1016 29.4668 16.0195 29.4668 15.9258V6.61523C29.4727 6.5332 29.4316 6.46289 29.3613 6.42187ZM9.07617 25.7637C9 25.8105 8.94141 25.8047 8.90625 25.7754L7.4707 24.9316C7.40625 24.9023 7.36523 24.791 7.41797 24.7266L8.26172 23.291C8.29102 23.2266 8.40234 23.1855 8.4668 23.2383L9.90234 24.082C9.9668 24.1172 9.99024 24.1934 9.9668 24.2578C9.88477 24.3809 9.09375 25.7461 9.07617 25.7637ZM11.1445 27.0117C11.0684 27.0586 11.0098 27.0527 10.9746 27.0234L9.53906 26.1797C9.46875 26.1387 9.44531 26.0449 9.48633 25.9746L10.3301 24.5391C10.3652 24.4746 10.4766 24.4336 10.541 24.4863L11.9766 25.3301C12.041 25.3652 12.0645 25.4414 12.041 25.5059C12.0176 25.541 11.1445 26.9941 11.1445 27.0117ZM13.2012 28.2598C13.125 28.3066 13.0664 28.3008 13.0312 28.2715L11.6016 27.4336C11.5312 27.3926 11.5078 27.2988 11.5488 27.2285L12.3926 25.793C12.4277 25.7285 12.5391 25.6875 12.6035 25.7402L14.0391 26.584C14.1035 26.6133 14.1328 26.707 14.1035 26.7598C14.0391 26.8594 13.2129 28.248 13.2012 28.2598ZM16.1484 28.0312L15.3047 29.4668C15.2754 29.5312 15.1641 29.5723 15.0996 29.5195L13.6641 28.6758C13.5996 28.6465 13.5586 28.5352 13.6113 28.4707L14.4551 27.0352C14.5078 26.9531 14.6074 26.9414 14.6602 26.9824L16.0957 27.8262C16.1602 27.8555 16.1895 27.9434 16.1484 28.0312ZM21.9258 22.459C21.7441 22.7578 21.4277 22.9336 21.0703 22.9336C20.8828 22.9336 20.707 22.8809 20.543 22.7812H20.5371L18.1992 21.3809C18.0938 21.3164 17.9531 21.3516 17.8828 21.457C17.8184 21.5684 17.8535 21.709 17.959 21.7734C17.9707 21.7793 17.7656 21.6562 20.4492 23.2734C20.918 23.5605 21.0762 24.1699 20.7773 24.668C20.5957 24.9668 20.2734 25.1426 19.9219 25.1426C19.7812 25.1426 19.6582 25.1133 19.5293 25.0605L16.7754 23.3789C16.6699 23.3145 16.5293 23.3496 16.459 23.4551C16.3945 23.5605 16.4297 23.7012 16.5352 23.7715C16.541 23.7773 19.3242 25.4824 19.3301 25.4824C19.793 25.7695 19.9688 26.3789 19.6641 26.8711C19.4824 27.1699 19.1602 27.3457 18.8027 27.3457C18.627 27.3457 18.4512 27.2988 18.3047 27.2109L15.8027 25.623C15.6973 25.5527 15.5566 25.5879 15.4863 25.6934C15.416 25.7988 15.4512 25.9395 15.5566 26.0098L18.041 27.5918C18.4277 27.9141 18.5156 28.459 18.252 28.8984C17.9414 29.3965 17.3027 29.4961 16.8691 29.2266L16.2129 28.8223L16.541 28.2656C16.7109 27.9785 16.6113 27.6035 16.3242 27.4336L14.8887 26.5898C14.7715 26.5254 14.6484 26.4961 14.5254 26.5078C14.4785 26.373 14.3848 26.2559 14.2617 26.1797L12.8262 25.3359C12.7148 25.2715 12.5859 25.2422 12.457 25.2598C12.4102 25.125 12.3281 25.0078 12.1992 24.9316L10.7637 24.0879C10.6523 24.0234 10.5234 23.9941 10.4004 24.0059C10.3535 23.8711 10.2656 23.7539 10.1367 23.6777L8.70117 22.834C8.41992 22.6699 8.04492 22.752 7.86914 23.0508L7.64648 23.4316L6.89062 21.4863C6.87305 21.4395 6.83789 21.3984 6.79102 21.3691L0.984375 18.0703V9.36914C10.5234 14.4961 10.0547 14.4141 10.2773 14.2852L13.0488 12.5508L14.8711 13.0371L12.0527 14.9473C12.0117 14.9707 11.9824 15.0117 11.9707 15.0527L10.1016 19.834C10.0488 19.957 10.1133 20.1328 10.3184 20.1504L11.5723 20.1211C12.791 20.0273 13.8223 19.2188 14.2031 18.0586L14.584 16.8984L21.5977 21.0762C22.0664 21.3633 22.2246 21.9902 21.9258 22.459ZM29.0156 15.7734L24.5098 17.9355C24.4863 17.9473 24.4629 17.959 24.4453 17.9766L21.6855 20.584L14.8887 16.5352L16.6582 15.3984C16.7637 15.3281 16.793 15.1875 16.7285 15.082C16.6582 14.9766 16.5176 14.9473 16.4121 15.0117C14.0684 16.5059 14.291 16.3594 14.2324 16.4707L13.7578 17.9062C13.4355 18.8906 12.5625 19.5762 11.5371 19.6523L10.6406 19.6758L12.3574 15.2871L15.4746 13.1719C18.3809 13.1602 18.2754 13.2012 18.3867 13.1426L29.0039 7.01953V15.7734H29.0156Z" fill="#333333"/>
<path d="M18.4982 9.287C16.3712 11.2206 13.0841 11.0624 11.1505 8.93544C9.21691 6.80849 9.36925 3.51552 11.4962 1.58778C13.6232 -0.345811 16.9161 -0.187608 18.8497 1.93935C20.7833 4.0663 20.6251 7.35341 18.4982 9.287Z" fill="#7BDE9E"/>
<path d="M18.5039 9.28711C16.377 11.2207 13.084 11.0625 11.1504 8.94141C10.9512 8.72461 10.7812 8.50195 10.6289 8.26172C12.5977 9.89062 15.5039 9.87305 17.4492 8.10352C19.3594 6.36328 19.6816 3.52734 18.3164 1.42969C18.5039 1.58203 18.6855 1.75195 18.8555 1.93945C20.7832 4.06641 20.6309 7.35938 18.5039 9.28711Z" fill="#51D27F"/>
<path d="M19.3712 2.61327C17.4025 0.984367 14.4962 1.00194 12.5567 2.77148C10.6466 4.50585 10.3243 7.34179 11.6837 9.4453C11.4962 9.2871 11.3204 9.11718 11.1505 8.93554C9.21691 6.80859 9.36925 3.51562 11.4962 1.58788C13.6232 -0.345712 16.9161 -0.193368 18.8497 1.93944C19.0431 2.15624 19.2189 2.3789 19.3712 2.61327Z" fill="#A7EABF"/>
<path d="M10.9747 9.09955C8.97665 6.89643 9.08798 3.45697 11.338 1.41205C13.5587 -0.603575 17.004 -0.439513 19.0255 1.78119C21.0352 3.97846 20.8946 7.43549 18.6563 9.46869C16.4122 11.5019 12.9727 11.291 10.9747 9.09955ZM11.6544 1.76361C9.62704 3.60932 9.4747 6.74994 11.3263 8.78314C13.1661 10.8105 16.3184 10.9628 18.3399 9.11713C20.3556 7.289 20.5431 4.14252 18.6739 2.10346C16.8458 0.0819716 13.6934 -0.0879503 11.6544 1.76361Z" fill="#333333"/>
<path d="M13.9277 7.81641C13.7402 7.81641 13.5645 7.74023 13.4297 7.61133L12.2168 6.39844C11.9414 6.12305 11.9414 5.67773 12.2168 5.4082C12.4922 5.13281 12.9375 5.13281 13.207 5.4082L13.9219 6.12305L16.7812 3.26367C17.0566 2.98828 17.4961 2.98828 17.7715 3.26367C18.0469 3.53906 18.0469 3.97852 17.7715 4.25391L14.4199 7.60547C14.291 7.74023 14.1152 7.81641 13.9277 7.81641Z" fill="#FC8A8A"/>
<path d="M17.7773 4.25391L17.1797 4.85156C17.4551 4.58203 17.4551 4.13672 17.1797 3.86133C16.9043 3.5918 16.4648 3.5918 16.1895 3.86133L16.7871 3.26367C17.0625 2.98828 17.5078 2.98828 17.7773 3.26367C18.0527 3.53906 18.0527 3.97852 17.7773 4.25391Z" fill="#F96364"/>
<path d="M14.8711 7.16016L14.4258 7.60547C14.1621 7.86914 13.7285 7.88672 13.4355 7.60547L12.2227 6.39258C11.9473 6.12305 11.9473 5.67773 12.2227 5.40234C12.3047 5.32031 12.3984 5.26172 12.5039 5.23242C12.4219 5.47852 12.4805 5.75391 12.6738 5.94727L13.8867 7.16016C14.0156 7.28906 14.1973 7.36523 14.3848 7.36523C14.5605 7.36523 14.7422 7.29492 14.8711 7.16016Z" fill="#FCB0B0"/>
<path d="M13.2656 7.77539L12.0527 6.5625C11.6836 6.19336 11.6836 5.60742 12.0527 5.23828C12.4043 4.88672 13.0254 4.88672 13.377 5.23828L13.9277 5.78906L16.6172 3.09961C16.9863 2.73047 17.5723 2.73047 17.9414 3.09961C18.3105 3.46875 18.3105 4.05469 17.9414 4.42383L14.5898 7.77539C14.2148 8.15039 13.623 8.13281 13.2656 7.77539ZM12.3867 5.56641C12.2051 5.74805 12.2051 6.04102 12.3867 6.22266L13.5996 7.43555C13.7754 7.61133 14.0859 7.61133 14.2617 7.43555L17.6133 4.08398C17.7949 3.90234 17.7949 3.60937 17.6133 3.42773C17.4375 3.25195 17.127 3.25195 16.9512 3.42773L14.0918 6.28711C14.0449 6.33398 13.9863 6.35742 13.9277 6.35742C13.8633 6.35742 13.8047 6.33398 13.7637 6.28711L13.0488 5.57227C12.8379 5.37305 12.5566 5.39648 12.3867 5.56641Z" fill="#333333"/>
</g>
<defs>
<clipPath id="clip0_475_847">
<rect width="30" height="30" fill="white"/>
</clipPath>
</defs>
</svg>
