<svg width="11" height="10" viewBox="0 0 11 10" fill="none" xmlns="http://www.w3.org/2000/svg">
<path d="M0.0227426 2.32092C0.0994328 2.86703 0.386198 3.36166 0.822012 3.69957C1.25783 4.03747 1.80829 4.19198 2.35629 4.13023C2.46748 4.11592 2.5773 4.09244 2.68462 4.06001L7.0737 10L10.8714 8.83339L3.97911 1.34635C3.8102 0.911767 3.50218 0.545321 3.10311 0.304204C2.70404 0.0630878 2.23638 -0.039129 1.7731 0.0134912C1.50978 0.0459644 1.25544 0.129984 1.02458 0.260755C0.793728 0.391527 0.590878 0.566482 0.427642 0.775643C0.264405 0.984804 0.143979 1.22407 0.0732104 1.47978C0.00244185 1.73549 -0.0172879 2.00262 0.0151854 2.26595C0.017457 2.2843 0.0199853 2.30263 0.0227426 2.32092Z" fill="#FFB6B6"/>
</svg>
