<svg width="256" height="223" viewBox="0 0 256 223" fill="none" xmlns="http://www.w3.org/2000/svg">
<path d="M226.54 148.149L226.1 152.116L233.779 143.099C234.698 143.195 235.62 143.245 236.544 143.246" stroke="#263238" stroke-linecap="round" stroke-linejoin="round"/>
<path d="M216.919 120.785C215.91 122.314 215.278 124.062 215.074 125.886C214.346 132.477 219.492 138.712 227.267 141.597L226.872 145.139" stroke="#263238" stroke-linecap="round" stroke-linejoin="round"/>
<path d="M219.904 117.503C219.404 117.91 218.929 118.347 218.482 118.812" stroke="#263238" stroke-linecap="round" stroke-linejoin="round"/>
<path d="M248.704 117.503C245.198 115.09 241.145 113.601 236.916 113.173C232.448 112.623 227.914 113.292 223.792 115.111" stroke="#263238" stroke-linecap="round" stroke-linejoin="round"/>
<path d="M241.887 142.713C249.223 141.189 254.781 136.479 255.429 130.369C255.903 126.095 253.912 121.975 250.351 118.812" stroke="#263238" stroke-linecap="round" stroke-linejoin="round"/>
<path d="M223.798 121.884C224.419 122 225.056 121.992 225.674 121.86C226.292 121.728 226.878 121.474 227.398 121.113L230.14 123.25C229.948 123.312 229.965 122.904 230.168 122.893C230.371 122.882 230.524 123.069 230.665 123.216C231.308 123.902 232.391 123.925 233.311 123.726C234.231 123.528 235.128 123.159 236.065 123.193C236.622 123.252 237.169 123.379 237.695 123.573C241.465 124.746 245.386 125.336 249.291 125.914" stroke="#263238" stroke-linecap="round" stroke-linejoin="round"/>
<path d="M220.559 125.914C221.123 125.88 224.266 125.914 224.717 125.534L225.485 126.878L226.331 126.056C226.478 126.622 226.625 127.189 226.766 127.722C227.403 127.875 227.33 126.639 227.894 126.271C228.068 126.186 228.267 126.169 228.452 126.225C228.637 126.28 228.795 126.404 228.893 126.571C229.078 126.92 229.167 127.311 229.152 127.705L233.012 128.022L233.762 128.085C234.031 127.674 234.428 127.365 234.891 127.206C234.75 128.102 235.873 128.612 236.764 128.793C241.154 129.693 245.567 130.469 250.002 131.123" stroke="#263238" stroke-linecap="round" stroke-linejoin="round"/>
<path d="M222.274 132.069C222.629 132.319 223.064 131.854 223.498 131.797C223.933 131.74 224.288 132.069 224.672 132.268C225.056 132.466 225.688 132.381 225.71 131.95C225.801 132.517 226.5 132.721 227.07 132.8L241.888 134.892" stroke="#263238" stroke-linecap="round" stroke-linejoin="round"/>
<path d="M24.006 112.708L29.942 120.734L28.7514 110.231C30.1707 109.539 31.528 108.725 32.8084 107.8C38.8911 103.379 41.34 96.2655 39.1112 90.5353C37.5482 86.5338 33.8862 83.8132 29.2593 82.6853" stroke="#263238" stroke-linecap="round" stroke-linejoin="round"/>
<path d="M0.561061 100.046C0.376075 101.864 0.62362 103.699 1.28331 105.402C3.68704 111.58 11.1239 114.697 19.3395 113.62" stroke="#263238" stroke-linecap="round" stroke-linejoin="round"/>
<path d="M1.68378 95.744C1.43175 96.339 1.21507 96.9484 1.03488 97.5691" stroke="#263238" stroke-linecap="round" stroke-linejoin="round"/>
<path d="M27.1884 82.2999C22.9667 81.793 18.6859 82.3622 14.7409 83.9549C10.5303 85.5542 6.82678 88.2641 4.02003 91.7992" stroke="#263238" stroke-linecap="round" stroke-linejoin="round"/>
<path d="M7.157 97.8015C8.37083 97.4212 9.38527 96.5734 9.97828 95.4436L13.3638 96.0558C13.2171 96.1975 13.0478 95.8291 13.2227 95.7214C13.3977 95.6137 13.6177 95.7214 13.787 95.778C14.6785 96.0841 15.6434 95.6023 16.3657 94.9959C17.0879 94.3894 17.7086 93.6356 18.5606 93.2388C19.0811 93.0299 19.6248 92.8853 20.18 92.8081C24.0621 92.0939 27.8031 90.779 31.5328 89.4697" stroke="#263238" stroke-linecap="round" stroke-linejoin="round"/>
<path d="M6.15297 102.885C6.65516 102.585 9.43694 101.151 9.66264 100.618L10.9661 101.451C11.0902 101.077 11.2143 100.698 11.3328 100.318L12.4896 101.593C13.1272 101.434 12.4896 100.375 12.7943 99.7965C12.9078 99.6395 13.0764 99.5317 13.266 99.4949C13.4556 99.4581 13.652 99.495 13.8156 99.5981C14.1378 99.8153 14.3968 100.115 14.566 100.465L18.1265 98.9463L18.8262 98.6516C18.8662 98.1648 19.0645 97.7048 19.3904 97.3423C19.6838 98.2095 20.9139 98.1301 21.7828 97.8751C26.09 96.6282 30.3577 95.2565 34.5858 93.7602" stroke="#263238" stroke-linecap="round" stroke-linejoin="round"/>
<path d="M10.5202 107.533C10.9547 107.59 11.124 106.966 11.4795 106.717C11.835 106.468 12.3089 106.598 12.7378 106.587C13.1666 106.575 13.6914 106.218 13.5108 105.827C13.855 106.286 14.5716 106.139 15.1076 105.946L29.214 100.873" stroke="#263238" stroke-linecap="round" stroke-linejoin="round"/>
<path d="M196.064 15.4703H55.3727C52.6335 15.4703 50.4129 17.7009 50.4129 20.4524V147.764C50.4129 150.515 52.6335 152.746 55.3727 152.746H196.064C198.803 152.746 201.024 150.515 201.024 147.764V20.4524C201.024 17.7009 198.803 15.4703 196.064 15.4703Z" fill="#92E3A9"/>
<mask id="mask0_169_2440" style="mask-type:luminance" maskUnits="userSpaceOnUse" x="50" y="15" width="152" height="138">
<path d="M196.064 15.4703H55.3727C52.6335 15.4703 50.4129 17.7009 50.4129 20.4524V147.764C50.4129 150.515 52.6335 152.746 55.3727 152.746H196.064C198.803 152.746 201.024 150.515 201.024 147.764V20.4524C201.024 17.7009 198.803 15.4703 196.064 15.4703Z" fill="white"/>
</mask>
<g mask="url(#mask0_169_2440)">
<path opacity="0.2" d="M201.024 90.6657V147.911C201.024 149.192 200.518 150.421 199.616 151.328C198.715 152.234 197.492 152.744 196.217 152.746H55.226C53.9495 152.746 52.7253 152.236 51.8227 151.33C50.92 150.423 50.4129 149.193 50.4129 147.911V136.575H50.712V144.216C50.712 144.942 50.8545 145.661 51.1313 146.332C51.4081 147.002 51.8139 147.612 52.3253 148.125C52.8368 148.638 53.4439 149.045 54.1121 149.323C54.7802 149.6 55.4962 149.742 56.2191 149.742H192.425C193.148 149.742 193.864 149.6 194.532 149.323C195.2 149.045 195.807 148.638 196.319 148.125C196.83 147.612 197.236 147.002 197.513 146.332C197.789 145.661 197.932 144.942 197.932 144.216V99.1562C197.932 98.1355 197.528 97.1566 196.81 96.4349C196.091 95.7132 195.117 95.3077 194.101 95.3077H50.4129V90.6657H201.024Z" fill="black"/>
</g>
<path d="M196.064 15.4703H55.3727C52.6335 15.4703 50.4129 17.7009 50.4129 20.4524V147.764C50.4129 150.515 52.6335 152.746 55.3727 152.746H196.064C198.803 152.746 201.024 150.515 201.024 147.764V20.4524C201.024 17.7009 198.803 15.4703 196.064 15.4703Z" stroke="#263238" stroke-linecap="round" stroke-linejoin="round"/>
<path d="M187.911 106.966V100.409C187.911 100.09 187.849 99.7742 187.728 99.4795C187.607 99.1849 187.429 98.9172 187.205 98.6917C186.981 98.4663 186.714 98.2877 186.421 98.166C186.127 98.0444 185.813 97.9822 185.496 97.9829H65.9412C65.3007 97.9829 64.6864 98.2385 64.2335 98.6934C63.7806 99.1483 63.5262 99.7654 63.5262 100.409V106.966C63.5262 107.61 63.2718 108.227 62.8189 108.682C62.366 109.137 61.7517 109.392 61.1112 109.392C60.4692 109.392 59.8535 109.648 59.3995 110.104C58.9456 110.56 58.6905 111.179 58.6905 111.824V124.763C58.6905 127.747 59.8706 130.609 61.9711 132.719C64.0716 134.829 66.9205 136.014 69.891 136.014C70.3684 136.014 70.8262 136.205 71.1638 136.544C71.5013 136.883 71.691 137.343 71.691 137.822V141.699C71.691 143.13 72.2569 144.502 73.2643 145.514C74.2717 146.526 75.638 147.095 77.0627 147.095H174.374C175.799 147.095 177.165 146.526 178.173 145.514C179.18 144.502 179.746 143.13 179.746 141.699V137.822C179.746 137.343 179.936 136.883 180.273 136.544C180.611 136.205 181.069 136.014 181.546 136.014C183.017 136.014 184.473 135.723 185.832 135.158C187.191 134.592 188.426 133.764 189.466 132.719C190.506 131.674 191.331 130.434 191.894 129.069C192.457 127.704 192.746 126.241 192.746 124.763V111.824C192.746 111.18 192.492 110.562 192.039 110.106C191.587 109.651 190.972 109.394 190.331 109.392C189.69 109.392 189.075 109.137 188.622 108.682C188.168 108.227 187.912 107.61 187.911 106.966Z" fill="#263238"/>
<path d="M72.6843 101.695H68.5031C67.9913 101.695 67.5005 101.899 67.1386 102.263C66.7767 102.626 66.5734 103.12 66.5734 103.634V104.711C66.5734 106.944 68.3733 109.778 70.5965 109.778C72.8197 109.778 74.6197 106.944 74.6197 104.711V103.634C74.6182 103.119 74.4136 102.626 74.0508 102.263C73.688 101.899 73.1966 101.695 72.6843 101.695Z" fill="#92E3A9" stroke="#263238" stroke-linecap="round" stroke-linejoin="round"/>
<path d="M82.6885 101.695H78.5074C77.9951 101.695 77.5037 101.899 77.1409 102.263C76.7781 102.626 76.5735 103.119 76.572 103.634V104.711C76.572 106.944 78.372 109.778 80.5951 109.778C82.8183 109.778 84.6183 106.944 84.6183 104.711V103.634C84.6183 103.12 84.415 102.626 84.0531 102.263C83.6912 101.899 83.2003 101.695 82.6885 101.695Z" fill="#92E3A9" stroke="#263238" stroke-linecap="round" stroke-linejoin="round"/>
<path d="M92.7325 101.695H88.5513C88.0395 101.695 87.5487 101.899 87.1868 102.263C86.8249 102.626 86.6216 103.12 86.6216 103.634V104.711C86.6216 106.944 88.4216 109.778 90.6391 109.778C92.8566 109.778 94.6622 106.944 94.6622 104.711V103.634C94.6622 103.12 94.4589 102.626 94.097 102.263C93.7351 101.899 93.2443 101.695 92.7325 101.695Z" fill="#92E3A9" stroke="#263238" stroke-linecap="round" stroke-linejoin="round"/>
<path d="M102.754 101.695H98.5725C98.0607 101.695 97.5699 101.899 97.208 102.263C96.8461 102.626 96.6428 103.12 96.6428 103.634V104.711C96.6428 106.944 98.4427 109.778 100.666 109.778C102.889 109.778 104.683 106.944 104.683 104.711V103.634C104.683 103.379 104.633 103.127 104.537 102.892C104.44 102.657 104.297 102.443 104.118 102.263C103.939 102.083 103.726 101.94 103.492 101.843C103.258 101.745 103.007 101.695 102.754 101.695Z" fill="#92E3A9" stroke="#263238" stroke-linecap="round" stroke-linejoin="round"/>
<path d="M112.774 101.695H108.593C108.081 101.695 107.591 101.899 107.229 102.263C106.867 102.626 106.663 103.12 106.663 103.634V104.711C106.663 106.944 108.463 109.778 110.687 109.778C112.91 109.778 114.71 106.944 114.71 104.711V103.634C114.708 103.119 114.504 102.626 114.141 102.263C113.778 101.899 113.287 101.695 112.774 101.695Z" fill="#92E3A9" stroke="#263238" stroke-linecap="round" stroke-linejoin="round"/>
<path d="M122.802 101.695H118.62C118.108 101.695 117.617 101.899 117.254 102.263C116.891 102.626 116.687 103.119 116.685 103.634V104.711C116.685 106.944 118.485 109.778 120.708 109.778C122.931 109.778 124.731 106.944 124.731 104.711V103.634C124.731 103.12 124.528 102.626 124.166 102.263C123.804 101.899 123.313 101.695 122.802 101.695Z" fill="#92E3A9" stroke="#263238" stroke-linecap="round" stroke-linejoin="round"/>
<path d="M132.823 101.695H128.641C128.13 101.695 127.639 101.899 127.277 102.263C126.915 102.626 126.712 103.12 126.712 103.634V104.711C126.712 106.944 128.512 109.778 130.729 109.778C132.947 109.778 134.752 106.944 134.752 104.711V103.634C134.752 103.12 134.549 102.626 134.187 102.263C133.825 101.899 133.334 101.695 132.823 101.695Z" fill="#92E3A9" stroke="#263238" stroke-linecap="round" stroke-linejoin="round"/>
<path d="M142.844 101.695H138.663C138.151 101.695 137.66 101.899 137.298 102.263C136.936 102.626 136.733 103.12 136.733 103.634V104.711C136.733 106.944 138.533 109.778 140.756 109.778C142.979 109.778 144.773 106.944 144.773 104.711V103.634C144.773 103.12 144.57 102.626 144.208 102.263C143.846 101.899 143.356 101.695 142.844 101.695Z" fill="#92E3A9" stroke="#263238" stroke-linecap="round" stroke-linejoin="round"/>
<path d="M152.865 101.695H148.706C148.453 101.695 148.202 101.745 147.968 101.843C147.734 101.94 147.521 102.083 147.342 102.263C147.163 102.443 147.02 102.657 146.923 102.892C146.826 103.127 146.777 103.379 146.777 103.634V104.711C146.777 106.944 148.577 109.778 150.8 109.778C153.023 109.778 154.823 106.944 154.823 104.711V103.634C154.822 103.377 154.771 103.123 154.672 102.886C154.573 102.649 154.428 102.435 154.246 102.255C154.064 102.074 153.848 101.932 153.611 101.836C153.374 101.74 153.12 101.692 152.865 101.695Z" fill="#92E3A9" stroke="#263238" stroke-linecap="round" stroke-linejoin="round"/>
<path d="M162.892 101.695H158.711C158.198 101.695 157.707 101.899 157.344 102.263C156.981 102.626 156.777 103.119 156.775 103.634V104.711C156.775 106.944 158.575 109.778 160.798 109.778C163.021 109.778 164.821 106.944 164.821 104.711V103.634C164.821 103.12 164.618 102.626 164.256 102.263C163.894 101.899 163.404 101.695 162.892 101.695Z" fill="#92E3A9" stroke="#263238" stroke-linecap="round" stroke-linejoin="round"/>
<path d="M172.913 101.695H168.732C168.22 101.695 167.729 101.899 167.367 102.263C167.006 102.626 166.802 103.12 166.802 103.634V104.711C166.802 106.944 168.602 109.778 170.82 109.778C173.037 109.778 174.843 106.944 174.843 104.711V103.634C174.843 103.12 174.64 102.626 174.278 102.263C173.916 101.899 173.425 101.695 172.913 101.695Z" fill="#92E3A9" stroke="#263238" stroke-linecap="round" stroke-linejoin="round"/>
<path d="M182.934 101.695H178.753C178.241 101.695 177.751 101.899 177.389 102.263C177.027 102.626 176.823 103.12 176.823 103.634V104.711C176.823 106.938 178.612 109.772 180.869 109.772C183.126 109.772 184.887 106.938 184.887 104.705V103.628C184.886 103.372 184.835 103.119 184.736 102.883C184.637 102.647 184.493 102.433 184.311 102.253C184.13 102.073 183.915 101.931 183.678 101.836C183.442 101.74 183.189 101.692 182.934 101.695Z" fill="#92E3A9" stroke="#263238" stroke-linecap="round" stroke-linejoin="round"/>
<path d="M72.6843 123.029H68.5031C67.9913 123.029 67.5005 123.233 67.1386 123.597C66.7767 123.96 66.5734 124.453 66.5734 124.967V126.044C66.5734 128.277 68.3733 131.111 70.5965 131.111C72.8197 131.111 74.6197 128.277 74.6197 126.044V124.967C74.6182 124.453 74.4136 123.96 74.0508 123.596C73.688 123.233 73.1966 123.029 72.6843 123.029Z" fill="#92E3A9" stroke="#263238" stroke-linecap="round" stroke-linejoin="round"/>
<path d="M82.6885 123.029H78.5074C77.9951 123.029 77.5037 123.233 77.1409 123.596C76.7781 123.96 76.5735 124.453 76.572 124.967V126.044C76.572 128.277 78.372 131.111 80.5951 131.111C82.8183 131.111 84.6183 128.277 84.6183 126.044V124.967C84.6183 124.453 84.415 123.96 84.0531 123.597C83.6912 123.233 83.2003 123.029 82.6885 123.029Z" fill="#92E3A9" stroke="#263238" stroke-linecap="round" stroke-linejoin="round"/>
<path d="M92.7325 123.029H88.5513C88.0395 123.029 87.5487 123.233 87.1868 123.597C86.8249 123.96 86.6216 124.453 86.6216 124.967V126.044C86.6216 128.277 88.4216 131.111 90.6391 131.111C92.8566 131.111 94.6622 128.277 94.6622 126.044V124.967C94.6622 124.453 94.4589 123.96 94.097 123.597C93.7351 123.233 93.2443 123.029 92.7325 123.029Z" fill="#92E3A9" stroke="#263238" stroke-linecap="round" stroke-linejoin="round"/>
<path d="M102.754 123.029H98.5725C98.0607 123.029 97.5699 123.233 97.208 123.597C96.8461 123.96 96.6428 124.453 96.6428 124.967V126.044C96.6428 128.277 98.4427 131.111 100.666 131.111C102.889 131.111 104.683 128.277 104.683 126.044V124.967C104.683 124.713 104.633 124.461 104.537 124.226C104.44 123.991 104.297 123.777 104.118 123.597C103.939 123.417 103.726 123.274 103.492 123.177C103.258 123.079 103.007 123.029 102.754 123.029Z" fill="#92E3A9" stroke="#263238" stroke-linecap="round" stroke-linejoin="round"/>
<path d="M112.774 123.029H108.593C108.081 123.029 107.591 123.233 107.229 123.597C106.867 123.96 106.663 124.453 106.663 124.967V126.044C106.663 128.277 108.463 131.111 110.687 131.111C112.91 131.111 114.71 128.277 114.71 126.044V124.967C114.708 124.453 114.504 123.96 114.141 123.596C113.778 123.233 113.287 123.029 112.774 123.029Z" fill="#92E3A9" stroke="#263238" stroke-linecap="round" stroke-linejoin="round"/>
<path d="M122.802 123.029H118.62C118.108 123.029 117.617 123.233 117.254 123.596C116.891 123.96 116.687 124.453 116.685 124.967V126.044C116.685 128.277 118.485 131.111 120.708 131.111C122.931 131.111 124.731 128.277 124.731 126.044V124.967C124.731 124.453 124.528 123.96 124.166 123.597C123.804 123.233 123.313 123.029 122.802 123.029Z" fill="#92E3A9" stroke="#263238" stroke-linecap="round" stroke-linejoin="round"/>
<path d="M132.823 123.029H128.641C128.13 123.029 127.639 123.233 127.277 123.597C126.915 123.96 126.712 124.453 126.712 124.967V126.044C126.712 128.277 128.512 131.111 130.729 131.111C132.947 131.111 134.752 128.277 134.752 126.044V124.967C134.752 124.453 134.549 123.96 134.187 123.597C133.825 123.233 133.334 123.029 132.823 123.029Z" fill="#92E3A9" stroke="#263238" stroke-linecap="round" stroke-linejoin="round"/>
<path d="M142.844 123.029H138.663C138.151 123.029 137.66 123.233 137.298 123.597C136.936 123.96 136.733 124.453 136.733 124.967V126.044C136.733 128.277 138.533 131.111 140.756 131.111C142.979 131.111 144.773 128.277 144.773 126.044V124.967C144.773 124.453 144.57 123.96 144.208 123.597C143.846 123.233 143.356 123.029 142.844 123.029Z" fill="#92E3A9" stroke="#263238" stroke-linecap="round" stroke-linejoin="round"/>
<path d="M152.865 123.029H148.706C148.453 123.029 148.202 123.079 147.968 123.177C147.734 123.274 147.521 123.417 147.342 123.597C147.163 123.777 147.02 123.991 146.923 124.226C146.826 124.461 146.777 124.713 146.777 124.967V126.044C146.777 128.278 148.577 131.111 150.8 131.111C153.023 131.111 154.823 128.278 154.823 126.044V124.967C154.822 124.711 154.771 124.457 154.672 124.22C154.573 123.983 154.428 123.769 154.246 123.588C154.064 123.408 153.848 123.266 153.611 123.17C153.374 123.074 153.12 123.026 152.865 123.029Z" fill="#92E3A9" stroke="#263238" stroke-linecap="round" stroke-linejoin="round"/>
<path d="M162.892 123.029H158.711C158.198 123.029 157.707 123.233 157.344 123.596C156.981 123.96 156.777 124.453 156.775 124.967V126.044C156.775 128.277 158.575 131.111 160.798 131.111C163.021 131.111 164.821 128.277 164.821 126.044V124.967C164.821 124.453 164.618 123.96 164.256 123.597C163.894 123.233 163.404 123.029 162.892 123.029Z" fill="#92E3A9" stroke="#263238" stroke-linecap="round" stroke-linejoin="round"/>
<path d="M172.913 123.029H168.732C168.22 123.029 167.729 123.233 167.367 123.597C167.006 123.96 166.802 124.453 166.802 124.967V126.044C166.802 128.277 168.602 131.111 170.82 131.111C173.037 131.111 174.843 128.277 174.843 126.044V124.967C174.843 124.453 174.64 123.96 174.278 123.597C173.916 123.233 173.425 123.029 172.913 123.029Z" fill="#92E3A9" stroke="#263238" stroke-linecap="round" stroke-linejoin="round"/>
<path d="M182.934 123.029H178.753C178.241 123.029 177.751 123.233 177.389 123.597C177.027 123.96 176.823 124.453 176.823 124.967V126.044C176.823 128.277 178.623 131.111 180.847 131.111C183.07 131.111 184.864 128.277 184.864 126.044V124.967C184.864 124.453 184.661 123.96 184.299 123.597C183.937 123.233 183.446 123.029 182.934 123.029Z" fill="#92E3A9" stroke="#263238" stroke-linecap="round" stroke-linejoin="round"/>
<path d="M67.6734 112.708H63.5036C62.9918 112.708 62.5009 112.912 62.139 113.276C61.7771 113.639 61.5738 114.132 61.5738 114.646V115.723C61.5738 117.951 63.3738 120.79 65.5969 120.79C67.8201 120.79 69.6144 117.956 69.6144 115.723V114.646C69.6145 114.391 69.5642 114.138 69.4665 113.902C69.3688 113.666 69.2256 113.452 69.0452 113.272C68.8649 113.092 68.6508 112.949 68.4154 112.852C68.1799 112.756 67.9278 112.706 67.6734 112.708Z" fill="#92E3A9" stroke="#263238" stroke-linecap="round" stroke-linejoin="round"/>
<path d="M77.6946 112.708H73.5135C73.0017 112.708 72.5108 112.912 72.1489 113.276C71.787 113.639 71.5837 114.132 71.5837 114.646V115.723C71.5837 117.951 73.3837 120.79 75.6068 120.79C77.83 120.79 79.63 117.956 79.63 115.723V114.646C79.6285 114.132 79.4239 113.639 79.0611 113.275C78.6983 112.912 78.2069 112.708 77.6946 112.708Z" fill="#92E3A9" stroke="#263238" stroke-linecap="round" stroke-linejoin="round"/>
<path d="M87.7219 112.708H83.5408C83.0284 112.708 82.537 112.912 82.1742 113.275C81.8114 113.639 81.6069 114.132 81.6054 114.646V115.723C81.6054 117.951 83.411 120.79 85.6285 120.79C87.846 120.79 89.6517 117.956 89.6517 115.723V114.646C89.6517 114.132 89.4483 113.639 89.0864 113.276C88.7245 112.912 88.2337 112.708 87.7219 112.708Z" fill="#92E3A9" stroke="#263238" stroke-linecap="round" stroke-linejoin="round"/>
<path d="M97.7428 112.708H93.5617C93.0499 112.708 92.559 112.912 92.1971 113.276C91.8352 113.639 91.6319 114.132 91.6319 114.646V115.723C91.6319 117.951 93.4319 120.79 95.6494 120.79C97.867 120.79 99.6726 117.956 99.6726 115.723V114.646C99.6726 114.392 99.6226 114.14 99.5257 113.905C99.4287 113.669 99.2866 113.456 99.1074 113.276C98.9282 113.096 98.7154 112.953 98.4813 112.855C98.2472 112.758 97.9962 112.708 97.7428 112.708Z" fill="#92E3A9" stroke="#263238" stroke-linecap="round" stroke-linejoin="round"/>
<path d="M107.764 112.708H103.566C103.054 112.708 102.563 112.912 102.201 113.276C101.839 113.639 101.636 114.132 101.636 114.646V115.723C101.636 117.951 103.436 120.79 105.659 120.79C107.882 120.79 109.677 117.956 109.677 115.723V114.646C109.677 114.135 109.476 113.645 109.117 113.282C108.759 112.919 108.273 112.712 107.764 112.708Z" fill="#92E3A9" stroke="#263238" stroke-linecap="round" stroke-linejoin="round"/>
<path d="M117.785 112.708H113.604C113.092 112.708 112.601 112.912 112.239 113.276C111.878 113.639 111.674 114.132 111.674 114.646V115.723C111.674 117.951 113.474 120.79 115.697 120.79C117.921 120.79 119.721 117.956 119.721 115.723V114.646C119.719 114.132 119.514 113.639 119.152 113.275C118.789 112.912 118.297 112.708 117.785 112.708Z" fill="#92E3A9" stroke="#263238" stroke-linecap="round" stroke-linejoin="round"/>
<path d="M127.829 112.708H123.648C123.136 112.708 122.644 112.912 122.281 113.275C121.919 113.639 121.714 114.132 121.713 114.646V115.723C121.713 117.951 123.518 120.79 125.736 120.79C127.953 120.79 129.759 117.956 129.759 115.723V114.646C129.759 114.132 129.556 113.639 129.194 113.276C128.832 112.912 128.341 112.708 127.829 112.708Z" fill="#92E3A9" stroke="#263238" stroke-linecap="round" stroke-linejoin="round"/>
<path d="M137.833 112.708H133.652C133.14 112.708 132.65 112.912 132.288 113.276C131.926 113.639 131.722 114.132 131.722 114.646V115.723C131.722 117.951 133.522 120.79 135.74 120.79C137.958 120.79 139.763 117.956 139.763 115.723V114.646C139.763 114.132 139.56 113.639 139.198 113.276C138.836 112.912 138.345 112.708 137.833 112.708Z" fill="#92E3A9" stroke="#263238" stroke-linecap="round" stroke-linejoin="round"/>
<path d="M147.854 112.708H143.673C143.161 112.708 142.67 112.912 142.308 113.276C141.946 113.639 141.743 114.132 141.743 114.646V115.723C141.743 117.951 143.543 120.79 145.766 120.79C147.989 120.79 149.784 117.956 149.784 115.723V114.646C149.784 114.132 149.58 113.639 149.219 113.276C148.857 112.912 148.366 112.708 147.854 112.708Z" fill="#92E3A9" stroke="#263238" stroke-linecap="round" stroke-linejoin="round"/>
<path d="M157.876 112.708H153.695C153.183 112.708 152.692 112.912 152.33 113.276C151.968 113.639 151.765 114.132 151.765 114.646V115.723C151.765 117.951 153.565 120.79 155.788 120.79C158.011 120.79 159.811 117.956 159.811 115.723V114.646C159.81 114.132 159.605 113.639 159.242 113.275C158.879 112.912 158.388 112.708 157.876 112.708Z" fill="#92E3A9" stroke="#263238" stroke-linecap="round" stroke-linejoin="round"/>
<path d="M167.891 112.708H163.71C163.198 112.708 162.706 112.912 162.344 113.275C161.981 113.639 161.776 114.132 161.775 114.646V115.723C161.775 117.951 163.58 120.79 165.798 120.79C168.015 120.79 169.821 117.956 169.821 115.723V114.646C169.821 114.132 169.618 113.639 169.256 113.276C168.894 112.912 168.403 112.708 167.891 112.708Z" fill="#92E3A9" stroke="#263238" stroke-linecap="round" stroke-linejoin="round"/>
<path d="M177.924 112.708H173.743C173.236 112.715 172.752 112.923 172.396 113.286C172.04 113.648 171.841 114.137 171.841 114.646V115.723C171.841 117.951 173.641 120.79 175.858 120.79C178.076 120.79 179.882 117.956 179.882 115.723V114.646C179.882 114.389 179.831 114.135 179.732 113.898C179.633 113.661 179.489 113.446 179.306 113.266C179.124 113.085 178.908 112.943 178.671 112.847C178.433 112.752 178.179 112.704 177.924 112.708Z" fill="#92E3A9" stroke="#263238" stroke-linecap="round" stroke-linejoin="round"/>
<path d="M187.945 112.708H183.763C183.252 112.708 182.761 112.912 182.399 113.276C182.037 113.639 181.834 114.132 181.834 114.646V115.723C181.834 117.951 183.634 120.79 185.857 120.79C188.08 120.79 189.874 117.956 189.874 115.723V114.646C189.874 114.132 189.671 113.639 189.309 113.276C188.947 112.912 188.456 112.708 187.945 112.708Z" fill="#92E3A9" stroke="#263238" stroke-linecap="round" stroke-linejoin="round"/>
<path d="M163.998 133.775H87.4396C86.4393 133.775 85.6283 134.59 85.6283 135.595V141.115C85.6283 142.12 86.4393 142.935 87.4396 142.935H163.998C164.998 142.935 165.809 142.12 165.809 141.115V135.595C165.809 134.59 164.998 133.775 163.998 133.775Z" fill="#92E3A9" stroke="#263238" stroke-linecap="round" stroke-linejoin="round"/>
<path d="M174.25 134.314H170.069C169.557 134.314 169.066 134.518 168.704 134.881C168.343 135.245 168.139 135.738 168.139 136.252V137.329C168.139 139.562 169.939 142.396 172.162 142.396C174.386 142.396 176.18 139.562 176.18 137.329V136.252C176.18 135.738 175.977 135.245 175.615 134.881C175.253 134.518 174.762 134.314 174.25 134.314Z" fill="#92E3A9" stroke="#263238" stroke-linecap="round" stroke-linejoin="round"/>
<path d="M81.3679 134.314H77.1867C76.6749 134.314 76.1841 134.518 75.8222 134.881C75.4603 135.245 75.257 135.738 75.257 136.252V137.329C75.257 139.562 77.057 142.396 79.2801 142.396C81.5033 142.396 83.3033 139.562 83.3033 137.329V136.252C83.3018 135.738 83.0972 135.245 82.7344 134.881C82.3716 134.518 81.8802 134.314 81.3679 134.314Z" fill="#92E3A9" stroke="#263238" stroke-linecap="round" stroke-linejoin="round"/>
<path opacity="0.2" d="M72.9158 104.773C73.1184 104.774 73.3204 104.793 73.5196 104.83C73.5196 104.79 73.5196 104.75 73.5196 104.711V103.634C73.5181 103.411 73.4289 103.197 73.2714 103.04C73.1139 102.883 72.9009 102.795 72.6788 102.795H68.4977C68.2767 102.796 68.0651 102.885 67.9089 103.042C67.7526 103.199 67.6641 103.412 67.6626 103.634V104.711C67.6626 106.258 68.7911 108.208 70.1228 108.599C69.7109 106.881 70.6362 104.773 72.9158 104.773Z" fill="black"/>
<path opacity="0.2" d="M83.1625 104.484C83.2902 104.475 83.4184 104.475 83.5462 104.484V103.611C83.5447 103.389 83.4562 103.177 83.2999 103.02C83.1436 102.863 82.9321 102.774 82.711 102.772H78.5299C78.3079 102.772 78.0949 102.86 77.9374 103.018C77.7799 103.175 77.6907 103.388 77.6892 103.611V104.688C77.6892 106.388 79.0265 108.514 80.5105 108.655C79.8277 106.898 80.7249 104.484 83.1625 104.484Z" fill="black"/>
<path opacity="0.2" d="M93.4827 104.337H93.5673V103.628C93.5673 103.406 93.4793 103.192 93.3227 103.035C93.1661 102.878 92.9537 102.789 92.7322 102.789H88.5511C88.3291 102.789 88.1161 102.877 87.9586 103.035C87.8011 103.192 87.7118 103.405 87.7103 103.628V104.705C87.7103 106.434 89.1323 108.672 90.6388 108.672C90.7121 108.678 90.7856 108.678 90.8589 108.672C90.1028 106.881 90.9774 104.337 93.4827 104.337Z" fill="black"/>
<path opacity="0.2" d="M102.867 104.047C103.101 104.041 103.336 104.06 103.566 104.104V103.611C103.566 103.389 103.478 103.175 103.322 103.018C103.165 102.861 102.953 102.772 102.731 102.772H98.55C98.3285 102.772 98.1161 102.861 97.9595 103.018C97.8028 103.175 97.7149 103.389 97.7149 103.611V104.688C97.7149 106.309 98.9562 108.372 100.356 108.655C99.3963 106.876 100.226 104.047 102.867 104.047Z" fill="black"/>
<path opacity="0.2" d="M113.401 104.047H113.615V103.622C113.614 103.399 113.524 103.186 113.367 103.029C113.209 102.872 112.996 102.783 112.774 102.783H108.593C108.372 102.785 108.161 102.874 108.004 103.031C107.848 103.188 107.76 103.4 107.758 103.622V104.699C107.758 106.428 109.18 108.667 110.687 108.667C110.764 108.672 110.841 108.672 110.918 108.667C109.93 106.881 110.76 104.047 113.401 104.047Z" fill="black"/>
<path opacity="0.2" d="M123.507 104.104H123.637V103.611C123.635 103.389 123.547 103.177 123.39 103.02C123.234 102.863 123.023 102.774 122.802 102.772H118.62C118.398 102.772 118.185 102.86 118.028 103.018C117.87 103.175 117.781 103.388 117.78 103.611V104.688C117.78 106.417 119.202 108.655 120.708 108.655C120.8 108.664 120.893 108.664 120.985 108.655C120.059 106.87 120.9 104.104 123.507 104.104Z" fill="black"/>
<path opacity="0.2" d="M133.178 104.047C133.338 104.05 133.499 104.061 133.658 104.081V103.634C133.658 103.411 133.57 103.198 133.413 103.041C133.256 102.883 133.044 102.795 132.823 102.795H128.641C128.42 102.795 128.207 102.883 128.051 103.041C127.894 103.198 127.806 103.411 127.806 103.634V104.711C127.806 106.411 129.206 108.644 130.701 108.678C129.702 106.898 130.526 104.047 133.178 104.047Z" fill="black"/>
<path opacity="0.2" d="M143.679 104.195V103.628C143.679 103.406 143.591 103.192 143.434 103.035C143.278 102.878 143.065 102.789 142.844 102.789H138.663C138.441 102.789 138.229 102.878 138.072 103.035C137.915 103.192 137.827 103.406 137.827 103.628V104.705C137.827 106.434 139.244 108.672 140.756 108.672C140.907 108.67 141.058 108.645 141.202 108.599C140.389 106.853 141.219 104.274 143.679 104.195Z" fill="black"/>
<path opacity="0.2" d="M152.882 103.974C153.16 103.973 153.437 104.009 153.706 104.081V103.634C153.704 103.411 153.615 103.197 153.457 103.04C153.3 102.883 153.087 102.795 152.865 102.795H148.706C148.485 102.796 148.274 102.885 148.117 103.042C147.961 103.199 147.873 103.412 147.871 103.634V104.711C147.871 106.309 149.079 108.327 150.45 108.633C149.395 106.859 150.213 103.974 152.882 103.974Z" fill="black"/>
<path opacity="0.2" d="M163.129 103.974C163.329 103.974 163.53 103.993 163.727 104.03V103.634C163.725 103.412 163.637 103.199 163.481 103.042C163.324 102.885 163.113 102.796 162.892 102.795H158.711C158.489 102.795 158.276 102.883 158.118 103.04C157.961 103.197 157.871 103.411 157.87 103.634V104.711C157.87 106.411 159.224 108.57 160.691 108.678C159.63 106.898 160.443 103.974 163.129 103.974Z" fill="black"/>
<path opacity="0.2" d="M173.308 104.263C173.455 104.265 173.602 104.277 173.748 104.297V103.634C173.748 103.411 173.66 103.198 173.504 103.041C173.347 102.883 173.135 102.795 172.913 102.795H168.732C168.622 102.795 168.514 102.817 168.412 102.859C168.311 102.901 168.219 102.963 168.141 103.041C168.064 103.118 168.002 103.211 167.96 103.313C167.918 103.414 167.897 103.524 167.897 103.634V104.711C167.897 106.411 169.251 108.565 170.718 108.678C169.9 106.887 170.763 104.263 173.308 104.263Z" fill="black"/>
<path opacity="0.2" d="M183.769 104.132V103.634C183.769 103.411 183.681 103.198 183.525 103.041C183.368 102.883 183.156 102.795 182.934 102.795H178.753C178.532 102.795 178.319 102.883 178.163 103.041C178.006 103.198 177.918 103.411 177.918 103.634V104.711C177.918 106.439 179.334 108.678 180.847 108.678C181.064 108.675 181.279 108.629 181.478 108.542C180.677 106.83 181.433 104.325 183.769 104.132Z" fill="black"/>
<path opacity="0.2" d="M73.2034 125.075C73.3105 125.069 73.4178 125.069 73.525 125.075V124.956C73.5235 124.733 73.4342 124.52 73.2767 124.363C73.1192 124.206 72.9062 124.117 72.6842 124.117H68.5031C68.2821 124.119 68.0705 124.208 67.9142 124.365C67.7579 124.522 67.6695 124.734 67.668 124.956V126.033C67.668 127.762 69.0899 130.001 70.5965 130.001C70.7007 129.998 70.8045 129.987 70.9068 129.967C69.6429 128.244 70.4103 125.075 73.2034 125.075Z" fill="black"/>
<path opacity="0.2" d="M83.0214 125.075C83.1973 125.076 83.3728 125.091 83.5462 125.121V124.973C83.5447 124.751 83.4562 124.539 83.2999 124.382C83.1436 124.225 82.9321 124.136 82.711 124.134H78.5299C78.3079 124.134 78.0949 124.223 77.9374 124.38C77.7799 124.537 77.6907 124.75 77.6892 124.973V126.05C77.6892 127.779 79.1111 130.018 80.6177 130.018H80.7418C79.4497 128.272 80.2114 125.075 83.0214 125.075Z" fill="black"/>
<path opacity="0.2" d="M92.9805 125.217C93.1697 125.217 93.3585 125.234 93.5448 125.268V124.967C93.5448 124.857 93.5232 124.748 93.4812 124.646C93.4393 124.545 93.3777 124.452 93.3002 124.374C93.2226 124.296 93.1306 124.235 93.0293 124.192C92.928 124.15 92.8194 124.129 92.7097 124.129H88.5286C88.3066 124.129 88.0936 124.217 87.936 124.374C87.7785 124.531 87.6893 124.744 87.6878 124.967V126.044C87.6878 127.745 89.0872 129.972 90.5825 130.012C89.4596 128.249 90.2439 125.217 92.9805 125.217Z" fill="black"/>
<path opacity="0.2" d="M103.154 125.291C103.3 125.291 103.445 125.3 103.589 125.319V124.967C103.589 124.857 103.567 124.748 103.525 124.646C103.483 124.545 103.422 124.452 103.344 124.374C103.267 124.296 103.175 124.235 103.073 124.192C102.972 124.15 102.863 124.129 102.754 124.129H98.5725C98.4628 124.129 98.3542 124.15 98.2529 124.192C98.1516 124.235 98.0595 124.296 97.982 124.374C97.9044 124.452 97.8429 124.545 97.801 124.646C97.759 124.748 97.7374 124.857 97.7374 124.967V126.044C97.7374 127.773 99.1537 130.012 100.666 130.012H100.734C99.6502 128.238 100.457 125.291 103.154 125.291Z" fill="black"/>
<path opacity="0.2" d="M112.972 125.075C113.188 125.075 113.403 125.096 113.615 125.138V124.973C113.614 124.75 113.524 124.537 113.367 124.38C113.209 124.223 112.996 124.134 112.774 124.134H108.593C108.372 124.136 108.161 124.225 108.004 124.382C107.848 124.539 107.76 124.751 107.758 124.973V126.05C107.758 127.779 109.18 130.018 110.687 130.018C109.4 128.283 110.156 125.075 112.972 125.075Z" fill="black"/>
<path opacity="0.2" d="M123.146 125.143C123.31 125.144 123.474 125.158 123.637 125.183V124.967C123.635 124.745 123.547 124.533 123.39 124.376C123.234 124.219 123.023 124.13 122.802 124.129H118.62C118.398 124.129 118.185 124.217 118.028 124.374C117.87 124.531 117.781 124.744 117.78 124.967V126.044C117.78 127.773 119.202 130.012 120.708 130.012H120.815C119.597 128.255 120.375 125.143 123.146 125.143Z" fill="black"/>
<path opacity="0.2" d="M133.539 125.359H133.658V124.962C133.658 124.739 133.57 124.526 133.413 124.369C133.256 124.211 133.044 124.123 132.823 124.123H128.641C128.42 124.123 128.207 124.211 128.051 124.369C127.894 124.526 127.806 124.739 127.806 124.962V126.039C127.806 127.767 129.223 130.006 130.729 130.006C130.839 130.005 130.949 129.991 131.056 129.967C130.086 128.198 130.893 125.359 133.539 125.359Z" fill="black"/>
<path opacity="0.2" d="M143.628 125.143H143.662V124.967C143.662 124.857 143.64 124.748 143.598 124.646C143.556 124.545 143.495 124.452 143.417 124.374C143.34 124.296 143.248 124.235 143.146 124.192C143.045 124.15 142.936 124.129 142.827 124.129H138.663C138.553 124.129 138.444 124.15 138.343 124.192C138.242 124.235 138.15 124.296 138.072 124.374C137.995 124.452 137.933 124.545 137.891 124.646C137.849 124.748 137.827 124.857 137.827 124.967V126.044C137.827 127.773 139.244 130.012 140.756 130.012C140.929 130.009 141.1 129.979 141.264 129.921C140.118 128.164 140.914 125.143 143.628 125.143Z" fill="black"/>
<path opacity="0.2" d="M153.384 124.928H153.7C153.691 124.711 153.6 124.505 153.444 124.355C153.289 124.204 153.081 124.119 152.865 124.117H148.706C148.485 124.119 148.274 124.208 148.117 124.365C147.961 124.522 147.873 124.734 147.871 124.956V126.033C147.871 127.762 149.293 130.001 150.8 130.001C150.937 129.996 151.074 129.976 151.206 129.938C149.79 128.249 150.523 124.928 153.384 124.928Z" fill="black"/>
<path opacity="0.2" d="M163.71 125.075V124.973C163.708 124.751 163.62 124.539 163.463 124.382C163.307 124.225 163.096 124.136 162.875 124.134H158.693C158.471 124.134 158.258 124.223 158.101 124.38C157.943 124.537 157.854 124.75 157.853 124.973V126.05C157.853 127.779 159.275 130.018 160.781 130.018C160.973 130.014 161.164 129.98 161.345 129.916C160.166 128.159 160.945 125.075 163.71 125.075Z" fill="black"/>
<path opacity="0.2" d="M173.534 125.075H173.759V124.962C173.759 124.852 173.738 124.743 173.696 124.641C173.654 124.539 173.592 124.447 173.515 124.369C173.437 124.291 173.345 124.229 173.244 124.187C173.143 124.145 173.034 124.123 172.924 124.123H168.743C168.522 124.123 168.309 124.211 168.153 124.369C167.996 124.526 167.908 124.739 167.908 124.962V126.039C167.908 127.767 169.324 130.006 170.831 130.006C170.965 130.004 171.097 129.985 171.226 129.95C169.968 128.215 170.741 125.075 173.534 125.075Z" fill="black"/>
<path opacity="0.2" d="M183.408 125.506C183.532 125.506 183.657 125.506 183.769 125.506V124.939C183.769 124.717 183.681 124.503 183.525 124.346C183.368 124.189 183.156 124.1 182.934 124.1H178.753C178.532 124.1 178.319 124.189 178.163 124.346C178.006 124.503 177.918 124.717 177.918 124.939V126.016C177.918 127.745 179.334 129.983 180.847 129.983C179.972 128.226 180.818 125.506 183.408 125.506Z" fill="black"/>
<path opacity="0.2" d="M68.4408 114.924H68.5141V114.646C68.5126 114.423 68.4234 114.21 68.2659 114.053C68.1084 113.896 67.8954 113.807 67.6734 113.807H63.5035C63.2821 113.807 63.0696 113.896 62.913 114.053C62.7564 114.21 62.6684 114.424 62.6684 114.646V115.723C62.6684 117.452 64.0847 119.691 65.5969 119.691C65.7422 119.687 65.8864 119.664 66.0258 119.623C64.9424 117.854 65.7606 114.924 68.4408 114.924Z" fill="black"/>
<path opacity="0.2" d="M78.2532 114.924H78.5353V114.635C78.5338 114.412 78.4446 114.199 78.2871 114.042C78.1296 113.884 77.9166 113.796 77.6946 113.796H73.5135C73.2924 113.798 73.0809 113.887 72.9246 114.044C72.7683 114.201 72.6798 114.413 72.6783 114.635V115.712C72.6783 117.441 74.1003 119.679 75.6068 119.679C75.6895 119.685 75.7724 119.685 75.8551 119.679C74.7435 117.905 75.5448 114.924 78.2532 114.924Z" fill="black"/>
<path opacity="0.2" d="M88.5062 114.924H88.557V114.646C88.5555 114.424 88.4671 114.212 88.3108 114.055C88.1545 113.898 87.9429 113.809 87.7219 113.808H83.5408C83.4299 113.806 83.3198 113.827 83.2169 113.868C83.1139 113.909 83.0202 113.971 82.941 114.049C82.8618 114.127 82.7987 114.22 82.7554 114.322C82.7121 114.425 82.6895 114.535 82.6887 114.646V115.723C82.6887 117.452 84.1107 119.691 85.6172 119.691C85.7687 119.689 85.9189 119.664 86.063 119.617C85.0078 117.854 85.8147 114.924 88.5062 114.924Z" fill="black"/>
<path opacity="0.2" d="M98.3183 114.873H98.5779V114.658C98.5779 114.435 98.4899 114.222 98.3333 114.065C98.1767 113.907 97.9643 113.819 97.7428 113.819H93.5617C93.3402 113.819 93.1278 113.907 92.9712 114.065C92.8146 114.222 92.7266 114.435 92.7266 114.658V115.735C92.7266 117.463 94.1429 119.702 95.6494 119.702C95.7518 119.7 95.8537 119.688 95.9541 119.668C94.7861 117.905 95.5761 114.873 98.3183 114.873Z" fill="black"/>
<path opacity="0.2" d="M108.08 114.924C108.259 114.924 108.439 114.939 108.616 114.969V114.646C108.616 114.424 108.528 114.21 108.371 114.053C108.215 113.896 108.002 113.807 107.781 113.807H103.566C103.344 113.807 103.132 113.896 102.975 114.053C102.819 114.21 102.731 114.424 102.731 114.646V115.723C102.731 117.452 104.147 119.691 105.659 119.691C104.542 117.928 105.337 114.924 108.08 114.924Z" fill="black"/>
<path opacity="0.2" d="M118.169 114.561C118.32 114.562 118.47 114.571 118.62 114.59C118.605 114.378 118.51 114.179 118.355 114.034C118.2 113.889 117.997 113.808 117.785 113.807H113.604C113.383 113.809 113.171 113.898 113.015 114.055C112.859 114.212 112.77 114.424 112.769 114.646V115.723C112.769 117.452 114.191 119.691 115.697 119.691C115.806 119.689 115.913 119.675 116.019 119.651C114.552 117.968 115.269 114.561 118.169 114.561Z" fill="black"/>
<path opacity="0.2" d="M128.269 114.992C128.399 114.992 128.529 114.992 128.647 114.992V114.624C128.646 114.402 128.557 114.189 128.401 114.032C128.245 113.875 128.033 113.786 127.812 113.785H123.631C123.409 113.785 123.196 113.873 123.038 114.03C122.881 114.187 122.792 114.401 122.79 114.624V115.701C122.79 117.429 124.212 119.668 125.719 119.668H125.831C124.776 117.911 125.572 114.992 128.269 114.992Z" fill="black"/>
<path opacity="0.2" d="M138.668 114.646C138.668 114.424 138.58 114.21 138.424 114.053C138.267 113.896 138.055 113.807 137.833 113.807H133.652C133.543 113.807 133.434 113.829 133.333 113.871C133.231 113.913 133.139 113.975 133.062 114.053C132.984 114.131 132.923 114.224 132.881 114.325C132.839 114.427 132.817 114.536 132.817 114.646V115.723C132.817 117.452 134.233 119.691 135.74 119.691C136.041 119.683 136.336 119.602 136.598 119.453C135.458 117.764 136.146 114.873 138.668 114.646Z" fill="black"/>
<path opacity="0.2" d="M148.706 114.873V114.658C148.706 114.435 148.618 114.222 148.462 114.065C148.305 113.907 148.093 113.819 147.871 113.819H143.69C143.469 113.819 143.256 113.907 143.1 114.065C142.943 114.222 142.855 114.435 142.855 114.658V115.735C142.855 117.463 144.271 119.702 145.783 119.702C146.026 119.698 146.264 119.642 146.483 119.538C145.451 117.809 146.19 115.015 148.706 114.873Z" fill="black"/>
<path opacity="0.2" d="M158.367 114.703C158.485 114.703 158.604 114.703 158.716 114.703V114.629C158.715 114.406 158.626 114.193 158.468 114.036C158.311 113.879 158.098 113.791 157.876 113.791H153.695C153.474 113.792 153.262 113.881 153.106 114.038C152.949 114.195 152.861 114.407 152.859 114.629V115.706C152.859 117.435 154.281 119.674 155.788 119.674C155.894 119.672 156 119.659 156.104 119.634C154.795 117.928 155.545 114.703 158.367 114.703Z" fill="black"/>
<path opacity="0.2" d="M168.738 115.071V114.646C168.736 114.424 168.648 114.212 168.491 114.055C168.335 113.898 168.124 113.809 167.903 113.807H163.721C163.499 113.807 163.286 113.896 163.129 114.053C162.971 114.21 162.882 114.423 162.881 114.646V115.723C162.881 117.452 164.303 119.691 165.809 119.691C165.98 119.688 166.149 119.659 166.311 119.606C165.392 117.849 166.198 115.139 168.738 115.071Z" fill="black"/>
<path opacity="0.2" d="M178.285 114.777C178.443 114.779 178.601 114.79 178.759 114.811V114.646C178.759 114.424 178.671 114.21 178.514 114.053C178.357 113.896 178.145 113.807 177.923 113.807H173.742C173.633 113.807 173.524 113.829 173.423 113.871C173.321 113.913 173.229 113.975 173.152 114.053C173.074 114.131 173.013 114.224 172.971 114.325C172.929 114.427 172.907 114.536 172.907 114.646V115.723C172.907 117.452 174.323 119.691 175.83 119.691C175.883 119.694 175.935 119.694 175.988 119.691C174.724 117.939 175.491 114.777 178.285 114.777Z" fill="black"/>
<path opacity="0.2" d="M188.39 115.213C188.52 115.204 188.65 115.204 188.78 115.213V114.646C188.78 114.424 188.692 114.21 188.535 114.053C188.378 113.896 188.166 113.807 187.945 113.807H183.763C183.542 113.807 183.33 113.896 183.173 114.053C183.016 114.21 182.928 114.424 182.928 114.646V115.723C182.928 117.424 184.333 119.691 185.84 119.691C184.96 117.905 185.812 115.213 188.39 115.213Z" fill="black"/>
<path opacity="0.2" d="M164.714 141.149V135.561C164.714 135.182 164.409 134.875 164.032 134.875H87.4057C87.0286 134.875 86.7229 135.182 86.7229 135.561V141.149C86.7229 141.528 87.0286 141.835 87.4057 141.835L164.032 141.835C164.409 141.835 164.714 141.528 164.714 141.149Z" fill="black"/>
<path opacity="0.2" d="M175.085 136.813V136.246C175.085 136.136 175.064 136.027 175.022 135.925C174.98 135.824 174.918 135.731 174.841 135.653C174.763 135.575 174.671 135.514 174.57 135.471C174.468 135.429 174.36 135.408 174.25 135.408H170.069C169.959 135.408 169.851 135.429 169.749 135.471C169.648 135.514 169.556 135.575 169.479 135.653C169.401 135.731 169.339 135.824 169.297 135.925C169.256 136.027 169.234 136.136 169.234 136.246V137.323C169.234 139.052 170.65 141.291 172.162 141.291C172.288 141.288 172.413 141.271 172.535 141.24C171.7 139.471 172.552 136.83 175.085 136.813Z" fill="black"/>
<path opacity="0.2" d="M81.7177 136.45C81.8821 136.452 82.0461 136.465 82.2086 136.49V136.252C82.2071 136.029 82.1179 135.816 81.9604 135.659C81.8028 135.501 81.5899 135.413 81.3678 135.413H77.1867C76.9657 135.415 76.7541 135.504 76.5978 135.661C76.4415 135.818 76.3531 136.03 76.3516 136.252V137.329C76.3516 139.058 77.7735 141.296 79.2801 141.296H79.376C78.1742 139.539 78.9641 136.45 81.7177 136.45Z" fill="black"/>
<path opacity="0.2" d="M56.5633 18.2363H194.874C195.824 18.2363 196.735 18.6155 197.407 19.2905C198.079 19.9654 198.457 20.8809 198.457 21.8354V53.5753H52.9803V21.8354C52.9803 20.8809 53.3578 19.9654 54.0298 19.2905C54.7017 18.6155 55.6131 18.2363 56.5633 18.2363Z" fill="black"/>
<path d="M183.566 24.2215H67.8937C66.9291 16.175 65.2291 8.23489 62.8154 0.501524H188.667C186.215 8.22606 184.507 16.1691 183.566 24.2215Z" fill="white"/>
<mask id="mask1_169_2440" style="mask-type:luminance" maskUnits="userSpaceOnUse" x="62" y="0" width="127" height="25">
<path d="M183.566 24.2215H67.8937C66.9291 16.175 65.2291 8.23489 62.8154 0.501524H188.667C186.215 8.22606 184.507 16.1691 183.566 24.2215Z" fill="white"/>
</mask>
<g mask="url(#mask1_169_2440)">
<path opacity="0.2" d="M184.706 16.5756C183.865 21.1893 183.577 24.2216 183.577 24.2216H67.9049C67.9049 24.2216 67.6115 21.2459 66.7482 16.5756H184.706Z" fill="black"/>
</g>
<path d="M183.566 24.2215H67.8937C66.9291 16.175 65.2291 8.23489 62.8154 0.501524H188.667C186.215 8.22606 184.507 16.1691 183.566 24.2215Z" stroke="#263238" stroke-linecap="round" stroke-linejoin="round"/>
<path d="M181.992 44.195H68.5143V91.0907H181.992V44.195Z" fill="#263238"/>
<g opacity="0.4">
<path d="M122.424 86.9419L123.022 86.9702C123.774 75.2756 124.527 63.562 125.279 51.8296C124.32 63.5658 123.368 75.2699 122.424 86.9419Z" fill="white"/>
<path d="M120.494 86.7946L121.092 86.8456C122.397 75.2266 123.7 63.5565 125.002 51.8354C123.501 63.564 121.998 75.2171 120.494 86.7946Z" fill="white"/>
<path d="M118.615 86.5792C118.812 86.5792 119.015 86.6245 119.213 86.6472C121.064 75.1528 122.926 63.5469 124.799 51.8296C122.73 63.5583 120.669 75.1414 118.615 86.5792Z" fill="white"/>
<path d="M116.713 86.2901L117.317 86.3864C119.717 75.0507 122.136 63.5261 124.573 51.8126C121.94 63.5375 119.32 75.03 116.713 86.2901Z" fill="white"/>
<path d="M114.817 85.9331L115.427 86.0578C118.361 74.9374 121.334 63.5262 124.347 51.824C121.142 63.53 117.966 74.8997 114.817 85.9331Z" fill="white"/>
<path d="M112.932 85.5022L113.542 85.6552C117.001 74.7843 120.556 63.511 124.122 51.8182C120.347 63.511 116.583 74.7333 112.932 85.5022Z" fill="white"/>
<path d="M111.053 84.9922L111.668 85.1736C115.618 74.6087 119.754 63.4884 123.896 51.8069C119.545 63.4884 115.212 74.5463 111.053 84.9922Z" fill="white"/>
<path d="M109.209 84.414L109.824 84.6124C114.287 74.4102 118.97 63.4656 123.688 51.8012C118.739 63.4656 113.841 74.3309 109.209 84.414Z" fill="white"/>
<path d="M107.335 83.7509L107.956 83.9776C112.899 74.1609 118.152 63.4373 123.445 51.7899C117.932 63.4373 112.459 74.0646 107.335 83.7509Z" fill="white"/>
<path d="M105.507 83.0027L106.128 83.2634C111.522 73.8888 117.345 63.426 123.219 51.7785C117.108 63.4033 111.076 73.8095 105.507 83.0027Z" fill="white"/>
<path d="M103.695 82.1639L104.316 82.4643C110.139 73.5942 116.532 63.3637 122.993 51.7673C116.301 63.3637 109.688 73.4978 103.695 82.1639Z" fill="white"/>
<path d="M101.913 81.2344L102.533 81.5745C108.74 73.2597 115.72 63.3183 122.768 51.7503C116.34 61.9419 109.379 71.7837 101.913 81.2344Z" fill="white"/>
<path d="M100.18 80.2141C100.383 80.3445 100.598 80.4635 100.807 80.5882C108.638 71.4261 115.904 61.7917 122.564 51.7389C115.748 61.7248 108.27 71.2381 100.18 80.2141Z" fill="white"/>
<path d="M98.4481 79.0862L99.0631 79.5113C107.513 70.868 115.287 61.583 122.316 51.7389C115.141 61.5139 107.157 70.6622 98.4481 79.0862Z" fill="white"/>
<path d="M122.09 51.705C113.011 63.1257 104.13 71.8371 96.7946 77.8564L97.3983 78.3268C106.454 70.2631 114.723 61.3487 122.09 51.705Z" fill="white"/>
<path d="M121.865 51.6879C112.193 63.0236 102.742 71.31 95.1867 76.5244L95.7848 77.0402C103.239 71.497 112.447 63.052 121.865 51.6879Z" fill="white"/>
<path d="M121.622 51.6709C111.37 62.9216 101.382 70.7205 93.6576 75.0734C93.8438 75.2662 94.03 75.4589 94.2219 75.6402C101.873 70.9359 111.64 62.9499 121.622 51.6709Z" fill="white"/>
<path d="M121.413 51.6481C110.602 62.7855 100.096 70.0686 92.2471 73.526L92.8113 74.1438C100.581 70.3067 110.851 62.8195 121.413 51.6481Z" fill="white"/>
<path d="M90.9492 71.8711C91.1128 72.0978 91.2821 72.3246 91.4514 72.5456C99.3227 69.6267 110.072 62.6609 121.193 51.6312C109.846 62.6099 98.8657 69.3489 90.9492 71.8711Z" fill="white"/>
<path d="M89.7982 70.1482C89.9449 70.3863 90.0973 70.6243 90.2496 70.8624C98.1492 68.8673 109.367 62.457 120.968 51.5917C109.141 62.3946 97.726 68.5669 89.7982 70.1482Z" fill="white"/>
<path d="M88.8162 68.3968C88.9404 68.6462 89.0702 68.8899 89.1999 69.1393C97.0995 68.0624 108.701 62.2189 120.742 51.5973C108.503 62.1168 96.7158 67.7167 88.8162 68.3968Z" fill="white"/>
<path d="M88.015 66.6057C88.1165 66.855 88.2238 67.1101 88.331 67.3595C96.1854 67.1668 108.08 61.9014 120.494 51.5575C107.939 61.7937 95.8581 66.804 88.015 66.6057Z" fill="white"/>
<path d="M124.336 87.0213H124.929C125.109 75.3078 125.297 63.5791 125.493 51.8354C125.098 63.5716 124.712 75.3002 124.336 87.0213Z" fill="white"/>
<path d="M126.243 87.0326H126.842C126.465 75.3191 126.089 63.5904 125.713 51.8466L126.243 87.0326Z" fill="white"/>
<path d="M128.151 86.9815H128.749C127.808 75.3057 126.868 63.5922 125.928 51.8409C126.669 63.5771 127.41 75.2906 128.151 86.9815Z" fill="white"/>
<path d="M130.086 86.8626L130.684 86.8173C129.179 75.2284 127.675 63.5678 126.17 51.8354C127.464 63.5678 128.769 75.2436 130.086 86.8626Z" fill="white"/>
<path d="M131.965 86.6812L132.563 86.6075C130.517 75.1547 128.448 63.562 126.357 51.8296C128.241 63.562 130.111 75.1792 131.965 86.6812Z" fill="white"/>
<path d="M133.866 86.4261L134.47 86.3354C131.874 75.0564 129.251 63.5545 126.599 51.8296C129.036 63.5583 131.459 75.0904 133.866 86.4261Z" fill="white"/>
<path d="M135.762 86.1031L136.366 85.9897C133.232 74.9337 130.052 63.5451 126.824 51.824C129.826 63.5451 132.805 74.9715 135.762 86.1031Z" fill="white"/>
<path d="M137.647 85.7063L138.262 85.5646C134.605 74.7957 130.836 63.5336 127.05 51.8182C130.627 63.5355 134.16 74.8316 137.647 85.7063Z" fill="white"/>
<path d="M139.531 85.2416L140.141 85.0659C135.977 74.5974 131.638 63.5281 127.276 51.8069C131.423 63.5167 135.553 74.6314 139.531 85.2416Z" fill="white"/>
<path d="M141.399 84.6917L142.02 84.4877C137.354 74.3876 132.428 63.5166 127.502 51.8012C132.23 63.494 136.925 74.4499 141.399 84.6917Z" fill="white"/>
<path d="M143.256 84.0626L143.876 83.8303C138.742 74.1439 133.257 63.4714 127.727 51.7899C133.037 63.4714 138.302 74.2176 143.256 84.0626Z" fill="white"/>
<path d="M145.095 83.3541C145.304 83.2634 145.518 83.1841 145.722 83.0934C140.135 73.8775 134.075 63.443 127.953 51.7785C133.85 63.443 139.678 73.9568 145.095 83.3541Z" fill="white"/>
<path d="M146.918 82.5663L147.544 82.2659C141.535 73.5771 134.894 63.4147 128.179 51.7729C134.662 63.4033 141.072 73.6678 146.918 82.5663Z" fill="white"/>
<path d="M148.706 81.6765C148.915 81.5688 149.124 81.4498 149.327 81.3364C141.834 71.8528 134.846 61.9769 128.393 51.7503C135.48 63.3693 142.499 73.3391 148.706 81.6765Z" fill="white"/>
<path d="M150.478 80.6959L151.11 80.3218C142.985 71.3128 135.475 61.7635 128.63 51.7389C135.316 61.8313 142.612 71.5019 150.478 80.6959Z" fill="white"/>
<path d="M128.856 51.7218C135.913 61.612 143.721 70.9389 152.21 79.619L152.837 79.1939C144.084 70.734 136.062 61.5437 128.856 51.7218Z" fill="white"/>
<path d="M129.082 51.705C136.484 61.395 144.798 70.3462 153.909 78.4345C154.118 78.2815 154.315 78.1228 154.518 77.9641C147.16 71.9448 138.211 63.1937 129.082 51.705Z" fill="white"/>
<path d="M129.307 51.6879C138.786 63.12 148.052 71.5991 155.528 77.1422C155.731 76.9722 155.94 76.8022 156.137 76.6265C148.554 71.4234 139.04 63.1143 129.307 51.6879Z" fill="white"/>
<path d="M129.522 51.6709C139.594 63.0066 149.412 71.0493 157.086 75.7479C157.283 75.5609 157.47 75.3625 157.65 75.1811C149.92 70.8339 139.859 63.0066 129.522 51.6709Z" fill="white"/>
<path d="M129.759 51.6481C140.406 62.9045 150.754 70.4257 158.536 74.2345L159.1 73.611C151.251 70.1933 140.66 62.8818 129.759 51.6481Z" fill="white"/>
<path d="M159.93 72.6249C160.105 72.3982 160.268 72.1715 160.437 71.9391C152.51 69.4736 141.428 62.7119 129.968 51.6312C141.185 62.7572 152.041 69.7457 159.93 72.6249Z" fill="white"/>
<path d="M161.154 70.9191L161.616 70.1936C153.677 68.6916 142.155 62.5023 130.204 51.6087C141.935 62.5647 153.22 68.992 161.154 70.9191Z" fill="white"/>
<path d="M162.249 69.156C162.384 68.9066 162.514 68.6572 162.643 68.4022C154.744 67.8354 142.832 62.2299 130.481 51.5857C142.601 62.3206 154.349 68.1755 162.249 69.156Z" fill="white"/>
<path d="M130.65 51.5575C143.199 62.0204 155.251 67.2858 163.095 67.3652C163.207 67.1101 163.315 66.8551 163.422 66.6C155.59 66.9231 143.38 61.907 130.65 51.5575Z" fill="white"/>
</g>
<path opacity="0.2" d="M109.208 52.6798C107.07 58.189 109.383 74.2176 124.816 74.2176C140.248 74.2176 145.851 62.9556 145.225 55.9955L165.826 52.6628C165.826 52.6628 172.14 70.1878 158.733 82.4473C145.326 94.7069 98.8544 93.9134 89.0307 84.5955C79.207 75.2775 84.6577 56.8684 84.6577 56.8684L109.208 52.6798Z" fill="black"/>
<path d="M199.625 28.9088V25.0434C199.625 24.9003 199.67 24.761 199.754 24.6457C199.839 24.5304 199.957 24.4453 200.093 24.4029L202.915 23.5187V19.6533C202.915 19.1903 203.098 18.7462 203.424 18.4189C203.75 18.0915 204.192 17.9076 204.653 17.9076H208.038C208.205 17.9044 208.367 17.9665 208.489 18.0807C208.611 18.1949 208.684 18.3523 208.693 18.5197V19.7666C208.693 19.937 208.626 20.1005 208.506 20.2215C208.387 20.3425 208.225 20.4112 208.055 20.4127H203.75V24.1932C203.748 24.3072 203.717 24.4188 203.661 24.5179C203.605 24.6169 203.525 24.7002 203.428 24.76L201.024 26.2223V28.9145L199.625 28.9088Z" fill="#999999" stroke="#263238" stroke-linecap="round" stroke-linejoin="round"/>
<path d="M203.338 28.9088H199.625V40.0631H203.338V28.9088Z" fill="#263238"/>
<path d="M207.981 27.9623H203.338V41.0097H207.981V27.9623Z" fill="#757575"/>
<mask id="mask2_169_2440" style="mask-type:luminance" maskUnits="userSpaceOnUse" x="203" y="27" width="5" height="15">
<path d="M207.981 27.9623H203.338V41.0097H207.981V27.9623Z" fill="white"/>
</mask>
<g mask="url(#mask2_169_2440)">
<path opacity="0.2" d="M207.97 35.9087H203.338V41.0097H207.97V35.9087Z" fill="black"/>
</g>
<path d="M207.981 27.9623H203.338V41.0097H207.981V27.9623Z" stroke="#263238" stroke-linecap="round" stroke-linejoin="round"/>
<path d="M48.0999 40.0575H51.8127V28.9032H48.0999L48.0999 40.0575Z" fill="#263238"/>
<path d="M43.4554 41.004H48.0993V27.9566H43.4554V41.004Z" fill="#757575"/>
<mask id="mask3_169_2440" style="mask-type:luminance" maskUnits="userSpaceOnUse" x="43" y="27" width="6" height="15">
<path d="M43.4554 41.004H48.0993V27.9566H43.4554V41.004Z" fill="white"/>
</mask>
<g mask="url(#mask3_169_2440)">
<path opacity="0.2" d="M48.105 35.9087H43.4612V40.885H48.105V35.9087Z" fill="black"/>
</g>
<path d="M43.4554 41.004H48.0993V27.9566H43.4554V41.004Z" stroke="#263238" stroke-linecap="round" stroke-linejoin="round"/>
<path d="M51.2537 35.1492C51.5889 34.2656 51.6408 33.2988 51.402 32.3842C51.1633 31.4695 50.6458 30.6527 49.922 30.0481L47.191 27.781C47.0173 27.6339 46.8152 27.5243 46.5974 27.4592C46.3796 27.394 46.1508 27.3747 45.9252 27.4023C45.6997 27.43 45.4822 27.5041 45.2864 27.6199C45.0906 27.7358 44.9207 27.8909 44.7873 28.0757L33.9592 43.0785C33.7532 43.3592 33.6424 43.6989 33.6432 44.0477V60.1614C33.6432 60.3777 33.686 60.5918 33.7691 60.7913C33.8521 60.9909 33.9739 61.1718 34.1272 61.3237C34.2805 61.4756 34.4623 61.5953 34.6621 61.676C34.8618 61.7567 35.0756 61.7967 35.2909 61.7937C35.7219 61.7937 36.1352 61.6217 36.44 61.3156C36.7447 61.0095 36.9159 60.5943 36.9159 60.1614V47.0743C36.9169 46.7513 37.0174 46.4365 37.2037 46.1731L45.3008 34.8374C45.3717 34.7379 45.4624 34.6542 45.5671 34.5917C45.6719 34.5292 45.7884 34.4893 45.9093 34.4744C46.0303 34.4594 46.1529 34.4699 46.2696 34.5051C46.3863 34.5403 46.4945 34.5994 46.5873 34.6787L48.0769 35.9483C48.4457 36.2627 48.9136 36.4354 49.3973 36.4358C49.7995 36.4334 50.1917 36.3093 50.5229 36.0798C50.854 35.8504 51.1086 35.5261 51.2537 35.1492Z" fill="#92E3A9" stroke="#263238" stroke-linecap="round" stroke-linejoin="round"/>
<path d="M49.0192 33.6811C49.4462 33.6811 49.7923 33.3335 49.7923 32.9046C49.7923 32.4758 49.4462 32.1281 49.0192 32.1281C48.5923 32.1281 48.2462 32.4758 48.2462 32.9046C48.2462 33.3335 48.5923 33.6811 49.0192 33.6811Z" fill="#999999" stroke="#263238" stroke-linecap="round" stroke-linejoin="round"/>
<path d="M196.183 23.5187H55.2597V45.442H196.183V23.5187Z" fill="#263238"/>
<path opacity="0.2" d="M194.146 25.168H57.2408C56.8107 25.168 56.4621 25.5182 56.4621 25.9502V29.4983C56.4621 29.9302 56.8107 30.2804 57.2408 30.2804H194.146C194.576 30.2804 194.925 29.9302 194.925 29.4983V25.9502C194.925 25.5182 194.576 25.168 194.146 25.168Z" fill="white"/>
<path d="M183.566 49.8516H67.8937C64.6339 42.3672 62.9069 34.3004 62.8154 26.1316H188.667C188.667 37.1159 183.566 49.8516 183.566 49.8516Z" fill="white"/>
<mask id="mask4_169_2440" style="mask-type:luminance" maskUnits="userSpaceOnUse" x="62" y="26" width="127" height="24">
<path d="M183.566 49.8516H67.8937C64.6339 42.3672 62.9069 34.3004 62.8154 26.1316H188.667C188.667 37.1159 183.566 49.8516 183.566 49.8516Z" fill="white"/>
</mask>
<g mask="url(#mask4_169_2440)">
<g opacity="0.7">
<path d="M77.2489 48.0719C77.2489 48.0719 79.7824 47.9358 81.1987 47.08C82.6149 46.2241 82.5134 47.8508 83.3259 47.9585C84.1384 48.0662 86.0569 47.3917 87.0726 47.3917C88.0882 47.3917 87.3152 48.0152 88.4606 47.9585C89.6061 47.9018 88.991 48.0152 89.5891 47.9018L94.4925 47.08C94.4925 47.08 96.9809 46.5982 97.4831 46.8419C97.9853 47.0857 98.6454 48.2872 99.379 47.9755C100.113 47.6638 99.7232 47.4087 100.829 47.4087C101.513 47.4119 102.193 47.5111 102.849 47.7034C102.849 47.7034 102.951 47.4144 103.459 47.4087H104.367C104.367 47.4087 106.291 47.9188 106.596 47.9188C106.9 47.9188 109.174 47.4144 109.253 47.4087C109.332 47.403 111.51 46.8419 111.51 46.8419C111.972 47.3271 112.558 47.676 113.203 47.8508C114.027 47.9585 114.896 47.7374 115.517 48.0152C116.137 48.2929 118.18 47.9018 118.18 47.9018C118.667 47.905 119.154 47.9429 119.636 48.0152C120.268 48.1601 120.926 48.1406 121.549 47.9585C122.693 47.6546 123.894 47.6352 125.047 47.9018C126.881 48.2362 128.568 47.3974 129.347 47.3917C130.125 47.386 133.24 47.7375 134.312 47.7375C135.384 47.7375 138.222 48.1229 140.197 47.9018C142.172 47.6808 143.464 48.1795 144.79 48.1795C146.116 48.1795 147.533 48.1229 147.837 48.1229C148.142 48.1229 149.609 47.1593 151.708 47.3917C153.807 47.6241 151.939 47.1027 153.232 47.3917C154.524 47.6808 155.545 47.9585 156.092 48.0152C156.531 48.0409 156.972 48.0219 157.407 47.9585L159.664 47.7941H170.915" stroke="#263238" stroke-linecap="round" stroke-linejoin="round"/>
<path d="M74.9073 43.6963C74.9073 43.6963 81.8758 43.6963 83.1341 43.583C84.3924 43.4696 85.0639 42.8235 85.7353 42.8235C86.4068 42.8235 89.798 43.4696 89.798 43.4696C89.8969 43.2582 90.0584 43.0827 90.2604 42.9671C90.4624 42.8514 90.695 42.8013 90.9265 42.8235C91.8462 42.8235 91.3779 42.9085 92.2243 43.2486C93.0707 43.5886 92.6305 43.2485 93.0763 43.583C93.7408 43.8827 94.4434 44.0887 95.1641 44.1951C95.1641 44.1951 98.307 44.3424 98.4255 43.583C98.5439 42.8235 100.118 44.1951 100.118 44.1951C100.118 44.1951 104.384 43.583 106.032 43.583C107.679 43.583 111.81 43.2486 111.81 43.2486C111.81 43.2486 115.195 43.6963 115.353 43.6963C115.511 43.6963 116.07 44.5862 116.673 44.1951C117.277 43.804 117.858 43.3562 118.575 43.4696C119.241 43.6354 119.884 43.8789 120.493 44.1951L122.068 43.3562L123.873 43.4696C123.873 43.4696 125.713 44.6995 127.028 44.1951C128.028 43.7932 129.006 43.3353 129.956 42.8235L131.575 44.1951H132.636L135.779 43.583C136.021 43.8816 136.347 44.0998 136.715 44.2091C137.082 44.3183 137.474 44.3134 137.839 44.1951C139.17 43.8097 151.894 44.1951 155.133 44.1951C158.372 44.1951 159.083 43.3562 159.083 43.3562L161.577 44.1951H173.991" stroke="#263238" stroke-linecap="round" stroke-linejoin="round"/>
</g>
<path opacity="0.2" d="M184.745 46.5756C184.062 48.616 183.566 49.8516 183.566 49.8516H67.8935C67.8935 49.8516 67.3293 48.6614 66.5562 46.5756H184.745Z" fill="black"/>
<path opacity="0.2" d="M187.155 37.9945C186.766 39.6948 186.337 41.3555 185.914 42.8235H65.2983C64.8807 41.3838 64.4519 39.7572 64.0795 37.9945H187.155Z" fill="black"/>
</g>
<path d="M183.566 49.8516H67.8937C64.6339 42.3672 62.9069 34.3004 62.8154 26.1316H188.667C188.667 37.1159 183.566 49.8516 183.566 49.8516Z" stroke="#263238" stroke-linecap="round" stroke-linejoin="round"/>
<path d="M55.2319 22.3908H51.7843V46.5811H55.2319V22.3908Z" fill="#757575"/>
<mask id="mask5_169_2440" style="mask-type:luminance" maskUnits="userSpaceOnUse" x="51" y="22" width="5" height="25">
<path d="M55.2319 22.3908H51.7843V46.5811H55.2319V22.3908Z" fill="white"/>
</mask>
<g mask="url(#mask5_169_2440)">
<path opacity="0.2" d="M55.1641 39.4056H51.8068V46.5811H55.1641V39.4056Z" fill="black"/>
</g>
<path d="M55.2319 22.3908H51.7843V46.5811H55.2319V22.3908Z" stroke="#263238" stroke-linecap="round" stroke-linejoin="round"/>
<path d="M199.653 22.3908H196.206V46.5811H199.653V22.3908Z" fill="#757575"/>
<mask id="mask6_169_2440" style="mask-type:luminance" maskUnits="userSpaceOnUse" x="196" y="22" width="4" height="25">
<path d="M199.653 22.3908H196.206V46.5811H199.653V22.3908Z" fill="white"/>
</mask>
<g mask="url(#mask6_169_2440)">
<path opacity="0.2" d="M199.653 39.4056H196.177V46.5811H199.653V39.4056Z" fill="black"/>
</g>
<path d="M199.653 22.3908H196.206V46.5811H199.653V22.3908Z" stroke="#263238" stroke-linecap="round" stroke-linejoin="round"/>
<path d="M196.233 21.3764V39.0204H55.2034V21.3764H53.8492V40.2049H197.588V21.3764H196.233Z" fill="#999999" stroke="#263238" stroke-linecap="round" stroke-linejoin="round"/>
<path d="M204.568 51.0985V90.6657C204.568 91.3331 204.304 91.9732 203.834 92.4452C203.364 92.9171 202.727 93.1822 202.063 93.1822H49.3581C48.6937 93.1822 48.0564 92.9171 47.5866 92.4452C47.1168 91.9732 46.8528 91.3331 46.8528 90.6657V51.0985C46.8528 50.4311 47.1168 49.791 47.5866 49.319C48.0564 48.8471 48.6937 48.582 49.3581 48.582H119.721V51.0985C119.721 51.0985 107.708 61.567 86.994 65.4268C89.9619 78.9219 106.179 89.2317 125.747 89.2317C145.315 89.2317 161.532 78.9106 164.506 65.4268C143.764 61.567 131.751 51.0985 131.751 51.0985V48.5593H202.08C202.409 48.5615 202.735 48.629 203.038 48.7579C203.342 48.8868 203.617 49.0745 203.848 49.3104C204.079 49.5462 204.262 49.8256 204.385 50.1324C204.509 50.4392 204.571 50.7675 204.568 51.0985Z" fill="#92E3A9" stroke="#263238" stroke-linecap="round" stroke-linejoin="round"/>
<path d="M204.568 51.0985V90.6657C204.568 90.9967 204.503 91.3244 204.376 91.6301C204.25 91.9357 204.065 92.2134 203.832 92.4472C203.599 92.6809 203.322 92.8662 203.017 92.9923C202.713 93.1184 202.386 93.183 202.057 93.1822H49.3579C49.0284 93.183 48.702 93.1184 48.3974 92.9923C48.0928 92.8662 47.8159 92.6809 47.5827 92.4472C47.3495 92.2134 47.1644 91.9357 47.0382 91.6301C46.9119 91.3244 46.8469 90.9967 46.8469 90.6657V51.0985C46.8484 50.43 47.1134 49.7894 47.584 49.3167C48.0546 48.844 48.6924 48.5778 49.3579 48.5763H119.721V51.0985C119.721 51.0985 107.702 61.5613 86.9937 65.4268C89.9617 78.9219 106.178 89.2317 125.752 89.2317C145.326 89.2317 161.532 78.9106 164.505 65.4268C143.763 61.5613 131.75 51.0985 131.75 51.0985V48.5593H202.079C202.744 48.5653 203.38 48.836 203.846 49.312C204.313 49.788 204.572 50.4305 204.568 51.0985Z" fill="#92E3A9"/>
<mask id="mask7_169_2440" style="mask-type:luminance" maskUnits="userSpaceOnUse" x="46" y="48" width="159" height="46">
<path d="M204.568 51.0985V90.6657C204.568 90.9967 204.503 91.3244 204.376 91.6301C204.25 91.9357 204.065 92.2134 203.832 92.4472C203.599 92.6809 203.322 92.8662 203.017 92.9923C202.713 93.1184 202.386 93.183 202.057 93.1822H49.3579C49.0284 93.183 48.702 93.1184 48.3974 92.9923C48.0928 92.8662 47.8159 92.6809 47.5827 92.4472C47.3495 92.2134 47.1644 91.9357 47.0382 91.6301C46.9119 91.3244 46.8469 90.9967 46.8469 90.6657V51.0985C46.8484 50.43 47.1134 49.7894 47.584 49.3167C48.0546 48.844 48.6924 48.5778 49.3579 48.5763H119.721V51.0985C119.721 51.0985 107.702 61.5613 86.9937 65.4268C89.9617 78.9219 106.178 89.2317 125.752 89.2317C145.326 89.2317 161.532 78.9106 164.505 65.4268C143.763 61.5613 131.75 51.0985 131.75 51.0985V48.5593H202.079C202.744 48.5653 203.38 48.836 203.846 49.312C204.313 49.788 204.572 50.4305 204.568 51.0985Z" fill="white"/>
</mask>
<g mask="url(#mask7_169_2440)">
<path opacity="0.2" d="M201.182 51.7048V88.2341C201.182 88.4769 201.134 88.7174 201.041 88.9416C200.949 89.1659 200.812 89.3694 200.641 89.5406C200.47 89.7118 200.266 89.8473 200.042 89.9392C199.818 90.0311 199.579 90.0776 199.337 90.0761H50.8588C50.6177 90.0769 50.3789 90.0297 50.1561 89.9374C49.9333 89.8451 49.7308 89.7095 49.5604 89.5383C49.39 89.3671 49.2549 89.1637 49.163 88.9399C49.0711 88.7161 49.0242 88.4762 49.0249 88.2341V51.7048C49.0242 51.4622 49.071 51.2217 49.1628 50.9973C49.2546 50.7728 49.3894 50.5687 49.5597 50.3966C49.73 50.2245 49.9324 50.0878 50.1553 49.9942C50.3782 49.9007 50.6172 49.8522 50.8588 49.8514H119.698V51.0983C119.698 51.0983 107.679 61.5612 86.9711 65.4267C89.9391 78.9218 106.156 89.2316 125.73 89.2316C145.304 89.2316 161.509 78.9105 164.483 65.4267C143.741 61.5612 131.728 51.0983 131.728 51.0983V49.8514H199.354C199.84 49.8559 200.305 50.0531 200.648 50.4002C200.99 50.7473 201.182 51.2162 201.182 51.7048Z" fill="white"/>
</g>
<path d="M204.568 51.0985V90.6657C204.568 90.9967 204.503 91.3244 204.376 91.6301C204.25 91.9357 204.065 92.2134 203.832 92.4472C203.599 92.6809 203.322 92.8662 203.017 92.9923C202.713 93.1184 202.386 93.183 202.057 93.1822H49.3579C49.0284 93.183 48.702 93.1184 48.3974 92.9923C48.0928 92.8662 47.8159 92.6809 47.5827 92.4472C47.3495 92.2134 47.1644 91.9357 47.0382 91.6301C46.9119 91.3244 46.8469 90.9967 46.8469 90.6657V51.0985C46.8484 50.43 47.1134 49.7894 47.584 49.3167C48.0546 48.844 48.6924 48.5778 49.3579 48.5763H119.721V51.0985C119.721 51.0985 107.702 61.5613 86.9937 65.4268C89.9617 78.9219 106.178 89.2317 125.752 89.2317C145.326 89.2317 161.532 78.9106 164.505 65.4268C143.763 61.5613 131.75 51.0985 131.75 51.0985V48.5593H202.079C202.744 48.5653 203.38 48.836 203.846 49.312C204.313 49.788 204.572 50.4305 204.568 51.0985Z" stroke="#263238" stroke-linecap="round" stroke-linejoin="round"/>
<path opacity="0.2" d="M154.123 104.909L161.622 125.92C161.622 125.92 164.867 102.795 166.802 102.795C168.738 102.795 172.907 115.44 172.907 115.44C172.907 115.44 175.48 108.842 177.918 108.604C180.356 108.366 182.562 124.803 182.562 124.803L182.94 161.287L179.865 216.463C179.865 216.463 160.245 194.756 154.524 189.161C148.802 183.567 143.335 171.257 141.755 168.757C140.175 166.258 139.774 153.171 139.774 153.171C141.775 150.6 142.82 147.409 142.731 144.147C142.731 144.147 147.335 136.405 147.053 130.692C146.771 124.979 146.06 102.778 154.123 104.909Z" fill="black" fill-opacity="0.7"/>
<path d="M213.15 206.692L183.448 222.386C183.448 222.228 179.543 215.874 174.826 208.687C172.693 205.434 170.391 202.016 168.207 198.921C164.63 193.86 160.082 189.49 159.692 188.538C158.564 185.704 149.863 175.094 147.916 170.968C145.97 166.841 145.524 154.004 144.666 150.983C143.809 147.962 146.269 145.077 148.244 143.671C150.219 142.266 152.289 138.57 152.289 138.57C152.289 138.57 150.106 130.023 150.083 125.676C150.061 121.329 148.588 106.156 150.348 104.739C152.109 103.322 153.683 103.917 154.123 104.892C155.568 108.106 156.866 116.188 157.977 119.912C159.089 123.635 161.176 134.438 162.203 135.215C163.23 135.991 165.059 133.078 165.059 133.078C165.059 133.078 165.233 124.01 165.623 120.252L165.059 108.349C165.059 108.349 164.003 101.196 166.458 100.516C169.843 99.5811 171.079 101.718 171.463 102.619C171.847 103.52 173.426 108.712 173.426 108.712L173.517 109.069C173.517 109.103 173.517 109.137 173.517 109.177V109.239C173.543 109.337 173.571 109.445 173.601 109.562C173.663 109.8 173.737 110.084 173.816 110.407C174.566 113.36 176.011 119.271 175.949 120.728C175.864 122.695 175.181 133.588 176.146 135.85L177.647 120.802C177.647 120.802 175.226 109.205 175.932 107.533C176.637 105.861 179.961 107.709 180.356 108.366C180.75 109.024 183.978 113.003 184.554 114.522L185.118 116.041C185.118 116.041 185.913 112.447 187.781 113.382C189.649 114.317 189.88 118.886 190.01 120.881C190.14 122.876 191.494 135.708 191.703 135.731C191.911 135.753 194.067 142.419 193.774 146.823C193.158 156.248 194.784 163.259 194.84 166.875C194.896 170.492 192.182 178.869 192.182 178.869C192.278 179.033 194.05 182.06 194.535 184.718C194.891 186.668 201.216 193.713 206.385 199.318C209.979 203.184 212.992 206.346 213.15 206.692Z" fill="white"/>
<path opacity="0.4" d="M174.832 208.698C172.699 205.445 170.397 202.027 168.213 198.933C164.636 193.871 160.088 189.501 159.698 188.549C158.57 185.715 149.869 175.105 147.922 170.979C145.976 166.853 145.53 154.015 144.672 150.994C143.815 147.973 146.275 145.088 148.25 143.683C150.225 142.277 152.295 138.581 152.295 138.581C152.295 138.581 150.112 130.034 150.089 125.687C150.067 121.34 148.594 106.167 150.354 104.75C152.115 103.333 153.689 103.928 154.129 104.903C155.574 108.117 156.871 116.199 157.983 119.923C159.095 123.647 161.182 134.45 162.209 135.226C163.236 136.003 165.064 133.089 165.064 133.089C165.064 133.089 165.239 124.021 165.629 120.263L165.064 108.361C165.064 108.361 164.009 101.208 166.464 100.528C169.849 99.5924 171.085 101.729 171.469 102.63C171.852 103.532 173.432 108.723 173.432 108.723L173.523 109.08C173.523 109.114 173.523 109.148 173.523 109.188V109.25C173.545 109.349 173.573 109.456 173.607 109.573C173.669 109.811 173.743 110.095 173.822 110.418C172.947 109.029 171.745 107.845 170.137 107.533C165.623 106.649 166.599 111.693 167.028 114.72C167.271 116.728 167.224 118.761 166.887 120.756L168.015 120.104C167.203 121.561 166.041 133.667 166.041 136.36C166.041 139.052 163.919 139.947 162.017 139.16C160.116 138.372 159.439 126.016 157.994 123.8C156.55 121.584 152.532 125.817 152.352 129.689C152.171 133.56 155.765 145.105 154.913 147.826C154.061 150.546 154.073 160.862 154.073 160.862L153.034 158.204C153.102 158.566 153.034 159.785 150.862 163.373C150.046 164.671 149.518 166.131 149.315 167.653C149.111 169.175 149.237 170.723 149.683 172.192C151.009 175.133 157.735 182.887 158.863 183.686C158.863 183.686 159.681 180.319 162.249 181.215C161.375 182.611 160.738 184.143 160.364 185.749C159.834 188.22 165.189 189.802 166.864 192.154C167.891 193.588 168.58 197.958 174.832 208.698Z" fill="#92E3A9"/>
<path opacity="0.4" d="M206.418 199.324C201.137 193.979 191.844 188.889 192.408 187.557C193.164 185.766 192.205 181.952 190.58 178.857C188.955 175.763 191.144 170.741 191.144 170.741L192.148 173.66C192.952 170.293 193.046 166.795 192.425 163.39C191.398 157.603 190.597 159.638 190.597 159.638C190.597 159.638 190.805 154.423 191.725 151.578C192.645 148.733 193.418 141.824 192.148 137.737C190.879 133.651 188.198 134.421 187.482 135.827C186.765 137.233 187.533 142.713 188.125 144.51C188.718 146.307 186.195 149.328 186.145 147.083C186.094 144.839 185.14 138.582 185.14 138.582L187.053 126.016L185.14 116.035C185.14 116.035 185.936 112.441 187.803 113.377C189.671 114.312 189.902 118.88 190.032 120.875C190.162 122.87 191.516 135.702 191.725 135.725C191.934 135.748 194.089 142.413 193.796 146.817C193.181 156.243 194.806 163.254 194.862 166.87C194.919 170.486 192.205 178.863 192.205 178.863C192.301 179.027 194.072 182.054 194.558 184.712C194.913 186.662 201.238 193.707 206.407 199.313L206.418 199.324Z" fill="#92E3A9"/>
<path opacity="0.4" d="M184.553 114.522C184.661 114.805 184.751 115.037 184.819 115.224C183.024 111.036 179.966 112.334 179.424 113.524C178.883 114.714 180.705 122.099 181.117 123.244C181.529 124.389 179.481 133.532 179.182 136.558C178.883 139.585 178.087 140.203 178.087 140.203C176.061 140.356 175.83 134.739 175.83 133.968C175.869 134.613 175.995 135.25 176.202 135.861L177.703 120.813C177.703 120.813 175.226 109.205 175.932 107.533C176.637 105.861 179.96 107.709 180.355 108.366C180.75 109.024 183.978 113.003 184.553 114.522Z" fill="#92E3A9"/>
<path d="M213.15 206.692C212.767 205.819 195.145 187.988 194.53 184.712C194.033 181.98 192.171 178.857 192.171 178.857C192.171 178.857 194.885 170.497 194.829 166.864C194.772 163.231 193.136 156.237 193.762 146.811C194.056 142.407 191.906 135.742 191.692 135.719C191.477 135.697 190.123 122.865 189.999 120.87C189.875 118.874 189.643 114.306 187.77 113.371C185.897 112.436 185.107 116.029 185.107 116.029L184.543 114.51C183.978 112.991 180.739 109.012 180.344 108.355C179.949 107.697 176.632 105.844 175.921 107.522C175.21 109.199 177.687 120.779 177.687 120.779L176.197 135.844C175.232 133.577 175.915 122.689 176 120.722C176.084 118.755 173.432 108.706 173.432 108.706C173.432 108.706 171.841 103.537 171.469 102.608C171.096 101.678 169.849 99.5698 166.464 100.505C164.009 101.185 165.064 108.338 165.064 108.338L165.629 120.24C165.251 124.015 165.064 133.067 165.064 133.067C165.064 133.067 163.236 135.974 162.209 135.203C161.182 134.433 159.095 123.635 157.983 119.9C156.871 116.165 155.574 108.094 154.129 104.881C153.689 103.906 152.115 103.311 150.354 104.727C148.594 106.144 150.061 121.312 150.089 125.665C150.117 130.017 152.295 138.559 152.295 138.559C152.295 138.559 150.225 142.232 148.25 143.66C146.275 145.088 143.815 147.945 144.672 150.971C145.53 153.998 145.976 166.841 147.922 170.956C149.869 175.071 158.547 185.693 159.698 188.527C160.088 189.479 164.636 193.849 168.213 198.91C175.238 208.846 183.448 222.148 183.448 222.375" stroke="#263238" stroke-linecap="round" stroke-linejoin="round"/>
<path d="M152.289 138.587C152.289 138.587 153.689 145.553 153.638 146.721C153.638 146.721 152.414 152.099 152.402 155.585C151.546 156.898 150.776 158.267 150.1 159.683C149.626 160.941 148.78 164.036 149.13 165.759" stroke="#263238" stroke-linecap="round" stroke-linejoin="round"/>
<path d="M149.733 148.88C149.733 148.88 153.164 148.908 152.944 150.359" stroke="#263238" stroke-linecap="round" stroke-linejoin="round"/>
<path d="M152.402 155.585C152.402 155.585 150.202 154.627 149.429 155.914" stroke="#263238" stroke-linecap="round" stroke-linejoin="round"/>
<path d="M165.07 133.089C165.07 133.089 164.912 138.429 163.512 138.003" stroke="#263238" stroke-linecap="round" stroke-linejoin="round"/>
<path d="M176.197 135.844C176.197 135.844 175.79 138.763 176.885 139.664" stroke="#263238" stroke-linecap="round" stroke-linejoin="round"/>
<path d="M185.124 116.04C185.124 116.04 186.647 123.409 186.997 125.154C187.347 126.9 185.265 135.81 185.304 138.128C185.344 140.446 186.331 143.762 186.196 145.321" stroke="#263238" stroke-linecap="round" stroke-linejoin="round"/>
<path d="M191.206 171.999C191.206 171.999 190.715 176.811 192.188 178.869" stroke="#263238" stroke-linecap="round" stroke-linejoin="round"/>
<path d="M161.622 181.521C161.622 181.521 158.338 184.525 159.54 188.221" stroke="#263238" stroke-linecap="round" stroke-linejoin="round"/>
<path d="M183.205 144.068C183.256 146.188 182.02 148.659 181.891 151.589" stroke="#263238" stroke-linecap="round" stroke-linejoin="round"/>
<path d="M172.744 142.175C173.443 143.909 171.92 147.684 171.689 149.101C171.596 150.21 171.717 151.326 172.044 152.388" stroke="#263238" stroke-linecap="round" stroke-linejoin="round"/>
<path d="M192.408 148.149C192.126 149.991 190.828 151.306 190.58 156.974" stroke="#263238" stroke-linecap="round" stroke-linejoin="round"/>
<path d="M160.37 141.637C161.318 142.674 160.68 147.627 160.934 148.438" stroke="#263238" stroke-linecap="round" stroke-linejoin="round"/>
<path d="M178.047 113.099C178.047 113.099 181.275 110.724 184.051 113.524" stroke="#263238" stroke-linecap="round" stroke-linejoin="round"/>
<path d="M166.932 107.641C166.932 107.641 167.496 106.694 170.222 106.927C172.947 107.159 173.432 108.701 173.432 108.701" stroke="#263238" stroke-linecap="round" stroke-linejoin="round"/>
<path d="M158.97 123.822C158.97 123.822 158.056 122.468 155.647 122.916C153.238 123.363 152.165 126.787 152.165 126.787" fill="white"/>
<path d="M158.97 123.822C158.97 123.822 158.056 122.468 155.647 122.916C153.238 123.363 152.165 126.787 152.165 126.787" stroke="#263238" stroke-linecap="round" stroke-linejoin="round"/>
<path d="M191.708 135.731C191.708 135.731 189.699 132.806 187.284 134.059" stroke="#263238" stroke-linecap="round" stroke-linejoin="round"/>
<path opacity="0.2" d="M106.133 114.306C109.518 116.942 106.663 133.118 106.663 133.118L106.962 138.383L112.768 135.844L115.415 147.095C115.415 147.095 115.347 151.215 117.497 152.763C117.497 152.763 118.027 162.007 117.497 168.763C116.966 175.519 106.212 183.46 102.505 190.55C98.7975 197.641 74.6191 218.481 74.6191 218.481L54.1479 208.699L68.9483 148.653L82.2083 131.531L90.0684 111.835C90.0684 111.835 91.417 124.701 90.6327 133.373L106.133 114.306Z" fill="black" fill-opacity="0.7"/>
<path d="M111.832 150.24C111.318 152.723 112.554 166.331 112.34 168.168C112.125 170.004 101.348 182.337 100.806 183.272C100.265 184.208 93.0591 188.373 91.3833 190.363C83.5514 199.539 79.2743 207.99 75.838 216.463C75.1778 218.096 74.5459 219.734 73.9252 221.377L42.846 203.24C45.4585 199.987 47.9243 197.096 50.1813 194.466C54.6954 189.133 58.2897 184.865 60.0502 180.835C60.5904 179.806 61.2092 178.821 61.9009 177.888C62.6006 176.89 63.2269 176.069 63.2269 176.069C63.2269 176.069 60.9699 169.681 61.4946 167.674C62.0194 165.668 60.8458 149.175 60.8458 149.175C60.8458 149.175 59.3166 137.947 57.8101 135.113C57.4401 134.373 57.2726 133.547 57.3248 132.721C57.3982 130.131 58.8934 126.866 59.627 123.085C60.6088 117.984 60.1348 115.462 63.2156 117.225C66.2965 118.988 64.8576 129.694 64.8576 129.694L69.5127 140.055C70.7372 137.55 69.5127 130.238 69.4506 128.51C69.4506 128.226 69.4507 127.756 69.4055 127.144C69.3096 124.162 69.1121 117.956 69.366 115.508C69.366 115.372 69.366 115.247 69.4112 115.133C69.7892 112.606 71.1378 104.563 71.9954 103.667C73.2707 102.341 75.2963 101.225 77.2035 104.234C78.27 105.935 77.8129 119.418 77.8129 119.418C77.8129 119.418 82.2367 114.057 83.5796 112.747C84.9225 111.438 88.9965 109.046 90.0855 111.818C91.1745 114.589 87.157 123.153 87.157 123.153C87.9977 125.137 88.0993 130.629 88.0993 130.629C88.0993 130.629 90.0008 137.493 91.1688 137.431H91.2196C91.5582 137.357 91.9306 136.11 92.3199 134.359C93.2792 130.068 94.323 122.728 95.1412 122.088L95.7055 121.635C95.7312 121.602 95.7617 121.573 95.7957 121.549L96.0045 121.362C98.002 119.577 102.211 115.61 102.211 115.61C102.211 115.61 102.51 113.711 106.195 114.295C109.88 114.878 104.559 125.8 104.559 125.8C103.819 129.275 102.685 138.213 102.685 138.213C102.341 141.931 102.544 151.923 102.544 151.923C102.544 151.923 104.288 146.108 104.175 143.988C104.062 141.869 107.639 136.677 108.689 135.339C109.738 134.002 114.422 134.472 113.118 137.04C111.815 139.607 112.345 147.746 111.832 150.24Z" fill="white"/>
<path opacity="0.4" d="M60.0335 180.858C60.5737 179.829 61.1925 178.844 61.8842 177.911C61.8842 177.911 60.0504 183.012 59.8698 185.727C59.7513 187.518 55.0567 190.618 50.1646 194.489C54.7069 189.156 58.273 184.888 60.0335 180.858Z" fill="#92E3A9"/>
<path opacity="0.4" d="M61.8841 177.911C62.5838 176.913 63.2101 176.091 63.2101 176.091C63.2101 176.091 60.9531 169.704 61.4779 167.697C62.0026 165.691 60.829 149.197 60.829 149.197C60.829 149.197 59.2998 137.969 57.7933 135.135L61.3029 141.296C61.3029 141.296 60.9587 146.165 61.9575 148.835C62.9562 151.504 64.2145 159.649 64.2145 159.649C64.2145 159.649 62.7362 166.496 63.2383 168.961C63.7405 171.427 66.0032 170.531 66.0032 170.531C66.0032 170.531 67.1148 175.043 61.8841 177.911Z" fill="#92E3A9"/>
<path opacity="0.4" d="M70.0714 131.531C72.492 145.768 68.3222 141.829 66.8156 138.757C65.3091 135.685 61.7712 129.87 59.1079 131.111C58.36 131.464 57.7334 132.032 57.3079 132.744C57.3813 130.154 58.8765 126.889 59.6101 123.108C60.5919 118.007 60.1179 115.485 63.1987 117.248C66.2796 119.011 64.8407 129.717 64.8407 129.717L69.4958 140.078C70.7203 137.573 69.4958 130.261 69.4338 128.533C69.4338 128.249 69.4338 127.779 69.3886 127.167C69.5748 128.476 69.8005 129.933 70.0714 131.531Z" fill="#92E3A9"/>
<path opacity="0.4" d="M75.9958 117.463C75.9958 117.463 73.3833 114.029 71.115 114.204C70.7255 114.225 70.3507 114.361 70.0369 114.593C69.723 114.826 69.4839 115.146 69.3489 115.514C69.3489 115.378 69.3489 115.253 69.394 115.139C69.7721 112.612 71.1207 104.569 71.9783 103.673C73.2535 102.347 75.2792 101.231 77.1864 104.24C78.2528 105.941 77.7958 119.424 77.7958 119.424C77.7958 119.424 82.2196 114.063 83.5625 112.753C84.9054 111.444 88.9793 109.052 90.0684 111.824C91.1574 114.595 87.1399 123.159 87.1399 123.159C87.9806 125.143 88.0822 130.635 88.0822 130.635C88.0822 130.635 89.9837 137.499 91.1517 137.437C88.5787 142.3 86.8634 131.548 86.8634 131.548C87.2471 129.326 85.8816 124.508 86.017 123.239C86.1524 121.969 83.6471 117.48 79.4265 118.705C75.2059 119.929 78.2528 136.683 78.2528 136.683C77.4188 138.018 76.9336 139.542 76.8422 141.115C75.5388 139.5 76.8422 134.881 76.8422 134.881C75.6855 130.46 75.9958 117.463 75.9958 117.463Z" fill="#92E3A9"/>
<path opacity="0.4" d="M95.6664 121.618C93.8664 123.516 94.1147 128.317 92.2809 134.342C93.2401 130.051 94.284 122.712 95.1022 122.071L95.6664 121.618Z" fill="#92E3A9"/>
<path opacity="0.4" d="M111.832 150.24C111.319 152.723 112.554 166.331 112.34 168.168C112.126 170.004 101.348 182.337 100.807 183.273C100.265 184.208 93.0594 188.374 91.3836 190.363C83.5517 199.539 79.2747 207.99 75.8383 216.464C77.1327 212.071 78.6949 207.763 80.516 203.564C84.2232 195.192 85.7354 193.701 87.9585 191.31C90.1817 188.918 89.9391 183.834 89.9391 183.834C91.5799 183.437 93.2619 183.237 94.9497 183.239C97.7709 183.239 106.122 171.279 108.994 169.182C111.866 167.085 112.38 167.085 108.994 162.46C105.608 157.835 106.568 163.203 105.552 163.027C104.536 162.851 103.983 165.085 103.983 165.085C103.628 160.369 100.598 154.882 99.9603 153.511C99.3227 152.139 101.506 144.096 101.055 141.858C100.604 139.619 102.996 125.988 102.996 125.988C102.996 125.988 102.697 120.756 97.9797 120.739C97.2558 120.699 96.5408 120.916 95.9597 121.351C97.9572 119.566 102.167 115.599 102.167 115.599C102.167 115.599 102.466 113.7 106.15 114.284C109.835 114.867 104.514 125.789 104.514 125.789C103.775 129.264 102.64 138.202 102.64 138.202C102.296 141.92 102.499 151.912 102.499 151.912C102.499 151.912 104.243 146.097 104.13 143.977C104.017 141.858 107.595 136.666 108.644 135.328C109.694 133.991 114.377 134.461 113.074 137.029C111.77 139.596 112.346 147.747 111.832 150.24Z" fill="#92E3A9"/>
<path d="M73.9198 221.428C77.7511 211.266 82.0338 201.347 91.3835 190.391C93.0763 188.43 100.259 184.264 100.807 183.301C101.354 182.337 112.131 170.027 112.34 168.196C112.549 166.365 111.319 152.751 111.832 150.269C112.346 147.786 111.748 139.602 113.045 137.051C114.343 134.501 109.66 134.036 108.616 135.351C107.572 136.666 104.006 141.903 104.102 144C104.198 146.097 102.471 151.935 102.471 151.935C102.471 151.935 102.268 141.943 102.612 138.224C102.612 138.224 103.741 129.286 104.486 125.812C104.486 125.812 109.801 114.884 106.122 114.306C102.443 113.728 102.138 115.621 102.138 115.621C102.138 115.621 96.2643 121.164 95.102 122.071C93.9396 122.978 92.354 137.148 91.186 137.414C90.018 137.68 88.0657 130.613 88.0657 130.613C88.0657 130.613 87.9641 125.12 87.1234 123.137C87.1234 123.137 91.1353 114.595 90.0519 111.801C88.9685 109.007 84.8946 111.427 83.546 112.73C82.1974 114.034 77.7793 119.402 77.7793 119.402C77.7793 119.402 78.2364 105.906 77.1699 104.217C75.2627 101.196 73.2201 102.313 71.9619 103.651C71.1042 104.546 69.7556 112.589 69.3776 115.117C68.9995 117.644 69.3776 126.758 69.4171 128.493C69.4566 130.227 70.7036 137.533 69.4791 140.038L64.824 129.677C64.824 129.677 66.2685 118.959 63.182 117.208C60.0955 115.457 60.5752 117.985 59.5934 123.069C58.6116 128.153 56.2755 132.285 57.7765 135.124C59.2774 137.964 60.8122 149.186 60.8122 149.186C60.8122 149.186 61.9745 165.679 61.4611 167.686C60.9476 169.692 63.2102 176.086 63.2102 176.086C63.2102 176.086 60.6034 179.537 60.0335 180.852C57.4041 186.855 50.7515 193.418 42.8406 203.291" stroke="#263238" stroke-linecap="round" stroke-linejoin="round"/>
<path d="M77.7959 119.436C77.1406 120.409 76.8087 121.566 76.8479 122.74C76.8479 124.894 78.2529 136.683 78.2529 136.683C78.2529 136.683 77.2316 137.896 77.1808 138.95" stroke="#263238" stroke-linecap="round" stroke-linejoin="round"/>
<path d="M102.482 151.907C102.636 153.898 103.147 155.845 103.989 157.654C105.309 160.272 104.88 161.718 104.429 163.265C104.127 164.622 103.966 166.007 103.949 167.397" stroke="#263238" stroke-linecap="round" stroke-linejoin="round"/>
<path d="M69.9923 137.731C69.9923 137.731 70.9741 140.86 69.1515 142.345" stroke="#263238" stroke-linecap="round" stroke-linejoin="round"/>
<path d="M91.2025 137.414C91.2025 137.414 91.3943 138.644 89.6621 138.757" stroke="#263238" stroke-linecap="round" stroke-linejoin="round"/>
<path d="M102.838 123.244C102.838 123.244 98.4933 118.483 95.1191 122.071" stroke="#263238" stroke-linecap="round" stroke-linejoin="round"/>
<path d="M85.233 120.569C85.233 120.569 83.2299 118.024 81.492 118.177C79.7541 118.33 77.4068 119.396 77.1416 120.796" stroke="#263238" stroke-linecap="round" stroke-linejoin="round"/>
<path d="M104.801 161.735C105.502 162.742 106.013 163.869 106.308 165.062" stroke="#263238" stroke-linecap="round" stroke-linejoin="round"/>
<path d="M93.516 142.385C92.1675 144.907 92.8107 149.186 92.3142 150.359" stroke="#263238" stroke-linecap="round" stroke-linejoin="round"/>
<path d="M79.2293 138.196C79.5453 139.647 78.5465 142.011 78.3942 143.751C78.2418 145.491 79.6581 148.177 79.3986 150.62" stroke="#263238" stroke-linecap="round" stroke-linejoin="round"/>
<path d="M70.0715 144.136C70.0715 144.136 68.8922 146.868 68.943 148.67C68.9938 150.473 69.6314 154.423 69.6314 154.423" stroke="#263238" stroke-linecap="round" stroke-linejoin="round"/>
<path d="M61.399 144.006C61.399 144.006 60.9701 146.84 61.9632 148.835C62.9563 150.83 63.9212 155.069 63.9212 155.069" stroke="#263238" stroke-linecap="round" stroke-linejoin="round"/>
<path d="M63.2101 176.086C63.7302 175.941 64.1951 175.643 64.5442 175.229C64.8934 174.816 65.1107 174.307 65.1681 173.768" stroke="#263238" stroke-linecap="round" stroke-linejoin="round"/>
<path d="M91.5752 184.723C91.5752 184.723 92.6529 188.731 90.5877 191.31" stroke="#263238" stroke-linecap="round" stroke-linejoin="round"/>
<path d="M57.3363 132.268C57.3363 132.268 60.372 129.292 62.6685 131.803" stroke="#263238" stroke-linecap="round" stroke-linejoin="round"/>
<path d="M69.3944 115.139C69.3944 115.139 71.6515 112.765 74.2922 115.304" stroke="#263238" stroke-linecap="round" stroke-linejoin="round"/>
</svg>
