<svg width="40" height="40" viewBox="0 0 40 40" fill="none" xmlns="http://www.w3.org/2000/svg">
<path d="M16.875 35.625V34.375H0.625V6.875H39.375V34.375H23.125V35.625H16.875Z" fill="#6F9B45"/>
<path d="M17.6475 31.875H3.125V5.625H20V33.0512L17.6475 31.875Z" fill="#FFFAEE"/>
<path d="M20 5.625H36.875V31.875H22.3525L20 33.0512V5.625Z" fill="#DBD2C1"/>
<path d="M7.5 13.75H15V15H7.5V13.75ZM7.5 17.5H15V16.25H7.5V17.5ZM7.5 20H15V18.75H7.5V20ZM7.5 22.5H15V21.25H7.5V22.5ZM25 22.5H32.5V21.25H25V22.5ZM32.5 13.75H25V15H32.5V13.75ZM32.5 16.25H25V17.5H32.5V16.25ZM32.5 18.75H25V20H32.5V18.75ZM40 6.25V35H23.75V36.25H16.25V35H0V6.25H2.5V5H37.5V6.25H40ZM3.75 31.25H17.795L20 32.3525L22.205 31.25H36.25V6.25H3.75V31.25ZM38.75 7.5H37.5V32.5H22.5L20 33.75L17.5 32.5H2.5V7.5H1.25V33.75H17.5V35H22.5V33.75H38.75V7.5Z" fill="#231F20"/>
</svg>
