<svg width="45" height="45" viewBox="0 0 45 45" fill="none" xmlns="http://www.w3.org/2000/svg">
<path d="M7 11.0359V34.9641C7 37.2226 8.77735 39 11.0359 39H34.9641C36.0695 39 37.1258 38.4711 37.7992 37.7992C38.5203 37.0781 39 36.1648 39 34.9641V11.0359C39 8.77735 37.2226 7 34.9641 7H11.0359C9.83515 7 8.92188 7.48124 8.20079 8.20079C7.52736 8.87421 7 9.93048 7 11.0359ZM11.325 14.2063C11.325 12.6688 12.575 11.3235 14.1125 11.3235C15.6976 11.3235 16.9953 12.6688 16.9953 14.2063C16.9953 15.7914 15.6976 17.0414 14.1125 17.0414C12.575 17.0414 11.325 15.7914 11.325 14.2063ZM19.0602 33.9539V19.3C19.0602 18.9633 19.3969 18.6758 19.6367 18.6758H23.7203C24.2969 18.6758 24.2969 19.3492 24.2969 19.7812C25.45 18.6281 26.9398 18.3391 28.4773 18.3391C32.2258 18.3391 34.6273 20.1164 34.6273 24.057V33.9555C34.6273 34.2922 34.3383 34.5797 34.0508 34.5797H29.8227C29.4859 34.5797 29.2461 34.243 29.2461 33.9555V25.018C29.2461 23.5281 28.8141 22.7117 27.132 22.7117C25.018 22.7117 24.4891 24.1047 24.4891 25.9789V33.9555C24.4891 34.2922 24.1524 34.5797 23.8156 34.5797H19.6352C19.3953 34.5797 19.0586 34.243 19.0586 33.9555L19.0602 33.9539ZM11.4203 33.9539V19.3C11.4203 18.9633 11.757 18.6758 11.9969 18.6758H16.1773C16.5617 18.6758 16.8016 18.9156 16.8016 19.3V33.9539C16.8016 34.2906 16.5125 34.5781 16.1773 34.5781H11.9969C11.7078 34.5781 11.4203 34.2414 11.4203 33.9539Z" fill="black"/>
</svg>
