<svg width="201" height="202" viewBox="0 0 201 202" fill="none" xmlns="http://www.w3.org/2000/svg">
<path d="M137.247 141.937C139.155 142.769 143.809 142.662 143.814 142.662C143.819 142.662 142.812 139.613 142.721 139.427C141.703 137.295 138.457 133.761 135.845 134.096C135.41 134.167 134.995 134.329 134.626 134.571C134.258 134.813 133.945 135.13 133.707 135.501C133.469 135.872 133.312 136.289 133.246 136.725C133.18 137.161 133.206 137.605 133.324 138.03C133.761 139.875 135.626 141.228 137.247 141.937Z" fill="#263238"/>
<path d="M138.857 155.423C140.829 155.711 144.987 154.506 145.317 154.41C146.002 156.788 146.844 159.117 147.839 161.383C148.409 162.705 149.027 164.021 149.662 165.332C149.283 164.799 148.937 164.266 148.883 164.218C147.332 162.427 143.286 159.874 140.845 160.914C140.444 161.097 140.086 161.363 139.795 161.694C139.504 162.024 139.285 162.413 139.154 162.834C139.023 163.255 138.982 163.699 139.033 164.136C139.085 164.574 139.228 164.996 139.454 165.375C140.355 167.017 142.513 167.827 144.251 168.083C145.989 168.339 149.582 167.385 150.53 167.118C150.776 167.619 151.021 168.12 151.271 168.621C152.476 171.015 153.686 173.419 154.8 175.78C155.194 176.617 155.552 177.454 155.914 178.291C155.578 177.8 155.29 177.39 155.237 177.331C153.686 175.54 149.64 172.987 147.199 174.026C146.798 174.209 146.44 174.474 146.149 174.805C145.858 175.135 145.639 175.523 145.508 175.944C145.377 176.364 145.336 176.808 145.387 177.245C145.439 177.682 145.582 178.104 145.808 178.482C146.708 180.124 148.867 180.94 150.605 181.19C152.343 181.441 155.594 180.588 156.714 180.273C157.055 181.148 157.401 182.016 157.694 182.875C157.881 183.466 158.105 184.021 158.259 184.623C158.414 185.225 158.59 185.806 158.75 186.387C159.022 187.523 159.31 188.69 159.549 189.799C159.72 190.572 159.869 191.313 160.018 192.059C159.64 191.222 158.856 189.596 158.771 189.468C157.513 187.459 153.899 184.325 151.309 184.98C150.884 185.101 150.49 185.309 150.152 185.592C149.813 185.875 149.539 186.226 149.345 186.622C149.151 187.019 149.043 187.451 149.028 187.892C149.013 188.333 149.091 188.772 149.256 189.181C149.901 190.94 151.922 192.07 153.601 192.587C155.466 193.152 159.587 192.635 160.104 192.587C160.349 193.818 160.578 195.023 160.775 196.158C160.882 196.76 160.978 197.325 161.069 197.89H162.71C162.588 197.24 162.46 196.568 162.321 195.87C162.076 194.617 161.788 193.285 161.479 191.915C162.722 191.419 163.934 190.849 165.109 190.209C166.468 191.68 169.944 193.408 170.397 193.621C169.922 194.783 169.448 195.913 168.989 196.968C168.851 197.288 168.712 197.587 168.579 197.89H170.306L170.434 197.581C170.924 196.403 171.415 195.129 171.916 193.818C172.412 193.925 176.495 194.756 178.398 194.324C180.125 193.935 182.214 192.96 182.987 191.254C183.182 190.859 183.292 190.427 183.31 189.987C183.327 189.547 183.252 189.107 183.089 188.698C182.925 188.289 182.677 187.919 182.361 187.611C182.045 187.304 181.668 187.067 181.255 186.915C178.739 186.068 174.901 188.925 173.494 190.833C173.414 190.945 172.646 192.261 172.182 193.104C172.38 192.571 172.582 192.038 172.779 191.505C173.179 190.438 173.547 189.308 173.952 188.125C174.123 187.544 174.299 186.958 174.485 186.366C174.672 185.774 174.8 185.145 174.96 184.532C175.301 183.093 175.578 181.622 175.823 180.135C176.782 180.481 180.205 181.675 181.974 181.547C183.744 181.419 185.956 180.774 186.979 179.207C187.231 178.846 187.404 178.435 187.487 178.002C187.57 177.569 187.561 177.123 187.46 176.694C187.36 176.265 187.17 175.861 186.904 175.51C186.637 175.159 186.3 174.868 185.913 174.655C183.552 173.44 179.325 175.679 177.646 177.352C177.545 177.454 176.473 178.792 175.898 179.533C176.042 178.637 176.185 177.747 176.297 176.835C176.623 174.202 176.873 171.532 177.134 168.866C177.214 168.051 177.3 167.235 177.385 166.425C177.726 166.553 181.766 168.056 183.749 167.918C185.514 167.79 187.731 167.145 188.749 165.572C189.002 165.211 189.175 164.8 189.259 164.367C189.342 163.934 189.333 163.488 189.232 163.058C189.132 162.629 188.942 162.225 188.675 161.874C188.408 161.523 188.07 161.232 187.683 161.02C185.327 159.805 181.1 162.049 179.421 163.717C179.293 163.845 177.758 165.769 177.39 166.276C177.582 164.485 177.785 162.699 178.062 160.946C178.418 158.578 178.929 156.237 179.592 153.936C179.746 154 183.952 155.583 185.988 155.445C187.752 155.317 189.965 154.672 190.988 153.099C191.241 152.738 191.414 152.327 191.497 151.894C191.581 151.46 191.572 151.015 191.471 150.585C191.371 150.156 191.181 149.752 190.914 149.401C190.647 149.05 190.309 148.759 189.922 148.547C187.566 147.332 183.339 149.576 181.66 151.244C181.527 151.377 179.874 153.446 179.602 153.845C179.64 153.712 179.666 153.568 179.709 153.435C180.436 151.147 181.366 148.928 182.486 146.804C183.088 145.626 183.728 144.533 184.378 143.478C185.135 143.856 188.595 145.535 190.439 145.61C192.283 145.685 194.479 145.28 195.668 143.835C195.96 143.505 196.179 143.117 196.311 142.696C196.443 142.276 196.485 141.833 196.435 141.395C196.384 140.957 196.243 140.535 196.019 140.156C195.795 139.776 195.494 139.448 195.135 139.192C192.923 137.726 188.477 139.491 186.606 140.967C186.505 141.047 185.572 141.975 184.906 142.662C185.204 142.193 185.503 141.703 185.801 141.255C186.91 139.587 188.03 138.126 189.032 136.836C189.607 136.111 190.14 135.466 190.631 134.864C191.564 134.864 195.316 134.736 196.958 133.963C198.6 133.19 200.391 131.831 200.78 129.976C200.885 129.548 200.899 129.103 200.82 128.669C200.742 128.236 200.574 127.823 200.326 127.459C200.078 127.095 199.757 126.786 199.382 126.554C199.008 126.322 198.589 126.171 198.152 126.111C195.519 125.829 192.385 129.443 191.42 131.607C191.334 131.794 190.354 134.869 190.418 134.869H190.476C189.975 135.434 189.447 136.047 188.877 136.73C187.843 137.998 186.692 139.437 185.54 141.09C184.282 142.859 183.127 144.699 182.081 146.601C180.901 148.727 179.913 150.953 179.128 153.254C179.128 153.28 179.128 153.312 179.128 153.339C179.128 152.561 179.128 150.386 179.085 150.221C178.781 147.87 176.814 143.51 174.203 143.03C173.767 142.962 173.323 142.987 172.897 143.102C172.472 143.218 172.076 143.421 171.735 143.7C171.393 143.978 171.114 144.325 170.916 144.719C170.718 145.112 170.604 145.543 170.583 145.983C170.434 147.849 171.783 149.714 173.105 150.898C174.592 152.225 178.723 153.51 179.053 153.611C178.312 155.972 177.728 158.379 177.305 160.818C177.054 162.241 176.841 163.675 176.649 165.119C176.649 164.448 176.649 163.845 176.617 163.765C176.308 161.415 174.341 157.054 171.735 156.569C171.299 156.501 170.854 156.525 170.428 156.64C170.002 156.755 169.605 156.958 169.263 157.237C168.921 157.515 168.642 157.863 168.443 158.257C168.244 158.65 168.131 159.082 168.11 159.522C167.961 161.388 169.315 163.254 170.631 164.437C171.948 165.62 175.471 166.804 176.399 167.102C176.335 167.635 176.26 168.211 176.191 168.765C175.871 171.43 175.567 174.096 175.189 176.686C175.055 177.598 174.89 178.498 174.725 179.394C174.725 178.797 174.725 178.296 174.693 178.216C174.389 175.871 172.422 171.51 169.816 171.025C169.38 170.957 168.935 170.981 168.509 171.096C168.083 171.21 167.686 171.414 167.344 171.693C167.002 171.971 166.723 172.319 166.524 172.713C166.325 173.106 166.212 173.538 166.191 173.978C166.042 175.844 167.39 177.71 168.712 178.893C170.034 180.076 173.211 181.142 174.315 181.499C174.123 182.411 173.931 183.328 173.702 184.207C173.531 184.804 173.408 185.385 173.206 185.977C173.003 186.569 172.827 187.144 172.641 187.72C172.241 188.818 171.836 189.948 171.42 191.009C171.138 191.744 170.855 192.443 170.573 193.141C170.717 192.235 170.956 190.444 170.962 190.295C170.934 188.211 170.37 186.17 169.325 184.367C169.335 184.134 169.321 183.9 169.283 183.669C169.229 183.231 169.083 182.81 168.855 182.432C168.627 182.055 168.322 181.73 167.96 181.478C167.597 181.227 167.186 181.054 166.753 180.973C166.32 180.891 165.874 180.901 165.445 181.004C162.881 181.686 161.255 186.185 161.133 188.552C161.133 188.69 161.218 190.215 161.292 191.174C161.164 190.614 161.042 190.071 160.903 189.5C160.637 188.365 160.333 187.24 160.013 186.03C159.837 185.455 159.661 184.868 159.48 184.277C159.299 183.685 159.064 183.088 158.856 182.486C158.35 181.1 157.79 179.719 157.156 178.339C158.147 178.104 161.66 177.208 163.067 176.126C164.475 175.044 165.962 173.285 165.946 171.414C165.956 170.975 165.874 170.538 165.705 170.133C165.536 169.727 165.283 169.362 164.963 169.06C164.644 168.758 164.264 168.527 163.849 168.382C163.434 168.237 162.994 168.18 162.556 168.216C159.917 168.504 157.63 172.704 157.151 175.023C157.124 175.167 156.964 176.873 156.895 177.811C156.522 176.985 156.149 176.158 155.738 175.338C154.56 172.96 153.297 170.599 152.039 168.232C151.655 167.507 151.282 166.777 150.904 166.052C151.261 165.972 155.456 164.986 157.033 163.787C158.441 162.721 159.928 160.945 159.912 159.075C159.922 158.635 159.84 158.198 159.671 157.793C159.502 157.387 159.249 157.022 158.929 156.72C158.61 156.419 158.23 156.188 157.815 156.042C157.4 155.897 156.96 155.84 156.522 155.876C153.889 156.164 151.596 160.364 151.117 162.683C151.085 162.859 150.861 165.311 150.834 165.935C150.003 164.336 149.192 162.737 148.457 161.137C147.446 158.967 146.581 156.732 145.866 154.448C146.032 154.41 150.413 153.414 152.034 152.177C153.435 151.111 154.928 149.336 154.912 147.465C154.922 147.026 154.839 146.59 154.669 146.184C154.5 145.779 154.247 145.414 153.928 145.113C153.608 144.811 153.229 144.58 152.814 144.434C152.4 144.289 151.96 144.232 151.522 144.267C148.883 144.549 146.597 148.755 146.117 151.074C146.08 151.255 145.845 153.893 145.834 154.373C145.792 154.24 145.738 154.107 145.696 153.973C145.041 151.665 144.592 149.303 144.352 146.916C144.209 145.599 144.139 144.331 144.102 143.094C144.939 142.993 148.75 142.486 150.328 141.527C151.906 140.567 153.526 139.027 153.707 137.161C153.768 136.725 153.736 136.28 153.614 135.857C153.491 135.433 153.281 135.041 152.996 134.704C152.711 134.367 152.359 134.095 151.961 133.904C151.564 133.713 151.131 133.608 150.69 133.595C148.025 133.595 145.301 137.513 144.571 139.768C144.534 139.891 144.267 141.18 144.086 142.124C144.086 141.564 144.059 140.989 144.059 140.456C144.059 138.451 144.193 136.612 144.315 134.987C144.395 134.064 144.486 133.228 144.576 132.449C145.344 131.916 148.414 129.784 149.374 128.212C150.333 126.639 151.047 124.518 150.36 122.775C150.212 122.359 149.978 121.98 149.674 121.661C149.37 121.342 149.002 121.09 148.594 120.923C148.187 120.755 147.748 120.676 147.307 120.689C146.867 120.702 146.434 120.808 146.037 121C143.681 122.22 143.063 126.964 143.452 129.299C143.484 129.502 144.374 132.599 144.416 132.572L144.459 132.54C144.358 133.286 144.257 134.091 144.161 134.971C144.001 136.596 143.83 138.435 143.787 140.45C143.712 142.619 143.763 144.79 143.942 146.953C144.128 149.378 144.531 151.781 145.147 154.133C145.154 154.162 145.163 154.191 145.173 154.219C144.752 153.563 143.526 151.767 143.414 151.639C141.869 149.848 137.817 147.3 135.376 148.334C134.975 148.517 134.617 148.783 134.326 149.114C134.035 149.445 133.816 149.833 133.685 150.254C133.554 150.675 133.513 151.119 133.564 151.557C133.616 151.995 133.759 152.417 133.985 152.795C134.95 154.357 137.108 155.167 138.857 155.423Z" fill="#263238"/>
<path d="M184.346 142.95C184.389 142.977 185.194 139.853 185.22 139.651C185.551 137.305 184.799 132.577 182.411 131.426C182.01 131.247 181.575 131.154 181.135 131.153C180.695 131.153 180.26 131.245 179.858 131.423C179.456 131.601 179.096 131.862 178.801 132.189C178.506 132.515 178.284 132.9 178.147 133.318C177.507 135.077 178.318 137.236 179.277 138.723C180.402 140.477 184.346 142.95 184.346 142.95Z" fill="#263238"/>
<path d="M70.6382 107.055H0V15.5541H70.6382V107.055ZM0.533038 106.522H70.1051V16.0872H0.533038V106.522Z" fill="#263238"/>
<path d="M68.6453 104.476H1.97298V18.1234H68.6453V104.476ZM2.54866 103.942H68.1123V18.6564H2.50602L2.54866 103.942Z" fill="#263238"/>
<path d="M52.078 82.9621H18.566V39.6528H52.078V82.9621ZM19.1097 82.4291H51.545V40.1858H19.099L19.1097 82.4291Z" fill="#263238"/>
<path d="M146.842 68.3249L135.333 66.6991L136.932 55.2708L148.446 56.8699L146.842 68.3249ZM135.936 66.246L146.388 67.7225L147.854 57.3496L137.396 55.8731L135.936 66.246ZM148.675 51.193L138.148 49.7059L139.672 38.9065L139.773 38.8425C142.562 37.1332 145.214 35.2102 147.705 33.0911C150.036 31.127 152.063 28.8298 153.723 26.2735C155.292 23.8369 156.314 21.0891 156.719 18.2193C157.033 15.9965 156.777 14.1789 155.956 12.8036C155.136 11.4284 153.782 10.6342 151.911 10.3677C151.197 10.2269 150.463 10.2288 149.75 10.3734C149.038 10.5179 148.361 10.8022 147.758 11.2099C147.196 11.6455 146.73 12.1929 146.389 12.8177C146.049 13.4425 145.842 14.131 145.781 14.8399C145.676 15.535 145.658 16.2405 145.727 16.94C145.797 17.6276 145.887 18.3686 145.999 19.1415L146.037 19.424L135.04 20.2395L134.997 20.0103C134.77 18.8896 134.632 17.7523 134.587 16.6095C134.546 15.498 134.603 14.3849 134.758 13.2834C135.413 8.64062 137.391 5.08526 140.621 2.71324C143.851 0.341226 148.19 -0.484983 153.483 0.27193C158.888 1.03417 162.929 3.12368 165.503 6.47649C168.078 9.8293 169 14.2748 168.238 19.6798C167.797 23.0329 166.696 26.2651 164.997 29.1892C163.28 32.0573 161.109 34.628 158.568 36.801C155.841 39.1386 152.91 41.2276 149.811 43.0429L148.675 51.193ZM138.75 49.2528L148.222 50.5907L149.336 42.6911L149.448 42.6271C152.559 40.8127 155.499 38.7199 158.233 36.3746C160.728 34.2332 162.861 31.7024 164.549 28.8801C166.222 26.0225 167.309 22.8606 167.747 19.5786C168.488 14.3228 167.603 10.0159 165.119 6.78565C162.635 3.55544 158.723 1.5299 153.446 0.783646C148.297 0.0587147 144.096 0.847611 140.973 3.12901C137.849 5.41042 135.92 8.83785 135.285 13.3314C135.135 14.4011 135.08 15.4821 135.12 16.5616C135.161 17.5976 135.278 18.6292 135.472 19.6479L145.429 18.9069C145.338 18.23 145.258 17.5797 145.194 16.9667C145.122 16.2244 145.141 15.476 145.253 14.7386C145.323 13.9595 145.554 13.2033 145.931 12.5179C146.308 11.8326 146.823 11.2329 147.444 10.7568C148.101 10.3064 148.84 9.99101 149.62 9.82904C150.4 9.66707 151.204 9.66172 151.985 9.81331C154.027 10.1011 155.514 11.0073 156.41 12.4785C157.305 13.9497 157.577 15.8953 157.246 18.2406C156.835 21.1941 155.786 24.0226 154.171 26.5294C152.483 29.1275 150.421 31.4625 148.052 33.4589C145.57 35.5667 142.933 37.484 140.163 39.1944L138.75 49.2528Z" fill="#263238"/>
<path d="M79.748 94.4437C79.748 94.4437 45.5323 94.8968 44.4662 97.3327C43.4001 99.7687 38.5335 129.272 38.2296 139.443C37.9258 149.613 37.7766 156.324 38.8373 157.539C39.898 158.755 56.4808 168.339 56.4808 168.339C56.4808 168.339 48.7251 195.561 51.1505 196.478C53.5758 197.395 68.4902 201.19 78.0689 201.344C87.6476 201.499 97.0823 201.494 97.8446 201.494C98.6068 201.494 123.089 202.405 131.607 200.428C140.125 198.45 142.705 198.295 142.705 194.953C142.705 191.611 140.573 187.491 140.424 186.745C140.274 185.998 146.207 128.34 142.86 114.198C139.512 100.057 135.104 94.5769 131.756 93.6654C128.409 92.7539 104.534 93.3616 104.534 93.3616L79.748 94.4437Z" fill="#92E3A9"/>
<path d="M110.973 202C107.242 202 103.079 201.941 98.5907 201.813H97.8498C96.1441 201.813 87.189 201.813 78.0741 201.664C68.3355 201.51 53.4317 197.666 51.0651 196.776C50.532 196.584 49.322 196.126 52.6642 182.059C54.1247 175.865 55.8624 169.698 56.1822 168.52C54.2899 167.427 39.6847 158.952 38.6559 157.769C37.5312 156.484 37.6591 150.306 37.979 139.491C38.2881 129.187 43.2347 99.5608 44.2368 97.2634C45.3029 94.7955 74.007 94.2891 79.7585 94.2145L104.545 93.1484C105.526 93.1217 128.531 92.5514 131.847 93.4629C133.904 93.9959 139.112 97.1622 143.142 114.187C145.898 125.84 142.433 166.286 141.127 181.51C140.877 184.436 140.695 186.553 140.711 186.76C140.831 187.132 140.97 187.496 141.127 187.853C141.777 189.452 142.993 192.459 142.993 195.007C142.993 198.205 140.823 198.674 134.374 200.129L131.708 200.742C128.03 201.584 120.84 202 110.973 202ZM119.688 93.4629C112.444 93.4629 104.683 93.6548 104.545 93.6601L79.7585 94.7262C66.5924 94.9021 45.4415 95.7922 44.7166 97.4553C43.7198 99.7314 38.8105 129.219 38.5013 139.485C38.2348 148.456 38.0003 156.207 39.0344 157.401C39.8819 158.371 52.0085 165.482 56.6246 168.141C56.676 168.171 56.7159 168.217 56.7381 168.272C56.7603 168.327 56.7635 168.388 56.7472 168.445C52.9573 181.713 49.871 195.721 51.2516 196.254C53.6023 197.133 68.4048 200.95 78.0794 201.105C87.1997 201.248 96.1441 201.254 97.8498 201.254H98.6067C114.87 201.712 126.57 201.334 131.548 200.188C132.524 199.958 133.419 199.761 134.24 199.575C140.541 198.151 142.444 197.72 142.444 194.969C142.444 192.528 141.255 189.591 140.615 188.013C140.441 187.621 140.292 187.219 140.168 186.808C140.141 186.654 140.216 185.716 140.583 181.425C141.884 166.223 145.343 125.845 142.604 114.262C138.643 97.514 133.654 94.465 131.692 93.9266C130.29 93.5748 125.136 93.4629 119.688 93.4629Z" fill="#263238"/>
<path d="M94.4173 108.75C94.3651 108.751 94.3139 108.737 94.2702 108.708C94.2265 108.68 94.1923 108.639 94.1721 108.591C94.158 108.558 94.1504 108.524 94.1497 108.489C94.1491 108.453 94.1553 108.418 94.1682 108.386C94.1811 108.353 94.2003 108.323 94.2248 108.298C94.2492 108.273 94.2784 108.253 94.3107 108.239C95.5227 107.721 96.7013 107.128 97.8394 106.464C97.8699 106.446 97.9035 106.435 97.9383 106.43C97.9731 106.426 98.0085 106.428 98.0424 106.437C98.0763 106.447 98.1081 106.462 98.1359 106.484C98.1637 106.505 98.1871 106.532 98.2046 106.562C98.2221 106.593 98.2334 106.626 98.2379 106.661C98.2424 106.696 98.24 106.731 98.2309 106.765C98.2217 106.799 98.206 106.831 98.1845 106.859C98.1631 106.887 98.1364 106.91 98.1059 106.927C96.9487 107.602 95.7506 108.204 94.5186 108.729C94.4869 108.744 94.4523 108.751 94.4173 108.75Z" fill="#263238"/>
<path d="M99.5827 105.968C99.5388 105.968 99.4955 105.957 99.4566 105.936C99.4177 105.916 99.3842 105.887 99.3588 105.851C99.3207 105.791 99.3078 105.719 99.3228 105.65C99.3378 105.581 99.3795 105.521 99.4388 105.483C103.676 102.661 107.396 99.1302 110.435 95.0461C110.456 95.0173 110.481 94.9927 110.511 94.9739C110.541 94.9551 110.574 94.9423 110.609 94.9364C110.643 94.9304 110.679 94.9314 110.713 94.9393C110.747 94.9471 110.78 94.9617 110.808 94.9821C110.837 95.0018 110.862 95.0271 110.88 95.0563C110.899 95.0856 110.912 95.1183 110.918 95.1526C110.924 95.1868 110.923 95.2219 110.915 95.2558C110.907 95.2897 110.893 95.3217 110.872 95.3499C107.792 99.4872 104.024 103.064 99.7319 105.925C99.6878 105.955 99.6357 105.97 99.5827 105.968Z" fill="#263238"/>
<path d="M102.717 107.461C102.669 107.46 102.622 107.447 102.581 107.423C102.54 107.398 102.506 107.364 102.482 107.322C102.466 107.291 102.455 107.257 102.451 107.222C102.447 107.188 102.451 107.152 102.46 107.119C102.47 107.085 102.487 107.053 102.509 107.026C102.531 106.999 102.558 106.976 102.589 106.959C105.254 105.531 108.373 101.176 108.404 101.133C108.423 101.102 108.449 101.074 108.479 101.053C108.509 101.031 108.543 101.016 108.579 101.008C108.615 101.001 108.652 101.001 108.689 101.008C108.725 101.016 108.759 101.031 108.789 101.052C108.819 101.074 108.844 101.101 108.863 101.133C108.882 101.165 108.894 101.2 108.898 101.237C108.903 101.274 108.9 101.311 108.889 101.346C108.878 101.382 108.86 101.414 108.836 101.443C108.708 101.624 105.638 105.941 102.84 107.429C102.802 107.45 102.76 107.461 102.717 107.461Z" fill="#263238"/>
<path d="M86.8802 150.285C86.8241 150.284 86.7697 150.265 86.7247 150.232C86.6798 150.198 86.6465 150.152 86.6297 150.098L85.7342 147.316C85.7226 147.282 85.7179 147.247 85.7202 147.212C85.7226 147.177 85.732 147.143 85.7479 147.111C85.7639 147.08 85.786 147.052 85.8129 147.03C85.8399 147.007 85.8711 146.99 85.9048 146.98C85.9719 146.958 86.045 146.964 86.1079 146.996C86.1709 147.028 86.2186 147.083 86.2406 147.15L87.1361 149.933C87.1579 150 87.1522 150.073 87.1203 150.136C87.0883 150.199 87.0326 150.247 86.9655 150.269C86.9383 150.279 86.9094 150.285 86.8802 150.285Z" fill="#263238"/>
<path d="M91.7629 165.444C91.7067 165.444 91.6519 165.426 91.6067 165.393C91.5616 165.359 91.5285 165.312 91.5124 165.258L87.5466 152.95C87.5247 152.879 87.5318 152.803 87.5663 152.737C87.6007 152.672 87.6598 152.623 87.7305 152.601C87.8012 152.579 87.8777 152.586 87.9432 152.62C88.0086 152.655 88.0577 152.714 88.0797 152.785L92.0455 165.098C92.0659 165.165 92.0595 165.237 92.0277 165.3C91.996 165.363 91.9412 165.41 91.8749 165.434L91.7629 165.444Z" fill="#263238"/>
<path d="M92.9837 165.748C92.9323 165.751 92.8816 165.736 92.8397 165.706C92.8099 165.687 92.7841 165.663 92.7637 165.634C92.7432 165.606 92.7287 165.574 92.7207 165.539C92.7128 165.505 92.7117 165.47 92.7175 165.435C92.7233 165.401 92.7358 165.367 92.7544 165.338L96.7096 159.107C96.7276 159.076 96.7515 159.05 96.78 159.029C96.8085 159.008 96.8409 158.993 96.8753 158.985C96.9096 158.977 96.9453 158.976 96.98 158.983C97.0147 158.989 97.0479 159.002 97.0774 159.021C97.1365 159.06 97.1784 159.119 97.1943 159.188C97.2102 159.257 97.1989 159.329 97.1627 159.389L93.2075 165.626C93.1831 165.663 93.1499 165.693 93.1109 165.715C93.0718 165.736 93.0282 165.748 92.9837 165.748Z" fill="#263238"/>
<path d="M101.954 162.097C101.902 162.099 101.851 162.085 101.807 162.057C101.763 162.03 101.728 161.99 101.707 161.942C101.685 161.895 101.679 161.842 101.688 161.791C101.697 161.739 101.721 161.692 101.757 161.654L111.352 150.855C111.399 150.802 111.466 150.77 111.537 150.766C111.608 150.762 111.677 150.786 111.73 150.834C111.783 150.881 111.815 150.948 111.819 151.019C111.823 151.09 111.799 151.159 111.752 151.212L102.157 162.012C102.131 162.04 102.1 162.062 102.065 162.077C102.03 162.091 101.992 162.098 101.954 162.097Z" fill="#263238"/>
<path d="M97.8499 201.792H97.7753L77.1307 195.774C77.0971 195.764 77.0658 195.748 77.0385 195.726C77.0112 195.704 76.9885 195.677 76.9717 195.646C76.9548 195.616 76.9442 195.582 76.9404 195.547C76.9366 195.512 76.9397 195.477 76.9495 195.444C76.9586 195.41 76.9746 195.378 76.9963 195.35C77.0181 195.323 77.0452 195.3 77.0761 195.283C77.107 195.266 77.1409 195.255 77.176 195.252C77.211 195.248 77.2464 195.252 77.28 195.262L97.9192 201.27C97.9899 201.28 98.0537 201.317 98.0967 201.374C98.1397 201.431 98.1583 201.503 98.1484 201.574C98.1385 201.644 98.1009 201.708 98.0439 201.751C97.987 201.794 97.9152 201.813 97.8446 201.803L97.8499 201.792Z" fill="#263238"/>
<path d="M74.7749 195.071H74.7003L71.1609 194.036C71.0902 194.017 71.0303 193.97 70.9943 193.906C70.9583 193.842 70.9492 193.766 70.969 193.695C70.9888 193.625 71.0358 193.565 71.0998 193.529C71.1638 193.493 71.2394 193.484 71.3101 193.503L74.8495 194.537C74.8831 194.547 74.9144 194.564 74.9417 194.586C74.969 194.607 74.9917 194.635 75.0086 194.665C75.0254 194.696 75.036 194.73 75.0398 194.764C75.0436 194.799 75.0405 194.834 75.0307 194.868C75.0166 194.925 74.9837 194.976 74.9374 195.013C74.8911 195.05 74.8339 195.07 74.7749 195.071Z" fill="#263238"/>
<path d="M79.5347 26.8172C79.5347 26.8172 68.794 24.3492 66.7418 27.1104C64.6896 29.8715 68.778 32.4834 68.197 33.0644C67.616 33.6454 55.1269 40.0312 56.1397 46.2784C57.1524 52.5256 65.5798 58.9114 65.8729 60.6704C66.1661 62.4294 56.1397 62.9945 54.8337 65.6063C53.5278 68.2182 51.6355 80.5634 62.5308 84.6305C73.4261 88.6975 87.0505 81.8693 90.8458 81.8693C94.641 81.8693 98.3989 89.2785 102.754 88.8415C105.407 88.5379 107.847 87.2409 109.582 85.2115C109.582 85.2115 114.081 91.4587 120.616 88.8415C127.151 86.2242 134.704 77.0773 131.511 74.3215C128.318 71.5657 124.683 70.6915 127.007 68.2236C129.331 65.7556 134.123 59.2205 133.404 53.5544C132.684 47.8882 125.994 47.4564 123.382 45.7134C120.771 43.9703 126.287 41.0653 126.144 36.2733C126 31.4813 122.508 23.4804 104.795 18.15C87.0825 12.8196 78.3673 15.3889 77.4932 19.893C77.2199 21.1256 77.2639 22.4074 77.621 23.6184C77.978 24.8294 78.6365 25.93 79.5347 26.8172Z" fill="#263238"/>
<path d="M117.461 89.7263C113.308 89.7263 110.376 86.5654 109.593 85.6166C107.83 87.5729 105.413 88.8166 102.797 89.1133C100.371 89.3585 98.1753 87.3383 96.0591 85.3821C94.2468 83.7083 92.5304 82.1305 90.862 82.1305C89.8439 82.1305 88.0156 82.6636 85.7022 83.3459C79.5989 85.1315 70.372 87.8287 62.4564 84.8757C58.6718 83.4631 56.06 80.9525 54.6527 77.4132C52.7871 72.6585 53.7039 67.2855 54.6101 65.4838C55.3563 63.9966 58.5332 63.1651 61.337 62.4348C63.2933 61.9018 65.7239 61.2888 65.6013 60.7078C65.4787 60.1268 64.3967 58.9754 63.1014 57.5788C60.4948 54.7591 56.5503 50.5001 55.8734 46.3317C54.9832 40.8681 63.7357 35.5164 67.0352 33.5015C67.4936 33.219 67.9307 32.9685 68 32.8832C67.8268 32.5909 67.6308 32.3129 67.4137 32.0517C66.5288 30.9003 65.047 28.9654 66.5235 26.9611C68.3145 24.5305 76.1182 25.8951 78.7407 26.3908C78.0164 25.4765 77.5059 24.4117 77.2467 23.2744C76.9875 22.1372 76.9862 20.9563 77.2429 19.8184C77.4024 19.1326 77.7065 18.4886 78.1348 17.9297C78.5632 17.3708 79.106 16.9098 79.7268 16.5776C84.167 13.9124 93.3406 14.3708 104.881 17.8728C123.303 23.4591 126.282 31.7958 126.421 36.2733C126.49 38.6826 125.2 40.6069 124.161 42.1367C123.452 43.2028 122.844 44.0983 122.972 44.7539C123.013 44.9072 123.085 45.0505 123.183 45.1751C123.281 45.2998 123.403 45.4031 123.543 45.4789C124.432 45.9928 125.374 46.4109 126.352 46.7262C129.374 47.8456 133.132 49.2421 133.676 53.5118C134.39 59.082 129.944 65.4891 127.215 68.3942C127.014 68.5609 126.851 68.7692 126.738 69.0047C126.625 69.2403 126.564 69.4975 126.56 69.7587C126.645 70.537 127.695 71.2459 129.027 72.1361C129.954 72.7397 130.844 73.3983 131.693 74.1083C132.054 74.4516 132.317 74.8847 132.456 75.3634C132.595 75.8421 132.604 76.349 132.482 76.8322C131.81 80.8406 125.877 87.0185 120.728 89.092C119.689 89.509 118.58 89.7243 117.461 89.7263ZM109.598 84.929C109.639 84.9296 109.68 84.9401 109.716 84.9596C109.752 84.979 109.783 85.007 109.806 85.0409C109.854 85.0996 114.268 91.0856 120.531 88.5803C125.541 86.5761 131.309 80.5847 131.954 76.7415C132.119 75.7501 131.917 74.9985 131.346 74.5081C130.513 73.8168 129.639 73.176 128.729 72.5892C127.284 71.619 126.144 70.8515 126.027 69.8334C126.021 69.4933 126.09 69.1562 126.229 68.8458C126.368 68.5354 126.574 68.2593 126.831 68.037C129.315 65.3719 133.841 58.9754 133.148 53.5864C132.641 49.6419 129.049 48.3093 126.165 47.2379C125.148 46.9088 124.169 46.4728 123.244 45.9373C123.047 45.8223 122.875 45.6686 122.738 45.4854C122.602 45.3022 122.504 45.0933 122.45 44.8712C122.279 44.0024 122.914 43.0536 123.718 41.8542C124.715 40.3724 125.952 38.5281 125.888 36.2893C125.755 31.9557 122.834 23.8749 104.726 18.3846C93.3299 14.9251 84.3163 14.4348 80.004 17.036C79.4474 17.33 78.9598 17.7392 78.5737 18.2365C78.1877 18.7337 77.9121 19.3076 77.7653 19.9197C77.4974 21.1125 77.5353 22.3535 77.8755 23.5277C78.2156 24.7019 78.8469 25.7711 79.7108 26.636C79.7551 26.6761 79.7852 26.7294 79.7968 26.788C79.8083 26.8465 79.8006 26.9073 79.7748 26.9611C79.7477 27.0143 79.7036 27.0569 79.6495 27.082C79.5954 27.1071 79.5344 27.1134 79.4763 27.0997C76.5339 26.4228 68.5544 25.1435 66.9712 27.2863C65.7346 28.9707 66.9712 30.5698 67.8561 31.7425C68.3891 32.4194 68.7569 32.9152 68.3891 33.2723C68.0515 33.5311 67.6952 33.7645 67.323 33.9706C64.418 35.7456 55.5962 41.1453 56.4118 46.2571C57.0621 50.2656 60.9372 54.4552 63.5065 57.227C65.0257 58.8688 66.0278 59.9509 66.1397 60.6331C66.3156 61.6992 64.2794 62.2323 61.465 62.9625C58.901 63.6288 55.7135 64.4604 55.0685 65.7343C54.2263 67.4187 53.3415 72.6905 55.1271 77.2266C55.7778 78.8947 56.786 80.4001 58.0807 81.6368C59.3755 82.8736 60.9255 83.8117 62.6216 84.3853C70.372 87.2797 79.4923 84.6092 85.5423 82.8448C87.8983 82.1572 89.7533 81.6082 90.8727 81.6082C92.7489 81.6082 94.54 83.2553 96.4322 84.9983C98.4631 86.8693 100.563 88.7989 102.754 88.5803C105.332 88.2778 107.702 87.0185 109.396 85.0516C109.418 85.0172 109.448 84.9883 109.483 84.9671C109.518 84.9459 109.557 84.9328 109.598 84.929Z" fill="#263238"/>
<path d="M81.4699 73.41C81.4699 73.41 77.8399 96.0641 77.696 96.789C77.5521 97.514 84.0925 104.049 92.9409 102.887C98.124 102.264 102.888 99.7281 106.299 95.7763L103.543 73.2661C103.543 73.2661 95.9899 76.8961 91.3418 76.7522C86.6937 76.6082 81.4699 73.41 81.4699 73.41Z" fill="white"/>
<path d="M90.8511 103.292C86.0955 103.214 81.5532 101.305 78.1702 97.9617C77.3546 97.0929 77.4133 96.8157 77.4346 96.7091C77.5732 96.0001 81.1658 73.5699 81.2032 73.3407C81.2109 73.2976 81.2289 73.257 81.2557 73.2223C81.2825 73.1877 81.3173 73.16 81.357 73.1417C81.3968 73.1234 81.4404 73.115 81.4842 73.1171C81.5279 73.1193 81.5705 73.132 81.6083 73.1541C81.6616 73.1861 86.832 76.3151 91.3522 76.459C95.8724 76.6029 103.351 73.0369 103.426 72.9996C103.463 72.9799 103.505 72.9697 103.548 72.9697C103.591 72.9697 103.633 72.9799 103.671 72.9996C103.707 73.0207 103.738 73.05 103.761 73.0852C103.784 73.1203 103.799 73.1603 103.804 73.2021L106.565 95.707C106.57 95.7417 106.567 95.777 106.558 95.8109C106.549 95.8447 106.533 95.8764 106.512 95.9042C103.045 99.897 98.2251 102.468 92.978 103.122C92.2735 103.225 91.5631 103.282 90.8511 103.292ZM81.6722 73.8364C81.1765 76.9227 78.0902 96.1654 77.941 96.8423C78.0529 97.5033 84.2468 103.772 92.866 102.626C97.9338 101.986 102.595 99.5228 105.979 95.6963L103.324 73.6552C101.789 74.3641 95.4939 77.1413 91.3362 77.0133C87.3011 76.8907 82.9142 74.5507 81.6722 73.8364Z" fill="#263238"/>
<path d="M79.9773 85.5633L95.2702 82.6049L81.4698 73.41L79.9773 85.5633Z" fill="#263238"/>
<path d="M79.9777 85.8298C79.9112 85.8279 79.8473 85.8035 79.7965 85.7605C79.7666 85.7309 79.7439 85.6948 79.7301 85.6551C79.7162 85.6154 79.7116 85.5731 79.7165 85.5313L81.2037 73.378C81.2091 73.3329 81.2263 73.29 81.2534 73.2536C81.2805 73.2171 81.3166 73.1884 81.3583 73.1702C81.3986 73.1491 81.4434 73.1382 81.4889 73.1382C81.5343 73.1382 81.5791 73.1491 81.6194 73.1702L95.4145 82.3704C95.4592 82.3985 95.4944 82.4396 95.5153 82.4881C95.5363 82.5366 95.542 82.5904 95.5317 82.6422C95.5209 82.6942 95.4949 82.7417 95.4569 82.7787C95.4189 82.8158 95.3707 82.8406 95.3185 82.8501L80.031 85.8085L79.9777 85.8298ZM81.6834 73.8738L80.2869 85.2328L94.5776 82.4663L81.6834 73.8738Z" fill="#263238"/>
<path d="M73.3996 53.4371C73.3996 53.4371 70.841 50.1962 69.6683 54.29C68.4957 58.3837 73.5915 63.3516 73.5915 63.3516L73.3996 53.4371Z" fill="white"/>
<path d="M73.5703 63.5967C73.5072 63.5938 73.447 63.5693 73.3997 63.5274C73.1865 63.3196 68.1813 58.4209 69.4073 54.2206C69.7964 52.888 70.3828 52.1364 71.1503 51.9872C72.3976 51.7473 73.5756 53.2132 73.6236 53.2771C73.6609 53.3222 73.6815 53.3786 73.6823 53.437L73.8528 63.3302C73.8527 63.3829 73.8376 63.4344 73.8093 63.4787C73.781 63.5231 73.7406 63.5585 73.6929 63.5808C73.6531 63.5921 73.6118 63.5975 73.5703 63.5967ZM71.4382 52.4882C71.3779 52.4827 71.3172 52.4827 71.2569 52.4882C70.7239 52.5948 70.2495 53.2398 69.9243 54.3485C69.0022 57.5148 72.0991 61.31 73.3145 62.6373L73.1545 53.517C72.8294 53.1759 72.0938 52.4882 71.4168 52.4882H71.4382Z" fill="#263238"/>
<path d="M110.056 53.4371C110.056 53.4371 112.615 50.1962 113.788 54.29C114.96 58.3837 109.865 63.3516 109.865 63.3516L110.056 53.4371Z" fill="white"/>
<path d="M109.886 63.5968C109.851 63.6023 109.815 63.6023 109.78 63.5968C109.731 63.5762 109.689 63.5412 109.66 63.4965C109.632 63.4517 109.618 63.3993 109.62 63.3462L109.79 53.4531C109.792 53.3956 109.81 53.3399 109.843 53.2932C109.897 53.2292 111.08 51.758 112.317 52.0032C113.09 52.1525 113.676 52.904 114.065 54.2366C115.286 58.437 110.281 63.3356 110.067 63.5435C110.016 63.5832 109.951 63.6022 109.886 63.5968ZM110.318 53.533L110.179 62.6533C111.389 61.326 114.492 57.5308 113.569 54.3646C113.244 53.2558 112.781 52.6109 112.231 52.5043C111.496 52.3657 110.654 53.1439 110.318 53.533Z" fill="#263238"/>
<path d="M81.438 32.9578C81.438 32.9578 74.114 40.0739 73.0533 42.206C71.9925 44.3382 72.419 68.634 73.5863 70.9901C74.7537 73.3461 86.4272 82.4557 88.3355 83.1966C90.2438 83.9375 94.5987 84.6838 97.9941 82.9834C101.39 81.283 109.561 72.5838 110.414 70.3557C111.267 68.1276 110.201 42.6378 109.668 40.2124C109.135 37.7871 96.3204 29.0293 90.8834 28.6082C85.4464 28.1871 81.438 32.9578 81.438 32.9578Z" fill="white"/>
<path d="M93.1221 84.2413C91.4533 84.2502 89.7958 83.9689 88.2234 83.4098C86.1712 82.6102 74.5137 73.4366 73.3304 71.0753C72.147 68.7139 71.6886 44.2901 72.7973 42.0727C73.8634 39.9405 80.7929 33.1763 81.2247 32.7765C81.4912 32.462 85.489 27.9152 90.8886 28.3416C96.1604 28.7574 109.316 37.3606 109.913 40.1164C110.408 42.4085 111.512 68.1276 110.643 70.4143C109.732 72.813 101.459 81.5068 98.0953 83.2072C96.5387 83.9285 94.8371 84.2823 93.1221 84.2413ZM90.1904 28.848C85.3077 28.848 81.6617 33.0857 81.6244 33.1123C81.5498 33.1816 74.3218 40.2177 73.2931 42.2752C72.2643 44.3328 72.7174 68.586 73.8261 70.7981C74.9348 73.0102 86.4911 82.1145 88.4367 82.8714C90.4835 83.6656 94.6839 84.268 97.8821 82.6689C101.31 80.9578 109.385 72.2426 110.169 70.1851C111.027 67.9357 109.907 42.4671 109.412 40.1964C108.916 37.9257 96.2137 29.2904 90.862 28.88C90.6434 28.88 90.4249 28.848 90.2063 28.848H90.1904Z" fill="#263238"/>
<path d="M87.1949 28.6082C87.1949 28.6082 98.1648 38.6187 106.054 39.0024L113.948 39.3862C113.948 39.3862 96.6243 37.0782 91.2353 25.3407C91.2353 25.3407 85.2706 20.3514 87.1949 28.6082Z" fill="#263238"/>
<path d="M113.948 39.6528L106.059 39.269C98.1649 38.8852 87.4828 29.2212 87.0297 28.8054C86.9912 28.7694 86.9635 28.7232 86.9498 28.6722C86.3155 25.943 86.4541 24.3439 87.3762 23.7789C88.7408 22.942 91.1555 24.9089 91.422 25.1328C91.454 25.1585 91.4796 25.1914 91.4966 25.2288C96.763 36.6997 113.826 39.0877 113.996 39.1251C114.065 39.1331 114.128 39.1677 114.172 39.2214C114.216 39.2752 114.237 39.3438 114.231 39.4129C114.223 39.4812 114.189 39.5439 114.137 39.5884C114.084 39.6329 114.017 39.6559 113.948 39.6528ZM87.4349 28.459C88.3304 29.2585 98.6659 38.3628 106.091 38.7253L110.547 38.9438C105.217 37.6006 94.9773 33.9919 91.0435 25.4953C90.3506 24.9249 88.5222 23.6936 87.6587 24.2213C87.1683 24.5198 86.7579 25.49 87.4349 28.4696V28.459Z" fill="#263238"/>
<path d="M94.1883 59.4391C94.1212 59.4393 94.0564 59.4142 94.007 59.3687C93.9576 59.3233 93.9272 59.2608 93.9218 59.1939L93.0743 48.4745C93.0715 48.4395 93.0756 48.4043 93.0864 48.3709C93.0972 48.3375 93.1145 48.3065 93.1373 48.2798C93.16 48.2531 93.1878 48.2311 93.2191 48.2151C93.2504 48.1991 93.2845 48.1895 93.3195 48.1867C93.3545 48.1839 93.3897 48.188 93.4231 48.1988C93.4565 48.2096 93.4874 48.2269 93.5142 48.2497C93.5409 48.2724 93.5629 48.3002 93.5789 48.3315C93.5948 48.3628 93.6045 48.3969 93.6073 48.4319L94.4548 59.1513C94.4577 59.1863 94.4537 59.2215 94.4429 59.255C94.4322 59.2885 94.4149 59.3194 94.3921 59.3462C94.3693 59.373 94.3415 59.3949 94.3102 59.4109C94.2788 59.4268 94.2447 59.4364 94.2096 59.4391H94.1883Z" fill="#263238"/>
<path d="M91.7306 64.5349C90.2488 64.5349 88.8309 62.9358 88.7722 62.8505C88.7473 62.8246 88.7279 62.7938 88.7152 62.7602C88.7024 62.7265 88.6967 62.6907 88.6982 62.6547C88.6997 62.6188 88.7085 62.5835 88.724 62.551C88.7395 62.5186 88.7614 62.4896 88.7884 62.4658C88.8154 62.442 88.8469 62.424 88.8811 62.4127C88.9153 62.4015 88.9514 62.3973 88.9872 62.4003C89.0231 62.4034 89.0579 62.4137 89.0897 62.4306C89.1214 62.4475 89.1494 62.4707 89.172 62.4987C89.172 62.4987 90.494 64.0019 91.7306 64.0019C92.7487 64.0019 94.2892 62.019 94.8009 61.2567C94.8198 61.2272 94.8444 61.2018 94.8732 61.182C94.9021 61.1622 94.9347 61.1485 94.969 61.1415C95.0033 61.1345 95.0387 61.1345 95.073 61.1415C95.1073 61.1485 95.1398 61.1623 95.1687 61.1821C95.2271 61.2212 95.2677 61.2818 95.2817 61.3506C95.2957 61.4195 95.2819 61.4911 95.2433 61.5499C95.0408 61.8537 93.2124 64.5349 91.7306 64.5349Z" fill="#263238"/>
<path d="M90.0466 69.4495C89.7214 69.4495 89.3909 69.4495 89.0604 69.4175C85.7769 69.199 83.3303 65.2119 83.2237 65.0413C83.2055 65.0112 83.1934 64.9778 83.1881 64.943C83.1828 64.9083 83.1844 64.8728 83.1928 64.8386C83.2012 64.8045 83.2163 64.7723 83.2371 64.744C83.258 64.7156 83.2842 64.6917 83.3143 64.6735C83.3444 64.6553 83.3778 64.6432 83.4126 64.6379C83.4473 64.6326 83.4828 64.6342 83.517 64.6426C83.5511 64.6511 83.5833 64.6661 83.6116 64.6869C83.6399 64.7078 83.6639 64.734 83.6821 64.7641C83.6821 64.8068 86.0914 68.6819 89.0978 68.8845C91.2845 68.9586 93.4702 68.7108 95.5848 68.1489C95.6555 68.1291 95.7312 68.1382 95.7951 68.1742C95.8591 68.2102 95.9062 68.2701 95.926 68.3408C95.9458 68.4115 95.9367 68.4871 95.9007 68.5511C95.8647 68.6151 95.8048 68.6621 95.7341 68.6819C93.876 69.1658 91.9664 69.4235 90.0466 69.4495Z" fill="#263238"/>
<path d="M94.5985 46.7581C94.5985 46.7581 98.3298 43.997 99.7957 43.0269C101.262 42.0567 106.059 43.8744 106.059 43.8744C106.059 43.8744 102.45 41.8595 100.542 41.5397C98.6336 41.2199 94.7051 43.981 94.3853 45.271C94.0655 46.5609 93.122 46.2251 94.5985 46.7581Z" fill="#263238"/>
<path d="M94.5988 47.0033C94.5688 47.0084 94.5382 47.0084 94.5082 47.0033C93.8046 46.7528 93.5967 46.6782 93.5328 46.4703C93.521 46.3873 93.5305 46.3027 93.5604 46.2244C93.5902 46.1461 93.6394 46.0767 93.7033 46.0225C93.9121 45.7993 94.059 45.5256 94.1298 45.2283C94.4762 43.8371 98.5007 40.964 100.585 41.3158C102.52 41.6356 106.043 43.5972 106.192 43.6772C106.251 43.7108 106.294 43.7649 106.315 43.8289C106.336 43.8929 106.332 43.9623 106.304 44.0236C106.276 44.0849 106.226 44.1333 106.164 44.159C106.101 44.1847 106.032 44.1859 105.969 44.1622C104.673 43.6718 101.07 42.5631 99.9452 43.288C98.4794 44.2262 94.7961 46.966 94.7588 46.9927C94.7074 47.0105 94.6521 47.0141 94.5988 47.0033ZM94.1458 46.2837L94.5562 46.4383C95.1905 45.9639 98.3248 43.6505 99.652 42.7977C100.414 42.3073 101.869 42.4512 103.213 42.7443C102.348 42.324 101.438 42.0056 100.5 41.7955C98.7352 41.5077 94.9293 44.1836 94.6362 45.3136C94.5604 45.6807 94.3915 46.0221 94.1458 46.305V46.2837Z" fill="#263238"/>
<path d="M86.9551 47.2645C86.7602 46.8022 86.4365 46.4057 86.0225 46.1222C85.6086 45.8387 85.1219 45.6801 84.6204 45.6654C82.8188 45.5588 74.8552 47.6856 76.2357 47.6856C77.6163 47.6856 83.3465 47.579 84.8336 47.579C85.555 47.6237 86.2778 47.5166 86.9551 47.2645Z" fill="#263238"/>
<path d="M76.2356 47.9575C76.1613 47.9679 76.0856 47.9574 76.0169 47.9273C75.9482 47.8972 75.8892 47.8486 75.8464 47.7869C75.8217 47.742 75.8088 47.6916 75.8088 47.6403C75.8088 47.5891 75.8217 47.5386 75.8464 47.4937C76.1716 46.9607 83.1491 45.3136 84.6256 45.4042C85.1791 45.4191 85.7165 45.5942 86.1725 45.9083C86.6285 46.2224 86.9836 46.662 87.1948 47.1739C87.2165 47.2352 87.2156 47.3022 87.1921 47.3629C87.1686 47.4235 87.1242 47.4737 87.0669 47.5044C86.3507 47.7734 85.5867 47.8913 84.8228 47.8509C84.0659 47.8509 82.2109 47.8509 80.3879 47.9042C78.5649 47.9575 76.9125 47.9575 76.2356 47.9575ZM84.4657 45.9373C83.1224 45.9373 79.3805 46.8381 77.4456 47.4138L80.3933 47.3711C82.2163 47.3445 84.0766 47.3178 84.8335 47.3178C85.4245 47.3309 86.0146 47.2627 86.5872 47.1153C86.3844 46.7639 86.0944 46.4708 85.7451 46.2645C85.3958 46.0581 84.9992 45.9454 84.5936 45.9373H84.4657Z" fill="#263238"/>
<path d="M105.211 53.3359C103.61 53.6991 101.971 53.878 100.329 53.8689C98.1967 53.7623 96.2938 53.1226 97.1306 54.0768C97.9675 55.0309 99.6785 55.8838 102.328 55.3507C104.977 54.8177 105.952 54.29 105.211 53.3359Z" fill="#263238"/>
<path d="M86.0004 53.3359C84.3985 53.6991 82.7603 53.878 81.1177 53.8689C78.9856 53.7623 77.088 53.1226 77.9195 54.0768C78.7511 55.0309 80.4674 55.8838 83.122 55.3507C85.7765 54.8177 86.7253 54.29 86.0004 53.3359Z" fill="#263238"/>
<path d="M50.682 114.507C50.682 114.507 53.8802 96.917 55.3301 95.1953C56.78 93.4735 72.6112 80.526 73.48 79.6572C74.3489 78.7883 80.5961 69.3429 80.8893 70.5049C81.1824 71.667 80.1643 76.7521 78.2721 79.5079C76.3798 82.2638 73.7732 85.6112 73.7732 85.6112C73.7732 85.6112 83.5278 88.0792 84.0608 88.6602C84.5939 89.2412 87.952 96.4692 88.1279 97.37C88.4371 98.9265 87.9893 100.595 86.6781 100.712C85.4841 100.813 77.675 96.789 77.675 96.789L71.4492 97.6419C71.4492 97.6419 66.9503 103.159 63.896 104.177C62.5262 104.678 61.1179 105.067 59.685 105.339L59.8343 116.085L50.682 114.507Z" fill="white"/>
<path d="M59.8338 116.373H59.7859L50.6389 114.774C50.568 114.761 50.5049 114.721 50.463 114.662C50.4245 114.604 50.4093 114.533 50.4204 114.465C50.5536 113.745 53.6453 96.805 55.1271 95.03C56.0972 93.8627 63.1653 87.9673 68.3251 83.6657C70.937 81.4855 73.0052 79.7638 73.293 79.4706C73.5809 79.1775 74.3964 78.0368 75.3719 76.6775C79.1671 71.3898 80.2918 70.0465 80.8515 70.1531C80.9236 70.1682 80.9897 70.2039 81.0418 70.256C81.0939 70.3081 81.1296 70.3742 81.1447 70.4463C81.4592 71.7043 80.4091 76.8694 78.4795 79.6679C76.9443 81.9013 74.9188 84.5505 74.2152 85.4567C76.4859 86.0377 83.6926 87.914 84.2576 88.4737C84.8226 89.0333 88.2074 96.3786 88.394 97.3274C88.519 97.8259 88.5433 98.3443 88.4655 98.8522C88.3877 99.3602 88.2093 99.8476 87.9409 100.286C87.7961 100.483 87.6109 100.648 87.3977 100.768C87.1845 100.888 86.9481 100.962 86.7043 100.984C85.489 101.091 78.7087 97.6366 77.6426 97.0715L71.5873 97.9084C70.9957 98.628 66.9019 103.479 63.9809 104.449C62.6654 104.914 61.3211 105.293 59.9564 105.584L60.1004 116.101C60.0998 116.14 60.0909 116.179 60.0744 116.215C60.0579 116.251 60.034 116.283 60.0044 116.309C59.9558 116.348 59.896 116.37 59.8338 116.373ZM51.0121 114.289L59.5407 115.765L59.3967 105.339C59.3974 105.274 59.4215 105.211 59.4645 105.162C59.5076 105.113 59.5667 105.081 59.6313 105.072C61.0479 104.802 62.4402 104.417 63.7943 103.921C66.7313 102.94 71.1769 97.5246 71.2195 97.4713C71.2628 97.4197 71.3235 97.3856 71.3901 97.3754L77.664 96.5279C77.717 96.5178 77.7719 96.5273 77.8185 96.5545C80.8142 98.095 85.8781 100.526 86.6776 100.446C86.8476 100.431 87.0122 100.379 87.1604 100.294C87.3085 100.21 87.4366 100.094 87.5358 99.9553C87.7594 99.5777 87.9061 99.1596 87.9674 98.725C88.0287 98.2905 88.0034 97.8481 87.8929 97.4234C87.7011 96.4639 84.3802 89.3265 83.9005 88.8468C83.4474 88.447 77.4081 86.8052 73.7141 85.8671C73.6714 85.856 73.6322 85.8345 73.5998 85.8046C73.5675 85.7746 73.5431 85.737 73.5288 85.6953C73.5145 85.6536 73.5109 85.6089 73.5181 85.5654C73.5253 85.5219 73.5432 85.4809 73.5702 85.446C73.5702 85.4087 76.1981 82.0772 78.0584 79.3587C79.9187 76.6402 80.7929 72.0721 80.665 70.7502C79.8547 71.3472 77.2535 74.9771 75.809 76.9867C74.7802 78.4206 73.97 79.5506 73.6768 79.8438C73.3837 80.1369 71.3954 81.7947 68.6716 84.0708C63.8156 88.1165 56.481 94.2358 55.5376 95.3658C54.4022 96.7251 51.9182 109.235 51.0121 114.289Z" fill="#263238"/>
<path d="M88.1493 97.6419C88.1058 97.643 88.0628 97.6328 88.0245 97.6122C87.9862 97.5917 87.9539 97.5615 87.9308 97.5247C86.241 95.0354 83.4266 90.9736 83.0695 90.6911C82.7123 90.4086 78.2082 89.7316 74.205 89.1933C74.1344 89.1834 74.0705 89.1458 74.0275 89.0888C73.9845 89.0318 73.9659 88.9601 73.9758 88.8894C73.9857 88.8188 74.0233 88.7549 74.0803 88.7119C74.1373 88.6689 74.209 88.6503 74.2797 88.6602C76.2839 88.9321 82.8722 89.8436 83.4053 90.2593C83.9383 90.6751 87.9201 96.5439 88.3679 97.1888C88.388 97.2178 88.4023 97.2505 88.4097 97.285C88.4172 97.3195 88.4177 97.3552 88.4112 97.3899C88.4048 97.4246 88.3915 97.4577 88.3722 97.4872C88.3528 97.5168 88.3278 97.5422 88.2986 97.562C88.2574 97.6022 88.2056 97.63 88.1493 97.6419Z" fill="#263238"/>
<path d="M87.7915 99.8434C87.7527 99.8435 87.7144 99.8349 87.6794 99.8183C87.6443 99.8017 87.6134 99.7775 87.5889 99.7475C86.4482 98.4309 84.1668 95.835 83.6924 95.4352C83.3086 95.126 78.8098 93.9747 74.764 93.0472C74.6956 93.0307 74.6364 92.9879 74.5995 92.928C74.5625 92.868 74.5508 92.7959 74.5668 92.7274C74.5743 92.6931 74.5886 92.6607 74.6089 92.6321C74.6292 92.6035 74.655 92.5793 74.6849 92.5609C74.7147 92.5425 74.748 92.5303 74.7826 92.525C74.8173 92.5197 74.8526 92.5215 74.8866 92.5301C76.2992 92.85 83.4152 94.4971 84.0336 95.0301C84.6519 95.5631 87.8554 99.2411 87.994 99.401C88.0172 99.427 88.0349 99.4575 88.0461 99.4905C88.0574 99.5235 88.0619 99.5584 88.0594 99.5932C88.0569 99.628 88.0475 99.6619 88.0317 99.693C88.0159 99.724 87.994 99.7516 87.9674 99.7741C87.9197 99.8188 87.8568 99.8436 87.7915 99.8434Z" fill="#263238"/>
<path d="M87.9625 166.852C87.9625 166.852 76.5555 164.719 76.1024 164.57C75.6493 164.421 67.5738 161.985 66.5077 161.526C65.4416 161.068 52.5155 158.792 51.9078 159.703C51.3002 160.615 50.6925 165.94 50.5379 166.393C50.3833 166.846 49.168 168.978 49.4718 170.199C49.6359 171.307 49.6359 172.433 49.4718 173.541C49.4718 173.541 49.3173 180.689 51.1402 180.844C52.9632 180.998 54.6423 174.149 54.6423 174.149C54.6423 174.149 57.2275 175.673 62.5473 175.977C67.867 176.281 73.0428 173.696 73.0428 173.696L87.2002 177.065L87.9625 166.852Z" fill="white"/>
<path d="M51.2145 181.11H51.1346C49.1623 180.945 49.1943 174.772 49.2156 173.536C49.3768 172.451 49.3768 171.348 49.2156 170.263C48.9491 169.197 49.69 167.598 50.0898 166.761C50.1804 166.558 50.255 166.398 50.287 166.313C50.319 166.228 50.4203 165.572 50.5162 164.911C50.8894 162.454 51.2571 160.194 51.6836 159.554C52.4831 158.36 65.8304 160.946 66.6086 161.281C67.3869 161.617 72.3921 163.158 74.7854 163.893L76.166 164.314C76.5125 164.426 83.4313 165.738 87.9941 166.59C88.059 166.602 88.1173 166.637 88.1577 166.69C88.1981 166.742 88.2177 166.807 88.2127 166.873L87.4664 177.065C87.4644 177.103 87.4538 177.141 87.4353 177.175C87.4169 177.209 87.3911 177.239 87.3598 177.262C87.3291 177.285 87.2934 177.301 87.2555 177.309C87.2176 177.316 87.1785 177.315 87.1413 177.304L73.0904 173.984C72.3761 174.319 67.5041 176.532 62.5469 176.249C58.1973 175.998 55.6707 174.959 54.8338 174.549C54.4074 176.196 52.9895 181.11 51.2145 181.11ZM53.0055 159.746C52.7067 159.715 52.4048 159.757 52.126 159.869C51.7422 160.444 51.2945 163.403 51.0599 164.991C50.9267 165.892 50.8574 166.329 50.8094 166.478C50.7614 166.628 50.6921 166.756 50.5855 166.985C50.2444 167.72 49.5195 169.261 49.7487 170.135C49.9213 171.276 49.9213 172.437 49.7487 173.578C49.69 176.414 50.0951 180.508 51.1825 180.577C52.3552 180.652 53.7731 176.649 54.3808 174.09C54.3914 174.05 54.4108 174.012 54.4375 173.98C54.4642 173.948 54.4976 173.922 54.5353 173.904C54.5727 173.885 54.6137 173.876 54.6553 173.876C54.6969 173.876 54.7379 173.885 54.7752 173.904C54.7752 173.904 57.3818 175.396 62.5629 175.695C67.744 175.993 72.8718 173.467 72.9251 173.44C72.9823 173.421 73.0439 173.421 73.101 173.44L86.96 176.713L87.6796 167.075C85.7607 166.718 76.4538 164.975 76.0168 164.826L74.6468 164.405C72.0563 163.611 67.243 162.134 66.4114 161.777C65.372 161.324 56.0119 159.746 53.0055 159.746Z" fill="#263238"/>
<path d="M48.512 111.405L63.8048 114.203L63.2345 123.761C63.2345 123.761 66.6193 125.36 67.648 134.8C68.6768 144.24 71.6245 166.105 70.8889 167.726C70.1533 169.346 65.5905 176.414 54.9884 176.857C44.3863 177.299 38.6455 167.582 37.6167 164.485C36.5879 161.388 42.0356 141.133 42.3287 139.368C42.6219 137.604 44.0931 125.509 45.4204 123.468C46.2384 122.206 47.2288 121.065 48.3627 120.078L48.512 111.405Z" fill="#92E3A9"/>
<path d="M54.2847 177.144C43.7359 177.144 38.2936 167.289 37.3661 164.581C36.5346 162.091 39.6155 149.485 41.2679 142.726C41.6944 140.978 42.0035 139.715 42.0675 139.341C42.1315 138.968 42.2061 138.409 42.3234 137.577C42.8884 133.526 44.0717 125.093 45.1964 123.345C46.0055 122.094 46.983 120.96 48.1015 119.976L48.2454 111.41C48.2454 111.371 48.254 111.333 48.2706 111.298C48.2871 111.263 48.3113 111.232 48.3414 111.208C48.3719 111.184 48.4072 111.167 48.4449 111.157C48.4826 111.148 48.5218 111.147 48.5599 111.154L63.8687 113.947C63.9337 113.959 63.992 113.995 64.0323 114.047C64.0727 114.099 64.0923 114.164 64.0873 114.23L63.5116 123.633C64.2206 124.091 66.9977 126.389 67.9145 134.795C68.1704 137.151 68.5542 140.328 68.9806 143.691C70.5424 156.654 71.6937 166.67 71.1554 167.859C71.1127 167.944 67.0243 176.643 55.0203 177.139L54.2847 177.144ZM48.7731 111.725L48.6292 120.093C48.6292 120.132 48.6207 120.17 48.6041 120.206C48.5875 120.241 48.5633 120.271 48.5333 120.296C47.4214 121.266 46.4491 122.385 45.6442 123.622C44.5781 125.269 43.3681 133.942 42.8511 137.641C42.7338 138.478 42.6432 139.107 42.5899 139.421C42.5259 139.816 42.2168 141.084 41.785 142.838C40.2605 149.08 37.0889 162.065 37.8725 164.415C38.768 167.081 44.2956 177.048 54.9777 176.595C64.6683 176.196 69.5723 169.986 70.649 167.624C71.182 166.478 69.5829 153.339 68.4316 143.744C68.0264 140.375 67.6427 137.199 67.3655 134.843C66.3634 125.674 63.1278 124.027 63.1012 124.011C63.0542 123.988 63.0151 123.951 62.9886 123.905C62.9622 123.86 62.9494 123.808 62.9519 123.755L63.5276 114.422L48.7731 111.725Z" fill="#263238"/>
<path d="M60.6071 122.86C59.741 122.856 58.876 122.801 58.0165 122.695C57.9466 122.687 57.8828 122.651 57.8388 122.596C57.7949 122.541 57.7745 122.471 57.782 122.402C57.7913 122.331 57.8277 122.267 57.8835 122.224C57.9393 122.18 58.0099 122.159 58.0805 122.167C58.9189 122.269 59.7625 122.322 60.6071 122.327C60.6777 122.327 60.7455 122.355 60.7955 122.405C60.8455 122.455 60.8736 122.523 60.8736 122.593C60.8736 122.664 60.8455 122.732 60.7955 122.782C60.7455 122.832 60.6777 122.86 60.6071 122.86Z" fill="#263238"/>
<path d="M54.4501 122.082H54.3915C52.3196 121.622 50.2763 121.042 48.2722 120.344C48.2077 120.319 48.1556 120.269 48.127 120.206C48.0985 120.142 48.0957 120.071 48.1193 120.005C48.1429 119.94 48.191 119.887 48.2534 119.856C48.3158 119.826 48.3876 119.821 48.4534 119.843C50.4346 120.534 52.4548 121.107 54.5034 121.559C54.5378 121.567 54.5703 121.581 54.5992 121.601C54.628 121.622 54.6525 121.647 54.6713 121.677C54.6902 121.707 54.7029 121.74 54.7089 121.775C54.7148 121.809 54.7138 121.845 54.706 121.879C54.6927 121.937 54.6601 121.988 54.6136 122.025C54.5671 122.062 54.5094 122.082 54.4501 122.082Z" fill="#263238"/>
<path d="M132.674 116.208L131.154 155.444C131.154 155.444 129.481 155.599 128.873 156.356C128.468 156.881 128.111 157.441 127.807 158.03C127.807 158.03 112.45 158.637 105.148 160.77C100.956 161.961 96.8842 163.539 92.9837 165.482L86.2887 165.338L84.9188 182.976L93.8951 183.28C93.8951 183.28 98.3034 185.865 118.378 187.693C138.452 189.522 147.732 189.975 149.859 187.539C151.986 185.103 152.902 181.302 153.206 179.33C153.51 177.358 157.161 165.183 157.161 147.54C157.161 129.896 140.584 104.363 136.933 98.5693C133.281 92.7752 129.47 93.239 126.896 93.8573" fill="#92E3A9"/>
<path d="M141.346 189.468C136.255 189.468 128.803 188.903 118.356 187.955C99.4544 186.233 94.4332 183.866 93.8362 183.541L84.9291 183.237C84.8927 183.237 84.8565 183.23 84.8232 183.215C84.7899 183.2 84.7601 183.179 84.7359 183.151C84.7117 183.124 84.6935 183.092 84.6827 183.057C84.6719 183.022 84.6687 182.985 84.6733 182.949L86.0218 165.338C86.026 165.269 86.0568 165.205 86.1076 165.16C86.1585 165.114 86.2253 165.09 86.2937 165.093L92.9194 165.242C96.8204 163.311 100.888 161.738 105.073 160.54C111.927 158.541 126.01 157.875 127.641 157.795C127.935 157.233 128.277 156.698 128.665 156.196C129.198 155.53 130.392 155.29 130.898 155.215L132.407 116.202C132.407 116.167 132.414 116.132 132.428 116.099C132.442 116.067 132.463 116.037 132.489 116.013C132.515 115.989 132.546 115.971 132.58 115.959C132.613 115.948 132.649 115.943 132.684 115.946C132.719 115.948 132.753 115.956 132.785 115.971C132.817 115.985 132.846 116.006 132.869 116.032C132.893 116.058 132.912 116.088 132.924 116.121C132.936 116.154 132.941 116.189 132.94 116.224L131.421 155.461C131.418 155.525 131.393 155.586 131.349 155.633C131.305 155.681 131.245 155.71 131.181 155.716C130.744 155.754 129.523 155.978 129.081 156.527C128.69 157.038 128.344 157.582 128.047 158.152C128.026 158.196 127.993 158.233 127.953 158.259C127.913 158.286 127.866 158.3 127.817 158.302C127.668 158.302 112.407 158.931 105.222 161.031C101.05 162.224 96.9942 163.794 93.1059 165.722C93.0645 165.742 93.0189 165.753 92.9727 165.753L86.5336 165.61L85.2063 182.72L93.9002 183.013C93.9449 183.017 93.9885 183.029 94.0281 183.051C94.0707 183.051 98.6868 185.636 118.404 187.427C138.393 189.244 147.646 189.666 149.661 187.363C151.959 184.74 152.753 180.519 152.945 179.287C152.993 178.952 153.131 178.376 153.334 177.496C155.694 167.685 156.89 157.63 156.895 147.54C156.895 136.271 150.237 120.056 137.114 99.3476L136.708 98.7133C132.919 92.7113 128.889 93.6601 126.959 94.1132C126.89 94.1294 126.817 94.1178 126.756 94.0809C126.696 94.044 126.652 93.9848 126.634 93.916C126.626 93.8817 126.625 93.8461 126.631 93.8115C126.637 93.7768 126.65 93.7436 126.669 93.7139C126.687 93.6841 126.712 93.6584 126.741 93.6382C126.77 93.618 126.802 93.6037 126.837 93.5962C129.965 92.8606 133.643 92.8606 137.161 98.4255L137.561 99.0651C150.743 119.854 157.428 136.17 157.428 147.54C157.421 157.671 156.222 167.767 153.856 177.619C153.659 178.45 153.52 179.053 153.472 179.367C153.275 180.636 152.454 184.98 150.061 187.715C148.99 188.935 146.276 189.468 141.346 189.468Z" fill="#263238"/>
<path d="M131.154 155.711C131.108 155.712 131.062 155.7 131.021 155.676C130.981 155.653 130.948 155.619 130.925 155.578C130.894 155.526 130.882 155.464 130.891 155.404C130.9 155.344 130.929 155.289 130.973 155.247L139.795 147.039C139.819 147.014 139.848 146.994 139.88 146.981C139.912 146.967 139.947 146.96 139.982 146.96C140.016 146.96 140.051 146.967 140.083 146.981C140.115 146.994 140.144 147.014 140.168 147.039C140.193 147.063 140.213 147.093 140.226 147.125C140.24 147.158 140.247 147.193 140.247 147.228C140.247 147.263 140.24 147.298 140.226 147.33C140.213 147.363 140.193 147.392 140.168 147.417L132.173 154.88L140.429 152.481C140.5 152.461 140.576 152.47 140.64 152.506C140.704 152.542 140.751 152.602 140.77 152.673C140.79 152.743 140.781 152.819 140.745 152.883C140.709 152.947 140.649 152.994 140.579 153.014L131.245 155.722L131.154 155.711Z" fill="#263238"/>
<path d="M143.409 152.156C143.338 152.165 143.267 152.146 143.21 152.102C143.154 152.059 143.117 151.995 143.108 151.924C143.098 151.853 143.118 151.782 143.161 151.725C143.205 151.669 143.269 151.632 143.339 151.623L146.287 150.77C146.321 150.759 146.356 150.756 146.391 150.759C146.426 150.763 146.46 150.773 146.491 150.79C146.522 150.807 146.549 150.83 146.571 150.858C146.592 150.885 146.608 150.917 146.618 150.951C146.637 151.019 146.629 151.092 146.595 151.154C146.561 151.216 146.504 151.262 146.436 151.282L143.483 152.134C143.46 152.147 143.435 152.154 143.409 152.156Z" fill="#263238"/>
<path d="M141.495 160.578H141.399C137.53 159.085 127.887 158.318 127.786 158.312C127.751 158.31 127.717 158.3 127.685 158.284C127.654 158.268 127.626 158.246 127.603 158.219C127.581 158.192 127.563 158.161 127.553 158.128C127.542 158.095 127.538 158.059 127.54 158.024C127.543 157.989 127.553 157.955 127.569 157.924C127.585 157.893 127.607 157.865 127.634 157.842C127.66 157.819 127.691 157.802 127.725 157.791C127.758 157.781 127.793 157.776 127.828 157.779C128.228 157.811 137.647 158.563 141.591 160.077C141.626 160.083 141.66 160.096 141.69 160.115C141.72 160.135 141.745 160.159 141.766 160.189C141.786 160.218 141.8 160.251 141.808 160.286C141.816 160.32 141.816 160.356 141.81 160.391C141.804 160.426 141.79 160.46 141.771 160.489C141.752 160.519 141.727 160.545 141.698 160.566C141.669 160.586 141.636 160.6 141.601 160.608C141.566 160.615 141.53 160.616 141.495 160.61V160.578Z" fill="#263238"/>
<path d="M144.235 168.488C144.194 168.488 144.153 168.478 144.116 168.459C144.079 168.441 144.047 168.414 144.022 168.381C143.622 167.848 143.185 167.363 142.721 166.878C142.678 166.826 142.657 166.76 142.661 166.693C142.664 166.626 142.694 166.563 142.742 166.516C142.791 166.47 142.855 166.443 142.922 166.442C142.99 166.441 143.055 166.465 143.105 166.51C143.577 167.003 144.023 167.519 144.443 168.056C144.486 168.111 144.506 168.182 144.498 168.252C144.49 168.321 144.455 168.385 144.4 168.429C144.353 168.466 144.295 168.486 144.235 168.488Z" fill="#263238"/>
<path d="M141.053 165.242C140.991 165.24 140.932 165.22 140.882 165.183C138.176 162.991 135.053 161.37 131.703 160.418C131.668 160.41 131.635 160.395 131.606 160.374C131.577 160.353 131.552 160.327 131.533 160.296C131.514 160.266 131.501 160.232 131.495 160.197C131.489 160.161 131.49 160.125 131.498 160.09C131.506 160.055 131.521 160.022 131.542 159.993C131.563 159.963 131.589 159.939 131.619 159.919C131.65 159.9 131.684 159.888 131.719 159.882C131.755 159.876 131.791 159.877 131.826 159.885C135.256 160.853 138.453 162.509 141.223 164.751C141.267 164.786 141.298 164.834 141.313 164.887C141.328 164.94 141.326 164.997 141.307 165.049C141.288 165.102 141.254 165.147 141.208 165.178C141.163 165.21 141.108 165.227 141.053 165.226V165.242Z" fill="#263238"/>
<path d="M92.9836 182.176C92.9129 182.176 92.8451 182.148 92.7951 182.098C92.7452 182.048 92.7171 181.981 92.7171 181.91L92.5892 167.161C92.5884 167.126 92.5946 167.091 92.6074 167.058C92.6201 167.026 92.6392 166.996 92.6634 166.971C92.6877 166.945 92.7167 166.925 92.7487 166.911C92.7808 166.897 92.8153 166.89 92.8503 166.889C92.921 166.889 92.9888 166.917 93.0388 166.967C93.0888 167.017 93.1169 167.085 93.1169 167.155L93.2714 181.905C93.2715 181.976 93.2435 182.044 93.1937 182.095C93.1439 182.146 93.0761 182.175 93.0049 182.176H92.9836Z" fill="#263238"/>
<path d="M91.9174 178.525H85.5209C85.4502 178.525 85.3824 178.497 85.3324 178.447C85.2825 178.397 85.2544 178.329 85.2544 178.259C85.2544 178.188 85.2825 178.12 85.3324 178.07C85.3824 178.02 85.4502 177.992 85.5209 177.992H91.9174C91.988 177.992 92.0558 178.02 92.1058 178.07C92.1558 178.12 92.1839 178.188 92.1839 178.259C92.1825 178.329 92.154 178.396 92.1043 178.446C92.0546 178.495 91.9876 178.524 91.9174 178.525Z" fill="#263238"/>
<path d="M87.0507 169.853C86.9827 169.853 86.9172 169.827 86.8677 169.78C86.8181 169.734 86.7882 169.67 86.7842 169.602C86.782 169.567 86.7868 169.532 86.7983 169.5C86.8098 169.467 86.8277 169.437 86.8511 169.411C86.8744 169.385 86.9027 169.364 86.9342 169.349C86.9657 169.334 86.9999 169.326 87.0347 169.325L89.6199 169.17C89.6549 169.168 89.69 169.173 89.7232 169.184C89.7564 169.196 89.7869 169.214 89.8132 169.237C89.8394 169.26 89.8608 169.288 89.8761 169.32C89.8915 169.351 89.9004 169.386 89.9024 169.421C89.9054 169.491 89.881 169.56 89.8342 169.613C89.7875 169.665 89.7221 169.698 89.6519 169.703L87.0667 169.853H87.0507Z" fill="#263238"/>
</svg>
