<svg width="72" height="18" viewBox="0 0 72 18" fill="none" xmlns="http://www.w3.org/2000/svg">
<path d="M66.1452 17.7579H5.85486C4.3026 17.7561 2.81441 17.1387 1.71679 16.0411C0.619166 14.9435 0.0017527 13.4553 0 11.903V5.85486C0.0017527 4.3026 0.619166 2.81441 1.71679 1.71679C2.81441 0.619166 4.3026 0.0017527 5.85486 0H66.1452C67.6975 0.00175356 69.1857 0.619176 70.2833 1.7168C71.3809 2.81442 71.9984 4.3026 72.0001 5.85486V11.903C71.9984 13.4553 71.3809 14.9435 70.2833 16.0411C69.1857 17.1387 67.6975 17.7561 66.1452 17.7579ZM5.85486 0.645741C4.4738 0.647324 3.14976 1.19665 2.17321 2.17321C1.19665 3.14976 0.647324 4.4738 0.645741 5.85486V11.903C0.647324 13.2841 1.19665 14.6081 2.17321 15.5847C3.14976 16.5612 4.4738 17.1105 5.85486 17.1121H66.1452C67.5263 17.1106 68.8504 16.5613 69.8269 15.5847C70.8035 14.6081 71.3528 13.2841 71.3544 11.903V5.85486C71.3528 4.4738 70.8035 3.14974 69.8269 2.17318C68.8504 1.19661 67.5263 0.647297 66.1452 0.645741H5.85486Z" fill="#E6E6E6"/>
</svg>
