<svg width="29" height="64" viewBox="0 0 29 64" fill="none" xmlns="http://www.w3.org/2000/svg">
<path d="M1.95895 1.55009C1.95895 1.55009 -1.66918 6.60793 0.94968 15.3461C3.56854 24.0843 2.09835 31.8966 2.83344 33.4631C3.56853 35.0296 5.04831 36.5172 3.82554 37.7049C2.60277 38.8926 1.95895 39.8583 2.92471 40.1802C3.89046 40.5022 7.10964 63.0364 7.10964 63.0364L12.5822 63.3583C12.5822 63.3583 14.5648 52.8905 12.4468 44.4429C12.4468 44.4429 12.9117 38.3104 11.9422 36.509C10.9726 34.7076 11.1628 36.3324 11.2287 34.0714C11.2651 32.4362 11.5035 30.8118 11.9384 29.235C12.2603 27.9474 12.4468 14.9692 12.4468 14.9692L19.5613 31.0002C19.775 31.5936 19.8552 32.2268 19.7962 32.8547C19.6644 33.7419 19.6633 35.0676 19.8248 35.5315C19.9863 35.9953 20.1662 36.0929 20.0763 37.0098C19.9863 37.9268 19.9863 62.2452 19.9863 62.2452H26.1028L29 37.9268C28.4788 37.3493 28.045 36.6986 27.7124 35.9953C27.0685 34.7076 27.0435 34.6367 27.3779 33.7064C27.7124 32.7761 27.7124 30.9638 27.7124 30.4213C27.7124 29.8789 28.0468 5.25312 23.8556 1.63107C19.6644 -1.99099 1.95895 1.55009 1.95895 1.55009Z" fill="#2F2E41"/>
</svg>
