<svg width="230" height="230" viewBox="0 0 230 230" fill="none" xmlns="http://www.w3.org/2000/svg">
<path d="M201.204 144.868C201.204 144.868 224.705 118.454 217.235 72.4958C209.764 26.5372 171.387 9.60456 145.935 18.4504C120.483 27.2962 114.742 42.6924 93.9547 51.4968C73.1673 60.3012 33.6671 54.2568 13.9147 83.8302C-5.83766 113.404 19.3795 162.407 51.4829 193.135C83.5863 223.863 165.508 204.626 201.204 144.868Z" fill="#FFC100"/>
<path opacity="0.7" d="M201.204 144.868C201.204 144.868 224.705 118.454 217.235 72.4958C209.764 26.5372 171.387 9.60456 145.935 18.4504C120.483 27.2962 114.742 42.6924 93.9547 51.4968C73.1673 60.3012 33.6671 54.2568 13.9147 83.8302C-5.83766 113.404 19.3795 162.407 51.4829 193.135C83.5863 223.863 165.508 204.626 201.204 144.868Z" fill="white"/>
<path opacity="0.5" d="M211.199 63.48H63.498V162.109H211.199V63.48Z" stroke="black" stroke-linecap="round" stroke-linejoin="round"/>
<path opacity="0.5" d="M209.217 64.8047H65.4805V160.788H209.217V64.8047Z" stroke="black" stroke-linecap="round" stroke-linejoin="round"/>
<path opacity="0.3" d="M82.8828 79.1796C82.8828 79.1796 84.456 87.6758 84.456 90.192V99.001C84.456 99.001 90.7488 99.3138 95.7812 99.001C100.814 98.6882 106.794 95.5418 106.794 95.5418C106.794 95.5418 104.59 87.0456 104.59 84.8422C104.59 82.6388 103.334 77.2798 103.334 77.2798L82.8828 79.1796Z" fill="white" stroke="black" stroke-linecap="round" stroke-linejoin="round"/>
<path opacity="0.3" d="M83.5078 132.02C83.5078 132.02 82.5878 139.256 82.5878 142.402C82.5878 145.549 81.0146 150.581 81.0146 150.581C81.0146 150.581 88.5679 153.415 90.4539 153.415C92.3399 153.415 100.523 152.784 100.523 152.784L101.784 134.223C101.784 134.223 86.0194 132.669 83.5078 132.02Z" fill="white" stroke="black" stroke-linecap="round" stroke-linejoin="round"/>
<path opacity="0.3" d="M118.436 93.0213L122.208 110.326C122.208 110.326 126.927 110.644 131.964 110.644C137.001 110.644 145.493 105.924 145.493 105.924C145.493 105.924 141.403 97.7409 141.403 95.5421C141.403 93.3433 140.143 87.0459 140.143 87.0459C140.143 87.0459 127.263 91.1353 125.354 91.4481C123.445 91.7609 118.436 93.0213 118.436 93.0213Z" fill="white" stroke="black" stroke-linecap="round" stroke-linejoin="round"/>
<path opacity="0.3" d="M146.74 88.3198C146.74 88.3198 145.82 99.645 145.82 100.901C145.82 102.157 145.507 107.194 145.507 107.194C145.507 107.194 151.8 108.141 155.259 108.141C158.718 108.141 164.698 107.824 164.698 107.824C164.698 107.824 164.385 96.8114 165.011 95.8638C165.636 94.9162 165.958 89.8838 165.958 89.8838C165.958 89.8838 148.009 88.6188 146.74 88.3198Z" fill="white" stroke="black" stroke-linecap="round" stroke-linejoin="round"/>
<path opacity="0.3" d="M153.672 113.473V121.026C153.672 122.282 153.042 131.408 153.042 131.408C153.042 131.408 161.225 131.721 164.372 131.408C167.518 131.095 173.811 129.205 173.811 129.205L172.863 119.14L172.238 112.24C172.238 112.24 157.136 114.42 153.672 113.473Z" fill="white" stroke="black" stroke-linecap="round" stroke-linejoin="round"/>
<path opacity="0.3" d="M201.181 71.0008L193.945 71.3136H190.168V76.6634C190.168 78.2366 189.855 83.269 189.855 84.212C189.855 85.155 194.888 85.7852 197.091 85.7852H204.957L205.27 70.3706L201.181 71.0008Z" fill="white" stroke="black" stroke-linecap="round" stroke-linejoin="round"/>
<g opacity="0.5">
<path d="M182.933 104.981H196.461" stroke="black" stroke-linecap="round" stroke-linejoin="round"/>
<path d="M182.933 108.127H196.461" stroke="black" stroke-linecap="round" stroke-linejoin="round"/>
<path d="M182.933 111.274H196.461" stroke="black" stroke-linecap="round" stroke-linejoin="round"/>
<path d="M182.933 114.42H196.461" stroke="black" stroke-linecap="round" stroke-linejoin="round"/>
</g>
<g opacity="0.5">
<path d="M113.086 69.1104H157.761" stroke="black" stroke-linecap="round" stroke-linejoin="round"/>
<path d="M113.086 72.2568H157.761" stroke="black" stroke-linecap="round" stroke-linejoin="round"/>
</g>
<g opacity="0.5">
<path d="M158.704 137.701H172.237" stroke="black" stroke-linecap="round" stroke-linejoin="round"/>
<path d="M158.704 140.848H172.237" stroke="black" stroke-linecap="round" stroke-linejoin="round"/>
<path d="M158.704 143.994H172.237" stroke="black" stroke-linecap="round" stroke-linejoin="round"/>
<path d="M158.704 147.14H172.237" stroke="black" stroke-linecap="round" stroke-linejoin="round"/>
</g>
<g opacity="0.5">
<path d="M74.6992 116.937H88.2278" stroke="black" stroke-linecap="round" stroke-linejoin="round"/>
<path d="M74.6992 120.083H88.2278" stroke="black" stroke-linecap="round" stroke-linejoin="round"/>
<path d="M74.6992 123.229H88.2278" stroke="black" stroke-linecap="round" stroke-linejoin="round"/>
<path d="M74.6992 126.375H88.2278" stroke="black" stroke-linecap="round" stroke-linejoin="round"/>
</g>
<g opacity="0.5">
<path d="M170.034 77.2939H183.563" stroke="black" stroke-linecap="round" stroke-linejoin="round"/>
<path d="M170.034 80.4404H183.563" stroke="black" stroke-linecap="round" stroke-linejoin="round"/>
<path d="M170.034 83.5869H183.563" stroke="black" stroke-linecap="round" stroke-linejoin="round"/>
<path d="M170.034 86.7329H183.563" stroke="black" stroke-linecap="round" stroke-linejoin="round"/>
</g>
<path opacity="0.5" d="M120.519 107.336L112.764 109.553L114.76 111.283C111.131 113.67 103.444 117.76 98.4164 113.606C91.6728 108.035 93.4898 103.219 93.568 103.026L92.97 102.787L92.3766 102.543C92.28 102.778 90.0766 108.399 97.5976 114.609C99.31 116.014 101.469 116.76 103.683 116.711C108.375 116.711 113.219 113.914 115.777 112.175L118.302 114.36L120.519 107.336Z" fill="black"/>
<path opacity="0.5" d="M198.816 94.093L196.576 86.6226L192.468 92.598L194.75 93.1362L192.381 101.66L193.623 102.005L196.006 93.4306L198.816 94.093Z" fill="black"/>
<path opacity="0.3" d="M95.7812 80.123C95.7812 79.7489 95.6702 79.3832 95.4623 79.0722C95.2543 78.7612 94.9588 78.5189 94.613 78.3759C94.2673 78.2329 93.8869 78.1958 93.5201 78.2691C93.1532 78.3424 92.8163 78.5229 92.5521 78.7878C92.2879 79.0527 92.1082 79.39 92.0358 79.757C91.9633 80.124 92.0014 80.5043 92.1452 80.8497C92.289 81.1951 92.5321 81.49 92.8436 81.6972C93.1551 81.9044 93.5211 82.0145 93.8952 82.0136C94.3958 82.0124 94.8755 81.8127 95.2291 81.4582C95.5826 81.1038 95.7812 80.6236 95.7812 80.123Z" fill="white" stroke="black" stroke-linecap="round" stroke-linejoin="round"/>
<path opacity="0.3" d="M130.392 92.0781C130.392 91.7042 130.281 91.3386 130.073 91.0277C129.865 90.7168 129.57 90.4745 129.224 90.3314C128.879 90.1883 128.499 90.1509 128.132 90.2238C127.765 90.2968 127.429 90.4768 127.164 90.7412C126.9 91.0057 126.72 91.3425 126.647 91.7093C126.574 92.076 126.611 92.4561 126.754 92.8016C126.897 93.1471 127.14 93.4423 127.451 93.6501C127.762 93.8578 128.127 93.9687 128.501 93.9687C128.749 93.9687 128.995 93.9198 129.224 93.8248C129.454 93.7298 129.662 93.5905 129.838 93.415C130.013 93.2394 130.153 93.031 130.248 92.8016C130.343 92.5722 130.392 92.3264 130.392 92.0781Z" fill="#FFC100" stroke="black" stroke-linecap="round" stroke-linejoin="round"/>
<path opacity="0.3" d="M157.136 91.1353C158.178 91.1353 159.022 90.2909 159.022 89.2493C159.022 88.2077 158.178 87.3633 157.136 87.3633C156.094 87.3633 155.25 88.2077 155.25 89.2493C155.25 90.2909 156.094 91.1353 157.136 91.1353Z" fill="white" stroke="black" stroke-linecap="round" stroke-linejoin="round"/>
<path opacity="0.3" d="M165.314 115.363C165.315 114.989 165.205 114.623 164.998 114.312C164.791 114 164.496 113.757 164.15 113.613C163.805 113.47 163.425 113.432 163.058 113.504C162.691 113.576 162.353 113.756 162.089 114.02C161.824 114.285 161.643 114.621 161.57 114.988C161.497 115.355 161.534 115.736 161.677 116.081C161.82 116.427 162.062 116.723 162.373 116.931C162.684 117.138 163.05 117.249 163.424 117.249C163.924 117.249 164.405 117.051 164.759 116.697C165.113 116.344 165.313 115.864 165.314 115.363Z" fill="white" stroke="black" stroke-linecap="round" stroke-linejoin="round"/>
<path opacity="0.3" d="M95.7812 135.498C95.7812 135.123 95.6702 134.758 95.4623 134.447C95.2543 134.136 94.9588 133.893 94.613 133.75C94.2673 133.607 93.8869 133.57 93.5201 133.644C93.1532 133.717 92.8163 133.897 92.5521 134.162C92.2879 134.427 92.1082 134.764 92.0358 135.132C91.9633 135.499 92.0014 135.879 92.1452 136.224C92.289 136.57 92.5321 136.865 92.8436 137.072C93.1551 137.279 93.5211 137.389 93.8952 137.388C94.3958 137.387 94.8755 137.187 95.2291 136.833C95.5826 136.478 95.7812 135.998 95.7812 135.498Z" fill="#FFC100" stroke="black" stroke-linecap="round" stroke-linejoin="round"/>
<path opacity="0.3" d="M197.722 72.8867C198.764 72.8867 199.608 72.0424 199.608 71.0007C199.608 69.9591 198.764 69.1147 197.722 69.1147C196.68 69.1147 195.836 69.9591 195.836 71.0007C195.836 72.0424 196.68 72.8867 197.722 72.8867Z" fill="#FFC100" stroke="black" stroke-linecap="round" stroke-linejoin="round"/>
<path d="M216.2 154.56H150.493V202.644H216.2V154.56Z" fill="#263238" stroke="#263238" stroke-linecap="round" stroke-linejoin="round"/>
<path opacity="0.25" d="M213.03 156.878H153.662V200.325H213.03V156.878Z" fill="white" stroke="#263238" stroke-linecap="round" stroke-linejoin="round"/>
<path d="M189.768 200.794H177.982V210.22H189.768V200.794Z" fill="#263238" stroke="#263238" stroke-linecap="round" stroke-linejoin="round"/>
<path d="M155.425 163.419H210.979" stroke="white" stroke-linecap="round" stroke-linejoin="round"/>
<path d="M156.101 173.857H169.362" stroke="white" stroke-linecap="round" stroke-linejoin="round"/>
<path d="M164.39 177.56H171.924" stroke="white" stroke-linecap="round" stroke-linejoin="round"/>
<path d="M156.101 177.56H163.336" stroke="white" stroke-linecap="round" stroke-linejoin="round"/>
<path d="M168.461 181.263H181.272" stroke="white" stroke-linecap="round" stroke-linejoin="round"/>
<path d="M156.101 181.263H166.8" stroke="white" stroke-linecap="round" stroke-linejoin="round"/>
<path d="M156.101 184.966H163.787" stroke="white" stroke-linecap="round" stroke-linejoin="round"/>
<path d="M163.488 188.674H171.925" stroke="white" stroke-linecap="round" stroke-linejoin="round"/>
<path d="M156.101 188.674H161.377" stroke="white" stroke-linecap="round" stroke-linejoin="round"/>
<path d="M185.187 192.376H188.954" stroke="white" stroke-linecap="round" stroke-linejoin="round"/>
<path d="M161.681 192.376H182.928" stroke="white" stroke-linecap="round" stroke-linejoin="round"/>
<path d="M156.101 192.376H160.02" stroke="white" stroke-linecap="round" stroke-linejoin="round"/>
<path d="M21.2607 138.639L28.7265 210.174" stroke="#263238" stroke-linecap="round" stroke-linejoin="round"/>
<path d="M28.5747 208.854L24.7705 204.856" stroke="#263238" stroke-linecap="round" stroke-linejoin="round"/>
<path d="M26.0268 206.163C26.0188 205.495 25.8676 204.836 25.5836 204.231C25.2995 203.627 24.8891 203.09 24.38 202.657C23.3174 201.714 17.7422 199.364 17.2086 201.328C16.6382 203.467 22.3514 207.662 26.0268 206.163Z" fill="#FFC100" stroke="#263238" stroke-linecap="round" stroke-linejoin="round"/>
<path d="M26.0269 206.163L20.7139 202.851" stroke="#263238" stroke-linecap="round" stroke-linejoin="round"/>
<path d="M25.9941 184.009L22.2451 180.633" stroke="#263238" stroke-linecap="round" stroke-linejoin="round"/>
<path d="M23.4968 181.939C23.4889 181.272 23.3383 180.615 23.0551 180.011C22.7718 179.407 22.3624 178.871 21.8546 178.439C20.7966 177.491 15.2168 175.145 14.6878 177.109C14.1128 179.244 19.8214 183.443 23.4968 181.939Z" fill="#FFC100" stroke="#263238" stroke-linecap="round" stroke-linejoin="round"/>
<path d="M23.4969 181.939L18.1885 178.632" stroke="#263238" stroke-linecap="round" stroke-linejoin="round"/>
<path d="M27.0385 194.562L23.2803 190.56" stroke="#263238" stroke-linecap="round" stroke-linejoin="round"/>
<path d="M24.5365 191.866C24.5272 191.199 24.3755 190.541 24.0915 189.938C23.8075 189.334 23.3977 188.798 22.8897 188.365C21.8317 187.418 16.2519 185.072 15.7229 187.036C15.1479 189.17 20.8565 193.37 24.5365 191.866Z" fill="#FFC100" stroke="#263238" stroke-linecap="round" stroke-linejoin="round"/>
<path d="M24.5357 191.866L19.2227 188.559" stroke="#263238" stroke-linecap="round" stroke-linejoin="round"/>
<path d="M24.3243 168.342L20.5615 164.51" stroke="#263238" stroke-linecap="round" stroke-linejoin="round"/>
<path d="M21.817 165.816C21.8075 165.148 21.6557 164.49 21.3717 163.886C21.0877 163.282 20.6781 162.745 20.1702 162.311C19.1122 161.368 13.5324 159.022 13.0034 160.986C12.4192 163.121 18.137 167.316 21.817 165.816Z" fill="#FFC100" stroke="#263238" stroke-linecap="round" stroke-linejoin="round"/>
<path d="M21.8179 165.816L16.5049 162.509" stroke="#263238" stroke-linecap="round" stroke-linejoin="round"/>
<path d="M22.5123 151.101L18.8691 148.313" stroke="#263238" stroke-linecap="round" stroke-linejoin="round"/>
<path d="M20.1247 149.619C20.1169 148.952 19.9663 148.295 19.683 147.691C19.3997 147.087 18.9904 146.551 18.4825 146.119C17.4199 145.171 11.8447 142.825 11.3157 144.789C10.7407 146.928 16.4493 151.124 20.1247 149.619Z" fill="#FFC100" stroke="#263238" stroke-linecap="round" stroke-linejoin="round"/>
<path d="M20.1248 149.619L14.8164 146.312" stroke="#263238" stroke-linecap="round" stroke-linejoin="round"/>
<path d="M28.207 203.343L31.3488 198.223" stroke="#263238" stroke-linecap="round" stroke-linejoin="round"/>
<path d="M30.3869 199.759C30.2588 199.105 30.2722 198.43 30.4261 197.781C30.58 197.132 30.8709 196.524 31.2793 195.997C32.1211 194.851 37.0937 191.397 38.0183 193.214C39.0165 195.187 34.2969 200.472 30.3869 199.759Z" fill="#FFC100" stroke="#263238" stroke-linecap="round" stroke-linejoin="round"/>
<path d="M30.3877 199.76L34.1275 196.254" stroke="#263238" stroke-linecap="round" stroke-linejoin="round"/>
<path d="M25.4795 177.224L28.6213 172.104" stroke="#263238" stroke-linecap="round" stroke-linejoin="round"/>
<path d="M27.6642 173.641C27.5339 172.986 27.5452 172.311 27.6976 171.661C27.8499 171.011 28.1397 170.402 28.5474 169.873C29.3892 168.728 33.2808 165.862 34.2054 167.674C35.2082 169.643 31.5696 174.34 27.6642 173.641Z" fill="#FFC100" stroke="#263238" stroke-linecap="round" stroke-linejoin="round"/>
<path d="M27.6641 173.641L32.4435 169.068" stroke="#263238" stroke-linecap="round" stroke-linejoin="round"/>
<path d="M24.2832 165.742L27.4204 160.623" stroke="#263238" stroke-linecap="round" stroke-linejoin="round"/>
<path d="M26.464 162.159C26.3353 161.505 26.3479 160.831 26.501 160.182C26.6541 159.533 26.9442 158.924 27.3518 158.397C28.1936 157.251 33.1662 153.797 34.0908 155.637C35.0936 157.587 30.3602 162.872 26.464 162.159Z" fill="#FFC100" stroke="#263238" stroke-linecap="round" stroke-linejoin="round"/>
<path d="M26.4639 162.159L31.2479 157.591" stroke="#263238" stroke-linecap="round" stroke-linejoin="round"/>
<path d="M22.5264 148.916L25.6682 143.796" stroke="#263238" stroke-linecap="round" stroke-linejoin="round"/>
<path d="M24.7063 145.332C24.5775 144.677 24.59 144.003 24.7431 143.353C24.8962 142.703 25.1864 142.094 25.5941 141.565C26.4359 140.42 31.4085 136.965 32.3331 138.805C33.3359 140.76 28.6163 146.041 24.7063 145.332Z" fill="#FFC100" stroke="#263238" stroke-linecap="round" stroke-linejoin="round"/>
<path d="M24.7061 145.332L29.4901 140.76" stroke="#263238" stroke-linecap="round" stroke-linejoin="round"/>
<path d="M21.1822 138.156C21.0535 137.501 21.0669 136.825 21.2217 136.175C21.3764 135.525 21.6689 134.916 22.0792 134.389C22.921 133.243 27.8936 129.789 28.8136 131.629C29.8118 133.579 25.0922 138.865 21.1822 138.156Z" fill="#FFC100" stroke="#263238" stroke-linecap="round" stroke-linejoin="round"/>
<path d="M21.1826 138.156L25.9666 133.584" stroke="#263238" stroke-linecap="round" stroke-linejoin="round"/>
<path d="M21.4592 138.354C20.7948 138.414 20.1254 138.331 19.4956 138.111C18.8657 137.891 18.29 137.54 17.8068 137.08C16.758 136.119 13.8508 130.815 15.7506 130.083C17.816 129.292 22.577 134.541 21.4592 138.354Z" fill="#FFC100" stroke="#263238" stroke-linecap="round" stroke-linejoin="round"/>
<path d="M21.4584 138.354L17.415 133.119" stroke="#263238" stroke-linecap="round" stroke-linejoin="round"/>
<path d="M34.9043 115.12V210.358" stroke="#263238" stroke-linecap="round" stroke-linejoin="round"/>
<path d="M45.2868 150.659L39.04 210.059" stroke="#263238" stroke-linecap="round" stroke-linejoin="round"/>
<path d="M40.7004 195.192L37.5908 192.593" stroke="#263238" stroke-linecap="round" stroke-linejoin="round"/>
<path d="M38.5572 193.495C38.6875 192.84 38.6762 192.165 38.5238 191.515C38.3715 190.865 38.0817 190.256 37.674 189.727C36.8322 188.582 31.855 185.127 30.9304 186.967C29.9276 188.922 34.6518 194.208 38.5572 193.495Z" fill="#FFC100" stroke="#263238" stroke-linecap="round" stroke-linejoin="round"/>
<path d="M38.5565 193.494L34.0439 189.161" stroke="#263238" stroke-linecap="round" stroke-linejoin="round"/>
<path d="M39.5409 206.158L36.5693 201.885" stroke="#263238" stroke-linecap="round" stroke-linejoin="round"/>
<path d="M37.5315 203.421C37.6624 202.764 37.6508 202.086 37.4977 201.434C37.3445 200.782 37.0533 200.17 36.6437 199.64C35.8019 198.494 30.8247 195.04 29.9001 196.88C28.8973 198.849 33.6215 204.134 37.5315 203.421Z" fill="#FFC100" stroke="#263238" stroke-linecap="round" stroke-linejoin="round"/>
<path d="M37.5309 203.421L33.0137 199.088" stroke="#263238" stroke-linecap="round" stroke-linejoin="round"/>
<path d="M42.2736 179.29L39.2744 175.831" stroke="#263238" stroke-linecap="round" stroke-linejoin="round"/>
<path d="M40.2317 177.367C40.3617 176.712 40.3497 176.036 40.1966 175.387C40.0434 174.737 39.7526 174.127 39.3439 173.599C38.5021 172.458 33.5295 168.999 32.6049 170.839C31.6021 172.799 36.3401 178.08 40.2317 177.367Z" fill="#FFC100" stroke="#263238" stroke-linecap="round" stroke-linejoin="round"/>
<path d="M40.2313 177.367L35.7188 173.038" stroke="#263238" stroke-linecap="round" stroke-linejoin="round"/>
<path d="M43.8465 164.133L40.9531 159.634" stroke="#263238" stroke-linecap="round" stroke-linejoin="round"/>
<path d="M41.9153 161.17C42.044 160.516 42.0314 159.842 41.8783 159.193C41.7252 158.544 41.4351 157.935 41.0275 157.407C40.1857 156.262 35.2085 152.807 34.2839 154.647C33.2811 156.602 38.0053 161.883 41.9153 161.17Z" fill="#FFC100" stroke="#263238" stroke-linecap="round" stroke-linejoin="round"/>
<path d="M41.9147 161.17L37.3975 156.841" stroke="#263238" stroke-linecap="round" stroke-linejoin="round"/>
<path d="M41.4688 189.285L45.595 184.92" stroke="#263238" stroke-linecap="round" stroke-linejoin="round"/>
<path d="M44.3438 186.227C44.3516 185.56 44.5022 184.902 44.7854 184.298C45.0687 183.694 45.4781 183.158 45.9859 182.726C47.0439 181.778 52.6192 179.428 53.1528 181.392C53.7277 183.54 48.0191 187.726 44.3438 186.227Z" fill="#FFC100" stroke="#263238" stroke-linecap="round" stroke-linejoin="round"/>
<path d="M44.3438 186.227L49.965 182.74" stroke="#263238" stroke-linecap="round" stroke-linejoin="round"/>
<path d="M42.6602 177.804L46.7864 173.443" stroke="#263238" stroke-linecap="round" stroke-linejoin="round"/>
<path d="M45.54 174.749C45.5475 174.082 45.6979 173.423 45.9812 172.819C46.2645 172.214 46.674 171.677 47.1822 171.244C48.2402 170.296 53.8154 167.946 54.349 169.91C54.9194 172.04 49.22 176.249 45.54 174.749Z" fill="#FFC100" stroke="#263238" stroke-linecap="round" stroke-linejoin="round"/>
<path d="M45.5352 174.75L51.1564 171.263" stroke="#263238" stroke-linecap="round" stroke-linejoin="round"/>
<path d="M44.3623 160.117L48.5345 156.611" stroke="#263238" stroke-linecap="round" stroke-linejoin="round"/>
<path d="M47.2832 157.918C47.2907 157.251 47.4408 156.594 47.7232 155.99C48.0057 155.387 48.414 154.85 48.9208 154.417C49.9834 153.47 55.5586 151.119 56.0876 153.083C56.6672 155.218 50.9586 159.418 47.2832 157.918Z" fill="#FFC100" stroke="#263238" stroke-linecap="round" stroke-linejoin="round"/>
<path d="M47.2832 157.918L52.8998 154.431" stroke="#263238" stroke-linecap="round" stroke-linejoin="round"/>
<path d="M45.3096 150.172C45.317 149.504 45.4675 148.846 45.7507 148.241C46.034 147.636 46.4435 147.099 46.9518 146.666C48.0098 145.719 53.585 143.368 54.1186 145.332C54.6936 147.471 48.985 151.671 45.3096 150.172Z" fill="#FFC100" stroke="#263238" stroke-linecap="round" stroke-linejoin="round"/>
<path d="M45.3096 150.172L50.9308 146.68" stroke="#263238" stroke-linecap="round" stroke-linejoin="round"/>
<path d="M45.5402 150.42C44.8772 150.343 44.2384 150.124 43.6671 149.779C43.0958 149.434 42.6051 148.97 42.2282 148.419C41.3956 147.269 39.643 141.473 41.6532 141.151C43.8382 140.801 47.417 146.919 45.5402 150.42Z" fill="#FFC100" stroke="#263238" stroke-linecap="round" stroke-linejoin="round"/>
<path d="M45.5398 150.42L42.6602 144.463" stroke="#263238" stroke-linecap="round" stroke-linejoin="round"/>
<path d="M34.753 208.697L31.3398 204.134" stroke="#263238" stroke-linecap="round" stroke-linejoin="round"/>
<path d="M32.4529 205.56C32.5138 204.895 32.4316 204.226 32.2118 203.596C31.992 202.966 31.6397 202.39 31.1787 201.908C30.2219 200.854 24.9181 197.942 24.1913 199.842C23.3955 201.908 28.6395 206.673 32.4529 205.56Z" fill="#FFC100" stroke="#263238" stroke-linecap="round" stroke-linejoin="round"/>
<path d="M32.4531 205.56L27.5127 201.719" stroke="#263238" stroke-linecap="round" stroke-linejoin="round"/>
<path d="M34.8726 186.682L31.3398 183.388" stroke="#263238" stroke-linecap="round" stroke-linejoin="round"/>
<path d="M32.4529 184.819C32.5138 184.154 32.4316 183.484 32.2118 182.854C31.992 182.224 31.6397 181.649 31.1787 181.166C30.2219 180.113 24.9181 177.201 24.1913 179.101C23.3955 181.166 28.6395 185.932 32.4529 184.819Z" fill="#FFC100" stroke="#263238" stroke-linecap="round" stroke-linejoin="round"/>
<path d="M32.4531 184.819L27.5127 180.978" stroke="#263238" stroke-linecap="round" stroke-linejoin="round"/>
<path d="M34.9922 163.801L31.3398 159.036" stroke="#263238" stroke-linecap="round" stroke-linejoin="round"/>
<path d="M32.4529 160.466C32.5139 159.801 32.4317 159.131 32.2119 158.5C31.9922 157.869 31.6398 157.293 31.1787 156.809C30.2219 155.761 24.9181 152.849 24.1913 154.744C23.3955 156.809 28.6395 161.58 32.4529 160.466Z" fill="#FFC100" stroke="#263238" stroke-linecap="round" stroke-linejoin="round"/>
<path d="M32.4531 160.466L27.5127 156.625" stroke="#263238" stroke-linecap="round" stroke-linejoin="round"/>
<path d="M34.753 145.903L31.3398 142.825" stroke="#263238" stroke-linecap="round" stroke-linejoin="round"/>
<path d="M32.4529 144.256C32.5173 143.587 32.4368 142.912 32.2169 142.277C31.997 141.642 31.6429 141.062 31.1787 140.576C30.2219 139.527 24.9181 136.611 24.1913 138.511C23.3955 140.599 28.6395 145.36 32.4529 144.256Z" fill="#FFC100" stroke="#263238" stroke-linecap="round" stroke-linejoin="round"/>
<path d="M32.4531 144.256L27.5127 140.41" stroke="#263238" stroke-linecap="round" stroke-linejoin="round"/>
<path d="M34.9502 129.683L31.4082 127.084" stroke="#263238" stroke-linecap="round" stroke-linejoin="round"/>
<path d="M32.4529 127.972C32.5139 127.307 32.4317 126.636 32.2119 126.005C31.9922 125.374 31.6398 124.798 31.1787 124.315C30.2219 123.266 24.9181 120.354 24.1913 122.249C23.3955 124.315 28.6395 129.085 32.4529 127.972Z" fill="#FFC100" stroke="#263238" stroke-linecap="round" stroke-linejoin="round"/>
<path d="M32.4531 127.972L27.5127 124.131" stroke="#263238" stroke-linecap="round" stroke-linejoin="round"/>
<path d="M34.9141 182.243L38.5665 177.477" stroke="#263238" stroke-linecap="round" stroke-linejoin="round"/>
<path d="M37.4534 178.908C37.3937 178.244 37.4765 177.575 37.6963 176.946C37.916 176.317 38.2676 175.742 38.7276 175.26C39.6798 174.211 44.9882 171.295 45.715 173.195C46.5108 175.26 41.2668 180.016 37.4534 178.908Z" fill="#FFC100" stroke="#263238" stroke-linecap="round" stroke-linejoin="round"/>
<path d="M37.4531 178.908L42.6833 174.855" stroke="#263238" stroke-linecap="round" stroke-linejoin="round"/>
<path d="M34.9141 165.959L38.5665 161.193" stroke="#263238" stroke-linecap="round" stroke-linejoin="round"/>
<path d="M37.4531 162.624C37.3921 161.958 37.4743 161.288 37.6941 160.657C37.9139 160.026 38.2662 159.45 38.7273 158.967C39.6795 157.918 44.9879 155.006 45.7147 156.901C46.5105 158.967 41.2665 163.76 37.4531 162.624Z" fill="#FFC100" stroke="#263238" stroke-linecap="round" stroke-linejoin="round"/>
<path d="M37.4531 162.624L42.6833 158.576" stroke="#263238" stroke-linecap="round" stroke-linejoin="round"/>
<path d="M34.9141 144.44L38.5665 139.67" stroke="#263238" stroke-linecap="round" stroke-linejoin="round"/>
<path d="M37.4531 141.1C37.3922 140.436 37.4744 139.766 37.6942 139.136C37.914 138.506 38.2663 137.93 38.7273 137.448C39.6795 136.395 44.9879 133.483 45.7147 135.383C46.5105 137.448 41.2665 142.214 37.4531 141.1Z" fill="#FFC100" stroke="#263238" stroke-linecap="round" stroke-linejoin="round"/>
<path d="M37.4531 141.1L42.6833 137.052" stroke="#263238" stroke-linecap="round" stroke-linejoin="round"/>
<path d="M35.0703 125.865L38.6537 123.068" stroke="#263238" stroke-linecap="round" stroke-linejoin="round"/>
<path d="M37.4525 124.2C37.3876 123.531 37.4677 122.856 37.6877 122.221C37.9076 121.586 38.262 121.005 38.7268 120.52C39.679 119.466 44.9873 116.555 45.7141 118.454C46.5099 120.52 41.2659 125.295 37.4525 124.2Z" fill="#FFC100" stroke="#263238" stroke-linecap="round" stroke-linejoin="round"/>
<path d="M37.4531 124.181L42.6833 120.133" stroke="#263238" stroke-linecap="round" stroke-linejoin="round"/>
<path d="M34.6927 116.679C34.628 116.01 34.7079 115.336 34.9269 114.701C35.146 114.066 35.4991 113.485 35.9623 112.999C36.9191 111.95 42.2229 109.034 42.9543 110.933C43.7501 113.022 38.5061 117.792 34.6927 116.679Z" fill="#FFC100" stroke="#263238" stroke-linecap="round" stroke-linejoin="round"/>
<path d="M34.6934 116.679L39.9236 112.626" stroke="#263238" stroke-linecap="round" stroke-linejoin="round"/>
<path d="M34.9598 116.904C34.2922 116.895 33.6344 116.743 33.0305 116.458C32.4267 116.173 31.8909 115.762 31.4592 115.253C30.5116 114.195 28.1702 108.615 30.1344 108.086C32.2642 107.511 36.4548 113.229 34.9598 116.904Z" fill="#FFC100" stroke="#263238" stroke-linecap="round" stroke-linejoin="round"/>
<path d="M34.9509 116.904L31.4688 111.274" stroke="#263238" stroke-linecap="round" stroke-linejoin="round"/>
<path d="M203.779 210.528H216.659" stroke="#263238" stroke-linecap="round" stroke-linejoin="round"/>
<path d="M14.8711 210.528H198.719" stroke="#263238" stroke-linecap="round" stroke-linejoin="round"/>
<path d="M124.039 29.3617C124.04 27.1401 123.506 24.951 122.481 22.9797C121.457 21.0084 119.973 19.3128 118.155 18.0364C116.336 16.76 114.237 15.9403 112.035 15.6467C109.833 15.3531 107.593 15.5943 105.504 16.3497C103.414 17.1052 101.538 18.3527 100.033 19.9868C98.5278 21.6209 97.4385 23.5935 96.8571 25.7376C96.2757 27.8817 96.2193 30.1344 96.6927 32.3049C97.166 34.4755 98.1552 36.5001 99.5766 38.2075C101.615 40.6528 102.73 43.7363 102.728 46.9199V48.8151H117.682V46.9199C117.68 43.7427 118.793 40.6656 120.829 38.2259C122.906 35.7397 124.043 32.6017 124.039 29.3617Z" fill="white" stroke="#263238" stroke-width="2" stroke-linecap="round" stroke-linejoin="round"/>
<path d="M117.682 48.8105H102.728V52.5089H117.682V48.8105Z" fill="white" stroke="#263238" stroke-width="2" stroke-linecap="round" stroke-linejoin="round"/>
<path d="M102.727 52.5181H117.682V54.0453C117.682 54.6223 117.452 55.1757 117.044 55.5838C116.636 55.9918 116.083 56.2211 115.506 56.2211H104.88C104.303 56.2211 103.749 55.9918 103.341 55.5838C102.933 55.1757 102.704 54.6223 102.704 54.0453V52.5181H102.727Z" fill="white" stroke="#263238" stroke-width="2" stroke-linecap="round" stroke-linejoin="round"/>
<path d="M104.613 56.2119H115.791V56.9617C115.791 57.3489 115.715 57.7324 115.567 58.0901C115.419 58.4478 115.201 58.7729 114.928 59.0467C114.654 59.3205 114.329 59.5377 113.971 59.6859C113.613 59.8341 113.23 59.9103 112.843 59.9103H107.562C106.78 59.9103 106.03 59.5997 105.477 59.0467C104.924 58.4937 104.613 57.7437 104.613 56.9617V56.2119Z" fill="white" stroke="#263238" stroke-width="2" stroke-linecap="round" stroke-linejoin="round"/>
<path d="M125.999 29.4307H132.338" stroke="#263238" stroke-width="2" stroke-linecap="round" stroke-linejoin="round"/>
<path d="M87.4785 29.4307H93.8955" stroke="#263238" stroke-width="2" stroke-linecap="round" stroke-linejoin="round"/>
<path d="M109.908 13.3585V7.00586" stroke="#263238" stroke-width="2" stroke-linecap="round" stroke-linejoin="round"/>
<path d="M121.395 17.9447L125.769 13.5747" stroke="#263238" stroke-width="2" stroke-linecap="round" stroke-linejoin="round"/>
<path d="M94.0469 45.2915L98.4859 40.8525" stroke="#263238" stroke-width="2" stroke-linecap="round" stroke-linejoin="round"/>
<path d="M98.2973 17.8205L94.0469 13.5747" stroke="#263238" stroke-width="2" stroke-linecap="round" stroke-linejoin="round"/>
<path d="M125.769 45.2919L121.537 41.0645" stroke="#263238" stroke-width="2" stroke-linecap="round" stroke-linejoin="round"/>
<path d="M159.989 89.1708C159.989 89.1708 156.87 82.4318 156.493 81.8108C156.116 81.1898 155.743 77.4408 155.996 76.3184C156.249 75.196 159.363 71.3274 159.363 71.3274C159.363 71.3274 159.736 63.3464 160.237 61.2074C160.739 59.0684 160.486 57.2146 161.732 56.8374C162.979 56.4602 163.356 56.589 163.48 58.2174C163.604 59.8458 163.232 63.7052 163.232 64.0778C163.232 64.4504 163.853 70.1912 163.853 70.1912C163.853 70.1912 169.718 76.1712 170.343 76.806C170.969 77.4408 171.963 78.8024 170.964 82.0454C170.361 84.0009 169.386 85.8219 168.094 87.409L168.595 89.9068L159.989 90.5278V89.1708Z" fill="white" stroke="#263238" stroke-linecap="round" stroke-linejoin="round"/>
<path d="M159.363 85.9276C159.363 85.9276 156.368 82.6846 155.494 80.8124C154.62 78.9402 154.873 74.4506 155.246 73.825C155.618 73.1994 158.613 71.7044 159.363 71.3272C160.112 70.95 165.228 70.582 166.35 69.9472C167.472 69.3124 168.719 71.1938 167.1 72.8176C165.481 74.4414 160.609 75.8122 160.609 75.8122C160.609 75.8122 164.229 78.3054 163.369 81.9256" fill="white"/>
<path d="M159.363 85.9276C159.363 85.9276 156.368 82.6846 155.494 80.8124C154.62 78.9402 154.873 74.4506 155.246 73.825C155.618 73.1994 158.613 71.7044 159.363 71.3272C160.112 70.95 165.228 70.582 166.35 69.9472C167.472 69.3124 168.719 71.1938 167.1 72.8176C165.481 74.4414 160.609 75.8122 160.609 75.8122C160.609 75.8122 164.229 78.3054 163.369 81.9256" stroke="#263238" stroke-linecap="round" stroke-linejoin="round"/>
<path d="M168.674 70.6788C168.674 70.6788 166.125 77.5788 167.34 78.4528C168.554 79.3268 170.012 79.06 170.376 77.726C170.739 76.392 172.676 73.126 172.441 71.4056C172.207 69.6852 170.012 68.9998 168.674 70.6788Z" fill="white" stroke="#263238" stroke-linecap="round" stroke-linejoin="round"/>
<path d="M171.948 72.988C171.948 72.988 169.883 78.5954 170.868 79.2854C171.852 79.9754 173.034 79.7776 173.328 78.6966C173.623 77.6156 175.196 74.9568 175.003 73.5768C174.81 72.1968 173.034 71.608 171.948 72.988Z" fill="white" stroke="#263238" stroke-linecap="round" stroke-linejoin="round"/>
<path d="M165.725 68.7102C165.725 68.7102 163.108 75.8218 164.345 76.6958C165.582 77.5698 167.105 77.3168 167.464 75.946C167.823 74.5752 169.833 71.2034 169.584 69.46C169.336 67.7166 167.1 66.9622 165.725 68.7102Z" fill="white" stroke="#263238" stroke-linecap="round" stroke-linejoin="round"/>
<path d="M159.487 93.1638L158.613 87.8002L169.345 86.7974L171.213 93.1638H159.487Z" fill="#FFC100" stroke="#263238" stroke-linecap="round" stroke-linejoin="round"/>
<path d="M73.4027 210.528L81.1905 171.81L84.1805 210.528H139.615C139.679 208.035 140.535 174.804 140.3 169.05C140.07 163.07 143.06 152.95 143.06 152.95C143.06 152.95 180.09 145.13 184.92 141.91C189.75 138.69 186.99 134.55 186.53 132.25C186.07 129.95 172.5 94.0697 172.04 92.4597C171.58 90.8497 169.51 91.0797 167.44 91.0797C165.37 91.0797 158.24 91.5397 158.24 92.9197C158.24 94.2997 162.15 127.88 162.15 127.88H160.31L159.62 129.49L149.73 127.42C149.73 127.42 142.37 121.9 139.84 121.67L122.36 120.06H96.8305C96.8305 120.06 68.3105 133.4 66.2405 135.93C64.1705 138.46 64.1705 146.97 64.1705 146.97L57.7305 210.528H73.4027Z" fill="#FFC100" stroke="#263238" stroke-linecap="round" stroke-linejoin="round"/>
<path d="M124.684 191.884L126.961 188.83" stroke="#263238" stroke-linecap="round" stroke-linejoin="round"/>
<path d="M111.638 209.41C115.46 203.78 119.6 198.72 123.621 193.315" stroke="#263238" stroke-linecap="round" stroke-linejoin="round"/>
<path d="M128.575 189.64C126.528 193.393 123.165 199.014 119.375 203.09" stroke="#263238" stroke-linecap="round" stroke-linejoin="round"/>
<path d="M130.64 185.61C130.64 185.61 130.217 186.53 129.463 187.97" stroke="#263238" stroke-linecap="round" stroke-linejoin="round"/>
<path d="M146.543 139.578L147.969 134.09" stroke="#263238" stroke-linecap="round" stroke-linejoin="round"/>
<path d="M143.061 152.95L146.041 141.51" stroke="#263238" stroke-linecap="round" stroke-linejoin="round"/>
<path d="M144.556 147.14L150.531 136.04" stroke="#263238" stroke-linecap="round" stroke-linejoin="round"/>
<path d="M168.066 135.479C168.306 135.847 168.517 136.197 168.701 136.528" stroke="#263238" stroke-linecap="round" stroke-linejoin="round"/>
<path d="M164.188 136.04C162.791 133.551 162.087 130.733 162.15 127.88C162.15 127.88 164.823 130.911 166.925 133.814" stroke="#263238" stroke-linecap="round" stroke-linejoin="round"/>
<path d="M75.0721 145.779C74.4787 144.514 74.0049 143.566 74.0049 143.566" stroke="#263238" stroke-linecap="round" stroke-linejoin="round"/>
<path d="M81.1905 171.81C81.1905 171.81 77.9383 153.065 77.1149 150.608C76.8205 149.716 76.3283 148.543 75.8223 147.388" stroke="#263238" stroke-linecap="round" stroke-linejoin="round"/>
<path d="M75.9009 155.061C75.2345 153.704 74.4991 152.383 73.6975 151.101L69.6035 145.204" stroke="#263238" stroke-linecap="round" stroke-linejoin="round"/>
<path d="M79.5803 162.564C79.5803 162.564 78.0577 159.344 76.5029 156.267" stroke="#263238" stroke-linecap="round" stroke-linejoin="round"/>
<path d="M103.809 132.328L108.713 139.531L101.812 193.811L110.861 202.708L117.761 192.28L111.932 138.92L116.841 131.56L109.633 125.731L103.809 132.328Z" fill="#263238" stroke="#263238" stroke-linecap="round" stroke-linejoin="round"/>
<path d="M108.409 129.412L99.5121 139.38L94.9121 122.052L98.4403 116.38L101.352 116.072L119.449 116.38L125.429 121.9L121.44 138.768L111.472 128.8L108.409 129.412Z" fill="#FFC100" stroke="#263238" stroke-linecap="round" stroke-linejoin="round"/>
<path d="M98.9004 110.092L99.5122 119.14C99.5122 119.14 108.409 130.792 109.632 130.792C110.856 130.792 119.449 118.372 119.449 118.372L119.6 110.552L98.9004 110.092Z" fill="white" stroke="#263238" stroke-linecap="round" stroke-linejoin="round"/>
<path d="M94.6087 97.6718C94.6087 97.6718 92.9205 92.46 90.7723 95.8318C88.6241 99.2036 93.3805 104.42 94.3005 105.032L95.2205 105.648L94.6087 97.6718Z" fill="white" stroke="#263238" stroke-linecap="round" stroke-linejoin="round"/>
<path d="M124.509 97.6718C124.509 97.6718 126.193 92.46 128.341 95.8318C130.489 99.2036 125.733 104.42 124.813 105.032L123.893 105.648L124.509 97.6718Z" fill="white" stroke="#263238" stroke-linecap="round" stroke-linejoin="round"/>
<path d="M94.3004 97.0596C94.3004 97.0596 94.7604 107.64 96.3704 109.94C97.9804 112.24 103.5 117.99 107.64 118.91C111.78 119.83 113.39 118.91 116.61 116.84C119.83 114.77 124.2 110.63 124.66 108.1C125.12 105.57 125.12 94.9896 125.12 94.9896L124.2 83.9496C124.2 83.9496 123.74 77.5096 115.92 74.7496C108.1 71.9896 101.89 70.1496 99.3604 74.7496C96.8304 79.3496 93.6104 84.4096 93.6104 84.4096L94.3004 97.0596Z" fill="white" stroke="#263238" stroke-linecap="round" stroke-linejoin="round"/>
<path d="M107.41 105.009C109.004 105.395 110.661 105.444 112.275 105.154C113.889 104.864 115.425 104.241 116.785 103.325" stroke="#263238" stroke-linecap="round" stroke-linejoin="round"/>
<path d="M100.441 94.4331L104.77 95.3945" stroke="#263238" stroke-linecap="round" stroke-linejoin="round"/>
<path d="M115.824 95.6336L120.87 94.1938" stroke="#263238" stroke-linecap="round" stroke-linejoin="round"/>
<path d="M103.041 78.1998C103.041 78.1998 102.581 83.2598 99.8206 85.3298L95.2206 88.7798L95.6806 97.2898L94.3006 97.0598L93.6106 91.5398C93.6106 91.5398 90.8506 84.1798 90.8506 78.8898C90.8506 73.5998 94.9906 70.3798 96.6006 70.1498C97.9777 70.0242 99.3634 70.0242 100.741 70.1498C100.741 70.1498 103.961 65.5498 112.471 65.0898C120.981 64.6298 127.651 73.5998 126.731 75.2098L125.811 76.8198C126.948 78.9472 127.578 81.3087 127.651 83.7198C127.651 87.3998 125.351 90.8498 125.351 90.8498V97.9798L123.511 90.1598C123.511 90.1598 121.901 85.3298 121.441 84.4098C120.981 83.4898 116.151 83.9498 113.391 82.7998C110.631 81.6498 108.561 78.4298 108.561 78.4298C108.561 78.4298 110.861 82.7998 109.021 82.7998C107.181 82.7998 103.041 78.1998 103.041 78.1998Z" fill="#263238" stroke="#263238" stroke-linecap="round" stroke-linejoin="round"/>
<path d="M120.06 100.74C118.22 99.8199 110.552 97.8281 110.552 97.8281C110.552 97.8281 101.508 100.28 100.128 101.812C98.7484 103.344 99.972 111.012 101.508 113.928C103.045 116.845 104.728 119.292 109.48 119.448C114.232 119.605 119.14 116.84 119.908 114.08C120.677 111.32 121.9 101.66 120.06 100.74ZM117.148 111.78C115.92 113.928 113.16 113.772 113.008 112.548C112.857 111.325 112.852 109.94 111.32 109.94C109.788 109.94 110.248 110.552 110.4 112.24C110.552 113.928 108.408 115.152 106.108 113.772C103.808 112.392 102.732 106.72 102.732 104.88C102.732 103.04 110.708 100.432 110.708 100.432C110.708 100.432 117.452 100.74 118.372 102.58C119.292 104.42 118.372 109.632 117.148 111.78Z" fill="#263238" stroke="#263238" stroke-linecap="round" stroke-linejoin="round"/>
<path d="M103.882 93.5314C104.263 93.5314 104.572 92.8456 104.572 91.9996C104.572 91.1536 104.263 90.4678 103.882 90.4678C103.501 90.4678 103.192 91.1536 103.192 91.9996C103.192 92.8456 103.501 93.5314 103.882 93.5314Z" fill="#263238"/>
<path d="M116.151 93.5314C116.532 93.5314 116.841 92.8456 116.841 91.9996C116.841 91.1536 116.532 90.4678 116.151 90.4678C115.77 90.4678 115.461 91.1536 115.461 91.9996C115.461 92.8456 115.77 93.5314 116.151 93.5314Z" fill="#263238"/>
<path d="M100.74 87.708C100.74 87.708 102.428 84.488 107.488 85.5598" stroke="#263238" stroke-width="4" stroke-linecap="round" stroke-linejoin="round"/>
<path d="M113.772 85.2516C113.772 85.2516 117.609 83.568 120.829 87.248" stroke="#263238" stroke-width="4" stroke-linecap="round" stroke-linejoin="round"/>
<path d="M112.548 86.6318L112.852 98.7482L107.028 97.2118" fill="white"/>
<path d="M112.548 86.6318L112.852 98.7482L107.028 97.2118" stroke="#263238" stroke-linecap="round" stroke-linejoin="round"/>
</svg>
