<svg width="97" height="109" viewBox="0 0 97 109" fill="none" xmlns="http://www.w3.org/2000/svg">
<path opacity="0.4" d="M82.7123 23.6739C82.7123 22.8494 82.7741 22.025 82.803 21.2006C82.8318 20.3761 82.9143 19.5311 82.9843 18.7272C83.2898 15.4482 83.8956 12.2042 84.794 9.0359C85.6727 5.86779 86.9659 2.82957 88.64 0C87.0288 2.8583 85.8035 5.91751 84.996 9.09773C84.1618 12.2644 83.6249 15.502 83.3924 18.7684C82.8195 25.2733 83.8747 31.7452 84.0108 38.3242C84.4368 37.3142 84.9269 36.3325 85.4783 35.3851C86.4017 33.9052 87.6136 32.7881 89.2625 33.5013C91.2824 34.3793 91.4019 37.2112 88.8255 38.3902C87.3148 39.0489 85.667 39.3317 84.0231 39.2146C84.0231 40.5997 84.0231 41.9807 83.9902 43.3657C83.9325 44.388 83.8665 45.4062 83.7717 46.4244C84.0562 45.7969 84.3784 45.187 84.7363 44.5983C85.6638 43.1143 86.8798 42.0054 88.5205 42.7185C90.5404 43.5924 90.664 46.4285 88.1083 47.6075C86.6802 48.227 85.1286 48.5091 83.5738 48.4319C83.1728 51.397 82.4824 54.3157 81.5127 57.1463C81.9707 56.5672 82.4635 56.0165 82.9884 55.4974C84.2705 54.2855 85.6926 53.4981 87.1107 54.5864C88.8585 55.9426 88.2979 58.6756 85.5071 59.2239C83.9549 59.4828 82.364 59.3813 80.8573 58.9271C79.7062 61.8668 78.2689 64.6862 76.5661 67.3446C77.0772 66.9943 77.609 66.6686 78.1531 66.3677C79.7031 65.5432 81.3148 65.2176 82.3701 66.6645C83.6727 68.4411 82.3413 70.9475 79.5176 70.6589C78.0296 70.4901 76.5978 69.9931 75.3253 69.2038C73.9451 71.1856 72.4503 73.085 70.8485 74.8924C70.593 75.1768 70.3333 75.453 70.0736 75.7169C70.0659 75.822 70.0521 75.9266 70.0323 76.0302C70.337 75.8925 70.6494 75.7727 70.9681 75.6715C72.617 75.1068 74.2658 75.0161 75.0903 76.6114C76.1044 78.5694 74.406 80.8325 71.6647 80.0905C70.2885 79.7057 69.0098 79.0327 67.9135 78.116L67.7156 78.1655C66.4295 79.4324 65.1131 80.6553 63.7666 81.8342C62.7442 82.7123 61.7055 83.5614 60.6213 84.3982C61.7549 85.8946 60.9181 88.1948 58.3541 88.5205C57.2897 88.6405 56.2127 88.5819 55.1676 88.3473C53.0515 89.7544 50.8929 91.0804 48.6916 92.3253C49.0494 92.388 49.3842 92.5442 49.6622 92.7781C49.9402 93.0119 50.1514 93.315 50.2745 93.6568C50.7321 94.7904 50.2745 95.7879 49.4748 96.6495C49.3711 97.2388 49.0468 97.7665 48.5679 98.1252C50.1385 98.0345 51.7091 97.8903 53.2838 97.713C53.2931 96.164 53.6244 94.6339 54.2566 93.2198C55.4933 90.495 58.2964 90.3796 59.092 92.3624C59.7433 93.97 58.6056 95.2933 57.1092 96.3609C56.5384 96.7588 55.9452 97.1236 55.3325 97.4533L57.0515 97.2142C58.5149 97.0122 59.937 96.6907 61.4087 96.4434C61.7632 96.3898 62.1136 96.3114 62.4681 96.2249C62.1888 94.7013 62.228 93.1363 62.5835 91.6286C63.3007 88.7183 66.0173 88.0835 67.1715 89.8808C68.1031 91.3401 67.2457 92.8612 65.9761 94.1885C65.4141 94.7553 64.8224 95.292 64.2035 95.7962L65.7123 95.4334C69.076 94.5221 72.3721 93.3774 75.5767 92.0079C75.1061 90.4358 74.9838 88.7801 75.2181 87.156C75.6303 84.1963 78.2809 83.2894 79.6123 84.9589C80.6924 86.3151 79.9792 87.9145 78.8539 89.3532C78.2419 90.1129 77.5839 90.8342 76.8834 91.5132C78.7096 90.6888 80.5151 89.8355 82.2794 88.9038C83.3924 88.3432 84.4601 87.7043 85.5401 87.0859C84.7867 85.5457 84.3947 83.8539 84.3941 82.1393C84.4312 79.1466 86.9293 77.9058 88.4628 79.3898C89.6994 80.5976 89.2048 82.2959 88.2855 83.8582C87.6733 84.8334 87.0029 85.7708 86.278 86.6655C87.5147 85.907 88.7224 85.1567 89.9179 84.3364C92.3973 82.6917 94.7634 80.8821 96.9999 78.9198C94.8144 80.9498 92.4952 82.831 90.0581 84.5508C88.9533 85.3752 87.8032 86.1131 86.6614 86.8716C87.6292 86.606 88.6139 86.4063 89.6087 86.2739C91.3442 86.0801 92.9683 86.3439 93.43 88.0711C93.9948 90.2023 91.8471 92.0532 89.3078 90.7588C87.8492 89.9698 86.6043 88.8381 85.6803 87.4611C84.6374 88.1041 83.5944 88.7637 82.5185 89.3532C80.8202 90.304 79.093 91.1985 77.3369 92.0367C78.1747 91.9261 79.0188 91.871 79.8638 91.8718C81.6075 91.9048 83.1616 92.3789 83.4172 94.1597C83.6934 96.3403 81.3561 97.8944 78.9981 96.2867C77.6968 95.3578 76.6333 94.1346 75.8941 92.7169C72.7205 94.2013 69.4462 95.4603 66.0956 96.4846L65.0692 96.769C65.6477 96.7655 66.2259 96.7972 66.8005 96.8638C68.5277 97.0906 70.0612 97.6883 70.0983 99.4938C70.156 101.691 67.6497 103.006 65.4855 101.172C64.3095 100.14 63.3881 98.8507 62.7937 97.4038C62.4433 97.4987 62.0929 97.5935 61.7384 97.6594C60.2668 97.9562 58.8034 98.3231 57.3277 98.5787L56.0663 98.7848C56.5073 98.8796 56.9484 98.9909 57.3771 99.1269C59.026 99.6546 60.4193 100.557 60.1349 102.326C59.7845 104.498 57.0762 105.294 55.2954 103.109C54.377 101.962 53.72 100.628 53.3703 99.2011C51.7214 99.4443 50.0437 99.6546 48.3701 99.7947C47.7311 99.8524 47.0922 99.9019 46.4491 99.9472C47.146 100.067 47.8344 100.23 48.5103 100.438C50.1591 100.965 51.5566 101.872 51.268 103.637C50.9176 105.834 48.2093 106.629 46.4244 104.42C45.4266 103.14 44.7521 101.638 44.4581 100.042C43.6337 100.071 42.8381 100.079 42.0178 100.067C41.6839 101.641 39.8247 102.627 37.7966 101.477C36.8227 100.903 35.9553 100.165 35.2326 99.2959C35.0649 99.2671 34.9006 99.2215 34.742 99.1599H34.6555C29.7995 101.155 24.8364 102.87 19.8155 104.37C16.6359 105.31 13.4343 106.158 10.2107 106.914C6.97479 107.656 3.76358 108.311 0.412222 108.839L0 105.582C3.14525 105.17 6.3812 104.572 9.55118 103.933C12.7212 103.294 15.9159 102.491 19.0323 101.633C23.204 100.496 27.3427 99.1599 31.3989 97.6924C31.2106 97.5529 31.0303 97.4029 30.8589 97.2431C30.6393 97.0455 30.4503 96.8162 30.2983 96.5629L32.2275 95.5324L32.2028 95.4953L32.2398 95.5447L32.3676 95.6808C32.4662 95.7793 32.5708 95.8715 32.6809 95.9569C32.9314 96.1459 33.196 96.3154 33.4724 96.464L33.8022 96.6371C33.3908 95.3631 33.2121 94.0254 33.2745 92.688C33.4477 89.6994 36.0034 88.5658 37.4627 90.124C38.654 91.4019 38.0852 93.0384 37.0876 94.5636C36.799 94.9965 36.4775 95.4211 36.1601 95.8292L37.4792 95.2891C38.7736 94.7409 40.0597 94.1679 41.3293 93.5826C40.8514 92.2247 40.6414 90.7869 40.711 89.349C40.8759 86.3604 43.4317 85.2268 44.8992 86.7809C46.0905 88.0629 45.5134 89.6994 44.5158 91.2246C44.2273 91.6698 43.9016 92.0985 43.5759 92.5149C44.4911 92.0697 45.4062 91.6162 46.3131 91.1504C46.9809 90.8001 47.6446 90.4414 48.3124 90.0787C49.1822 89.4686 50.0437 88.842 50.8846 88.1701C51.3422 87.8115 51.8039 87.4363 52.2491 87.0653C51.1463 86.2801 50.194 85.3026 49.4378 84.1798C47.7889 81.6817 49.1616 79.2537 51.2639 79.6206C52.9746 79.9174 53.5022 81.5993 53.6218 83.4172C53.6628 84.2414 53.6546 85.0673 53.5971 85.8905C55.4682 84.2426 57.2076 82.4508 58.7993 80.5316C59.7355 79.3844 60.6106 78.1887 61.421 76.9494C60.2123 76.1424 59.1708 75.1094 58.3541 73.9072C56.7052 71.4092 58.0779 68.9853 60.1802 69.348C61.891 69.649 62.4186 71.3308 62.5381 73.1405C62.5711 73.7969 62.5711 74.4545 62.5381 75.1109C63.2673 73.8311 63.9091 72.5035 64.4591 71.1371C65.5584 68.3839 66.2285 65.4782 66.446 62.5217C64.9193 62.2459 63.4673 61.6533 62.1836 60.7821C59.7103 59.0755 60.0854 56.3095 62.1836 55.8684C63.882 55.5304 64.9909 56.8618 65.77 58.5107C66.062 59.1449 66.3193 59.7944 66.5408 60.4564V60.3987C66.5861 57.2978 66.3098 54.2006 65.7164 51.1567C64.0985 51.1509 62.501 50.7951 61.0335 50.1138C58.3294 48.8194 58.2552 46.0369 60.2421 45.2661C61.8662 44.6354 63.1771 45.7978 64.22 47.3272C64.6217 47.9158 64.9918 48.5254 65.3289 49.1533C64.6528 45.9627 63.8861 42.7515 63.3543 39.4949V39.4249C61.6733 39.084 60.0935 38.3604 58.7375 37.3102C56.4084 35.4263 56.9855 32.6974 59.1002 32.413C60.8151 32.178 61.8291 33.6084 62.4887 35.2985C62.6741 35.7792 62.8351 36.269 62.971 36.766C62.6962 34.5291 62.5382 32.2866 62.4969 30.0386L62.2784 30.0097C62.2681 29.9846 62.2681 29.9565 62.2784 29.9314C60.5768 29.5782 58.9815 28.8314 57.6203 27.7508C55.2913 25.8669 55.8684 23.138 57.9831 22.8536C59.6979 22.6186 60.712 24.049 61.3757 25.7597C61.8057 27.0043 62.1662 28.2718 62.4557 29.5563C62.4557 28.7319 62.4557 27.9074 62.4557 27.1077C62.5551 23.3582 62.88 19.6181 63.4286 15.9076C62.9351 20.169 62.7422 24.4599 62.8514 28.7483C63.2304 27.8626 63.6683 27.0032 64.1623 26.1761C65.0857 24.6962 66.3058 23.5832 67.9465 24.3005C69.9664 25.1703 70.0859 28.0105 67.5095 29.1812C66.0613 29.8107 64.4859 30.0931 62.9091 30.0056C63.0306 32.7568 63.3321 35.4971 63.8119 38.2088C63.8119 38.2954 63.8449 38.382 63.8573 38.4685C64.2594 37.5124 64.7248 36.5842 65.2506 35.6901C66.1739 34.2103 67.3859 33.0973 69.0348 33.8063C71.0505 34.6843 71.1742 37.5163 68.5937 38.6952C67.1657 39.3152 65.614 39.5973 64.0592 39.5197C64.6858 42.7433 65.5515 45.8926 66.31 49.1368C66.3512 49.2935 66.38 49.4542 66.4213 49.6109C66.5704 48.756 66.7756 47.9119 67.0355 47.0839C67.5837 45.4351 68.5112 44.0582 70.2714 44.3674C72.4397 44.7508 73.2312 47.4756 70.9887 49.2234C69.7362 50.1636 68.2853 50.8052 66.7469 51.099C67.4138 54.1591 67.7661 57.2793 67.7981 60.4111V60.51C68.0289 59.9144 68.2932 59.3322 68.5896 58.7663C69.414 57.2246 70.527 56.0168 72.2419 56.6104C72.5458 56.7103 72.8271 56.869 73.0697 57.0776C73.3124 57.2862 73.5115 57.5405 73.6558 57.8261C73.8001 58.1117 73.8868 58.4228 73.9108 58.7419C73.9349 59.0609 73.8958 59.3816 73.7959 59.6856C73.7345 59.8706 73.6515 60.0477 73.5486 60.2132C73.9147 60.1814 74.2829 60.2409 74.6204 60.3863C76.2157 61.0583 76.3641 62.802 76.0673 64.6116C75.9939 65.0855 75.8935 65.5549 75.7663 66.0173C77.3268 63.5975 78.6611 61.0392 79.7525 58.3747C78.4212 57.6402 77.2563 56.6381 76.3311 55.4314C74.5256 53.0406 75.7457 50.5342 77.8687 50.7651C79.5959 50.9547 80.2225 52.5871 80.4533 54.4091C80.5281 55.0109 80.568 55.6165 80.5728 56.2229C81.4836 53.6339 82.1542 50.9666 82.5762 48.2547C81.0125 47.8708 79.5501 47.1537 78.2891 46.1523C75.9642 44.2685 76.5413 41.5396 78.6519 41.2593C80.3667 41.0243 81.3808 42.4547 82.0486 44.1448C82.3496 44.953 82.6001 45.779 82.7988 46.6181C82.9431 45.5134 83.0338 44.4004 83.1204 43.2915C83.2028 41.8529 83.244 40.406 83.2358 38.9714C81.6987 38.5837 80.2613 37.8741 79.0188 36.8897C76.6938 35.01 77.2668 32.277 79.3815 31.9966C81.0963 31.7617 82.1104 33.1921 82.7782 34.8822C82.9383 35.2865 83.076 35.6994 83.1905 36.1189C83.1163 33.6043 82.9761 31.0898 82.8607 28.567C82.7494 26.9675 82.6999 25.3228 82.7123 23.6739ZM65.3619 74.1504C65.2794 73.9155 65.197 73.6723 65.131 73.4208C64.8919 73.9526 64.6446 74.4802 64.3602 75.0037C64.5745 74.8017 64.7724 74.5915 64.9991 74.4101L65.3619 74.1504ZM44.5034 98.2819L44.5776 97.7295C43.8774 97.2364 43.2441 96.6544 42.6938 95.9982L42.5742 96.0641L42.3929 95.6972C41.4448 96.1534 40.4829 96.6028 39.5073 97.0452C39.951 97.0468 40.3874 97.1579 40.7779 97.3686C41.1684 97.5793 41.5008 97.8831 41.7457 98.253C42.6526 98.2819 43.5842 98.2942 44.5034 98.2695V98.2819ZM60.1679 81.5828C59.6759 82.2094 59.1648 82.8208 58.6344 83.4172L58.8075 83.4419C60.0909 82.4855 61.3441 81.499 62.567 80.4821C63.4203 79.7772 64.2695 79.0229 65.1022 78.2891C64.3353 78.1941 63.5807 78.0172 62.8514 77.7615C62.0327 79.0934 61.1366 80.3763 60.1679 81.6034V81.5828ZM71.7801 64.4179C71.4249 63.568 71.3854 62.619 71.6689 61.7426C70.4364 62.3094 69.1042 62.6274 67.7486 62.6783C67.6369 64.7891 67.3039 66.8822 66.7552 68.9235C67.0342 68.8533 67.3247 68.8416 67.6085 68.8891C67.8922 68.9366 68.1631 69.0424 68.404 69.1996C69.8839 70.1148 69.7397 71.8544 69.1873 73.598V73.6805L69.2738 73.7506C69.3576 73.8261 69.4374 73.9059 69.5129 73.9897C69.5748 73.9237 69.6407 73.8577 69.7026 73.7877C71.3416 72.0275 72.8685 70.1661 74.2741 68.2144C73.1986 67.1394 72.3566 65.8539 71.8008 64.4385L71.7801 64.4179Z" fill="white"/>
</svg>
