<svg width="120" height="120" viewBox="0 0 120 120" fill="none" xmlns="http://www.w3.org/2000/svg">
<path d="M41.25 22.5C41.25 12.1444 49.6463 3.75 60 3.75C70.3538 3.75 78.75 12.1444 78.75 22.5V45H75V22.5C75 14.2162 68.2838 7.5 60 7.5C51.7162 7.5 45 14.2162 45 22.5V45H41.25V22.5Z" fill="#F9EBB2"/>
<path d="M18.75 112.5C18.75 114.57 20.43 116.25 22.5 116.25H97.5C99.57 116.25 101.25 114.57 101.25 112.5V108.75H18.75V112.5Z" fill="#92E3A9"/>
<path d="M99.375 41.25H82.5V46.875C82.5 47.9119 81.6619 48.75 80.625 48.75H73.125C72.0881 48.75 71.25 47.9119 71.25 46.875V41.25H48.75V46.875C48.75 47.9119 47.9119 48.75 46.875 48.75H39.375C38.3381 48.75 37.5 47.9119 37.5 46.875V41.25H20.625C19.5881 41.25 18.75 42.0881 18.75 43.125V105H101.25V43.125C101.25 42.0881 100.412 41.25 99.375 41.25Z" fill="#92E3A9"/>
<path d="M101.25 37.5H82.5V22.5C82.5 10.0744 72.4256 0 60 0C47.5744 0 37.5 10.0744 37.5 22.5V37.5H18.75C16.6781 37.5 15 39.1781 15 41.25V112.5C15 116.646 18.3544 120 22.5 120H97.5C101.646 120 105 116.646 105 112.5V41.25C105 39.1781 103.322 37.5 101.25 37.5ZM41.25 22.5C41.25 12.1444 49.6463 3.75 60 3.75C70.3537 3.75 78.75 12.1444 78.75 22.5V45H75V22.5C75 14.2162 68.2837 7.5 60 7.5C51.7163 7.5 45 14.2162 45 22.5V45H41.25V22.5ZM71.25 22.5V37.5H48.75V22.5C48.75 16.2863 53.7881 11.25 60 11.25C66.2119 11.25 71.25 16.2863 71.25 22.5ZM101.25 112.5C101.25 114.57 99.57 116.25 97.5 116.25H22.5C20.43 116.25 18.75 114.57 18.75 112.5V108.75H101.25V112.5ZM101.25 105H18.75V43.125C18.75 42.0881 19.5881 41.25 20.625 41.25H37.5V46.875C37.5 47.9119 38.3381 48.75 39.375 48.75H46.875C47.9119 48.75 48.75 47.9119 48.75 46.875V41.25H71.25V46.875C71.25 47.9119 72.0881 48.75 73.125 48.75H80.625C81.6619 48.75 82.5 47.9119 82.5 46.875V41.25H99.375C100.412 41.25 101.25 42.0881 101.25 43.125V105Z" fill="#394240"/>
<path d="M67.5 63.75C65.43 63.75 63.555 64.5881 62.1975 65.9475L60 68.13L57.8025 65.9475C56.445 64.5881 54.57 63.75 52.5 63.75C48.3581 63.75 45 67.1081 45 71.25C45 73.32 46.3369 75.2531 47.6962 76.6106L58.6744 87.5888C59.4075 88.3219 60.5925 88.3219 61.3256 87.5888L72.2756 76.6388C73.6331 75.2813 75 73.32 75 71.25C75 67.1081 71.6419 63.75 67.5 63.75ZM69.6675 73.9462L60 83.6138L50.3325 73.9462C49.6519 73.2675 48.75 72.2869 48.75 71.25C48.75 69.1781 50.43 67.5 52.5 67.5C53.5369 67.5 54.4744 67.9181 55.1512 68.5987L58.6744 72.1069C59.4075 72.84 60.5925 72.84 61.3256 72.1069L64.8487 68.5987C65.5256 67.9181 66.4631 67.5 67.5 67.5C69.57 67.5 71.25 69.1781 71.25 71.25C71.25 72.2869 70.3481 73.2675 69.6675 73.9462Z" fill="#394240"/>
<path d="M69.6675 73.9462L60 83.6138L50.3325 73.9462C49.6519 73.2675 48.75 72.2869 48.75 71.25C48.75 69.1781 50.43 67.5 52.5 67.5C53.5369 67.5 54.4744 67.9181 55.1512 68.5987L58.6744 72.1069C59.4075 72.84 60.5925 72.84 61.3256 72.1069L64.8487 68.5987C65.5256 67.9181 66.4631 67.5 67.5 67.5C69.57 67.5 71.25 69.1781 71.25 71.25C71.25 72.2869 70.3481 73.2675 69.6675 73.9462Z" fill="#F76D57"/>
<path opacity="0.2" d="M101.25 112.5C101.25 114.57 99.57 116.25 97.5 116.25H22.5C20.43 116.25 18.75 114.57 18.75 112.5V108.75H101.25V112.5Z" fill="black"/>
</svg>
