<svg width="25" height="25" viewBox="0 0 25 25" fill="none" xmlns="http://www.w3.org/2000/svg">
<path d="M17.6045 25H7.50033L6.45866 17.7083H4.16699V15.625H11.4587V12.3958C9.47949 12.7083 7.50033 12.1875 6.04199 10.9375C4.27116 9.375 3.75033 7.08333 4.58366 5L4.79199 4.58333L5.20866 4.47917C7.29199 3.75 9.79199 4.16667 11.4587 5.41667C11.4587 3.95833 12.0837 2.5 13.3337 1.45833C14.4795 0.520833 16.042 0 17.5003 0C18.2295 0 19.0628 0.104167 19.792 0.3125L20.2087 0.416667L20.417 0.833333C21.3545 2.91667 20.8337 5.20833 18.9587 6.77083C17.5003 8.02083 15.5212 8.54167 13.542 8.22917V9.375C13.542 9.47917 13.542 9.6875 13.542 9.79167V15.625H20.8337V17.7083H18.6462L17.6045 25ZM9.27116 22.9167H15.8337L16.5628 17.7083H8.54199L9.27116 22.9167ZM6.35449 6.35417C6.04199 7.39583 6.45866 8.54167 7.39616 9.375C8.43783 10.3125 10.0003 10.625 11.3545 10.3125C11.4587 10.1042 11.4587 9.89583 11.4587 9.6875V9.375C11.4587 8.54167 11.042 7.8125 10.3128 7.1875C9.27116 6.35417 7.81283 6.04167 6.35449 6.35417ZM13.6462 6.14583C15.1045 6.45833 16.5628 6.14583 17.6045 5.20833C18.542 4.375 18.9587 3.22917 18.6462 2.1875C17.1878 1.875 15.7295 2.1875 14.6878 3.125C13.7503 3.85417 13.3337 5 13.6462 6.14583Z" fill="#07933C"/>
</svg>
