<svg width="26" height="18" viewBox="0 0 26 18" fill="none" xmlns="http://www.w3.org/2000/svg">
<path d="M23.2788 0.0720757C23.2788 0.0720757 17.1326 -0.625554 15.8234 2.32002C14.5143 5.26559 11.215 11.399 11.215 11.399C11.215 11.399 8.64279 8.70801 8.39384 7.48837C8.18247 6.45286 8.06633 8.18259 6.3385 6.31015C5.56419 5.47102 6.21874 5.47102 5.23688 5.14373L3.27317 4.48916L0.000313748 7.43473C0.000313748 7.43473 -0.0636936 10.9936 1.63674 11.0349C3.33718 11.0761 0.982171 10.3803 3.27317 12.6713C4.4561 13.8542 3.37111 13.6582 5.34256 14.8621C7.314 16.066 7.09154 16.0609 7.6937 16.718C8.29586 17.3752 11.5275 17.8535 11.5275 17.8535L26.0002 9.84484L23.2788 0.0720757Z" fill="#3F3D56"/>
</svg>
