<svg width="80" height="80" viewBox="0 0 80 80" fill="none" xmlns="http://www.w3.org/2000/svg">
<path d="M69.8831 19.5004H25.8396C25.0594 19.5028 24.3121 19.8149 23.762 20.3682C23.212 20.9214 22.9041 21.6705 22.9063 22.4506V49.2044C22.9041 49.9846 23.212 50.7337 23.762 51.2869C24.3121 51.8402 25.0594 52.1523 25.8396 52.1546H69.8831C70.2695 52.1536 70.6519 52.0765 71.0085 51.9276C71.365 51.7788 71.6888 51.5612 71.9613 51.2872C72.2337 51.0133 72.4496 50.6883 72.5965 50.331C72.7434 49.9736 72.8184 49.5908 72.8174 49.2044V22.4506C72.8184 22.0643 72.7434 21.6815 72.5965 21.3241C72.4496 20.9667 72.2337 20.6418 71.9613 20.3678C71.6888 20.0939 71.365 19.8763 71.0085 19.7274C70.6519 19.5786 70.2695 19.5015 69.8831 19.5004Z" fill="#CCCCCC"/>
<path d="M22.9072 26.0613H72.8174V33.6907H22.9072V26.0613Z" fill="#4D4D4D"/>
<path d="M53.8031 30.3342H9.75952C8.97934 30.3366 8.23205 30.6487 7.68197 31.202C7.13188 31.7552 6.82406 32.5043 6.82618 33.2845V60.0382C6.82406 60.8184 7.13188 61.5675 7.68197 62.1207C8.23205 62.674 8.97934 62.9861 9.75952 62.9884H53.8031C54.5832 62.9861 55.3305 62.674 55.8806 62.1207C56.4307 61.5675 56.7385 60.8184 56.7364 60.0382V33.2845C56.7385 32.5043 56.4307 31.7552 55.8806 31.202C55.3305 30.6487 54.5832 30.3366 53.8031 30.3342Z" fill="#FFCA6C"/>
<path d="M6.82715 36.8951H56.7374V44.5245H6.82715V36.8951Z" fill="#4D4D4D"/>
<path d="M16.6875 54.1387C16.6875 55.3528 17.167 56.5172 18.0205 57.3757C18.874 58.2342 20.0316 58.7165 21.2386 58.7165C22.4456 58.7165 23.6032 58.2342 24.4567 57.3757C25.3102 56.5172 25.7897 55.3528 25.7897 54.1387C25.7897 53.5375 25.672 52.9423 25.4433 52.3869C25.2146 51.8314 24.8793 51.3268 24.4567 50.9017C24.0341 50.4766 23.5324 50.1394 22.9802 49.9094C22.4281 49.6793 21.8363 49.5609 21.2386 49.5609C20.641 49.5609 20.0491 49.6793 19.497 49.9094C18.9448 50.1394 18.4431 50.4766 18.0205 50.9017C17.5979 51.3268 17.2626 51.8314 17.0339 52.3869C16.8052 52.9423 16.6875 53.5375 16.6875 54.1387Z" fill="#47A7DD"/>
<path d="M12.1357 54.1387C12.1357 55.3528 12.6152 56.5172 13.4687 57.3757C14.3222 58.2342 15.4798 58.7165 16.6869 58.7165C17.8939 58.7165 19.0515 58.2342 19.905 57.3757C20.7585 56.5172 21.238 55.3528 21.238 54.1387C21.238 52.9246 20.7585 51.7602 19.905 50.9017C19.0515 50.0432 17.8939 49.5609 16.6869 49.5609C15.4798 49.5609 14.3222 50.0432 13.4687 50.9017C12.6152 51.7602 12.1357 52.9246 12.1357 54.1387Z" fill="#FC583D"/>
<path d="M69.8831 18.3555H56.2814C55.6529 18.3555 55.1436 18.8675 55.1436 19.4995C55.1436 20.1315 55.6529 20.6444 56.2814 20.6444H69.8831C70.8743 20.6444 71.6796 21.4551 71.6796 22.4515V24.9173H24.044V22.4515C24.044 21.4551 24.8494 20.6444 25.8405 20.6444H52.4885C53.1169 20.6444 53.6254 20.1315 53.6254 19.4995C53.6254 18.8675 53.1178 18.3555 52.4894 18.3555H25.8405C23.5951 18.3555 21.7685 20.1929 21.7685 22.4506V29.1893H9.75959C7.51514 29.1893 5.68848 31.0266 5.68848 33.2844V51.8489C5.68848 52.4818 6.19781 52.9938 6.82625 52.9938C7.4547 52.9938 7.96403 52.4809 7.96403 51.8489V45.6702H55.5987V60.0382C55.5987 61.0338 54.7934 61.8435 53.8031 61.8435H9.75959C9.28226 61.8416 8.82517 61.6505 8.48856 61.3121C8.15196 60.9736 7.96332 60.5155 7.96403 60.0382V55.664C7.96403 55.032 7.4547 54.52 6.82625 54.52C6.19781 54.52 5.68848 55.032 5.68848 55.664V60.0382C5.68848 62.296 7.51514 64.1324 9.75959 64.1324H53.8031C56.0476 64.1324 57.8743 62.296 57.8743 60.0382V33.2844C57.8743 31.0266 56.0476 29.1893 53.8031 29.1893H24.0449V27.2062H71.6805V32.5466H60.3783C59.7498 32.5466 59.2405 33.0586 59.2405 33.6906C59.2405 34.3226 59.7498 34.8355 60.3783 34.8355H71.6805V49.2035C71.6812 49.6812 71.4925 50.1396 71.1557 50.4784C70.819 50.8171 70.3617 51.0085 69.884 51.0106H60.5294C59.9009 51.0106 59.3925 51.5226 59.3925 52.1546C59.3925 52.7866 59.9009 53.2986 60.5294 53.2986H69.8831C72.1276 53.2986 73.9551 51.4622 73.9551 49.2035V22.4515C73.9551 20.1929 72.1285 18.3555 69.8831 18.3555ZM55.5987 33.2844V35.7511H13.956C13.3276 35.7511 12.8183 36.2631 12.8183 36.8951C12.8183 37.5271 13.3276 38.04 13.956 38.04H55.5987V43.3804H7.96403V38.04H10.164C10.7925 38.04 11.3018 37.5271 11.3018 36.8951C11.3018 36.2631 10.7925 35.7511 10.164 35.7511H7.96403V33.2844C7.96403 32.2889 8.76937 31.4782 9.75959 31.4782H53.8031C54.2805 31.4805 54.7374 31.6719 55.074 32.0105C55.4105 32.349 55.5992 32.8071 55.5987 33.2844Z" fill="black"/>
<path d="M18.9643 59.3805C19.6805 59.6971 20.4549 59.8609 21.238 59.8613C24.3749 59.8613 26.9269 57.2933 26.9269 54.1387C26.9269 50.9822 24.3749 48.416 21.238 48.416C20.4514 48.416 19.6772 48.5822 18.9643 48.8951C18.2468 48.5786 17.4711 48.4154 16.6869 48.416C13.55 48.416 10.998 50.9822 10.998 54.1387C10.998 57.2933 13.55 59.8613 16.6869 59.8613C17.4967 59.8613 18.2665 59.688 18.9643 59.3805ZM24.6514 54.1387C24.6514 56.0311 23.1198 57.5707 21.238 57.5707H21.2354C21.9778 56.5807 22.3784 55.3762 22.3767 54.1387C22.3786 52.9006 21.9781 51.6955 21.2354 50.7049H21.238C23.1207 50.7049 24.6514 52.2445 24.6514 54.1387ZM13.2745 54.1387C13.2745 52.2445 14.8052 50.7049 16.6878 50.7049C18.5696 50.7049 20.1012 52.2445 20.1012 54.1387C20.1012 56.0311 18.5696 57.5707 16.6878 57.5707C14.8052 57.5716 13.2745 56.0311 13.2745 54.1387ZM51.2212 50.592C51.8487 50.592 52.3589 50.08 52.3589 49.448C52.3589 48.816 51.8487 48.304 51.2212 48.304H34.3829C33.7545 48.304 33.2452 48.816 33.2452 49.448C33.2452 50.08 33.7545 50.592 34.3829 50.592H51.2212Z" fill="black"/>
</svg>
