<svg width="171" height="68" viewBox="0 0 171 68" fill="none" xmlns="http://www.w3.org/2000/svg">
<path d="M5.34732 18.109C5.34732 18.109 -0.253915 24.5428 0.813575 33.4536C1.88106 42.3645 11.336 47.026 11.336 47.026L22.9094 24.3779C22.9094 24.3779 17.0732 18.6077 21.1783 11.2919C21.1824 11.2713 11.4926 12.4789 5.34732 18.109Z" fill="white" stroke="#263238" stroke-width="1.35048" stroke-linecap="round" stroke-linejoin="round"/>
<g style="mix-blend-mode:multiply" opacity="0.5">
<path d="M5.34732 18.109C5.34732 18.109 -0.253915 24.5428 0.813575 33.4536C1.88106 42.3645 11.336 47.026 11.336 47.026L22.9094 24.3779C22.9094 24.3779 17.0732 18.6077 21.1783 11.2919C21.1824 11.2713 11.4926 12.4789 5.34732 18.109Z" fill="#FFC100"/>
</g>
<path d="M55.3093 1.36303C55.3093 1.36303 48.0306 1.5856 45.5865 2.76849C43.1424 3.95139 27.3361 15.2033 18.2892 28.3223C15.2187 32.7736 14.1017 35.2383 13.6937 36.4336C13.4253 37.2214 13.1157 37.9945 12.7663 38.7499C11.7607 40.9344 10.0914 45.431 10.7055 50.1049C11.5711 56.6458 15.3918 63.026 30.077 65.738C44.7622 68.45 50.3387 57.4949 50.7055 52.821C50.7055 52.821 86.4149 55.397 108.589 57.907C130.763 60.4171 138.133 59.024 145.555 61.9544C152.978 64.8849 154.796 66.7932 157.92 66.8426C161.044 66.8921 170.083 56.7983 170.31 53.872C170.536 50.9457 167.524 46.787 166.563 46.515C165.603 46.243 153.988 29.056 153.988 29.056C153.988 29.056 153.465 25.6804 148.379 22.9313C143.293 20.1822 117.99 12.5243 104.158 8.70357C90.3263 4.88286 62.3778 1.32594 55.3093 1.36303Z" fill="white" stroke="#263238" stroke-width="1.35048" stroke-linecap="round" stroke-linejoin="round"/>
<g style="mix-blend-mode:multiply" opacity="0.5">
<path d="M168.937 49.2065C165.836 47.6362 162.573 46.4063 159.206 45.5383L117.343 34.0679L62.1636 24.4605C62.1636 24.4605 39.227 20.7511 28.9972 25.697C21.7185 29.225 14.2873 40.749 10.6026 47.1086C10.5463 48.1044 10.5821 49.1034 10.7098 50.0926C11.5753 56.6336 15.396 63.0138 30.0812 65.7258C44.7664 68.4378 50.3429 57.4826 50.7097 52.8087C50.7097 52.8087 86.4191 55.3847 108.593 57.8948C130.767 60.4048 138.137 59.0117 145.56 61.9422C152.983 64.8726 154.8 66.7809 157.924 66.8304C161.049 66.8798 170.087 56.7861 170.314 53.8597C170.454 52.4048 169.762 50.6408 168.937 49.2065Z" fill="#FFC100"/>
</g>
<path d="M13.9659 41.128C13.9659 41.128 24.4883 24.2913 34.9859 23.1373C45.4836 21.9833 78.8396 26.9374 78.8396 26.9374" stroke="#263238" stroke-width="1.35048" stroke-linecap="round" stroke-linejoin="round"/>
<path d="M82.314 27.5886C82.314 27.5886 102.885 30.5603 129.828 37.365C156.77 44.1698 167.66 47.9575 169.131 49.2476" stroke="#263238" stroke-width="1.35048" stroke-linecap="round" stroke-linejoin="round"/>
<path d="M102.386 12.9819C102.386 12.9819 146.405 24.3987 149.187 25.5362C150.821 26.1871 152.257 27.2525 153.354 28.6274" fill="white"/>
<path d="M102.386 12.9819C102.386 12.9819 146.405 24.3987 149.187 25.5362C150.821 26.1871 152.257 27.2525 153.354 28.6274" stroke="#263238" stroke-width="1.35048" stroke-linecap="round" stroke-linejoin="round"/>
<path d="M47.2806 3.6836L35.9998 20.0751C35.9998 20.0751 51.9215 19.7413 93.974 26.5419L94.9467 11.5146C94.9467 11.5146 74.6314 5.2292 66.244 4.57799C57.8565 3.92678 47.2806 3.6836 47.2806 3.6836Z" fill="#263238" stroke="#263238" stroke-width="1.35048" stroke-linecap="round" stroke-linejoin="round"/>
<path d="M36.193 20.0751C37.0544 20.0751 40.8216 20.0751 48.2445 20.681L40.4135 13.6743L39.8983 14.4203L36.193 20.0751Z" fill="white" stroke="#263238" stroke-width="1.35048" stroke-linecap="round" stroke-linejoin="round"/>
<path d="M47.281 3.6836L45.1336 6.80364L63.7879 22.2513C68.5401 22.816 73.9724 23.5249 80.1341 24.4193C82.3186 24.6666 84.5896 24.9331 86.9471 25.2189L61.1954 4.23589C54.1434 3.8361 47.281 3.6836 47.281 3.6836Z" fill="white" stroke="#263238" stroke-width="1.35048" stroke-linecap="round" stroke-linejoin="round"/>
<path d="M95.6969 14.6676L95.5486 23.5455C97.7412 23.4301 101.166 23.5043 103.635 24.782C103.866 21.7436 103.404 18.6924 102.283 15.8587L95.6969 14.6676Z" fill="white" stroke="#263238" stroke-width="1.35048" stroke-miterlimit="10"/>
<path d="M101.871 14.9106C101.401 13.928 100.841 12.9912 100.198 12.1121L95.7548 11.1765L95.7094 13.9627L101.871 14.9106Z" fill="white" stroke="#263238" stroke-width="1.35048" stroke-miterlimit="10"/>
<path d="M95.528 24.7737L95.4868 27.2467L103.05 28.4131C103.29 27.5256 103.457 26.6199 103.549 25.7052C102.168 25.1158 99.6042 24.4028 95.528 24.7737Z" fill="white" stroke="#263238" stroke-width="1.35048" stroke-miterlimit="10"/>
<path d="M112.756 15.4259C112.756 15.4259 108.531 14.3831 107.81 14.4285C107.089 14.4738 106.891 15.6897 106.891 15.6897L108.404 18.6778C108.404 18.6778 108.16 19.1724 110.361 19.8566C112.562 20.5408 114.483 20.6809 114.73 20.4006C114.977 20.1204 114.916 19.2878 115.076 18.583C115.237 17.8782 113.774 15.5083 112.756 15.4259Z" fill="white" stroke="#263238" stroke-width="1.35048" stroke-linecap="round" stroke-linejoin="round"/>
<path d="M115.53 20.6686C115.53 20.6686 111.326 19.3167 110.604 19.362C109.883 19.4074 109.153 20.8911 109.153 20.8911C109.153 20.8911 109.685 24.6212 110.163 25.0704C110.641 25.5197 115.274 26.5913 115.987 26.649C116.7 26.7067 116.976 25.8041 117.046 24.885C117.116 23.9658 116.329 20.9324 115.53 20.6686Z" fill="white" stroke="#263238" stroke-width="1.35048" stroke-linecap="round" stroke-linejoin="round"/>
<path d="M117.124 26.5335C117.124 26.5335 111.799 25.0951 111.292 25.0539C110.785 25.0127 110.056 26.3934 110.138 26.7025C110.221 27.0116 110.105 29.7772 110.105 29.7772L118.382 31.4258L117.755 27.5886C117.755 27.5886 117.772 27.4032 117.124 26.5335Z" fill="white" stroke="#263238" stroke-width="1.35048" stroke-linecap="round" stroke-linejoin="round"/>
<path d="M116.77 16.5593L116.181 17.6392L117.974 20.957C117.974 20.957 118.027 21.5794 119.738 22.0163C121.448 22.4532 124.572 23.1126 124.572 23.1126C124.572 23.1126 125.467 22.1564 125.294 21.7319C125.12 21.3074 123.233 18.1873 122.429 17.7175C121.625 17.2476 117.005 16.0482 116.77 16.5593Z" fill="white" stroke="#263238" stroke-width="1.35048" stroke-linecap="round" stroke-linejoin="round"/>
<path d="M119.729 22.0164C119.458 22.4481 119.249 22.9156 119.107 23.4054C119.078 23.8175 119.639 27.1395 120.5 27.9391C121.361 28.7387 126.34 29.3157 127.053 29.3693C127.766 29.4229 127.956 28.3142 128.018 27.4981C128.08 26.682 126.971 23.8258 126.188 23.3559C125.405 22.8861 120.875 21.8186 120.875 21.8186C120.875 21.8186 120.084 21.4311 119.729 22.0164Z" fill="white" stroke="#263238" stroke-width="1.35048" stroke-linecap="round" stroke-linejoin="round"/>
<path d="M128.418 29.427C128.267 29.3002 128.094 29.2025 127.907 29.1385C126.766 28.7469 122.487 27.325 121.75 27.7124C120.892 28.1575 120.604 29.2621 120.633 30.1853C120.667 30.8463 120.752 31.5036 120.888 32.1513L129.725 34.5954L128.958 30.3749C128.892 30.0045 128.698 29.6691 128.41 29.427H128.418Z" fill="white" stroke="#263238" stroke-width="1.35048" stroke-linecap="round" stroke-linejoin="round"/>
<path d="M125.916 18.9086L125.681 20.6356C125.681 20.6356 126.613 23.1662 127.606 23.5536C128.6 23.9411 133.236 25.0168 133.541 25.0374C133.846 25.058 134.543 23.9905 134.489 23.3682C134.436 22.7458 132.696 20.0709 131.703 19.6588C130.71 19.2466 126.662 18.5501 126.662 18.5501C126.662 18.5501 125.752 18.3852 125.916 18.9086Z" fill="white" stroke="#263238" stroke-width="1.35048" stroke-linecap="round" stroke-linejoin="round"/>
<path d="M129.737 23.8217L128.851 26.0061C128.851 26.0061 130.009 29.5837 130.174 30.1071C130.339 30.6305 136.797 31.9577 137.119 31.7763C137.44 31.595 138.178 31.3436 138.083 29.901C137.988 28.4585 136.002 25.0252 135.198 24.8603C134.394 24.6955 130.973 23.8134 130.664 23.7887C130.355 23.764 129.873 23.4219 129.737 23.8217Z" fill="white" stroke="#263238" stroke-width="1.35048" stroke-linecap="round" stroke-linejoin="round"/>
<path d="M132.189 30.5728C132.189 30.5728 131.097 32.7448 131.324 33.7876C131.482 34.4733 131.704 35.1426 131.987 35.7866L140.733 38.004C140.733 38.004 139.695 34.2327 139.497 32.9839C139.299 31.7351 137.078 31.158 135.272 30.6057C133.467 30.0535 132.033 29.9463 132.189 30.5728Z" fill="white" stroke="#263238" stroke-width="1.35048" stroke-linecap="round" stroke-linejoin="round"/>
<path d="M135.095 20.8541L134.959 22.5852C134.959 22.5852 137.09 25.5198 137.663 26.0762C138.236 26.6326 142.881 27.5064 143.297 27.4363C143.713 27.3662 143.895 26.3564 143.738 25.73C143.581 25.1035 141.327 22.4657 140.441 22.0906C139.555 21.7155 135.841 20.6027 135.841 20.6027C135.841 20.6027 134.835 20.2194 135.095 20.8541Z" fill="white" stroke="#263238" stroke-width="1.35048" stroke-linecap="round" stroke-linejoin="round"/>
<path d="M139.08 26.2904C139.08 26.2904 138.491 28.6026 138.779 28.8293C139.068 29.056 140.345 32.4357 141.038 32.7984C141.73 33.1611 146.767 34.2698 147.393 34.1132C148.02 33.9566 148.115 32.7325 147.785 31.6814C147.455 30.6304 145.415 27.9102 144.224 27.4074C143.371 27.0488 140.008 26.2574 140.008 26.2574C140.008 26.2574 139.323 25.7958 139.08 26.2904Z" fill="white" stroke="#263238" stroke-width="1.35048" stroke-linecap="round" stroke-linejoin="round"/>
<path d="M146.706 33.771C146.706 33.771 143.615 32.6088 143.091 32.7736C142.568 32.9385 141.921 34.6283 141.896 34.9375C141.871 35.2466 143.025 38.9189 143.025 38.9189L151.244 41.3012C151.244 41.3012 151.244 41.0951 151.244 39.7638C151.244 38.4326 149.265 34.8962 148.882 34.5583C148.499 34.2203 146.706 33.771 146.706 33.771Z" fill="white" stroke="#263238" stroke-width="1.35048" stroke-linecap="round" stroke-linejoin="round"/>
<path d="M144.62 23.6444C144.468 24.1739 144.357 24.7139 144.286 25.2601C144.241 25.8701 146.034 27.8567 146.911 28.4378C147.789 29.0189 152.109 30.173 152.414 30.1977C152.719 30.2224 153.51 29.258 152.97 28.2894C152.105 27.0203 151.007 25.9267 149.735 25.0663C148.741 24.477 145.646 23.6197 144.62 23.6444Z" fill="#FFC100" stroke="#263238" stroke-width="1.35048" stroke-linecap="round" stroke-linejoin="round"/>
<path d="M149.014 29.1096C148.831 29.528 148.693 29.9646 148.601 30.412C148.573 30.8242 150.576 34.0514 151.046 34.5995C151.515 35.1477 155.954 36.108 156.461 36.1493C156.968 36.1905 158.11 36.0709 157.698 34.6078C157.286 33.1446 156.049 30.7871 154.846 30.3873C153.642 29.9875 151.445 29.3033 150.444 29.0189C149.442 28.7345 149.014 29.1096 149.014 29.1096Z" fill="#FFC100" stroke="#263238" stroke-width="1.35048" stroke-linecap="round" stroke-linejoin="round"/>
<path d="M153.35 35.2919C152.888 36.0185 152.581 36.8321 152.447 37.6824C152.361 38.8035 153.272 41.5402 154.145 42.2161C155.019 42.8921 160.942 44.4871 160.942 44.4871C160.942 44.4871 161.49 42.6819 161.68 41.569C161.869 40.4562 158.86 36.9405 158.588 36.5119C158.316 36.0832 154.071 35.2465 153.35 35.2919Z" fill="#FFC100" stroke="#263238" stroke-width="1.35048" stroke-linecap="round" stroke-linejoin="round"/>
<path d="M164.651 58.9128C162.537 58.3563 159.235 57.903 158.007 56.0276C156.779 54.1523 155.398 51.7041 142.914 50.7355C130.43 49.767 46.1886 37.938 37.5909 37.4805C28.9933 37.023 22.3081 47.2816 22.3081 47.2816C22.3081 47.2816 17.0572 46.6758 13.8053 45.633C12.7714 45.299 11.8193 44.7514 11.0108 44.0256C10.5692 46.0193 10.4675 48.0732 10.71 50.1008C11.5755 56.6418 15.3962 63.022 30.0814 65.734C44.7666 68.446 50.3431 57.4908 50.7099 52.8169C50.7099 52.8169 86.4193 55.3929 108.593 57.903C130.768 60.413 138.137 59.0199 145.56 61.9504C152.983 64.8808 154.801 66.7891 157.925 66.8386C159.821 66.8674 163.872 63.1827 166.831 59.6217C166.019 59.3249 165.228 59.0652 164.651 58.9128Z" fill="#263238" stroke="#263238" stroke-width="1.35048" stroke-linecap="round" stroke-linejoin="round"/>
<path d="M20.944 49.7134C20.944 49.7134 18.3433 55.4012 17.3211 58.4594" stroke="white" stroke-width="1.01286" stroke-linecap="round" stroke-linejoin="round"/>
<path d="M24.4264 47.8257C24.4264 47.8257 39.4578 51.3496 48.7891 52.4665" stroke="white" stroke-width="1.01286" stroke-linecap="round" stroke-linejoin="round"/>
<path d="M35.9997 20.0751C35.9997 20.0751 26.6726 13.8556 19.0641 13.2662C11.4557 12.6768 5.34749 18.1091 5.34749 18.1091C5.34749 18.1091 24.0842 1.70517 29.2321 1.12403C34.3799 0.542885 41.1022 -0.112455 47.2805 3.70413L35.9997 20.0751Z" fill="white" stroke="#263238" stroke-width="1.35048" stroke-linecap="round" stroke-linejoin="round"/>
</svg>
