<svg width="513" height="354" viewBox="0 0 513 354" fill="none" xmlns="http://www.w3.org/2000/svg">
<g clip-path="url(#clip0_461_6127)">
<path d="M255.638 353.218C271.459 353.218 284.284 340.451 284.284 324.703C284.284 308.954 271.459 296.188 255.638 296.188C239.818 296.188 226.993 308.954 226.993 324.703C226.993 340.451 239.818 353.218 255.638 353.218Z" fill="#07933C"/>
<path d="M426.768 351.616C442.794 346.825 459.831 341.829 472.54 330.44C483.897 320.262 491.565 304.721 486.86 289.457C482.164 274.225 468.101 264.069 453.58 259.017C445.345 256.152 436.729 254.563 428.116 253.314C418.754 251.957 409.35 250.845 399.95 249.774C361.89 245.441 323.687 242.794 285.341 241.833C266.42 241.358 247.503 241.37 228.579 241.643C211.678 241.888 193.879 241.882 178.201 234.731C166.009 229.171 154.943 219.055 151.546 205.761C147.625 190.416 154.858 174.789 165.234 163.675C170.703 157.817 177.095 152.887 183.689 148.353C190.842 143.435 198.245 138.865 205.809 134.599C220.705 126.201 236.278 119.054 252.368 113.232C260.305 110.359 268.359 107.881 276.484 105.594C283.345 103.663 290.227 101.73 296.857 99.099C309.675 94.0136 321.866 85.3994 325.126 71.2772C328.214 57.8928 323.006 43.3629 313.876 33.4198C303.313 21.9164 287.386 16.8737 272.116 16.0578C254.973 15.1418 238.226 19.4127 222.113 24.833C204.928 30.6141 188.113 37.2614 170.565 41.9441C153.164 46.583 135.426 49.8653 117.512 51.7611C108.742 52.6906 99.708 53.7402 90.8864 53.0286C83.4931 52.4322 76.1376 50.2677 70.6889 45.0446C66.0169 40.566 63.2338 34.4109 64.1906 27.9154C64.3644 26.7356 66.1648 27.2372 65.9921 28.4098C64.8273 36.3166 70.2265 43.6026 76.8799 47.3347C84.5694 51.6482 93.9264 51.6541 102.487 51.1607C121.05 50.0447 139.487 47.3915 157.608 43.2288C175.413 39.1805 192.582 33.3933 209.732 27.2113C226.02 21.3399 242.672 15.6094 260.073 14.3377C275.172 13.2342 291.055 15.4239 304.208 23.2785C315.768 30.1817 324.269 41.6939 326.978 54.9045C329.625 67.8135 325.959 80.8068 316.142 89.8152C305.979 99.1424 292.043 103.13 279.055 106.803C262.583 111.461 246.463 116.906 230.861 123.976C215.046 131.122 199.878 139.61 185.527 149.347C171.673 158.771 158.002 170.628 153.62 187.44C151.579 195.271 151.956 203.577 155.371 210.974C158.408 217.551 163.408 223.084 169.234 227.351C183.134 237.532 200.652 239.623 217.442 239.831C236.299 240.064 255.156 239.431 274.019 239.739C312.462 240.367 350.826 242.696 389.111 246.727C398.704 247.738 408.285 248.855 417.854 250.079C426.461 251.18 435.097 252.273 443.559 254.229C458.606 257.705 473.247 264.39 482.599 277.089C486.749 282.594 489.321 289.117 490.039 295.963C490.693 303.106 488.936 310.263 485.692 316.618C478.51 330.684 465.059 339.63 450.774 345.508C443.122 348.656 435.186 351.041 427.265 353.409C426.111 353.754 425.618 351.96 426.768 351.616Z" fill="#F2F2F2"/>
<path d="M65.3966 42.9602C73.6507 42.9602 80.3419 36.2994 80.3419 28.0828C80.3419 19.8661 73.6507 13.2053 65.3966 13.2053C57.1424 13.2053 50.4512 19.8661 50.4512 28.0828C50.4512 36.2994 57.1424 42.9602 65.3966 42.9602Z" fill="#F2F2F2"/>
<path d="M169.08 71.1655C177.334 71.1655 184.026 64.5046 184.026 56.288C184.026 48.0714 177.334 41.4105 169.08 41.4105C160.826 41.4105 154.135 48.0714 154.135 56.288C154.135 64.5046 160.826 71.1655 169.08 71.1655Z" fill="#F2F2F2"/>
<path d="M256.884 14.755C265.138 14.755 271.829 8.09411 271.829 -0.122506C271.829 -8.33912 265.138 -15 256.884 -15C248.63 -15 241.938 -8.33912 241.938 -0.122506C241.938 8.09411 248.63 14.755 256.884 14.755Z" fill="#F2F2F2"/>
<path d="M311.684 77.9843C319.938 77.9843 326.629 71.3234 326.629 63.1068C326.629 54.8902 319.938 48.2293 311.684 48.2293C303.43 48.2293 296.738 54.8902 296.738 63.1068C296.738 71.3234 303.43 77.9843 311.684 77.9843Z" fill="#F2F2F2"/>
<path d="M237.58 151.132C245.834 151.132 252.526 144.471 252.526 136.255C252.526 128.038 245.834 121.377 237.58 121.377C229.326 121.377 222.635 128.038 222.635 136.255C222.635 144.471 229.326 151.132 237.58 151.132Z" fill="#F2F2F2"/>
<path d="M143.549 186.466C151.803 186.466 158.494 179.805 158.494 171.589C158.494 163.372 151.803 156.711 143.549 156.711C135.295 156.711 128.604 163.372 128.604 171.589C128.604 179.805 135.295 186.466 143.549 186.466Z" fill="#F2F2F2"/>
<path d="M243.185 241.637C251.439 241.637 258.13 234.976 258.13 226.759C258.13 218.543 251.439 211.882 243.185 211.882C234.931 211.882 228.239 218.543 228.239 226.759C228.239 234.976 234.931 241.637 243.185 241.637Z" fill="#F2F2F2"/>
<path d="M350.293 272.632C358.547 272.632 365.238 265.971 365.238 257.754C365.238 249.537 358.547 242.877 350.293 242.877C342.039 242.877 335.348 249.537 335.348 257.754C335.348 265.971 342.039 272.632 350.293 272.632Z" fill="#F2F2F2"/>
<path d="M475.461 265.813C483.715 265.813 490.406 259.152 490.406 250.935C490.406 242.719 483.715 236.058 475.461 236.058C467.207 236.058 460.516 242.719 460.516 250.935C460.516 259.152 467.207 265.813 475.461 265.813Z" fill="#F2F2F2"/>
<path d="M252.57 27.155C207.801 27.4698 171.145 63.6854 170.509 108.247C170.503 108.659 170.501 111.552 170.501 115.336C170.501 120.883 172.715 126.204 176.656 130.127C180.596 134.05 185.941 136.254 191.514 136.255C194.277 136.254 197.012 135.711 199.564 134.658C202.116 133.605 204.435 132.061 206.387 130.115C208.339 128.17 209.888 125.86 210.943 123.319C211.998 120.777 212.54 118.054 212.538 115.303C212.536 112.73 212.535 110.948 212.535 110.839C212.533 103.952 214.333 97.183 217.756 91.1983C221.18 85.2136 226.109 80.2192 232.06 76.7062C238.011 73.1933 244.778 71.2829 251.695 71.163C258.613 71.0431 265.442 72.7177 271.512 76.0223C277.582 79.3268 282.684 84.1474 286.314 90.0097C289.945 95.8721 291.98 102.574 292.22 109.457C292.459 116.34 290.895 123.167 287.68 129.265C284.465 135.363 279.711 140.524 273.886 144.238L273.893 144.247C273.893 144.247 243.985 163.414 234.866 189.708L234.874 189.709C233.271 195.096 232.458 200.685 232.462 206.303C232.462 208.612 232.598 228.818 232.862 245.218C232.954 250.877 235.277 256.273 239.33 260.242C243.383 264.21 248.841 266.434 254.527 266.433C257.383 266.432 260.212 265.87 262.849 264.778C265.487 263.685 267.881 262.085 269.895 260.067C271.909 258.05 273.502 255.657 274.583 253.025C275.664 250.392 276.211 247.573 276.194 244.73C276.102 229.71 276.053 212.221 276.053 210.952C276.053 194.807 291.699 178.721 304.551 168.23C319.35 156.15 330 139.689 334.278 121.119C335.224 117.296 335.746 113.381 335.834 109.444C335.834 98.5874 333.676 87.838 329.484 77.8153C325.292 67.7926 319.15 58.6946 311.41 51.0456C303.67 43.3966 294.487 37.3477 284.388 33.2474C274.29 29.1471 263.476 27.0766 252.57 27.155Z" fill="#07933C"/>
<path d="M512.258 354H-12.2587C-12.455 353.999 -12.643 353.921 -12.7816 353.783C-12.9202 353.645 -12.998 353.457 -12.998 353.262C-12.998 353.067 -12.9202 352.879 -12.7816 352.741C-12.643 352.602 -12.455 352.524 -12.2587 352.524H512.258C512.455 352.524 512.643 352.602 512.783 352.74C512.922 352.878 513 353.066 513 353.262C513 353.458 512.922 353.645 512.783 353.784C512.643 353.922 512.455 354 512.258 354Z" fill="#3F3D56"/>
<path d="M378.351 154.229C388.668 154.229 397.032 145.903 397.032 135.632C397.032 125.361 388.668 117.035 378.351 117.035C368.033 117.035 359.669 125.361 359.669 135.632C359.669 145.903 368.033 154.229 378.351 154.229Z" fill="#2F2E41"/>
<path d="M343.829 345.859H336.195L332.562 316.546H343.831L343.829 345.859Z" fill="#A0616A"/>
<path d="M330.741 343.687H345.465V352.916H321.471C321.471 351.704 321.71 350.504 322.176 349.384C322.642 348.265 323.325 347.247 324.186 346.39C325.047 345.533 326.069 344.854 327.193 344.39C328.318 343.926 329.524 343.687 330.741 343.687Z" fill="#2F2E41"/>
<path d="M402.987 345.859H395.353L391.721 316.546H402.989L402.987 345.859Z" fill="#A0616A"/>
<path d="M389.9 343.687H404.624V352.916H380.63C380.63 351.704 380.87 350.504 381.336 349.384C381.801 348.265 382.484 347.247 383.345 346.39C384.206 345.533 385.228 344.854 386.353 344.39C387.477 343.926 388.683 343.687 389.9 343.687Z" fill="#2F2E41"/>
<path d="M375.512 154.338C383.959 154.338 390.806 147.521 390.806 139.112C390.806 130.704 383.959 123.887 375.512 123.887C367.064 123.887 360.217 130.704 360.217 139.112C360.217 147.521 367.064 154.338 375.512 154.338Z" fill="#A0616A"/>
<path d="M384.628 203.455L391.472 187.802C393.134 184.131 393.61 180.036 392.835 176.083C392.06 172.13 390.071 168.514 387.144 165.734C386.543 165.143 385.904 164.59 385.232 164.079C381.855 161.449 377.694 160.016 373.407 160.006C370.524 160.018 367.678 160.648 365.062 161.854C364.838 161.953 364.62 162.058 364.396 162.164C363.966 162.368 363.543 162.591 363.132 162.821C360.451 164.353 358.169 166.491 356.471 169.062C354.773 171.634 353.705 174.566 353.355 177.624L350.334 202.816C349.575 204.794 322.474 276.206 331.952 330.726C332.053 331.308 332.338 331.843 332.766 332.252C333.194 332.661 333.742 332.924 334.331 333.001L343.939 334.302C344.641 334.398 345.353 334.225 345.932 333.819C346.511 333.413 346.913 332.804 347.059 332.114L363.181 255.613C363.282 255.138 363.54 254.709 363.913 254.397C364.287 254.085 364.755 253.906 365.243 253.89C365.73 253.873 366.209 254.02 366.603 254.306C366.997 254.593 367.283 255.003 367.416 255.47L390.195 335.92C390.358 336.505 390.708 337.02 391.193 337.388C391.678 337.755 392.27 337.954 392.879 337.954C393.061 337.952 393.242 337.936 393.421 337.904L405.159 335.654C405.842 335.527 406.452 335.151 406.87 334.599C407.288 334.047 407.484 333.36 407.42 332.672C405.695 313.524 396.528 217.607 384.628 203.455Z" fill="#2F2E41"/>
<path d="M316.073 151.783C315.966 152.688 316.061 153.605 316.349 154.47C316.638 155.335 317.113 156.126 317.742 156.789C318.371 157.451 319.139 157.967 319.99 158.303C320.841 158.638 321.756 158.783 322.67 158.728L331.219 179.18L337.686 169.637L328.576 151.678C328.382 150.156 327.633 148.758 326.472 147.749C325.311 146.74 323.819 146.189 322.278 146.202C320.736 146.215 319.254 146.79 318.11 147.819C316.966 148.847 316.241 150.258 316.073 151.783Z" fill="#A0616A"/>
<path d="M374.664 224.048C375.573 223.94 376.447 223.635 377.224 223.154C378.002 222.673 378.664 222.028 379.165 221.265C379.665 220.502 379.991 219.639 380.12 218.737C380.249 217.834 380.178 216.915 379.911 216.043L397.899 203.002L387.069 198.965L371.648 211.968C370.207 212.511 369.015 213.562 368.3 214.92C367.584 216.279 367.394 217.852 367.766 219.341C368.138 220.83 369.045 222.132 370.316 222.999C371.588 223.867 373.134 224.24 374.664 224.048Z" fill="#A0616A"/>
<path d="M345.341 192.814C344.651 192.814 343.963 192.746 343.287 192.613C341.65 192.303 340.116 191.597 338.819 190.557C337.521 189.518 336.501 188.177 335.847 186.652L323.869 172.113C323.616 171.806 323.431 171.448 323.328 171.064C323.225 170.68 323.206 170.279 323.271 169.886C323.337 169.494 323.486 169.121 323.708 168.79C323.931 168.46 324.221 168.181 324.561 167.972L333.082 162.721C333.397 162.527 333.747 162.397 334.112 162.339C334.478 162.28 334.851 162.294 335.211 162.38C335.571 162.466 335.91 162.622 336.209 162.839C336.508 163.056 336.761 163.33 336.953 163.645L345.395 177.49L361.562 165.596C362.849 164.924 364.336 164.736 365.751 165.065C367.166 165.395 368.415 166.22 369.27 167.39C370.124 168.561 370.527 169.998 370.405 171.44C370.283 172.881 369.644 174.231 368.604 175.242L352.468 189.895C350.572 191.766 348.01 192.815 345.341 192.814Z" fill="#2F2E41"/>
<path d="M389.025 214.68C389.003 214.68 388.981 214.68 388.959 214.679C388.566 214.67 388.18 214.578 387.824 214.41C387.469 214.243 387.153 214.003 386.897 213.706L379.321 204.907C379.063 204.608 378.872 204.257 378.76 203.878C378.648 203.5 378.619 203.102 378.673 202.711C378.727 202.32 378.864 201.945 379.074 201.61C379.285 201.276 379.564 200.99 379.894 200.771L394.081 191.356L381.229 175.975C380.481 174.734 380.207 173.267 380.456 171.842C380.705 170.416 381.462 169.128 382.586 168.212C383.711 167.295 385.13 166.812 386.582 166.851C388.035 166.89 389.426 167.448 390.5 168.423L406.12 183.618C407.349 184.736 408.288 186.134 408.855 187.693C409.422 189.251 409.6 190.924 409.375 192.566C409.15 194.208 408.528 195.772 407.562 197.122C406.597 198.472 405.316 199.569 403.831 200.319L391.064 213.804C390.802 214.08 390.486 214.3 390.135 214.451C389.785 214.602 389.407 214.679 389.025 214.68Z" fill="#2F2E41"/>
<path d="M371.623 182.26C371.501 182.26 371.38 182.252 371.259 182.237C370.731 182.173 370.233 181.96 369.824 181.622C369.414 181.285 369.11 180.838 368.948 180.334L363.255 162.959C363.113 162.52 363.134 162.044 363.317 161.619C363.499 161.195 363.83 160.851 364.248 160.65L364.433 160.563C364.6 160.484 364.766 160.406 364.935 160.331C367.59 159.105 370.48 158.466 373.406 158.457C377.205 158.464 380.919 159.575 384.093 161.653C384.518 161.935 384.816 162.372 384.921 162.87C385.026 163.368 384.93 163.887 384.654 164.315L373.975 180.971C373.724 181.366 373.377 181.692 372.966 181.917C372.554 182.143 372.092 182.26 371.623 182.26Z" fill="#E6E6E6"/>
<path d="M393.079 127.33C396.455 127.33 399.192 124.605 399.192 121.244C399.192 117.884 396.455 115.159 393.079 115.159C389.703 115.159 386.966 117.884 386.966 121.244C386.966 124.605 389.703 127.33 393.079 127.33Z" fill="#2F2E41"/>
<path d="M372.123 114.556C367.829 114.556 363.711 116.254 360.675 119.276C357.638 122.299 355.933 126.398 355.933 130.673V137.492H364.358L368.387 130.673L369.596 137.492H395.164L388.314 130.673C388.314 126.398 386.608 122.299 383.572 119.276C380.536 116.254 376.418 114.556 372.123 114.556Z" fill="#2F2E41"/>
<path d="M396.221 117.076C396.897 114.972 398.296 113.172 400.173 111.994C402.05 110.815 404.285 110.333 406.484 110.632C410.379 111.28 413.46 114.398 415.295 117.879C417.13 121.361 417.978 125.258 419.211 128.993C420.445 132.728 422.195 136.483 425.31 138.901C428.425 141.319 433.204 141.975 436.263 139.488C435.914 142.08 434.755 144.497 432.949 146.397C431.144 148.298 428.785 149.585 426.204 150.077C423.624 150.569 420.953 150.241 418.57 149.14C416.188 148.038 414.213 146.219 412.925 143.939C411.311 141.08 410.895 137.73 410.416 134.485C409.937 131.241 409.315 127.883 407.388 125.224C405.461 122.564 401.854 120.827 398.792 122.038L396.221 117.076Z" fill="#2F2E41"/>
<path d="M197.448 126.36C191.875 126.359 186.53 124.155 182.589 120.232C178.649 116.309 176.435 110.989 176.434 105.441C176.434 101.657 176.437 98.7644 176.443 98.353C176.62 85.3931 179.898 72.662 186.007 61.2158C175.971 74.8925 170.452 91.3359 170.215 108.271C170.209 108.683 170.207 111.576 170.207 115.359C170.207 120.907 172.421 126.228 176.362 130.15C180.303 134.073 185.647 136.278 191.22 136.278C195.8 136.277 200.254 134.787 203.905 132.036C207.557 129.284 210.206 125.422 211.451 121.035C207.604 124.469 202.616 126.366 197.448 126.36Z" fill="#3F3D56"/>
<path d="M253.995 71.2332C260.438 71.5395 266.71 73.3978 272.272 76.6486C277.835 79.8993 282.522 84.4454 285.93 89.8964C289.339 95.3474 291.368 101.541 291.842 107.944C292.317 114.347 291.223 120.77 288.655 126.66C292.37 122.317 295.1 117.229 296.66 111.74C298.22 106.252 298.572 100.494 297.694 94.8577C296.815 89.2216 294.726 83.8403 291.569 79.0808C288.412 74.3212 284.261 70.2953 279.399 67.2775C274.537 64.2597 269.079 62.3209 263.396 61.5934C257.713 60.8658 251.94 61.3666 246.469 63.0616C240.998 64.7566 235.959 67.6059 231.695 71.4154C227.43 75.2248 224.041 79.9047 221.759 85.1361C225.704 80.5162 230.662 76.8601 236.251 74.4496C241.841 72.0391 247.911 70.9387 253.995 71.2332Z" fill="#3F3D56"/>
<path d="M260.46 256.538C254.775 256.539 249.317 254.316 245.264 250.347C241.211 246.378 238.888 240.982 238.795 235.324C238.532 218.924 238.395 198.717 238.395 196.408C238.392 190.79 239.204 185.201 240.807 179.815L240.8 179.813C241.747 177.109 242.89 174.478 244.221 171.94C240.135 177.36 236.883 183.357 234.573 189.731L234.58 189.733C232.977 195.12 232.164 200.709 232.168 206.326C232.168 208.636 232.305 228.842 232.568 245.242C232.66 250.901 234.984 256.296 239.037 260.265C243.09 264.234 248.547 266.458 254.233 266.456C258.92 266.456 263.481 264.942 267.232 262.142C270.982 259.343 273.719 255.408 275.033 250.929C271.049 254.545 265.851 256.546 260.46 256.538Z" fill="#3F3D56"/>
<path d="M65.7997 346.142L73.4337 346.141L77.066 316.828L65.7979 316.828L65.7997 346.142Z" fill="#FFB8B8"/>
<path d="M88.1582 353.198L64.1642 353.199L64.1638 343.971L78.8874 343.97C81.346 343.97 83.704 344.942 85.4427 346.673C87.1813 348.403 88.1581 350.75 88.1582 353.198Z" fill="#2F2E41"/>
<path d="M38.4003 346.142L46.0343 346.141L49.6666 316.828L38.3984 316.828L38.4003 346.142Z" fill="#FFB8B8"/>
<path d="M60.7588 353.198L36.7648 353.199L36.7644 343.971L51.488 343.97C53.9466 343.97 56.3046 344.942 58.0432 346.673C59.7819 348.403 60.7587 350.75 60.7588 353.198Z" fill="#2F2E41"/>
<path d="M45.0721 337.126L37.6149 336.736C37.2304 336.716 36.8537 336.62 36.5067 336.454C36.1597 336.288 35.8492 336.055 35.5933 335.768C35.3373 335.482 35.1411 335.148 35.0158 334.785C34.8905 334.423 34.8387 334.039 34.8634 333.657L43.7763 235.425L84.8207 246.45L88.7751 245.376L76.4089 332.338C76.3035 332.992 75.9772 333.591 75.4837 334.035C74.9903 334.48 74.3593 334.744 73.6949 334.783L65.6562 335.156C65.2543 335.178 64.8521 335.117 64.475 334.977C64.098 334.836 63.7543 334.619 63.4657 334.34C63.177 334.061 62.9498 333.725 62.7983 333.354C62.6467 332.982 62.5742 332.584 62.5853 332.183L64.0418 279.99C64.0486 279.749 63.9644 279.514 63.8057 279.331C63.647 279.148 63.4254 279.032 63.1845 279.004C62.9436 278.976 62.7008 279.038 62.5042 279.18C62.3075 279.321 62.1711 279.531 62.1218 279.767L48.0751 334.821C47.9425 335.475 47.5864 336.062 47.0676 336.483C46.5487 336.904 45.8992 337.133 45.2298 337.131C45.1775 337.131 45.125 337.13 45.0721 337.126Z" fill="#2F2E41"/>
<path d="M67.1707 155.05C75.6178 155.05 82.4655 148.233 82.4655 139.824C82.4655 131.416 75.6178 124.599 67.1707 124.599C58.7237 124.599 51.876 131.416 51.876 139.824C51.876 148.233 58.7237 155.05 67.1707 155.05Z" fill="#FFB8B8"/>
<path d="M41.7065 184.555L43.3882 220.675L43.9961 233.816C44.0204 234.388 44.2155 234.94 44.5565 235.401C44.8976 235.862 45.369 236.211 45.9106 236.404L85.3515 250.627C85.6701 250.745 86.0077 250.804 86.3475 250.801C86.736 250.803 87.1209 250.726 87.4792 250.577C87.8375 250.427 88.1619 250.208 88.4329 249.931C88.704 249.654 88.9162 249.325 89.0569 248.965C89.1976 248.604 89.2638 248.219 89.2517 247.832L87.6348 182.888C87.5286 177.559 85.5582 172.435 82.0634 168.398C78.5685 164.36 73.7682 161.663 68.4899 160.772C68.1084 160.714 67.7203 160.656 67.3322 160.604C64.0592 160.2 60.737 160.514 57.5992 161.525C54.4614 162.537 51.5844 164.22 49.1704 166.457C46.6708 168.745 44.7067 171.553 43.4169 174.68C42.1272 177.807 41.5433 181.179 41.7065 184.555Z" fill="#07933C"/>
<path d="M104.192 243.42C103.259 243.131 102.407 242.63 101.703 241.956C100.999 241.282 100.464 240.453 100.139 239.536C99.8141 238.619 99.7091 237.639 99.8323 236.675C99.9555 235.71 100.304 234.788 100.849 233.981L87.4736 216.276L99.0154 215.565L109.947 232.487C111.117 233.387 111.932 234.669 112.247 236.108C112.563 237.547 112.359 239.05 111.673 240.354C110.986 241.659 109.86 242.681 108.492 243.241C107.124 243.802 105.602 243.865 104.192 243.42Z" fill="#FFB8B8"/>
<path d="M94.788 230.777C94.4337 230.634 94.1114 230.422 93.8398 230.154C93.5682 229.886 93.3526 229.567 93.2056 229.216L73.0554 181.425C72.66 180.489 72.4537 179.485 72.4484 178.47C72.443 177.455 72.6386 176.449 73.024 175.509C73.4095 174.569 73.9772 173.714 74.6947 172.993C75.4123 172.272 76.2656 171.698 77.2058 171.306C78.1461 170.913 79.1549 170.708 80.1746 170.704C81.1944 170.699 82.205 170.895 83.1488 171.279C84.0925 171.663 84.951 172.229 85.675 172.944C86.399 173.659 86.9744 174.509 87.3683 175.445L107.519 223.236C107.816 223.945 107.82 224.742 107.528 225.453C107.236 226.164 106.673 226.731 105.961 227.029L97.0157 230.766C96.6636 230.915 96.2854 230.992 95.9029 230.994C95.5205 230.996 95.1416 230.922 94.788 230.777Z" fill="#07933C"/>
<path d="M62.2537 229.091L81.6075 192.202C81.9807 191.492 82.6214 190.959 83.389 190.72C84.1566 190.48 84.9883 190.553 85.7019 190.923L113.794 205.528C114.507 205.899 115.042 206.537 115.283 207.301C115.524 208.065 115.45 208.893 115.079 209.603L95.725 246.493C95.3518 247.202 94.7111 247.735 93.9436 247.975C93.176 248.215 92.3442 248.142 91.6307 247.772L63.5386 233.167C62.826 232.795 62.2904 232.158 62.0495 231.394C61.8087 230.629 61.8821 229.801 62.2537 229.091Z" fill="#3F3D56"/>
<path d="M75.2332 212.237C74.8892 211.327 74.3362 210.51 73.6185 209.851C72.9007 209.191 72.038 208.708 71.0993 208.439C70.1606 208.171 69.1718 208.124 68.2119 208.304C67.2519 208.483 66.3474 208.883 65.5704 209.472L47.0266 197.227L46.9951 208.738L64.6094 218.602C65.5817 219.712 66.9155 220.445 68.3769 220.674C69.8382 220.903 71.3337 220.612 72.6012 219.852C73.8686 219.093 74.827 217.914 75.3083 216.521C75.7896 215.129 75.763 213.612 75.2332 212.237Z" fill="#FFB8B8"/>
<path d="M51.7876 214.826L36.6325 202.876C34.9931 202.328 33.5116 201.392 32.3155 200.149C31.1193 198.905 30.2441 197.391 29.765 195.737C29.2859 194.083 29.2172 192.338 29.5648 190.651C29.9124 188.965 30.6659 187.388 31.7607 186.055L45.5211 168.103C46.4774 166.94 47.8222 166.158 49.3098 165.901C50.7974 165.643 52.3283 165.927 53.6228 166.701C54.9173 167.475 55.8889 168.686 56.36 170.114C56.831 171.542 56.77 173.091 56.1882 174.478L45.3006 192.207L61.3008 199.762C61.6729 199.937 62.0033 200.19 62.2702 200.502C62.537 200.814 62.7343 201.179 62.849 201.573C62.9636 201.966 62.9931 202.38 62.9353 202.786C62.8776 203.192 62.734 203.581 62.514 203.927L56.0552 214.102C55.8369 214.446 55.5485 214.74 55.2088 214.965C54.8691 215.19 54.4857 215.342 54.0833 215.411C54.0673 215.414 54.0512 215.416 54.0351 215.419C53.6397 215.478 53.2362 215.456 52.8497 215.354C52.4631 215.252 52.1016 215.073 51.7876 214.826Z" fill="#07933C"/>
<path d="M55.6133 150.019C55.5476 149.828 55.5268 149.625 55.5524 149.424C55.578 149.224 55.6493 149.032 55.7609 148.864C55.8725 148.695 56.0214 148.554 56.1962 148.451C56.3709 148.349 56.567 148.287 56.7693 148.272C57.1835 148.294 57.5889 148.4 57.961 148.583C58.333 148.766 58.664 149.021 58.9339 149.335C59.4874 149.97 60.1318 150.521 60.8464 150.97C61.5863 151.341 62.5897 151.288 63.0115 150.58C63.4076 149.916 63.1362 149.026 62.8964 148.254C62.2863 146.289 61.9449 144.252 61.8814 142.197C61.8124 139.903 62.1375 137.51 63.4132 135.72C65.0596 133.412 68.0035 132.535 70.7896 132.599C73.5757 132.662 76.3166 133.518 79.0763 134.059C80.029 134.246 81.1489 134.342 81.7861 133.607C82.4636 132.825 82.2148 131.56 81.9266 130.505C81.1788 127.767 80.3854 124.935 78.6478 122.724C76.7691 120.426 74.0854 118.922 71.1372 118.515C68.3068 118.166 65.4337 118.49 62.7539 119.462C58.3879 120.832 54.5461 123.496 51.7424 127.098C48.8521 130.929 47.6032 135.743 48.2687 140.488C48.9189 144.621 51.1188 148.354 54.4249 150.936L55.6133 150.019Z" fill="#2F2E41"/>
<path d="M249.327 346.263C245.258 344.499 241.657 341.817 238.807 338.43C235.957 335.043 233.937 331.042 232.906 326.745C231.875 322.447 231.862 317.97 232.867 313.667C233.872 309.363 235.868 305.351 238.697 301.947C235.417 304.332 232.683 307.383 230.678 310.9C228.673 314.416 227.442 318.317 227.067 322.343C226.692 326.369 227.181 330.429 228.503 334.252C229.824 338.076 231.948 341.576 234.732 344.52C237.516 347.464 240.898 349.785 244.652 351.329C248.406 352.873 252.447 353.604 256.507 353.474C260.567 353.345 264.553 352.357 268.2 350.576C271.847 348.796 275.072 346.264 277.66 343.148C273.623 346.086 268.882 347.919 263.911 348.466C258.94 349.012 253.912 348.253 249.327 346.263Z" fill="#3F3D56"/>
</g>
<defs>
<clipPath id="clip0_461_6127">
<rect width="513" height="354" fill="white"/>
</clipPath>
</defs>
</svg>
