<svg width="60" height="19" viewBox="0 0 60 19" fill="none" xmlns="http://www.w3.org/2000/svg">
<path d="M1.47676 0.988099H9.58681C10.0064 0.988099 10.3534 1.12808 10.6278 1.40804C10.9183 1.67154 11.0636 2.01737 11.0636 2.44555C11.0636 2.85726 10.9183 3.19486 10.6278 3.45835C10.3534 3.70538 10.0064 3.82889 9.58681 3.82889H2.80826L3.02614 3.40894V8.22594L2.83247 8.02831H8.4974C8.91703 8.02831 9.26402 8.1683 9.53839 8.44826C9.8289 8.71175 9.97416 9.05759 9.97416 9.48576C9.97416 9.89747 9.8289 10.2351 9.53839 10.4986C9.26402 10.7456 8.91703 10.8691 8.4974 10.8691H2.90509L3.02614 10.6715V15.6614L2.83247 15.4391H9.58681C10.0064 15.4391 10.3534 15.5873 10.6278 15.8837C10.9183 16.1637 11.0636 16.493 11.0636 16.8718C11.0636 17.2835 10.9183 17.6211 10.6278 17.8846C10.3534 18.1481 10.0064 18.2799 9.58681 18.2799H1.47676C1.05713 18.2799 0.702064 18.1399 0.411555 17.8599C0.137185 17.5635 0 17.2012 0 16.773V2.49495C0 2.06678 0.137185 1.71271 0.411555 1.43274C0.702064 1.13631 1.05713 0.988099 1.47676 0.988099Z" fill="black" fill-opacity="0.5"/>
<path d="M20.4147 4.81699C21.7059 4.81699 22.6581 5.13812 23.2714 5.78039C23.8847 6.40618 24.2882 7.22137 24.4818 8.22594L24.0703 8.00361L24.264 7.60837C24.4576 7.2296 24.7562 6.82613 25.1597 6.39795C25.5632 5.9533 26.0474 5.58277 26.6123 5.28634C27.1933 4.97344 27.8388 4.81699 28.549 4.81699C29.711 4.81699 30.5906 5.07225 31.1878 5.58277C31.8011 6.09329 32.2207 6.77672 32.4467 7.63307C32.6726 8.47296 32.7856 9.41166 32.7856 10.4492V16.773C32.7856 17.2012 32.6484 17.5635 32.374 17.8599C32.0997 18.1399 31.7527 18.2799 31.333 18.2799C30.9134 18.2799 30.5664 18.1399 30.292 17.8599C30.0177 17.5635 29.8805 17.2012 29.8805 16.773V10.4492C29.8805 9.90571 29.8159 9.41989 29.6868 8.99171C29.5577 8.54707 29.3237 8.193 28.9847 7.92951C28.6458 7.66601 28.1616 7.53427 27.5322 7.53427C26.9189 7.53427 26.3944 7.66601 25.9586 7.92951C25.5228 8.193 25.192 8.54707 24.966 8.99171C24.7562 9.41989 24.6513 9.90571 24.6513 10.4492V16.773C24.6513 17.2012 24.5141 17.5635 24.2398 17.8599C23.9654 18.1399 23.6184 18.2799 23.1988 18.2799C22.7791 18.2799 22.4321 18.1399 22.1578 17.8599C21.8834 17.5635 21.7462 17.2012 21.7462 16.773V10.4492C21.7462 9.90571 21.6817 9.41989 21.5525 8.99171C21.4234 8.54707 21.1894 8.193 20.8505 7.92951C20.5116 7.66601 20.0274 7.53427 19.3979 7.53427C18.7846 7.53427 18.2601 7.66601 17.8243 7.92951C17.3886 8.193 17.0577 8.54707 16.8318 8.99171C16.622 9.41989 16.517 9.90571 16.517 10.4492V16.773C16.517 17.2012 16.3799 17.5635 16.1055 17.8599C15.8311 18.1399 15.4841 18.2799 15.0645 18.2799C14.6449 18.2799 14.2979 18.1399 14.0235 17.8599C13.7491 17.5635 13.612 17.2012 13.612 16.773V6.57087C13.612 6.14269 13.7491 5.78862 14.0235 5.50866C14.2979 5.21223 14.6449 5.06401 15.0645 5.06401C15.4841 5.06401 15.8311 5.21223 16.1055 5.50866C16.3799 5.78862 16.517 6.14269 16.517 6.57087V7.63307L16.1539 7.55897C16.2992 7.27901 16.5009 6.98258 16.7591 6.66968C17.0174 6.34031 17.3321 6.03565 17.7033 5.75568C18.0745 5.47572 18.4861 5.2534 18.938 5.08872C19.3899 4.90756 19.8821 4.81699 20.4147 4.81699Z" fill="black" fill-opacity="0.5"/>
<path d="M46.5333 4.81699C46.953 4.81699 47.2999 4.95697 47.5743 5.23693C47.8487 5.51689 47.9859 5.8792 47.9859 6.32384V16.773C47.9859 17.2012 47.8487 17.5635 47.5743 17.8599C47.2999 18.1399 46.953 18.2799 46.5333 18.2799C46.1137 18.2799 45.7667 18.1399 45.4923 17.8599C45.218 17.5635 45.0808 17.2012 45.0808 16.773V15.5626L45.6134 15.7849C45.6134 15.999 45.5004 16.2625 45.2745 16.5754C45.0485 16.8718 44.7419 17.1682 44.3545 17.4647C43.9672 17.7611 43.5072 18.0164 42.9746 18.2305C42.4581 18.4281 41.8932 18.5269 41.2799 18.5269C40.1663 18.5269 39.1576 18.2387 38.2538 17.6623C37.35 17.0694 36.6318 16.2625 36.0992 15.2414C35.5827 14.2039 35.3245 13.0182 35.3245 11.6843C35.3245 10.3339 35.5827 9.14816 36.0992 8.12713C36.6318 7.08962 37.3419 6.28267 38.2296 5.70628C39.1173 5.11342 40.1018 4.81699 41.1831 4.81699C41.8771 4.81699 42.5146 4.92403 43.0956 5.13812C43.6767 5.35221 44.177 5.62394 44.5966 5.95331C45.0324 6.28267 45.3632 6.62027 45.5892 6.96611C45.8313 7.29547 45.9523 7.57544 45.9523 7.80599L45.0808 8.12713V6.32384C45.0808 5.89566 45.218 5.54159 45.4923 5.26163C45.7667 4.9652 46.1137 4.81699 46.5333 4.81699ZM41.6431 15.8096C42.3532 15.8096 42.9746 15.6285 43.5072 15.2662C44.0398 14.9038 44.4513 14.4098 44.7419 13.784C45.0485 13.1582 45.2018 12.4583 45.2018 11.6843C45.2018 10.8938 45.0485 10.1857 44.7419 9.55987C44.4513 8.93407 44.0398 8.44002 43.5072 8.07772C42.9746 7.71542 42.3532 7.53427 41.6431 7.53427C40.9491 7.53427 40.3358 7.71542 39.8032 8.07772C39.2706 8.44002 38.851 8.93407 38.5443 9.55987C38.2538 10.1857 38.1086 10.8938 38.1086 11.6843C38.1086 12.4583 38.2538 13.1582 38.5443 13.784C38.851 14.4098 39.2706 14.9038 39.8032 15.2662C40.3358 15.6285 40.9491 15.8096 41.6431 15.8096Z" fill="black" fill-opacity="0.5"/>
<path d="M53.867 16.773C53.867 17.2012 53.7298 17.5635 53.4554 17.8599C53.1811 18.1399 52.8341 18.2799 52.4144 18.2799C51.9948 18.2799 51.6478 18.1399 51.3735 17.8599C51.0991 17.5635 50.9619 17.2012 50.9619 16.773V6.57087C50.9619 6.14269 51.0991 5.78862 51.3735 5.50866C51.6478 5.21223 51.9948 5.06401 52.4144 5.06401C52.8341 5.06401 53.1811 5.21223 53.4554 5.50866C53.7298 5.78862 53.867 6.14269 53.867 6.57087V16.773ZM52.3902 3.45835C51.8415 3.45835 51.4541 3.36778 51.2282 3.18662C51.0022 3.00547 50.8893 2.68434 50.8893 2.22323V1.75388C50.8893 1.2763 51.0103 0.955164 51.2524 0.79048C51.5106 0.609328 51.898 0.518752 52.4144 0.518752C52.9793 0.518752 53.3747 0.609328 53.6007 0.79048C53.8266 0.971632 53.9396 1.29276 53.9396 1.75388V2.22323C53.9396 2.70081 53.8186 3.03017 53.5765 3.21133C53.3344 3.37601 52.939 3.45835 52.3902 3.45835Z" fill="black" fill-opacity="0.5"/>
<path d="M59.9998 16.773C59.9998 17.2012 59.8546 17.5635 59.5641 17.8599C59.2897 18.1399 58.9427 18.2799 58.5231 18.2799C58.1196 18.2799 57.7807 18.1399 57.5063 17.8599C57.2319 17.5635 57.0947 17.2012 57.0947 16.773V1.50685C57.0947 1.07868 57.2319 0.724606 57.5063 0.444644C57.7968 0.148215 58.1519 0 58.5715 0C58.9911 0 59.3301 0.148215 59.5883 0.444644C59.8627 0.724606 59.9998 1.07868 59.9998 1.50685V16.773Z" fill="black" fill-opacity="0.5"/>
</svg>
