<svg width="12" height="10" viewBox="0 0 12 10" fill="none" xmlns="http://www.w3.org/2000/svg">
<path d="M11.6433 3.95561L10.1643 1.78697L2.97744 0.373005C2.86241 0.341371 2.73952 0.356734 2.63581 0.415705C2.5321 0.474676 2.45606 0.572429 2.42443 0.687461C2.39279 0.802493 2.40816 0.925383 2.46713 1.02909C2.5261 1.1328 2.62385 1.20883 2.73888 1.24046L5.37596 2.3378L3.47623 3.91223C2.93407 4.34596 0.587589 5.74257 0.40976 6.28473C0.0671142 7.33869 1.48107 6.47123 1.82805 6.34545C2.59575 6.06786 3.08153 5.72089 4.36971 5.21776C4.62127 5.56041 1.70661 7.19123 1.37264 7.45581C1.22951 7.56424 1.00397 7.70303 0.990955 7.91122C0.947582 8.72229 2.29214 7.88952 2.61744 7.75507C3.52827 7.37339 4.42175 6.95268 5.32824 6.57099C4.695 7.04376 3.63236 7.58158 2.99478 8.05434C2.70063 8.22104 2.41937 8.40953 2.15335 8.6182C1.82805 8.95651 2.1013 9.32518 2.58707 9.17771C3.10773 8.96217 3.60969 8.70393 4.08779 8.40566C4.81645 8.01097 5.21981 7.65097 5.94847 7.25628C5.41933 7.66832 5.16342 7.97193 4.64729 8.37964C4.44343 8.54012 3.97501 8.81337 3.87525 9.06494C3.54128 9.93239 5.4627 8.73096 5.67956 8.57482C6.43425 8.03266 7.31906 7.59025 8.02604 7.01339C8.1258 6.93099 9.17976 5.87702 9.18843 5.8857L11.6433 3.95561Z" fill="white" stroke="#263238" stroke-width="0.67524" stroke-linecap="round" stroke-linejoin="round"/>
</svg>
