<svg width="20" height="23" viewBox="0 0 20 23" fill="none" xmlns="http://www.w3.org/2000/svg">
<g style="mix-blend-mode:multiply" opacity="0.5">
<path d="M17.8648 17.5094C17.8648 17.5094 19.1051 6.23476 18.6917 3.72928C18.2782 1.2238 16.7609 0.541614 13.3169 0.34316C11.2033 0.2361 9.0908 0.572697 7.1152 1.33129C7.22327 1.12034 7.26864 0.88283 7.24592 0.646891C7.22321 0.410953 7.13337 0.186464 6.98703 0C6.13697 0.144813 5.29933 0.354916 4.48155 0.628439C3.2991 1.04188 1.87271 1.50908 0.681989 1.88945C0.104469 2.88914 -0.115702 4.05559 0.0576829 5.19701L1.29802 6.92521C2.36879 7.63549 3.54908 8.16488 4.79164 8.49217L4.72134 9.63741C5.44357 9.78441 6.17627 9.87427 6.91261 9.90615C8.18602 9.90615 10.092 8.88907 10.092 8.88907C10.092 8.88907 8.94676 10.671 10.3483 11.6881C11.1204 12.2803 12.0488 12.6338 13.0192 12.7052C13.0192 12.7052 13.9122 15.7605 13.9122 16.7776C13.9122 17.5756 10.2657 20.54 8.66975 21.801C9.323 22.1276 13.5608 19.7668 13.5608 19.7668L16.2565 23L19.8617 20.5193L17.8648 17.5094Z" fill="#FFC100"/>
</g>
</svg>
