<svg width="25" height="25" viewBox="0 0 25 25" fill="none" xmlns="http://www.w3.org/2000/svg">
<path d="M12.5 1.5625C5.5957 1.5625 0 6.1084 0 11.7188C0 14.1406 1.04492 16.3574 2.7832 18.1006C2.17285 20.5615 0.131836 22.7539 0.107422 22.7783C0 22.8906 -0.0292969 23.0566 0.0341797 23.2031C0.0976562 23.3496 0.234375 23.4375 0.390625 23.4375C3.62793 23.4375 6.05469 21.8848 7.25586 20.9277C8.85254 21.5283 10.625 21.875 12.5 21.875C19.4043 21.875 25 17.3291 25 11.7188C25 6.1084 19.4043 1.5625 12.5 1.5625ZM6.25977 14.8438H5.66406C5.44922 14.8438 5.27344 14.668 5.27344 14.4531V13.6719C5.27344 13.457 5.44922 13.2812 5.66406 13.2812H6.26465C6.55762 13.2812 6.77246 13.1104 6.77246 12.959C6.77246 12.8955 6.7334 12.8271 6.66992 12.7734L5.60059 11.8555C5.18555 11.5039 4.95117 11.001 4.95117 10.4834C4.95117 9.44336 5.87891 8.59863 7.02148 8.59863H7.61719C7.83203 8.59863 8.00781 8.77441 8.00781 8.98926V9.77051C8.00781 9.98535 7.83203 10.1611 7.61719 10.1611H7.0166C6.72363 10.1611 6.50879 10.332 6.50879 10.4834C6.50879 10.5469 6.54785 10.6152 6.61133 10.6689L7.68066 11.5869C8.0957 11.9385 8.33008 12.4414 8.33008 12.959C8.33496 13.999 7.40234 14.8438 6.25977 14.8438ZM15.625 14.4531C15.625 14.668 15.4492 14.8438 15.2344 14.8438H14.4531C14.2383 14.8438 14.0625 14.668 14.0625 14.4531V11.123L12.8516 13.8477C12.71 14.1357 12.2949 14.1357 12.1533 13.8477L10.9375 11.123V14.4531C10.9375 14.668 10.7617 14.8438 10.5469 14.8438H9.76562C9.55078 14.8438 9.375 14.668 9.375 14.4531V9.375C9.375 8.94531 9.72656 8.59375 10.1562 8.59375H10.9375C11.2354 8.59375 11.5039 8.75977 11.6357 9.02344L12.5 10.752L13.3643 9.02344C13.4961 8.75977 13.7695 8.59375 14.0625 8.59375H14.8438C15.2734 8.59375 15.625 8.94531 15.625 9.375V14.4531ZM17.9834 14.8438H17.3828C17.168 14.8438 16.9922 14.668 16.9922 14.4531V13.6719C16.9922 13.457 17.168 13.2812 17.3828 13.2812H17.9834C18.2764 13.2812 18.4912 13.1104 18.4912 12.959C18.4912 12.8955 18.4521 12.8271 18.3887 12.7734L17.3193 11.8555C16.9043 11.5039 16.6699 11.001 16.6699 10.4834C16.6699 9.44336 17.5977 8.59863 18.7402 8.59863H19.3359C19.5508 8.59863 19.7266 8.77441 19.7266 8.98926V9.77051C19.7266 9.98535 19.5508 10.1611 19.3359 10.1611H18.7354C18.4424 10.1611 18.2275 10.332 18.2275 10.4834C18.2275 10.5469 18.2666 10.6152 18.3301 10.6689L19.3994 11.5869C19.8145 11.9385 20.0488 12.4414 20.0488 12.959C20.0537 13.999 19.126 14.8438 17.9834 14.8438Z" fill="#07933C" fill-opacity="0.93"/>
</svg>
