<svg width="320" height="225" viewBox="0 0 320 225" fill="none" xmlns="http://www.w3.org/2000/svg">
<path opacity="0.3" d="M281.851 38.4102C281.851 38.4102 277.451 16.7886 262.77 18.2618C256.098 18.9304 251.63 22.2946 247.761 27.5132C242.795 34.2102 241 30.3184 233.907 32.5124C227.547 34.4818 228.524 39.8885 224.608 40.8706C220.692 41.8527 217.759 37.4281 212.377 38.4102C206.994 39.3923 204.056 44.7989 204.056 44.7989H301.914C301.654 42.9656 300.868 41.248 299.652 39.8564C298.435 38.4648 296.841 37.4594 295.065 36.9632C288.7 34.9729 285.767 39.8885 281.851 38.4102Z" stroke="black" stroke-miterlimit="10"/>
<path opacity="0.3" d="M50.6703 36.9788C50.6703 36.9788 47.888 23.3289 38.6258 24.2587C34.4082 24.6871 31.5947 26.8027 29.1504 30.099C26.0301 34.3251 24.8964 31.8699 20.4083 33.2333C16.3935 34.4766 17.0124 37.8878 14.5369 38.5094C12.0614 39.131 10.2152 36.3363 6.81928 36.9422C3.42332 37.5482 1.56672 40.9751 1.56672 40.9751H63.3284C63.1682 39.8147 62.6738 38.7267 61.906 37.845C61.1381 36.9632 60.1304 36.3263 59.0068 36.0124C54.992 34.8057 53.1406 37.9087 50.6703 36.9788Z" stroke="black" stroke-miterlimit="10"/>
<path opacity="0.3" d="M207.124 175.803C207.124 175.803 204.679 163.814 196.54 164.634C192.843 165.005 190.367 166.87 188.22 169.764C185.463 173.473 184.48 171.331 180.538 172.533C177.012 173.624 177.553 176.623 175.385 177.166C173.216 177.71 171.588 175.26 168.624 175.803C165.66 176.346 164.016 179.345 164.016 179.345H218.258C218.117 178.326 217.682 177.37 217.008 176.596C216.333 175.822 215.448 175.263 214.462 174.988C210.91 173.896 209.282 176.623 207.124 175.803Z" stroke="black" stroke-miterlimit="10"/>
<path opacity="0.3" d="M77.594 154.761C77.594 154.761 75.1497 142.778 67.0109 143.593C63.3133 143.963 60.8378 145.828 58.69 148.722C55.9389 152.431 54.956 150.29 51.014 151.491C47.488 152.583 48.0289 155.581 45.8602 156.125C43.6916 156.668 42.0638 154.218 39.0995 154.761C36.1352 155.304 34.4919 158.303 34.4919 158.303H88.7336C88.5925 157.284 88.158 156.329 87.4835 155.555C86.8089 154.781 85.9239 154.222 84.9372 153.946C81.3904 152.828 79.7626 155.555 77.594 154.761Z" stroke="black" stroke-miterlimit="10"/>
<path d="M258.848 54.2071L269.54 62.163L194.689 107.914L181.225 133.375L95.2803 165.198L5.79971 224.5H58.4137L114.689 181.904L200.233 150.478L215.283 122.629L287.363 72.9033L302.413 84.4428L319.445 42.6676V37.8721L258.848 54.2071Z" fill="#263238" stroke="#263238" stroke-linecap="round" stroke-linejoin="round"/>
<path d="M258.848 49.4064L269.54 57.3623L194.689 103.113L181.225 128.574L95.2804 160.398L0.500413 224.5H53.0884L114.689 177.109L200.233 145.682L215.283 117.834L287.363 68.1078L302.413 79.642L319.445 37.8721L258.848 49.4064Z" fill="white" stroke="#263238" stroke-linecap="round" stroke-linejoin="round"/>
<path d="M194.918 140.625L196.671 142.099" stroke="#263238" stroke-linecap="round" stroke-linejoin="round"/>
<path d="M184.392 131.755L192.739 138.792" stroke="#263238" stroke-linecap="round" stroke-linejoin="round"/>
<path d="M197.856 104.309L203.4 108.285" stroke="#263238" stroke-linecap="round" stroke-linejoin="round"/>
<path d="M111.917 175.515L96.0085 164.289" stroke="#263238" stroke-linecap="round" stroke-linejoin="round"/>
<path d="M258.848 54.2071V49.4064L269.541 57.3623L266.02 59.5563L258.848 54.2071Z" fill="white" stroke="#263238" stroke-linecap="round" stroke-linejoin="round"/>
<path d="M302.413 84.4428V79.6421L287.363 68.1078V72.9033L302.413 84.4428Z" fill="white" stroke="#263238" stroke-miterlimit="10"/>
<path d="M121.096 77.5629L117.976 83.4555C117.976 83.4555 118.73 84.4532 119.016 84.2913C119.302 84.1293 120.836 81.4599 120.836 81.4599L119.609 86.0204C119.609 86.0204 120.103 86.8092 120.41 86.4644C120.717 86.1196 121.835 82.8547 122.115 82.8077C122.396 82.7607 123.057 81.5801 123.057 81.5801L121.923 85.2838C121.923 85.2838 121.497 87.0234 122.251 86.9032C123.005 86.7831 123.057 85.101 123.057 85.101L124.659 82.6301L124.06 85.2838C124.06 85.2838 125.101 86.0256 125.262 85.3883C125.423 84.751 125.99 82.254 125.99 82.254C125.99 82.254 128.59 79.1197 128.892 78.7697C129.193 78.4197 130.728 74.6376 130.728 74.6376L128.408 71.357L121.096 77.5629Z" fill="white" stroke="#263238" stroke-linecap="round" stroke-linejoin="round"/>
<path d="M127.976 72.0884L121.798 73.7025C121.798 73.7025 119.921 78.2995 119.385 79.0936C118.849 79.8876 119.494 80.0391 120.456 79.6525C121.418 79.266 123.088 77.0824 123.088 77.0824C123.088 77.0824 126.026 77.5212 126.999 75.9227" fill="white"/>
<path d="M127.976 72.0884L121.798 73.7025C121.798 73.7025 119.921 78.2995 119.385 79.0936C118.849 79.8876 119.494 80.0391 120.456 79.6525C121.418 79.266 123.088 77.0824 123.088 77.0824C123.088 77.0824 126.026 77.5212 126.999 75.9227" stroke="#263238" stroke-linecap="round" stroke-linejoin="round"/>
<path d="M122.402 79.7256L125.054 81.2614" stroke="#263238" stroke-linecap="round" stroke-linejoin="round"/>
<path d="M165.899 21.1348L178.75 54.0764L179.883 57.6443C179.883 57.6443 167.511 62.8369 164.942 63.2495C163.743 63.4137 162.557 63.6669 161.395 64.007L148.451 31.3997L152.84 24.3788L163.356 19.9856L165.899 21.1348Z" fill="white" stroke="#263238" stroke-linecap="round" stroke-linejoin="round"/>
<path d="M165.971 38.4258L172.02 57.5504" stroke="#263238" stroke-linecap="round" stroke-linejoin="round"/>
<path d="M162.591 130.465C162.411 132.181 162.142 133.886 161.785 135.574C161.39 137.021 160.131 140.981 160.319 142.015C160.506 143.049 161.51 147.479 162.123 147.808C162.737 148.137 163.652 148.216 164.151 147.808C164.651 147.401 167.189 142.428 167.428 140.693C167.667 138.959 167.506 133.301 167.542 132.857C167.579 132.413 162.591 130.465 162.591 130.465Z" fill="#263238" stroke="#263238" stroke-linecap="round" stroke-linejoin="round"/>
<path d="M216.807 98.1397C216.807 98.1397 220.967 100.072 221.519 100.12C222.07 100.167 226.813 100.642 226.813 100.642C226.813 100.642 230.744 99.8688 231.358 100.198C231.972 100.527 231.758 101.99 231.758 101.99C231.758 101.99 223.848 106.211 222.725 106.482C221.602 106.754 220.255 106.273 219.501 106.482L218.747 106.696L219.381 107.861L214.654 110.416C214.654 110.416 212.574 108.013 212.49 106.623C212.407 105.234 212.355 102.82 212.355 102.82L211.679 99.9837L216.807 98.1397Z" fill="#263238" stroke="#263238" stroke-linecap="round" stroke-linejoin="round"/>
<path d="M164.812 20.3617C164.812 20.3617 173.653 43.028 175.328 46.5175C177.002 50.0071 178.49 54.2175 179.779 55.3093C181.069 56.4011 176.456 43.7541 176.019 41.2676C175.583 38.781 175.65 34.1318 175.65 34.1318L214.509 20.743L213.053 15.8796L180.601 19.7818C180.601 19.7818 173.996 19.0505 172.613 19.0975C171.23 19.1445 164.812 20.3617 164.812 20.3617Z" fill="#92E3A9" stroke="#263238" stroke-linecap="round" stroke-linejoin="round"/>
<path d="M167.761 19.8237C166.164 20.1058 164.812 20.3461 164.812 20.3461C164.812 20.3461 171.001 36.1691 174.002 43.4094C173.752 39.2424 173.141 35.1051 172.176 31.0445C171.102 27.1585 169.622 23.3973 167.761 19.8237Z" fill="#92E3A9" stroke="#263238" stroke-linecap="round" stroke-linejoin="round"/>
<path d="M176.84 24.0289L175.649 34.1318L178.749 24.5199" stroke="#263238" stroke-linecap="round" stroke-linejoin="round"/>
<path d="M213.052 15.8796L215.439 15.514L216.38 19.761L214.508 20.7378L213.052 15.8796Z" fill="white" stroke="#263238" stroke-linecap="round" stroke-linejoin="round"/>
<path d="M223.999 14.2916C223.999 14.2916 226.002 14.6259 225.96 15.1117C225.918 15.5975 225.206 18.246 225.206 18.246C224.246 18.4865 223.243 18.4865 222.283 18.246C221.019 17.8125 220.609 16.8774 220.926 16.005C221.243 15.1326 223.999 14.2916 223.999 14.2916Z" fill="white" stroke="#263238" stroke-linecap="round" stroke-linejoin="round"/>
<path d="M222.538 15.2266L224.192 15.8587L224.015 17.8856" stroke="#263238" stroke-linecap="round" stroke-linejoin="round"/>
<path d="M221.93 15.6655L222.913 16.564C222.971 16.806 222.971 17.0585 222.913 17.3005" stroke="#263238" stroke-linecap="round" stroke-linejoin="round"/>
<path d="M215.444 15.514L221.685 14.0879C221.685 14.0879 227.67 11.5857 227.884 11.9304C228.006 12.0824 228.065 12.276 228.049 12.4707C228.032 12.6654 227.941 12.8461 227.795 12.9752C227.442 13.273 223.078 14.8558 222.564 15.2215C222.049 15.5871 221.726 16.4543 222.095 16.8983C222.313 17.2057 222.601 17.4566 222.935 17.6301C223.269 17.8036 223.639 17.8948 224.014 17.8961C224.919 17.8073 227.135 17.5095 227.192 17.8438C227.249 18.1782 227.452 18.6013 226.672 18.8886C225.892 19.1759 224.706 19.0453 224.129 19.1603C223.552 19.2752 221.217 19.97 220.327 19.8916C219.514 19.7665 218.714 19.5618 217.94 19.2804L216.354 19.8028L215.444 15.514Z" fill="white" stroke="#263238" stroke-linecap="round" stroke-linejoin="round"/>
<path d="M178 54.1444C178 54.1444 184.501 66.8383 185.011 66.8488C185.52 66.8592 191.407 62.4033 191.563 62.1995C191.719 61.9958 183.721 57.404 181.464 55.0429C179.207 52.6817 177.215 50.0645 177.215 50.0645L178 54.1444Z" fill="#92E3A9" stroke="#263238" stroke-linecap="round" stroke-linejoin="round"/>
<path d="M179.883 57.6443L183.003 63.1085C183.003 63.1085 199.317 61.2227 204.846 60.8518C210.374 60.4809 212.324 61.0712 212.324 61.0712L217.816 98.124L209.042 102.031L200.841 74.3137C200.841 74.3137 182.577 79.3129 179.909 79.6159C178.57 79.7361 177.243 79.9756 175.946 80.3315C175.946 80.3315 170.912 114.574 170.527 119.098C170.142 123.622 170.174 131.896 170.174 131.896L167.646 134.331C167.646 134.331 162.191 131.421 161.925 130.972C161.66 130.522 158.894 88.5121 158.894 88.5121L157.853 72.0987L161.39 64.0279L179.883 57.6443Z" fill="#92E3A9" stroke="#263238" stroke-linecap="round" stroke-linejoin="round"/>
<path d="M163.413 65.1249L180.653 59.1697L179.883 57.6443L163.169 63.3488L163.413 65.1249Z" fill="#263238" stroke="#263238" stroke-linecap="round" stroke-linejoin="round"/>
<path d="M170.657 60.763L171.464 62.7011L175.328 61.3272L174.599 59.4675L170.657 60.763Z" fill="white" stroke="#263238" stroke-linecap="round" stroke-linejoin="round"/>
<path d="M167.001 96.6353L166.965 94.5301" stroke="#263238" stroke-linecap="round" stroke-linejoin="round"/>
<path d="M167.646 134.31L167.038 98.8502" stroke="#263238" stroke-linecap="round" stroke-linejoin="round"/>
<path d="M175.946 80.3107C175.946 80.3107 176.96 73.269 179.04 69.0899" stroke="#263238" stroke-linecap="round" stroke-linejoin="round"/>
<path d="M180.081 65.8145C180.081 65.8145 177.059 70.7771 176.596 71.8585" stroke="#263238" stroke-linecap="round" stroke-linejoin="round"/>
<path d="M206.375 72.5376L207.878 72.0622" stroke="#263238" stroke-linecap="round" stroke-linejoin="round"/>
<path d="M200.842 74.2928L204.825 73.0287" stroke="#263238" stroke-linecap="round" stroke-linejoin="round"/>
<path d="M160.838 33.1027L165.254 35.9079L166.642 29.3938L161.66 27.8475L160.838 33.1027Z" fill="#263238" stroke="#263238" stroke-linecap="round" stroke-linejoin="round"/>
<path d="M162.825 30.4333L159.06 38.7392L154.062 25.3244L164.812 20.3617L170.73 31.6139L162.825 30.4333Z" fill="white" stroke="#263238" stroke-linecap="round" stroke-linejoin="round"/>
<path d="M129.536 69.9413L127.498 72.0831L130.743 75.745L131.793 74.0891L129.536 69.9413Z" stroke="#263238" stroke-linecap="round" stroke-linejoin="round"/>
<path d="M152.84 24.3788L140.557 34.09L139.319 59.4884L128.918 70.4585L131.965 75.1077L147.047 63.1399L149.096 48.675L151.951 56.9287L148.649 77.1032C150.923 78.0055 153.251 78.7679 155.618 79.3861C159.076 80.2428 163.496 79.689 163.496 79.689L164.256 55.466L154.572 23.9923L152.84 24.3788Z" fill="#92E3A9" stroke="#263238" stroke-linecap="round" stroke-linejoin="round"/>
<path d="M153.329 60.7891L162.18 61.6458V65.0675L153.157 63.6988" fill="#92E3A9"/>
<path d="M153.329 60.7891L162.18 61.6458V65.0675L153.157 63.6988" stroke="#263238" stroke-linecap="round" stroke-linejoin="round"/>
<path d="M154.551 23.9661L152.84 24.3788L150.598 26.1497C151.631 30.0394 152.97 33.8404 154.603 37.5168C156.485 41.6959 160.048 46.5332 162.404 49.5317L154.551 23.9661Z" fill="#92E3A9" stroke="#263238" stroke-linecap="round" stroke-linejoin="round"/>
<path d="M165.254 35.9079L156.631 43.2213L140.629 41.0952L133.052 47.0765L131.419 50.9526L137.935 51.9974L144.082 45.3317C144.082 45.3317 156.444 47.6145 157.115 47.3899C157.786 47.1653 164.396 38.1176 164.396 38.1176L165.254 35.9079Z" fill="#263238" stroke="#263238" stroke-linecap="round" stroke-linejoin="round"/>
<path d="M147.098 7.70429C147.098 7.70429 144.878 8.34683 143.853 7.01474C142.829 5.68266 142.153 3.95879 143.058 4.2461C143.821 4.53813 144.552 4.91113 145.237 5.35878C145.237 5.35878 144.888 2.22447 145.621 2.06775C146.355 1.91104 146.661 3.30058 146.661 3.30058C146.661 3.30058 149.855 0.98119 153.422 0.558057C156.99 0.134925 162.263 2.15133 163.033 2.94013C163.802 3.72894 163.288 10.8491 163.137 11.3558C162.986 11.8625 162.684 13.0796 162.133 13.4453C161.582 13.811 160.303 14.3229 159.632 13.7483C158.961 13.1737 159.028 12.3483 157.806 12.1393C156.584 11.9304 153.589 11.8782 153.391 10.614C153.193 9.34981 154.514 7.08265 153.277 7.07743C152.039 7.07221 148.95 8.15877 148.123 8.19011C147.296 8.22145 147.098 7.70429 147.098 7.70429Z" fill="#263238" stroke="#263238" stroke-linecap="round" stroke-linejoin="round"/>
<path d="M147.099 7.70434V14.0357L148.358 15.7021L147.837 21.6782L150.438 21.4849C150.438 21.4849 152.169 26.6147 152.674 26.761C153.178 26.9072 155.363 25.5386 155.363 25.5386C155.363 25.5386 162.461 30.7154 162.794 30.4333C163.127 30.1513 164.505 21.2446 164.739 20.952C164.973 20.6595 163.699 15.9894 163.699 15.9894C163.699 15.9894 164.708 13.8998 164.427 12.3327C164.146 10.7655 163.647 10.6036 163.647 10.6036C163.647 10.6036 162.56 9.99239 162.201 10.6036C161.843 11.2148 160.75 13.0745 160.75 13.0745L159.164 11.0685C159.164 11.0685 154.655 10.6819 154.707 10.0603C154.759 9.43866 155.747 6.31479 155.467 5.97524C155.186 5.63569 149.84 5.88121 147.099 7.70434Z" fill="white" stroke="#263238" stroke-linecap="round" stroke-linejoin="round"/>
<path d="M153.21 15.211C153.418 15.7333 153.376 16.2557 153.116 16.3498C152.856 16.4438 152.476 16.1147 152.263 15.5923C152.05 15.0699 152.097 14.5475 152.357 14.4587C152.617 14.3699 152.996 14.6886 153.21 15.211Z" fill="#263238"/>
<path d="M149.491 14.6102C149.491 14.6102 150.999 17.8124 151.915 18.0632C152.83 18.3139 155.425 17.7654 155.758 16.8564C156.091 15.9475 155.175 12.7139 155.175 12.7139L149.491 14.6102Z" stroke="#263238" stroke-linecap="round" stroke-linejoin="round"/>
<path d="M155.175 12.714L162.248 10.567" stroke="#263238" stroke-linecap="round" stroke-linejoin="round"/>
<path d="M149.491 14.6102L145.003 16.4438C145.003 16.4438 146.017 18.4968 147.738 18.2147" stroke="#263238" stroke-linecap="round" stroke-linejoin="round"/>
<path d="M153.557 20.8475C153.557 20.8475 156.043 20.5498 156.579 18.2931" stroke="#263238" stroke-linecap="round" stroke-linejoin="round"/>
<path d="M155.394 25.5385C155.394 25.5385 159.143 22.9527 159.601 22.5661C160.059 22.1796 160.522 20.7639 160.522 20.7639C160.522 20.7639 160.002 25.0736 159.648 25.9878C159.294 26.9019 158.894 27.884 158.894 27.884L155.394 25.5385Z" fill="#263238" stroke="#263238" stroke-linecap="round" stroke-linejoin="round"/>
<path d="M163.746 15.9893C163.746 15.9893 163.168 17.5826 162.227 17.6714" stroke="#263238" stroke-linecap="round" stroke-linejoin="round"/>
<path d="M150.885 13.1946C151.192 12.729 151.636 12.3715 152.156 12.172C152.675 11.9725 153.243 11.941 153.782 12.0819" stroke="#263238" stroke-linecap="round" stroke-linejoin="round"/>
<path d="M107.164 88.1099L108.313 85.0748L110.706 82.8025C110.706 82.8025 111.538 81.2823 112.042 81.5905C112.547 81.8987 112.25 82.2278 112.042 82.8286C111.663 83.4694 111.197 84.0547 110.659 84.5681C110.659 84.5681 115.339 81.4338 115.599 81.3659C115.859 81.298 116.64 81.8047 116.223 82.3062C115.807 82.8077 112.656 84.9181 112.656 84.9181L117.784 82.6144C117.784 82.6144 118.194 83.9778 117.638 84.2808C117.082 84.5838 114.19 86.5532 114.19 86.5532C114.19 86.5532 116.442 85.9472 117.082 85.6495C117.721 85.3517 117.992 86.3495 117.524 86.6629C117.056 86.9763 114.174 88.7524 114.174 88.7524C114.174 88.7524 116.962 88.1047 116.842 88.4495C116.723 88.7942 116.79 89.0659 115.984 89.2592C115.178 89.4524 111.964 90.9465 111.964 90.9465L107.539 92.2472L107.164 88.1099Z" fill="white" stroke="#263238" stroke-linecap="round" stroke-linejoin="round"/>
<path d="M105.547 89.1756L107.169 88.1099L109.099 92.336L106.79 93.7778L105.547 89.1756Z" fill="white" stroke="#263238" stroke-linecap="round" stroke-linejoin="round"/>
<path d="M44.8661 127.905C44.8661 127.905 45.3186 133.453 45.2718 134.007C45.225 134.561 47.612 137.105 48.2257 137.528C48.8394 137.951 51.034 137.303 51.034 137.303C51.034 137.303 53.447 134.059 53.2494 133.124C53.1511 132.582 52.8634 132.093 52.4381 131.745L49.4582 128.94L48.5065 127.754L44.8661 127.905Z" fill="white" stroke="#263238" stroke-linecap="round" stroke-linejoin="round"/>
<path d="M49.0684 134.242L47.8359 135.626C47.8359 135.626 48.4079 136.519 48.98 136.378L49.5469 136.243" stroke="#263238" stroke-linecap="round" stroke-linejoin="round"/>
<path d="M48.5069 127.754C48.5069 127.754 51.6272 130.538 52.2461 130.778C52.506 130.897 52.7233 131.093 52.8685 131.339C53.0136 131.586 53.0796 131.872 53.0574 132.158C52.0898 133.173 51.0467 134.112 49.937 134.968C49.3442 135.386 48.8137 135.057 49.0686 134.242C49.3234 133.427 49.8954 132.152 49.8954 132.152C49.8954 132.152 48.6785 132.231 48.3925 131.275" fill="white"/>
<path d="M48.5069 127.754C48.5069 127.754 51.6272 130.538 52.2461 130.778C52.506 130.897 52.7233 131.093 52.8685 131.339C53.0136 131.586 53.0796 131.872 53.0574 132.158C52.0898 133.173 51.0467 134.112 49.937 134.968C49.3442 135.386 48.8137 135.057 49.0686 134.242C49.3234 133.427 49.8954 132.152 49.8954 132.152C49.8954 132.152 48.6785 132.231 48.3925 131.275" stroke="#263238" stroke-linecap="round" stroke-linejoin="round"/>
<path d="M44.6218 125.366L44.8714 127.905C44.8714 127.905 46.1924 128.767 47.1285 128.663C47.8782 128.508 48.5947 128.222 49.2451 127.816L50.0044 126.066L44.6218 125.366Z" fill="white" stroke="#263238" stroke-linecap="round" stroke-linejoin="round"/>
<path d="M96.9757 163.532C96.9757 163.532 95.2283 169.842 95.2075 171.154C95.2658 172.544 95.3978 173.93 95.6027 175.307C95.6027 175.307 96.1228 175.829 97.4385 175.651C98.3779 175.58 99.2911 175.308 100.117 174.852C100.418 174.596 100.382 172.815 100.382 172.815C100.382 172.815 101.672 173.019 102.587 173.191C103.502 173.363 106.503 172.146 107.668 171.566C108.833 170.986 111.012 169.513 111.308 168.322C111.605 167.131 110.788 166.593 110.43 166.562C110.071 166.531 105.494 166.51 104.485 166.327C103.476 166.144 101.755 164.41 101.687 164.122C101.62 163.835 96.9757 163.532 96.9757 163.532Z" fill="#263238" stroke="#263238" stroke-linecap="round" stroke-linejoin="round"/>
<path d="M72.3617 188.669L72.5801 191.589C72.5801 191.589 74.6604 194.3 75.3052 194.635C75.9501 194.969 77.3231 194.995 77.4375 195.847C77.5519 196.698 77.7963 197.095 77.1202 197.414C76.4442 197.733 73.7451 198.715 72.7154 198.72C71.6857 198.725 69.8031 197.905 69.8031 197.905L69.5222 199.007C68.9188 199.238 68.2743 199.341 67.6292 199.31C66.8794 199.299 66.1357 199.172 65.4242 198.934C65.4242 198.934 64.9769 196.557 65.1798 195.277C65.3826 193.997 66.2199 190.576 66.2199 190.576L66.948 187.546L72.3617 188.669Z" fill="#263238" stroke="#263238" stroke-linecap="round" stroke-linejoin="round"/>
<path d="M61.4042 129.049L63.7705 134.012L70.3491 158.005L66.3863 188.089C66.3863 188.089 67.8685 189.244 69.0698 189.348C70.2711 189.453 73.2562 189.239 73.2562 189.239L80.2406 157.457L81.4107 133.949L99.6542 134.681L96.0138 164.295C96.0138 164.295 98.2865 164.864 99.1342 164.932C100.424 164.877 101.71 164.739 102.983 164.519C102.983 164.519 111.543 127.581 111.798 126.761C111.913 126.514 111.968 126.244 111.959 125.971C111.95 125.699 111.877 125.433 111.746 125.194C111.511 124.703 90.5741 119.636 90.5741 119.636C90.5741 119.636 66.0171 129.446 61.4042 129.049Z" fill="#92E3A9" stroke="#263238" stroke-linecap="round" stroke-linejoin="round"/>
<path d="M81.4264 133.944L70.9629 133.249L80.9635 140.641L81.4264 133.944Z" fill="#263238" stroke="#263238" stroke-linecap="round" stroke-linejoin="round"/>
<path d="M61.4357 80.3368C61.4357 80.3368 55.1951 84.0771 54.7842 85.357C54.3734 86.6368 45.7925 107.611 45.7197 108.483C45.6468 109.355 44.0867 126.322 44.0867 126.322C44.9453 126.66 45.8438 126.885 46.7598 126.991C48.0599 127.101 50.0049 126.066 50.0049 126.066L53.8117 108.305L60.64 99.9106L62.6318 107.318L57.8681 129.922C57.8681 129.922 65.8562 132.252 74.2447 129.922C82.6332 127.592 92.1606 119.511 92.1606 119.511C92.1606 119.511 87.2668 110.317 85.9199 108.446C84.573 106.576 83.408 104.612 83.408 104.612L83.5276 100.673C83.5276 100.673 90.7252 108.42 91.5105 108.159C92.2958 107.898 107.695 93.7621 107.695 93.7621L105.573 89.1913L91.5573 96.1024C91.5573 96.1024 84.5209 80.0338 83.044 79.4697C81.567 78.9055 78.3219 78.5137 78.3219 78.5137C78.3219 78.5137 68.238 76.1003 61.4357 80.3368Z" fill="#92E3A9" stroke="#263238" stroke-linecap="round" stroke-linejoin="round"/>
<path d="M71.649 52.7131C72.273 53.4322 72.8074 54.2252 73.2403 55.0743C74.0464 56.5996 74.2493 58.2451 75.4766 58.8668C76.7039 59.4884 78.4149 59.3892 78.3681 59.969C78.3213 60.5489 77.354 61.8548 77.354 61.8548C77.354 61.8548 78.7737 67.1988 78.4409 68.1234C78.1081 69.0481 73.9216 71.0749 73.9216 71.0749V75.8757L67.7382 76.3719C66.7011 73.7344 65.8495 71.027 65.1899 68.2697C64.4618 64.7802 67.8734 62.7638 67.7902 58.6474C67.707 54.531 68.4194 52.2743 69.2879 52.0914C70.1564 51.9086 71.649 52.7131 71.649 52.7131Z" fill="white" stroke="#263238" stroke-linecap="round" stroke-linejoin="round"/>
<path d="M74.3064 58.9817C74.5144 59.5041 74.4884 60.0265 74.2492 60.1049C74.0099 60.1832 73.6459 59.8541 73.4379 59.3317C73.2299 58.8094 73.2559 58.287 73.4951 58.2034C73.7343 58.1198 74.0984 58.4541 74.3064 58.9817Z" fill="#263238"/>
<path d="M72.5855 57.7593C72.5855 57.7593 72.5023 56.7145 73.506 56.9809" stroke="#263238" stroke-linecap="round" stroke-linejoin="round"/>
<path d="M77.8482 64.0384C77.6425 64.2597 77.3751 64.4134 77.0809 64.4796C76.7868 64.5458 76.4797 64.5213 76.1996 64.4093" stroke="#263238" stroke-linecap="round" stroke-linejoin="round"/>
<path d="M70.8015 54.6929C70.8015 54.6929 72.1641 57.7228 71.4724 59.8071C71.0146 61.1396 70.3907 62.4087 69.6158 63.5839C69.6158 63.5839 68.2481 65.6108 68.4769 66.9167C68.7057 68.2227 70.0787 73.1331 70.4843 73.4257L70.8847 73.7182L71.7428 74.6481C71.7428 74.6481 67.2392 77.4324 62.3298 78.0383C57.4205 78.6443 54.191 77.4219 53.5461 77.0249C53.1248 76.7599 52.7217 76.4666 52.3396 76.1473C52.3396 76.1473 54.8411 71.8219 54.8879 67.2667C54.9347 62.7115 53.5513 59.9533 54.8879 55.9623C56.2244 51.9713 66.4019 49.9288 66.4019 49.9288C66.4019 49.9288 66.8699 48.4243 68.8201 48.5915C70.7703 48.7586 72.7205 52.8698 72.7205 52.8698L70.8015 54.6929Z" fill="#263238" stroke="#263238" stroke-linecap="round" stroke-linejoin="round"/>
<path d="M70.2559 65.0988C70.2559 65.0988 68.7373 62.91 67.9052 64.6391C67.0731 66.3682 69.7358 69.163 71.088 68.3376" fill="white"/>
<path d="M70.2559 65.0988C70.2559 65.0988 68.7373 62.91 67.9052 64.6391C67.0731 66.3682 69.7358 69.163 71.088 68.3376" stroke="#263238" stroke-linecap="round" stroke-linejoin="round"/>
<path d="M68.1961 75.3271C68.1961 75.3271 73.147 74.8779 74.0103 74.951C74.8736 75.0242 76.9434 76.4085 76.9434 76.4085L76.803 78.0435C76.803 78.0435 72.0029 76.7532 69.335 77.2913C66.6671 77.8294 62.8551 79.0152 62.8551 79.0152L63.6196 76.445C63.6196 76.445 66.2251 75.3585 68.1961 75.3271Z" fill="white" stroke="#263238" stroke-linecap="round" stroke-linejoin="round"/>
<path d="M61.436 80.3368L62.3305 78.0383C62.3305 78.0383 68.8572 76.4346 71.4002 76.1525C73.6179 75.9593 75.8459 76.3783 77.8437 77.3644C78.516 77.7316 79.0441 78.3174 79.3414 79.0256C79.3414 79.0256 74.2033 77.8189 69.6788 78.4144C66.8772 78.7937 64.1174 79.4373 61.436 80.3368Z" fill="#92E3A9" stroke="#263238" stroke-linecap="round" stroke-linejoin="round"/>
<path d="M83.5009 100.658L76.9587 94.1644C76.9587 94.1644 75.4921 92.1741 76.319 88.8465" stroke="#263238" stroke-linecap="round" stroke-linejoin="round"/>
<path d="M60.6399 99.8949L56.7915 90.027" stroke="#263238" stroke-linecap="round" stroke-linejoin="round"/>
</svg>
