<svg width="35" height="37" viewBox="0 0 35 37" fill="none" xmlns="http://www.w3.org/2000/svg">
<path d="M30.5052 11.347C30.5267 11.6694 30.5267 11.9919 30.5267 12.3143C30.5267 22.1486 23.5153 33.4801 10.7005 33.4801C6.75255 33.4801 3.08505 32.2594 0 30.1406C0.560936 30.2097 1.10022 30.2327 1.68274 30.2327C4.94031 30.2327 7.9391 29.0581 10.3338 27.0544C7.27032 26.9853 4.70304 24.8434 3.81851 21.8953C4.25002 21.9644 4.68146 22.0105 5.13455 22.0105C5.76017 22.0105 6.38585 21.9183 6.9683 21.7572C3.77541 21.0662 1.38066 18.0721 1.38066 14.4562V14.3641C2.30829 14.9169 3.38706 15.2623 4.53039 15.3084C2.65347 13.9725 1.42382 11.6924 1.42382 9.11291C1.42382 7.73105 1.76894 6.46433 2.37304 5.35881C5.80327 9.87295 10.9594 12.8209 16.7411 13.1434C16.6332 12.5907 16.5685 12.0149 16.5685 11.4391C16.5685 7.33951 19.6751 4 23.5368 4C25.5431 4 27.3553 4.89822 28.6282 6.3492C30.203 6.02677 31.7132 5.4049 33.0508 4.55276C32.5329 6.28015 31.4327 7.73112 29.9873 8.65231C31.3896 8.49117 32.7488 8.07651 34 7.50079C33.0509 8.97473 31.8643 10.2875 30.5052 11.347Z" fill="black"/>
</svg>
