<svg width="36" height="36" viewBox="0 0 36 36" fill="none" xmlns="http://www.w3.org/2000/svg">
<path d="M18.0071 9.7956C13.4658 9.7956 9.80274 13.4587 9.80274 18C9.80274 22.5413 13.4658 26.2044 18.0071 26.2044C22.5485 26.2044 26.2115 22.5413 26.2115 18C26.2115 13.4587 22.5485 9.7956 18.0071 9.7956ZM18.0071 23.3339C15.0724 23.3339 12.6732 20.9419 12.6732 18C12.6732 15.0581 15.0653 12.6661 18.0071 12.6661C20.949 12.6661 23.3411 15.0581 23.3411 18C23.3411 20.9419 20.9419 23.3339 18.0071 23.3339ZM28.4608 9.46C28.4608 10.5239 27.6039 11.3736 26.5471 11.3736C25.4832 11.3736 24.6335 10.5168 24.6335 9.46C24.6335 8.40321 25.4904 7.54636 26.5471 7.54636C27.6039 7.54636 28.4608 8.40321 28.4608 9.46ZM33.8947 11.4022C33.7733 8.83878 33.1878 6.56811 31.3098 4.69731C29.439 2.82651 27.1684 2.24099 24.6049 2.11246C21.963 1.96251 14.0442 1.96251 11.4022 2.11246C8.84592 2.23385 6.57525 2.81937 4.69731 4.69017C2.81937 6.56097 2.24099 8.83164 2.11246 11.3951C1.96251 14.037 1.96251 21.9558 2.11246 24.5978C2.23385 27.1612 2.81937 29.4319 4.69731 31.3027C6.57525 33.1735 8.83878 33.759 11.4022 33.8875C14.0442 34.0375 21.963 34.0375 24.6049 33.8875C27.1684 33.7661 29.439 33.1806 31.3098 31.3027C33.1806 29.4319 33.7662 27.1612 33.8947 24.5978C34.0446 21.9558 34.0446 14.0442 33.8947 11.4022ZM30.4815 27.4326C29.9246 28.8321 28.8464 29.9103 27.4397 30.4744C25.3333 31.3098 20.3349 31.117 18.0071 31.117C15.6793 31.117 10.6739 31.3027 8.57458 30.4744C7.17505 29.9174 6.09684 28.8392 5.53275 27.4326C4.69731 25.3261 4.8901 20.3278 4.8901 18C4.8901 15.6722 4.70445 10.6667 5.53275 8.56744C6.0897 7.16791 7.16791 6.0897 8.57458 5.52561C10.681 4.69017 15.6793 4.88296 18.0071 4.88296C20.3349 4.88296 25.3404 4.69731 27.4397 5.52561C28.8392 6.08256 29.9174 7.16077 30.4815 8.56744C31.317 10.6739 31.1242 15.6722 31.1242 18C31.1242 20.3278 31.317 25.3333 30.4815 27.4326Z" fill="black"/>
</svg>
