<svg width="23" height="40" viewBox="0 0 23 40" fill="none" xmlns="http://www.w3.org/2000/svg">
<path d="M21.8054 33.5328C21.6185 33.5414 21.4336 33.4924 21.2755 33.3923C21.1175 33.2923 20.9941 33.146 20.9219 32.9735C20.8498 32.8009 20.8324 32.6104 20.8722 32.4276C20.912 32.2448 21.0069 32.0788 21.1443 31.9518L21.2068 31.7033C21.1986 31.6834 21.1903 31.6635 21.1819 31.6436C20.9937 31.1991 20.6783 30.82 20.2754 30.5541C19.8724 30.2882 19.3999 30.1473 18.9171 30.1491C18.4343 30.1509 17.9628 30.2953 17.5619 30.5642C17.1609 30.8331 16.8483 31.2145 16.6634 31.6604C15.9244 33.4404 14.9835 35.2233 14.7518 37.1053C14.6498 37.9372 14.6928 38.7805 14.879 39.5976C13.1432 35.8112 12.2419 31.6959 12.2361 27.5306C12.2357 26.4854 12.2938 25.4409 12.41 24.4022C12.5061 23.5506 12.6394 22.7051 12.8098 21.8657C13.7402 17.311 15.7377 13.042 18.6383 9.40923C20.0421 8.64323 21.1775 7.46532 21.8913 6.0342C22.1499 5.51976 22.3326 4.9706 22.4339 4.4038C22.2755 4.42457 21.8368 2.0127 21.9562 1.86472C21.7355 1.52983 21.3405 1.36334 21.0995 1.03654C19.9007 -0.588729 18.2491 -0.304951 17.3869 1.90367C15.5451 2.83326 15.5272 4.37491 16.6574 5.85764C17.3764 6.80096 17.4752 8.07738 18.1061 9.08728C18.0412 9.17037 17.9736 9.25086 17.9088 9.33395C16.7223 10.8596 15.6882 12.4978 14.8213 14.2252C15.0321 12.29 14.7805 10.3325 14.0872 8.51356C13.3845 6.81838 12.0674 5.3907 10.9075 3.92523C9.51434 2.16496 6.65749 2.93316 6.41204 5.16457C6.40965 5.18618 6.40734 5.20779 6.40509 5.22938C6.57736 5.32657 6.746 5.42972 6.91101 5.53885C7.1183 5.67734 7.27891 5.8752 7.37182 6.10654C7.46472 6.33788 7.48558 6.59189 7.43166 6.83529C7.37774 7.07868 7.25154 7.30012 7.06962 7.47057C6.8877 7.64101 6.65853 7.75253 6.41215 7.79051L6.38691 7.79439C6.44828 8.4153 6.55677 9.03065 6.71143 9.63511C5.22347 15.3894 8.43587 17.4853 13.0227 17.5794C13.124 17.6313 13.2227 17.6833 13.3239 17.7326C12.453 20.2008 11.9066 22.7718 11.6987 25.3809C11.581 26.9203 11.5879 28.4666 11.7195 30.0047L11.7117 29.9502C11.3793 28.2398 10.4669 26.6965 9.12846 25.5808C7.14055 23.9478 4.33199 23.3465 2.18737 22.0339C1.95945 21.8876 1.69444 21.8095 1.42359 21.8088C1.15273 21.8081 0.887349 21.885 0.658717 22.0302C0.430086 22.1754 0.247747 22.383 0.133215 22.6284C0.0186828 22.8739 -0.023271 23.1469 0.0123028 23.4154C0.0151794 23.4345 0.0181063 23.4536 0.0210782 23.4728C0.340777 23.603 0.652049 23.753 0.953095 23.9219C1.12537 24.0191 1.29401 24.1223 1.45901 24.2314C1.6663 24.3699 1.82691 24.5677 1.91982 24.7991C2.01272 25.0304 2.03357 25.2844 1.97965 25.5278C1.92572 25.7712 1.79953 25.9926 1.61762 26.1631C1.4357 26.3335 1.20654 26.4451 0.960155 26.483L0.93491 26.4869C0.916743 26.4895 0.901157 26.4921 0.883011 26.4947C1.42926 27.799 2.19593 28.9995 3.14945 30.0437C4.07984 35.067 8.07586 35.5436 12.3503 34.0807H12.3529C12.8219 36.1187 13.5014 38.1025 14.3806 40H21.6239C21.6499 39.9195 21.6732 39.8365 21.6966 39.756C21.0261 39.7981 20.353 39.758 19.6923 39.6366C20.2297 38.9771 20.7671 38.3125 21.3046 37.6531C21.3165 37.6408 21.3278 37.6277 21.3383 37.6141C21.6109 37.2766 21.8861 36.9417 22.1587 36.6042L22.1588 36.6038C22.1734 35.5693 22.0544 34.537 21.8054 33.5328Z" fill="#F2F2F2"/>
</svg>
