<svg width="101" height="187" viewBox="0 0 101 187" fill="none" xmlns="http://www.w3.org/2000/svg">
<path d="M101 17.0674V169.863C100.995 174.388 99.1949 178.726 95.9953 181.926C92.7957 185.125 88.4576 186.925 83.9326 186.93H17.0674C12.5425 186.925 8.20433 185.125 5.00471 181.926C1.80508 178.726 0.00523502 174.388 0 169.863V17.0674C0.00523841 12.5425 1.80508 8.20434 5.00471 5.00472C8.20433 1.80509 12.5425 0.00523841 17.0674 0H25.8111V3.02039C25.8112 4.38777 26.3544 5.69912 27.3213 6.666C28.2882 7.63289 29.5995 8.17611 30.9669 8.17619H70.0331C71.4005 8.17611 72.7118 7.63289 73.6787 6.666C74.6456 5.69912 75.1888 4.38777 75.1889 3.02039V0H83.9326C88.4576 0.00523925 92.7957 1.80509 95.9953 5.00472C99.1949 8.20434 100.995 12.5425 101 17.0674Z" fill="white"/>
</svg>
