<svg width="17" height="39" viewBox="0 0 17 39" fill="none" xmlns="http://www.w3.org/2000/svg">
<path d="M0 1.4188C0 1.4188 2.63516 -2.44195 7.13896 2.57384C11.6428 7.58964 15.0103 30.4874 14.799 31.3093C14.5878 32.1313 13.4001 31.6598 14.812 33.0408C16.2239 34.4218 17.2055 33.4402 16.2239 34.4218C15.2422 35.4035 13.1934 36.3273 14.8722 36.6834C16.5511 37.0396 10.0204 39 10.0204 39C10.0204 39 9.06877 38.6523 9.02858 36.3595C9.006 35.0717 9.66044 34.4173 8.67877 34.09C7.6971 33.7628 8.90422 31.5776 8.801 31.2C8.69777 30.8224 2.48055 14.1341 2.48055 14.1341L0 1.4188Z" fill="#3F3D56"/>
</svg>
