<svg width="97" height="109" viewBox="0 0 97 109" fill="none" xmlns="http://www.w3.org/2000/svg">
<path d="M88.64 0C87.0305 2.86058 85.8053 5.92091 84.996 9.10185C84.1614 12.2685 83.6246 15.5061 83.3924 18.7726L83.343 19.1518C83.7822 18.1126 84.2889 17.1033 84.86 16.1302C85.7875 14.6504 86.9994 13.5374 88.64 14.2464C90.664 15.1244 90.7877 17.9564 88.2278 19.1353C86.684 19.8098 84.9977 20.093 83.3182 19.9598C83.1904 22.6635 83.2235 25.3725 83.4172 28.0723C83.8359 27.0806 84.3178 26.1168 84.86 25.1867C85.7875 23.6986 87.0035 22.5939 88.6441 23.3029C90.664 24.1809 90.7877 27.0129 88.2319 28.1918C86.7428 28.84 85.1202 29.1227 83.4996 29.0163C83.7057 32.1203 83.9819 35.2285 84.0479 38.3531C84.4733 37.3436 84.962 36.3619 85.5112 35.414C86.4346 33.9341 87.6507 32.8211 89.2955 33.5301C91.3153 34.4081 91.439 37.2401 88.8832 38.4191C87.3723 39.0769 85.7247 39.3598 84.0808 39.2435C84.0808 40.6286 84.0808 42.0054 84.0437 43.3946C83.9902 44.4128 83.9242 45.4309 83.8294 46.4533C84.1153 45.8216 84.4388 45.2077 84.7981 44.6147C85.7256 43.1307 86.9417 42.0219 88.5823 42.735C90.6022 43.6089 90.7258 46.445 88.1701 47.624C86.742 48.2434 85.1904 48.5256 83.6356 48.4484C83.2346 51.4135 82.5443 54.3322 81.5745 57.1628C82.0325 56.5836 82.5253 56.033 83.0503 55.5139C84.3323 54.3019 85.7545 53.5146 87.1725 54.6029C88.9203 55.9591 88.3597 58.6921 85.569 59.2404C84.0168 59.4993 82.4258 59.3978 80.9191 58.9436C79.7681 61.8833 78.3307 64.7027 76.6279 67.3611C77.139 67.0107 77.6708 66.6851 78.2149 66.3842C79.7649 65.5597 81.3767 65.2341 82.432 66.681C83.7346 68.4577 82.4031 70.9639 79.5794 70.6754C78.0685 70.5093 76.6144 70.0049 75.3253 69.1996C73.9451 71.1814 72.4503 73.0809 70.8485 74.8883C70.593 75.1727 70.3333 75.4489 70.0736 75.7127C70.0659 75.8179 70.0521 75.9225 70.0323 76.026C70.337 75.8883 70.6494 75.7686 70.9681 75.6674C72.617 75.1027 74.2658 75.012 75.0903 76.6073C76.1044 78.5653 74.406 80.8284 71.6647 80.0864C70.2885 79.7016 69.0098 79.0285 67.9135 78.1119L67.7156 78.1613C66.4295 79.4282 65.1131 80.6512 63.7666 81.8301C62.7442 82.7082 61.7055 83.5573 60.6213 84.3941C61.7549 85.8905 60.9181 88.1907 58.3541 88.5163C57.2897 88.6363 56.2127 88.5778 55.1676 88.3432C53.0515 89.7503 50.8929 91.0762 48.6916 92.3212C49.0494 92.3839 49.3842 92.5401 49.6622 92.7739C49.9402 93.0078 50.1514 93.3109 50.2745 93.6526C50.7321 94.7862 50.2745 95.7838 49.4748 96.6454C49.3711 97.2347 49.0468 97.7624 48.5679 98.1211C50.1385 98.0304 51.7091 97.8861 53.2838 97.7089C53.2931 96.1599 53.6244 94.6298 54.2566 93.2157C55.4933 90.4909 58.2964 90.3755 59.092 92.3583C59.7433 93.9659 58.6056 95.2891 57.1092 96.3568C56.5384 96.7547 55.9452 97.1194 55.3325 97.4492L57.0515 97.2101C58.5149 97.0081 59.937 96.6866 61.4087 96.4392C61.7632 96.3857 62.1136 96.3073 62.4681 96.2208C62.1888 94.6971 62.228 93.1322 62.5835 91.6245C63.3007 88.7142 66.0173 88.0794 67.1715 89.8767C68.1031 91.3359 67.2457 92.857 65.9761 94.1844C65.4141 94.7512 64.8224 95.2879 64.2035 95.7921L65.7123 95.4293C69.076 94.518 72.3721 93.3733 75.5767 92.0037C75.1061 90.4317 74.9838 88.776 75.2181 87.1519C75.6303 84.1921 78.2809 83.2853 79.6123 84.9548C80.6924 86.311 79.9792 87.9104 78.8539 89.349C78.2419 90.1087 77.5839 90.8301 76.8834 91.5091C78.7096 90.6846 80.5151 89.8313 82.2794 88.8997C83.3924 88.3391 84.4601 87.7001 85.5401 87.0818C84.7867 85.5416 84.3947 83.8498 84.3941 82.1352C84.4312 79.1424 86.9293 77.9016 88.4628 79.3856C89.6994 80.5934 89.2048 82.2918 88.2855 83.8541C87.6733 84.8293 87.0029 85.7667 86.278 86.6613C87.5147 85.9029 88.7224 85.1526 89.9179 84.3323C92.3973 82.6876 94.7634 80.878 96.9999 78.9157C94.8144 80.9457 92.4952 82.8269 90.0581 84.5467C88.9533 85.3711 87.8032 86.109 86.6614 86.8675C87.6292 86.6019 88.6139 86.4022 89.6087 86.2697C91.3442 86.076 92.9683 86.3398 93.43 88.067C93.9948 90.1982 91.8471 92.0491 89.3078 90.7547C87.8492 89.9657 86.6043 88.8339 85.6803 87.4569C84.6374 88.1 83.5944 88.7596 82.5185 89.349C80.8202 90.2999 79.093 91.1944 77.3369 92.0326C78.1747 91.922 79.0188 91.8669 79.8638 91.8677C81.6075 91.9007 83.1616 92.3747 83.4172 94.1555C83.6934 96.3362 81.3561 97.8903 78.9981 96.2826C77.6968 95.3537 76.6333 94.1305 75.8941 92.7128C72.7205 94.1972 69.4462 95.4562 66.0956 96.4805L65.0692 96.7649C65.6477 96.7614 66.2259 96.7931 66.8005 96.8597C68.5277 97.0864 70.0612 97.6842 70.0983 99.4897C70.156 101.687 67.6497 103.002 65.4855 101.167C64.3095 100.136 63.3881 98.8466 62.7937 97.3997C62.4433 97.4945 62.0929 97.5893 61.7384 97.6553C60.2668 97.9521 58.8034 98.319 57.3277 98.5746L56.0663 98.7807C56.5073 98.8755 56.9484 98.9868 57.3771 99.1228C59.026 99.6505 60.4193 100.553 60.1349 102.322C59.7845 104.494 57.0762 105.29 55.2954 103.105C54.377 101.958 53.72 100.624 53.3703 99.197C51.7214 99.4402 50.0437 99.6504 48.3701 99.7906C47.7311 99.8483 47.0922 99.8978 46.4491 99.9431C47.146 100.062 47.8344 100.226 48.5103 100.434C50.1591 100.961 51.5566 101.868 51.268 103.633C50.9176 105.83 48.2093 106.625 46.4244 104.416C45.4266 103.136 44.7521 101.634 44.4581 100.038C43.6337 100.067 42.8381 100.075 42.0178 100.063C41.6839 101.637 39.8247 102.623 37.7966 101.472C36.8227 100.899 35.9553 100.161 35.2326 99.2918C35.0649 99.263 34.9006 99.2174 34.742 99.1558H34.6555C29.7995 101.151 24.8364 102.866 19.8155 104.366C16.6359 105.306 13.4343 106.154 10.2107 106.91C6.97479 107.652 3.76358 108.307 0.412222 108.835L0 105.578C3.14525 105.166 6.3812 104.568 9.55118 103.929C12.7212 103.29 15.9159 102.487 19.0323 101.629C23.204 100.491 27.3427 99.1558 31.3989 97.6883C31.2106 97.5488 31.0303 97.3988 30.8589 97.239C30.6393 97.0414 30.4503 96.8121 30.2983 96.5588L32.2275 95.5282L32.2028 95.4911L32.2398 95.5406L32.3676 95.6766C32.4662 95.7752 32.5708 95.8674 32.6809 95.9528C32.9314 96.1418 33.196 96.3113 33.4724 96.4599L33.8022 96.633C33.3908 95.3589 33.2121 94.0213 33.2745 92.6839C33.4477 89.6953 36.0034 88.5617 37.4627 90.1199C38.654 91.3978 38.0852 93.0343 37.0876 94.5595C36.799 94.9923 36.4775 95.4169 36.1601 95.825L37.4792 95.285C38.7736 94.7368 40.0597 94.1638 41.3293 93.5784C40.8514 92.2205 40.6414 90.7828 40.711 89.3449C40.8759 86.3563 43.4317 85.2227 44.8992 86.7768C46.0905 88.0588 45.5134 89.6953 44.5158 91.2205C44.2273 91.6657 43.9016 92.0944 43.5759 92.5108C44.4911 92.0656 45.4062 91.6121 46.3131 91.1463C46.9809 90.7959 47.6446 90.4373 48.3124 90.0746C49.1822 89.4645 50.0437 88.8379 50.8846 88.166C51.3422 87.8073 51.8039 87.4322 52.2491 87.0612C51.1463 86.2759 50.194 85.2985 49.4378 84.1756C47.7889 81.6776 49.1616 79.2496 51.2639 79.6165C52.9746 79.9133 53.5022 81.5952 53.6218 83.4131C53.6628 84.2372 53.6546 85.0632 53.5971 85.8864C55.4682 84.2384 57.2076 82.4467 58.7993 80.5275C59.7355 79.3803 60.6106 78.1845 61.421 76.9453C60.2123 76.1383 59.1708 75.1053 58.3541 73.9031C56.7052 71.405 58.0779 68.9812 60.1802 69.3439C61.891 69.6448 62.4186 71.3267 62.5381 73.1364C62.5711 73.7927 62.5711 74.4504 62.5381 75.1068C63.2673 73.827 63.9091 72.4994 64.4591 71.133C65.5584 68.3798 66.2285 65.4741 66.446 62.5175C64.9193 62.2418 63.4673 61.6492 62.1836 60.778C59.7103 59.0714 60.0854 56.3053 62.1836 55.8643C63.882 55.5262 64.9909 56.8577 65.77 58.5066C66.062 59.1407 66.3193 59.7903 66.5408 60.4523V60.3946C66.5861 57.2937 66.3098 54.1965 65.7164 51.1526C64.0985 51.1467 62.501 50.791 61.0335 50.1097C58.3294 48.8153 58.2552 46.0328 60.2421 45.2619C61.8662 44.6312 63.1771 45.7937 64.22 47.323C64.6217 47.9117 64.9918 48.5213 65.3289 49.1492C64.6528 45.9586 63.8861 42.7474 63.3543 39.4908V39.4208C61.6733 39.0799 60.0935 38.3563 58.7375 37.3061C56.4084 35.4222 56.9855 32.6933 59.1002 32.4089C60.8151 32.1739 61.8291 33.6043 62.4887 35.2944C62.6741 35.7751 62.8351 36.2649 62.971 36.7619C62.6962 34.5249 62.5382 32.2824 62.4969 30.0345L62.2784 30.0056C62.2681 29.9805 62.2681 29.9524 62.2784 29.9273C60.5768 29.5741 58.9815 28.8272 57.6203 27.7466C55.2913 25.8628 55.8684 23.1339 57.9831 22.8494C59.6979 22.6145 60.712 24.0449 61.3757 25.7556C61.8057 27.0002 62.1662 28.2676 62.4557 29.5522C62.4557 28.7277 62.4557 27.9033 62.4557 27.1036C62.5551 23.3541 62.88 19.614 63.4286 15.9035C62.9351 20.1649 62.7422 24.4557 62.8514 28.7442C63.2304 27.8585 63.6683 26.9991 64.1623 26.1719C65.0857 24.6921 66.3058 23.5791 67.9465 24.2963C69.9664 25.1661 70.0859 28.0063 67.5095 29.177C66.0613 29.8066 64.4859 30.0889 62.9091 30.0015C63.0306 32.7527 63.3321 35.4929 63.8119 38.2047C63.8119 38.2913 63.8449 38.3778 63.8573 38.4644C64.2594 37.5083 64.7248 36.5801 65.2506 35.686C66.1739 34.2061 67.3859 33.0932 69.0348 33.8022C71.0505 34.6802 71.1742 37.5122 68.5937 38.6911C67.1657 39.311 65.614 39.5932 64.0592 39.5156C64.6858 42.7391 65.5515 45.8885 66.31 49.1327C66.3512 49.2893 66.38 49.4501 66.4213 49.6067C66.5704 48.7519 66.7756 47.9078 67.0355 47.0798C67.5837 45.4309 68.5112 44.0541 70.2714 44.3633C72.4397 44.7467 73.2312 47.4714 70.9887 49.2193C69.7362 50.1595 68.2853 50.8011 66.7469 51.0949C67.4138 54.1549 67.7661 57.2752 67.7981 60.407V60.5059C68.0289 59.9102 68.2932 59.3281 68.5896 58.7622C69.414 57.2205 70.527 56.0127 72.2419 56.6063C72.5458 56.7061 72.8271 56.8649 73.0697 57.0735C73.3124 57.2821 73.5115 57.5364 73.6558 57.822C73.8001 58.1075 73.8868 58.4187 73.9108 58.7378C73.9349 59.0568 73.8958 59.3775 73.7959 59.6814C73.7345 59.8665 73.6515 60.0436 73.5486 60.2091C73.9147 60.1773 74.2829 60.2368 74.6204 60.3822C76.2157 61.0541 76.3641 62.7978 76.0673 64.6075C75.9939 65.0814 75.8935 65.5507 75.7663 66.0132C77.3268 63.5933 78.6611 61.035 79.7525 58.3706C78.4212 57.6361 77.2563 56.634 76.3311 55.4273C74.5256 53.0364 75.7457 50.5301 77.8687 50.761C79.5959 50.9506 80.2225 52.583 80.4533 54.405C80.5281 55.0068 80.568 55.6124 80.5728 56.2188C81.4836 53.6298 82.1542 50.9624 82.5762 48.2505C81.0125 47.8667 79.5501 47.1495 78.2891 46.1482C75.9642 44.2644 76.5413 41.5355 78.6519 41.2551C80.3667 41.0202 81.3808 42.4506 82.0486 44.1407C82.3496 44.9488 82.6001 45.7749 82.7988 46.614C82.9431 45.5093 83.0338 44.3963 83.1204 43.2874C83.2028 41.8487 83.244 40.4018 83.2358 38.9673C81.6987 38.5795 80.2613 37.87 79.0188 36.8856C76.6938 35.0059 77.2668 32.2728 79.3815 31.9925C81.0963 31.7576 82.1104 33.188 82.7782 34.8781C82.9383 35.2824 83.076 35.6952 83.1905 36.1147C83.1245 33.6744 82.9843 31.2382 82.873 28.7731C81.238 28.4061 79.7073 27.6732 78.3963 26.6295C76.0673 24.7457 76.6444 22.0209 78.7549 21.7323C80.4698 21.5015 81.4839 22.9319 82.1517 24.6426C82.4058 25.3162 82.6192 26.0045 82.7906 26.7037C82.7617 25.6814 82.7411 24.6426 82.7494 23.6162C82.7494 22.7917 82.8071 21.9673 82.8359 21.1428C82.8359 20.677 82.8813 20.2112 82.9266 19.7454C81.2808 19.3748 79.7386 18.6411 78.4128 17.5977C76.0837 15.7139 76.6609 12.9809 78.7756 12.6964C80.4945 12.4615 81.5045 13.8919 82.1681 15.6026C82.5178 16.558 82.8082 17.5341 83.0379 18.5252C83.3506 15.2957 83.9577 12.1014 84.8517 8.98231C85.7187 5.83628 86.9922 2.81672 88.64 0ZM39.5114 97.0493C39.955 97.0516 40.3912 97.163 40.7815 97.3737C41.1718 97.5843 41.5044 97.8877 41.7498 98.2571C42.6608 98.3066 43.5801 98.319 44.4952 98.3149L44.5694 97.7666C43.8698 97.2695 43.2367 96.6849 42.6856 96.027L42.566 96.093L42.3846 95.7261C41.4283 96.1521 40.4705 96.5931 39.5114 97.0493ZM60.1225 81.6158C59.6279 82.2423 59.1167 82.8538 58.5891 83.4501L58.7581 83.4749C60.0415 82.5185 61.2946 81.5319 62.5175 80.5151C63.375 79.8102 64.22 79.0559 65.0527 78.3221C64.2858 78.227 63.5312 78.0502 62.802 77.7945C61.9834 79.1087 61.0901 80.3749 60.1267 81.5869L60.1225 81.6158ZM64.3561 75.0202C64.5704 74.8182 64.7683 74.608 64.995 74.4266L65.3371 74.1504C65.2547 73.9155 65.1722 73.6764 65.1063 73.4249C64.8672 73.9567 64.6199 74.4843 64.3354 75.0078L64.3561 75.0202ZM71.7389 64.4426C71.3793 63.5937 71.3397 62.6431 71.6276 61.7673C70.3955 62.3356 69.0633 62.655 67.7074 62.7072C67.5963 64.8169 67.2619 66.9089 66.7098 68.9482C66.989 68.8795 67.2793 68.8686 67.5628 68.916C67.8463 68.9635 68.1172 69.0685 68.3587 69.2244C69.8386 70.1395 69.6943 71.8791 69.1378 73.6228V73.7052L69.2244 73.7753C69.3068 73.8536 69.3893 73.9319 69.4635 74.0144C69.5253 73.9484 69.5912 73.8866 69.649 73.8124C71.2903 72.0531 72.8186 70.1917 74.2246 68.2392C73.1443 67.1489 72.3021 65.8463 71.7513 64.4138L71.7389 64.4426Z" fill="#FFC100"/>
</svg>
