<svg width="77" height="140" viewBox="0 0 77 140" fill="none" xmlns="http://www.w3.org/2000/svg">
<path d="M71.7392 0C70.6382 3.14034 69.1264 6.12111 67.243 8.86462C65.3885 11.6163 63.2803 14.1882 60.9459 16.5465L60.6821 16.8143C61.1892 15.7954 61.627 14.7435 61.9926 13.6658C62.5078 11.9761 62.5366 10.3029 60.8964 9.54461C58.8771 8.5885 56.6393 10.3895 57.4635 13.1465C57.9875 14.7719 58.9048 16.2428 60.134 17.4284C58.1599 19.337 56.0737 21.126 53.8863 22.7859C54.3663 21.8039 54.7794 20.7905 55.1227 19.7527C55.6337 18.0548 55.6584 16.361 54.0223 15.611C52.0112 14.6301 49.7858 16.4352 50.61 19.1881C51.1095 20.756 51.9788 22.1808 53.1445 23.3423C50.643 25.2627 48.0879 27.1337 45.6605 29.1696C46.1438 28.1735 46.557 27.1448 46.8968 26.0911C47.4079 24.3932 47.4367 22.6994 45.8047 21.9452C43.7895 20.9973 41.5476 22.7983 42.3718 25.5471C42.8825 27.136 43.7672 28.579 44.9516 29.7548C43.8925 30.6862 42.8416 31.6134 41.8196 32.5613C41.0736 33.2866 40.3442 34.0161 39.6353 34.7744C39.9245 34.1366 40.1737 33.4815 40.3813 32.8127C40.8923 31.1189 40.9294 29.4498 39.2892 28.6915C37.2698 27.7354 35.032 29.5158 35.8562 32.2934C36.337 33.7991 37.1576 35.1739 38.2548 36.3116C36.2584 38.607 34.4903 41.0915 32.9756 43.7297C33.1123 42.9912 33.2058 42.2454 33.2558 41.496C33.3423 39.7239 32.9755 38.1002 31.1952 37.7416C29.0069 37.3048 27.2677 39.5961 28.7225 42.0688C29.5622 43.4244 30.7031 44.5681 32.0565 45.4111C30.5896 48.2465 29.4026 51.2182 28.5123 54.284C28.4389 53.6574 28.3302 53.0355 28.1868 52.4212C27.7746 50.7027 26.9504 49.2438 25.1412 49.4086C22.924 49.6106 21.9061 52.2934 24.012 54.251C25.1377 55.2617 26.4734 56.0105 27.923 56.4434C27.3347 58.8203 26.8874 61.2299 26.5836 63.6596C26.5383 64.0429 26.5012 64.4261 26.46 64.8094C26.3809 64.8845 26.3078 64.9659 26.2416 65.0526L25.8913 64.1212C25.2113 62.4727 24.181 61.1704 22.4254 61.6155C20.2576 62.1554 19.6642 64.9619 22.0503 66.5609C23.2628 67.3519 24.6297 67.8759 26.0602 68.0981C26.0809 68.1636 26.113 68.225 26.155 68.2794C26.0396 70.0955 25.9902 71.9184 26.0067 73.7482C26.0067 75.1123 26.0644 76.4723 26.1385 77.8405C24.2387 77.9806 23.0477 80.1484 24.5189 82.3161C25.1376 83.2183 25.9055 84.0085 26.7897 84.6528C27.1276 87.1997 27.5617 89.7315 28.092 92.2481C27.8067 92.0188 27.4665 91.8681 27.105 91.811C26.7435 91.7539 26.3734 91.7923 26.0314 91.9225C24.861 92.3347 24.3829 93.332 24.284 94.5312C23.9041 95.0055 23.7198 95.607 23.7689 96.2127C22.7674 94.9763 21.8443 93.6575 20.9335 92.3388C22.1076 91.2925 23.052 90.0141 23.7071 88.5844C24.9434 85.8109 23.1713 83.6143 21.1272 84.3314C19.4787 84.9083 19.2067 86.6475 19.4046 88.5185C19.4787 89.2184 19.5943 89.9134 19.7507 90.5996C19.421 90.1051 19.0914 89.6147 18.7699 89.116C17.9457 87.8797 17.2162 86.5568 16.4373 85.2833C16.2406 84.973 16.0604 84.6525 15.8975 84.3231C17.2451 83.5191 18.4113 82.4442 19.3221 81.1663C21.0448 78.6936 19.7343 76.1756 17.5706 76.5053C15.8274 76.7649 15.2504 78.4422 15.0979 80.2967C15.0327 81.1042 15.019 81.9149 15.0567 82.7241L14.3273 81.3229C12.7681 78.1529 11.435 74.8767 10.338 71.5187C11.8772 70.8466 13.2491 69.8433 14.3561 68.5803C16.3343 66.2765 15.2587 63.6596 13.0745 63.7462C11.3188 63.8327 10.577 65.4482 10.2309 67.2739C10.0621 68.2497 9.95469 69.2353 9.9094 70.2246C9.30222 68.3014 8.76234 66.3521 8.28978 64.3767C7.97245 63.1403 7.74579 61.904 7.4944 60.6676C9.17124 60.2137 10.7219 59.382 12.0277 58.2361C14.282 56.2085 13.5525 53.4721 11.3971 53.2908C9.64565 53.1465 8.71839 54.6425 8.10021 56.4146C7.76764 57.5339 7.50204 58.6719 7.30483 59.8228C7.0658 58.3845 6.81029 56.938 6.64544 55.4956C6.23491 52.5061 6.02975 49.4919 6.03139 46.4744C5.93914 49.5007 6.05204 52.5298 6.36932 55.5409C6.48471 56.9256 6.68253 58.3021 6.86387 59.6868C6.4164 58.7808 5.90977 57.9052 5.34727 57.0657C4.32935 55.6151 3.03943 54.5518 1.41157 55.3555C-0.583077 56.3487 -0.562473 59.2252 2.10804 60.2802C3.70061 60.8439 5.40655 61.0108 7.07816 60.7665C7.2801 62.0029 7.49028 63.2392 7.74991 64.4426C8.15104 66.3658 8.6181 68.289 9.15111 70.2122C8.67614 69.504 8.16011 68.8243 7.60567 68.1764C6.41053 66.87 4.98873 65.9716 3.48451 66.9977C1.62586 68.2341 2.02562 71.0859 4.82388 71.8113C6.39602 72.1754 8.03138 72.1684 9.60032 71.7907C10.5998 75.1984 11.8392 78.5311 13.3094 81.7639L13.775 82.7323C13.3851 82.2921 12.9724 81.8726 12.5387 81.4754C11.2241 80.2967 9.72395 79.559 8.32275 80.7171C6.60423 82.1389 7.28834 84.9289 10.1319 85.3534C11.7038 85.5594 13.3019 85.3986 14.8012 84.8836C14.9661 85.2174 15.1309 85.543 15.3164 85.8603C16.0664 87.175 16.7711 88.5432 17.5665 89.8331C17.7891 90.204 18.024 90.5708 18.2548 90.9417C17.888 90.6638 17.5069 90.4052 17.1132 90.1669C15.6007 89.252 13.9852 88.8069 12.8231 90.1669C11.4013 91.8937 12.5923 94.5065 15.4688 94.3829C16.9475 94.3085 18.392 93.9119 19.7013 93.2207C20.6244 94.6507 21.5805 96.0561 22.5861 97.449C22.9707 97.971 23.3595 98.4903 23.7524 99.0068C23.1952 98.5601 22.6117 98.1472 22.005 97.7705C20.4925 96.8556 18.877 96.4105 17.7149 97.7705C16.2931 99.4931 17.4841 102.11 20.3648 101.986C22.0056 101.887 23.599 101.398 25.0135 100.56C25.5368 101.191 26.0726 101.817 26.6248 102.431C25.6481 103.746 26.1385 105.803 28.3804 106.594C29.4693 106.956 30.6128 107.126 31.7598 107.097C31.904 107.196 32.0442 107.29 32.1967 107.381L32.2667 107.43C34.0086 112.458 35.9977 117.39 38.2342 122.225C39.6408 125.275 41.1341 128.281 42.7139 131.243C44.3129 134.21 45.949 137.111 47.8076 140L50.5647 138.141C48.7678 135.467 47.0658 132.603 45.4462 129.742C43.8266 126.882 42.3059 123.944 40.8593 120.985C38.943 117.033 37.175 113.015 35.5884 108.918C35.8233 108.955 36.0335 109.013 36.289 109.029C36.5869 109.063 36.8881 109.053 37.1833 109.001L36.6846 106.837L36.6269 106.862H36.4373C36.3178 106.862 36.1571 106.816 36.0252 106.804C35.7122 106.741 35.4048 106.653 35.1062 106.54L34.7518 106.4C36.0014 105.869 37.1417 105.11 38.1146 104.162C40.2824 102.032 39.4293 99.3365 37.2657 99.2582C35.5101 99.1964 34.6323 100.738 34.1295 102.526C33.9894 103.033 33.8781 103.561 33.7833 104.08C33.6061 103.614 33.4412 103.177 33.3135 102.708C32.8684 101.356 32.4439 99.9973 32.04 98.6318C33.396 98.0901 34.6334 97.2894 35.6831 96.2745C37.8426 94.1438 36.9937 91.4486 34.8342 91.3662C33.0745 91.3044 32.2008 92.8457 31.698 94.6343C31.5531 95.1568 31.4348 95.6864 31.3436 96.2209C31.0716 95.2195 30.8037 94.2221 30.5523 93.2207C30.371 92.4748 30.1979 91.7247 30.0372 90.9788C29.9135 89.9073 29.8229 88.8317 29.7528 87.7519C29.7239 87.1585 29.6951 86.5691 29.6786 85.9716C31.0097 86.2917 32.3878 86.3685 33.7462 86.1982C36.7547 85.7861 37.6902 83.1239 36.0005 81.7597C34.6364 80.6512 33.0126 81.3682 31.5331 82.5016C30.8779 83.0244 30.2532 83.5844 29.6621 84.1789C29.6645 81.638 29.8657 79.1013 30.2638 76.5918C30.5114 75.1193 30.8374 73.6611 31.2405 72.2234C32.6636 72.6049 34.1471 72.7071 35.609 72.5242C38.6174 72.1121 39.5488 69.4498 37.8632 68.0857C36.4991 67.0019 34.8672 67.6736 33.3959 68.8275C32.8723 69.2366 32.3715 69.6741 31.8958 70.1381C32.3816 68.726 32.9641 67.349 33.6391 66.0169C35.0019 63.3355 36.7669 60.8783 38.8729 58.7307C40.1077 59.7115 41.5339 60.4232 43.06 60.8201C45.9984 61.5619 47.8571 59.4313 46.8103 57.5232C45.9448 55.9901 44.1727 56.0437 42.3759 56.5341C41.6985 56.732 41.0326 56.9672 40.3813 57.2388H40.4307C42.7626 55.1276 45.3065 53.2632 48.0219 51.6753C49.1066 52.9101 50.4467 53.8944 51.9494 54.5601C54.7394 55.7552 56.9154 53.9501 56.1694 51.9102C55.5513 50.2617 53.7998 50.0309 51.9576 50.2617C51.2348 50.3592 50.518 50.4968 49.8105 50.6738C52.6953 49.0542 55.6543 47.4882 58.4897 45.7284L58.5556 45.7037C59.9573 46.7461 61.5805 47.4512 63.2991 47.7643C66.291 48.2835 67.9601 46.0169 66.7897 44.216C65.8171 42.7488 64.0491 42.9384 62.2976 43.5772C61.8072 43.7585 61.325 43.9893 60.8593 44.1912C62.7414 42.9108 64.5571 41.5353 66.2993 40.0701L66.4682 40.2225L66.4971 40.1484C67.9058 41.2082 69.5429 41.9237 71.2776 42.2378C74.2737 42.7571 75.9345 40.4904 74.7683 38.6895C73.7915 37.2223 72.0318 37.4119 70.2762 38.0466C69.0417 38.5501 67.8364 39.1225 66.666 39.761C67.2925 39.2211 67.9024 38.673 68.5206 38.1125C71.3129 35.5258 73.9469 32.7734 76.4085 29.8702C73.5136 33.134 70.3857 36.1834 67.0493 38.9944C67.4783 38.116 67.8486 37.2101 68.1579 36.2827C68.6689 34.5848 68.6937 32.891 67.0617 32.1616C65.0423 31.2054 62.8045 32.9858 63.6288 35.7635C64.1157 37.2877 64.9511 38.6775 66.0685 39.8228C63.8895 41.5682 61.5987 43.1692 59.2109 44.6157L58.9801 44.7558C59.4412 43.8112 59.8377 42.8363 60.167 41.838C60.6739 40.1401 60.711 38.4711 59.0707 37.7169C57.0514 36.7649 54.8136 38.5658 55.6419 41.3188C56.1187 42.8252 56.9383 44.2006 58.0363 45.3369C55.1515 47.0183 52.1678 48.4896 49.1841 50.068L48.739 50.3029C49.2949 49.6174 49.803 48.8945 50.2597 48.1393C51.1499 46.6062 51.5744 44.9866 50.1567 43.8533C48.4175 42.4603 45.8377 43.6802 45.9819 46.5609C46.1002 48.1435 46.5811 49.6777 47.3873 51.0447C44.622 52.5431 42.0164 54.3188 39.6106 56.3445L39.5323 56.4187C39.8378 55.8484 40.1129 55.2624 40.3565 54.6631C40.9912 53.0146 41.1519 51.3456 39.5694 50.4513C39.2883 50.2886 38.9778 50.1828 38.6558 50.1401C38.3338 50.0974 38.0066 50.1186 37.6927 50.2024C37.3789 50.2862 37.0847 50.431 36.8268 50.6286C36.569 50.8262 36.3526 51.0726 36.1901 51.3538C36.1 51.5139 36.0255 51.6823 35.9675 51.8566C35.748 51.5579 35.4577 51.3186 35.1227 51.1601C33.536 50.3895 32.1142 51.4445 30.9273 52.8786C30.6179 53.2528 30.329 53.6435 30.0619 54.049C30.8524 51.2346 31.9038 48.5001 33.2022 45.8809C34.6547 46.3974 36.197 46.6133 37.7355 46.5156C40.7604 46.293 41.8567 43.6843 40.2618 42.2296C38.9636 41.0344 37.2945 41.6485 35.7532 42.687C35.2407 43.0345 34.7469 43.4086 34.2737 43.808C35.6412 41.3759 37.2335 39.0773 39.0295 36.9421C40.3651 37.8775 41.888 38.5117 43.4928 38.8007C46.4888 39.32 48.1497 37.0534 46.9793 35.2524C46.0108 33.7853 44.2469 33.9749 42.4872 34.6178C41.665 34.9313 40.8626 35.2946 40.0846 35.7058C40.8428 34.8815 41.6011 34.0573 42.3924 33.2331C43.4254 32.211 44.4969 31.2164 45.6069 30.2493C46.9282 31.1567 48.427 31.7733 50.0042 32.0585C53.0003 32.5695 54.6652 30.307 53.4907 28.5061C52.5222 27.0389 50.7584 27.2285 49.0028 27.8673C48.5906 28.0157 48.1862 28.1849 47.7911 28.3742C49.691 26.7958 51.6444 25.271 53.5896 23.7214C54.964 24.7183 56.5438 25.3955 58.2136 25.7037C61.2096 26.2188 62.8705 23.9522 61.7042 22.1513C60.7316 20.6882 58.9677 20.8778 57.2121 21.5125C56.5323 21.773 55.8665 22.0688 55.2175 22.3985C56.0417 21.735 56.8412 21.0591 57.6036 20.3668C58.23 19.8228 58.8152 19.2211 59.4128 18.6235C59.759 18.3021 60.0969 17.9641 60.4225 17.6221C61.8045 18.6184 63.3911 19.2941 65.067 19.6002C68.0631 20.1113 69.7528 17.8405 68.5618 16.0437C67.5851 14.5766 65.8212 14.7661 64.0697 15.409C63.1049 15.7833 62.1648 16.2182 61.255 16.7113C63.5105 14.3163 65.5425 11.7202 67.3254 8.95529C69.1854 6.17804 70.6696 3.16679 71.7392 0ZM30.6759 102.32C30.3785 101.984 30.0031 101.727 29.5827 101.57C29.1623 101.413 28.7098 101.362 28.2651 101.422C27.6098 100.758 26.9834 100.07 26.3693 99.3612L26.7814 98.9491C27.6289 99.1505 28.4987 99.242 29.3695 99.2211L29.4149 99.3489L29.827 99.2335C30.0784 100.268 30.3627 101.298 30.6759 102.32ZM28.636 76.2786C28.4876 77.0699 28.3681 77.8694 28.2609 78.6689L28.1291 78.5494C27.9889 76.938 27.9024 75.3225 27.8529 73.7029C27.8241 72.5737 27.8241 71.4404 27.8529 70.307C28.4382 70.8288 29.078 71.2862 29.761 71.6711C29.3007 73.1843 28.9278 74.7226 28.6442 76.2786H28.636ZM30.8284 68.6503C30.8284 68.3495 30.8531 68.0569 30.8531 67.756C30.8531 67.6077 30.8531 67.4593 30.8531 67.311C31.0957 67.2281 31.3314 67.1261 31.5579 67.006C31.2982 67.55 31.0633 68.0981 30.8408 68.6545L30.8284 68.6503ZM33.9481 55.9324C34.8349 55.6383 35.5856 55.0339 36.0623 54.2304C36.4451 55.5506 37.0883 56.7809 37.9539 57.8488C36.4375 59.343 35.0786 60.9891 33.8987 62.7612C33.764 62.5082 33.5796 62.2851 33.3565 62.1052C33.1334 61.9254 32.8763 61.7924 32.6005 61.7144C30.9191 61.1993 29.691 62.4562 28.6978 64.0676L28.6607 64.1459L28.5494 64.1253C28.4356 64.1149 28.3211 64.1149 28.2074 64.1253C28.2074 64.0305 28.2074 63.9357 28.2362 63.8492C28.4992 61.4152 28.9121 58.9997 29.4726 56.6165C30.9967 56.6939 32.5207 56.4612 33.9523 55.9324H33.9481Z" fill="#FFC100"/>
</svg>
