<svg width="42" height="8" viewBox="0 0 42 8" fill="none" xmlns="http://www.w3.org/2000/svg">
<path d="M0 7.32737V0H2.61181C3.18187 0 3.65415 0.103757 4.02862 0.31127C4.4031 0.518784 4.68337 0.802624 4.86941 1.16279C5.05546 1.52057 5.14848 1.92367 5.14848 2.37209C5.14848 2.8229 5.05427 3.22839 4.86583 3.58855C4.67979 3.94633 4.39833 4.23018 4.02147 4.44007C3.64699 4.64759 3.17591 4.75134 2.60823 4.75134H0.812165V3.81396H2.50805C2.86822 3.81396 3.16041 3.75194 3.38462 3.62791C3.60883 3.50149 3.77341 3.32976 3.87836 3.1127C3.98331 2.89565 4.03578 2.64878 4.03578 2.37209C4.03578 2.09541 3.98331 1.84973 3.87836 1.63506C3.77341 1.42039 3.60763 1.25224 3.38104 1.13059C3.15683 1.00895 2.86106 0.948122 2.49374 0.948122H1.10555V7.32737H0Z" fill="white"/>
<path d="M6.35868 7.32737V1.83184H7.39267V2.70483H7.44991C7.55009 2.40907 7.7266 2.17651 7.97943 2.00716C8.23465 1.83542 8.52326 1.74955 8.84526 1.74955C8.91205 1.74955 8.99076 1.75194 9.0814 1.75671C9.17442 1.76148 9.24717 1.76744 9.29965 1.7746V2.79785C9.25671 2.78593 9.18039 2.77281 9.07067 2.7585C8.96095 2.7418 8.85123 2.73345 8.74151 2.73345C8.48868 2.73345 8.26327 2.78712 8.0653 2.89446C7.86971 2.99941 7.71467 3.1461 7.60018 3.33453C7.48569 3.52057 7.42845 3.73286 7.42845 3.97138V7.32737H6.35868Z" fill="white"/>
<path d="M12.3435 7.43829C11.8283 7.43829 11.3787 7.32022 10.9946 7.08408C10.6106 6.84795 10.3125 6.51759 10.1002 6.09303C9.8879 5.66846 9.78176 5.17233 9.78176 4.60465C9.78176 4.03459 9.8879 3.53608 10.1002 3.10913C10.3125 2.68217 10.6106 2.35063 10.9946 2.11449C11.3787 1.87836 11.8283 1.76029 12.3435 1.76029C12.8587 1.76029 13.3083 1.87836 13.6923 2.11449C14.0763 2.35063 14.3745 2.68217 14.5868 3.10913C14.7991 3.53608 14.9052 4.03459 14.9052 4.60465C14.9052 5.17233 14.7991 5.66846 14.5868 6.09303C14.3745 6.51759 14.0763 6.84795 13.6923 7.08408C13.3083 7.32022 12.8587 7.43829 12.3435 7.43829ZM12.3471 6.54025C12.681 6.54025 12.9577 6.452 13.1771 6.2755C13.3965 6.09899 13.5587 5.86405 13.6637 5.57067C13.771 5.27728 13.8247 4.95409 13.8247 4.60108C13.8247 4.25045 13.771 3.92845 13.6637 3.63506C13.5587 3.3393 13.3965 3.10197 13.1771 2.92308C12.9577 2.74419 12.681 2.65474 12.3471 2.65474C12.0107 2.65474 11.7317 2.74419 11.5098 2.92308C11.2904 3.10197 11.127 3.3393 11.0197 3.63506C10.9147 3.92845 10.8623 4.25045 10.8623 4.60108C10.8623 4.95409 10.9147 5.27728 11.0197 5.57067C11.127 5.86405 11.2904 6.09899 11.5098 6.2755C11.7317 6.452 12.0107 6.54025 12.3471 6.54025Z" fill="white"/>
<path d="M18.1565 7.43471C17.7129 7.43471 17.3169 7.32141 16.9687 7.09482C16.6228 6.86584 16.3509 6.54025 16.153 6.11807C15.9574 5.6935 15.8596 5.18426 15.8596 4.59034C15.8596 3.99642 15.9586 3.48837 16.1565 3.06619C16.3569 2.64401 16.6312 2.32081 16.9794 2.0966C17.3277 1.87239 17.7224 1.76029 18.1637 1.76029C18.5048 1.76029 18.7791 1.81753 18.9866 1.93202C19.1965 2.04413 19.3587 2.17531 19.4732 2.32558C19.5901 2.47585 19.6807 2.60823 19.7451 2.72272H19.8095V0H20.8793V7.32737H19.8345V6.47228H19.7451C19.6807 6.58915 19.5877 6.72272 19.466 6.87299C19.3468 7.02326 19.1822 7.15445 18.9723 7.26655C18.7624 7.37866 18.4905 7.43471 18.1565 7.43471ZM18.3927 6.52237C18.7004 6.52237 18.9604 6.44127 19.1726 6.27907C19.3873 6.11449 19.5495 5.88671 19.6592 5.59571C19.7713 5.30471 19.8274 4.96601 19.8274 4.57961C19.8274 4.19797 19.7725 3.86404 19.6628 3.57782C19.5531 3.29159 19.3921 3.06858 19.1798 2.90877C18.9675 2.74896 18.7051 2.66905 18.3927 2.66905C18.0707 2.66905 17.8023 2.75254 17.5877 2.9195C17.373 3.08647 17.2108 3.31425 17.1011 3.60286C16.9937 3.89148 16.9401 4.21706 16.9401 4.57961C16.9401 4.94693 16.9949 5.27728 17.1047 5.57067C17.2144 5.86405 17.3766 6.0966 17.5912 6.26834C17.8083 6.43769 18.0754 6.52237 18.3927 6.52237Z" fill="white"/>
<path d="M25.8873 5.0483V1.83184H26.9607V7.32737H25.9088V6.37567H25.8515C25.7251 6.66906 25.5224 6.91354 25.2433 7.10913C24.9666 7.30233 24.622 7.39893 24.2093 7.39893C23.8563 7.39893 23.5438 7.32141 23.2719 7.16637C23.0024 7.00895 22.7901 6.77639 22.6351 6.4687C22.4824 6.16101 22.4061 5.78056 22.4061 5.32737V1.83184H23.4759V5.19857C23.4759 5.57305 23.5796 5.8712 23.7871 6.09303C23.9946 6.31485 24.2642 6.42576 24.5957 6.42576C24.7961 6.42576 24.9952 6.37567 25.1932 6.2755C25.3936 6.17532 25.5593 6.02386 25.6905 5.82111C25.8241 5.61837 25.8897 5.36077 25.8873 5.0483Z" fill="white"/>
<path d="M30.7129 7.43829C30.181 7.43829 29.723 7.31783 29.339 7.07693C28.9574 6.83364 28.664 6.49851 28.4589 6.07156C28.2537 5.64461 28.1512 5.15564 28.1512 4.60465C28.1512 4.04651 28.2561 3.55397 28.466 3.12701C28.6759 2.69768 28.9717 2.36255 29.3533 2.12165C29.735 1.88074 30.1846 1.76029 30.7022 1.76029C31.1196 1.76029 31.4917 1.83781 31.8184 1.99285C32.1452 2.1455 32.4088 2.36017 32.6091 2.63685C32.8119 2.91354 32.9323 3.23673 32.9705 3.60644H31.9294C31.8721 3.34884 31.7409 3.12701 31.5358 2.94097C31.3331 2.75492 31.0611 2.6619 30.7201 2.6619C30.4219 2.6619 30.1607 2.74061 29.9365 2.89803C29.7147 3.05307 29.5418 3.2749 29.4177 3.56351C29.2937 3.84973 29.2317 4.18843 29.2317 4.57961C29.2317 4.98032 29.2925 5.32618 29.4141 5.61718C29.5358 5.90817 29.7075 6.13358 29.9294 6.29338C30.1536 6.45319 30.4171 6.5331 30.7201 6.5331C30.9228 6.5331 31.1065 6.49613 31.271 6.42219C31.438 6.34586 31.5775 6.23733 31.6896 6.0966C31.8041 5.95588 31.884 5.78653 31.9294 5.58855H32.9705C32.9323 5.94395 32.8167 6.26118 32.6235 6.54025C32.4303 6.81932 32.1715 7.03876 31.8471 7.19857C31.5251 7.35838 31.147 7.43829 30.7129 7.43829Z" fill="white"/>
<path d="M36.6798 1.83184V2.69052H33.678V1.83184H36.6798ZM34.483 0.515206H35.5528V5.71378C35.5528 5.92129 35.5838 6.07752 35.6458 6.18247C35.7078 6.28504 35.7877 6.3554 35.8855 6.39356C35.9857 6.42934 36.0942 6.44723 36.2111 6.44723C36.297 6.44723 36.3721 6.44127 36.4365 6.42934C36.5009 6.41742 36.551 6.40787 36.5868 6.40072L36.78 7.28444C36.718 7.30829 36.6297 7.33214 36.5152 7.356C36.4007 7.38223 36.2576 7.39655 36.0859 7.39893C35.8044 7.4037 35.5421 7.35361 35.2988 7.24866C35.0555 7.14371 34.8587 6.98152 34.7084 6.76208C34.5582 6.54264 34.483 6.26715 34.483 5.9356V0.515206Z" fill="white"/>
<path d="M41.8927 3.17353L40.9231 3.34526C40.8826 3.22123 40.8181 3.10316 40.7299 2.99106C40.644 2.87895 40.5272 2.78712 40.3793 2.71556C40.2314 2.64401 40.0465 2.60823 39.8247 2.60823C39.5218 2.60823 39.269 2.67621 39.0662 2.81217C38.8635 2.94574 38.7621 3.11867 38.7621 3.33095C38.7621 3.51461 38.8301 3.66249 38.966 3.7746C39.102 3.8867 39.3214 3.97854 39.6243 4.05009L40.4973 4.25045C41.003 4.36733 41.3799 4.54741 41.6279 4.7907C41.876 5.03399 42 5.35003 42 5.73882C42 6.06798 41.9046 6.36136 41.7138 6.61897C41.5254 6.87418 41.2618 7.07454 40.9231 7.22004C40.5868 7.36554 40.1968 7.43829 39.7532 7.43829C39.1378 7.43829 38.6357 7.3071 38.2469 7.04473C37.8581 6.77997 37.6196 6.4043 37.5313 5.91771L38.5653 5.76029C38.6297 6.02982 38.7621 6.23375 38.9625 6.3721C39.1628 6.50805 39.424 6.57603 39.746 6.57603C40.0966 6.57603 40.3769 6.50328 40.5868 6.35779C40.7967 6.2099 40.9016 6.02982 40.9016 5.81753C40.9016 5.6458 40.8372 5.50149 40.7084 5.38462C40.582 5.26774 40.3876 5.17949 40.1252 5.11986L39.195 4.91592C38.6822 4.79905 38.3029 4.613 38.0573 4.35778C37.814 4.10257 37.6923 3.77937 37.6923 3.3882C37.6923 3.06381 37.783 2.77997 37.9642 2.53667C38.1455 2.29338 38.396 2.10376 38.7156 1.9678C39.0352 1.82946 39.4013 1.76029 39.814 1.76029C40.4079 1.76029 40.8754 1.88909 41.2165 2.14669C41.5576 2.40191 41.783 2.74419 41.8927 3.17353Z" fill="white"/>
</svg>
