<svg width="454" height="51" viewBox="0 0 454 51" fill="none" xmlns="http://www.w3.org/2000/svg">
<path d="M0 12.1909C0 5.45803 5.34902 0 11.9474 0H442.052C448.651 0 454 5.45803 454 12.1909V38.6044C454 45.3372 448.651 50.7952 442.052 50.7952H11.9474C5.34903 50.7952 0 45.3372 0 38.6044V12.1909Z" fill="white"/>
<path d="M1.00106 12.1909C1.00106 5.99177 5.92083 1.00106 11.9474 1.00106H442.052C448.079 1.00106 452.999 5.99177 452.999 12.1909V38.6044C452.999 44.8035 448.079 49.7942 442.052 49.7942H11.9474C5.92084 49.7942 1.00106 44.8035 1.00106 38.6044V12.1909Z" stroke="#07933C" stroke-opacity="0.8" stroke-width="2"/>
</svg>
