<svg width="18" height="15" viewBox="0 0 18 15" fill="none" xmlns="http://www.w3.org/2000/svg">
<path d="M14.1833 15.0001C12.3774 13.5884 14.8461 7.37859 11.8638 8.70406C11.8638 8.70406 8.2187 6.38448 7.48637 7.90878C6.6384 9.67376 3.62262 8.87306 1.77027 8.25009C1.91588 7.91167 2.01937 7.55666 2.07844 7.19302C1.73646 7.46243 1.37418 7.70505 0.994864 7.91872C0.740456 7.78278 0.51527 7.59813 0.332128 7.37528C0.151417 7.16833 0.0383722 6.91104 0.00816212 6.63796C-0.0220479 6.36489 0.032041 6.08911 0.163147 5.84767C0.471319 5.37381 1.10754 5.22801 1.48199 4.80718C1.52526 4.748 1.55351 4.6792 1.56434 4.6067C1.57517 4.53419 1.56826 4.46013 1.54418 4.39089C1.49955 4.22157 1.4928 4.0445 1.52444 3.87228C1.55607 3.70006 1.62531 3.53693 1.72719 3.39452C1.82908 3.25212 1.96111 3.13393 2.1139 3.04838C2.26668 2.96284 2.43645 2.91205 2.61111 2.89962C2.68137 2.90176 2.75109 2.88658 2.81409 2.85541C3.12846 2.66301 3.41878 2.43386 3.67896 2.1728C3.24347 2.19382 2.80701 2.18163 2.37337 2.13634C2.2839 2.1264 2.19443 2.11647 2.10496 2.10321C2.27066 1.71436 2.5184 1.36589 2.83124 1.08164C3.14408 0.797399 3.51464 0.584095 3.91755 0.456313C4.76818 0.199173 5.65344 0.0750959 6.54198 0.0884889C7.0556 0.0719205 7.56923 0.0553541 8.07953 0.0387857C9.16184 -0.0382369 10.2493 -0.000472633 11.3236 0.15145C12.4712 0.360827 13.5585 0.821062 14.5076 1.49928C15.4568 2.1775 16.2445 3.05696 16.8144 4.07485C17.9377 6.11276 19.1538 12.6805 14.1833 15.0001Z" fill="#2F2E41"/>
</svg>
