<svg width="60" height="60" viewBox="0 0 60 60" fill="none" xmlns="http://www.w3.org/2000/svg">
<path fill-rule="evenodd" clip-rule="evenodd" d="M8.9999 29.9999C8.9989 26.6469 9.80082 23.3424 11.3386 20.3627C12.8763 17.3831 15.1052 14.815 17.8388 12.8733C20.5724 10.9315 23.7312 9.67259 27.0511 9.20175C30.3709 8.73092 33.7552 9.06187 36.9209 10.1669C37.6724 10.4287 38.4971 10.3812 39.2136 10.0349C39.9301 9.68866 40.4796 9.07193 40.7414 8.32044C41.0032 7.56895 40.9557 6.74425 40.6094 6.02777C40.2631 5.31129 39.6464 4.76171 38.8949 4.49994C33.3669 2.57137 27.3619 2.4919 21.7848 4.27351C16.2077 6.05512 11.3609 9.60126 7.97478 14.3775C4.58867 19.1537 2.8468 24.9011 3.01169 30.7535C3.17659 36.6059 5.23932 42.2461 8.889 46.8241C12.5387 51.402 17.5775 54.6696 23.246 56.1344C28.9146 57.5992 34.9056 57.1817 40.3162 54.9449C45.7269 52.7081 50.2638 48.7733 53.2433 43.7334C56.2227 38.6935 57.4833 32.8217 56.8349 27.0029C56.7916 26.6113 56.6715 26.2321 56.4816 25.8869C56.2917 25.5417 56.0357 25.2373 55.7282 24.991C55.4206 24.7447 55.0676 24.5615 54.6892 24.4516C54.3108 24.3418 53.9145 24.3076 53.5229 24.3509C53.1313 24.3943 52.7521 24.5143 52.4069 24.7042C52.0617 24.8941 51.7572 25.1501 51.511 25.4577C51.2647 25.7652 51.0814 26.1183 50.9716 26.4967C50.8618 26.875 50.8276 27.2713 50.8709 27.6629C51.1869 30.5006 50.9209 33.3729 50.0892 36.1043C49.2574 38.8357 47.8774 41.3688 46.0335 43.5488C44.1896 45.7288 41.9205 47.5099 39.3649 48.7832C36.8094 50.0565 34.021 50.7952 31.1702 50.9544C28.3194 51.1135 25.4661 50.6896 22.7847 49.7086C20.1033 48.7276 17.6501 47.2101 15.5751 45.2488C13.5 43.2876 11.8467 40.9238 10.7162 38.3019C9.58565 35.68 9.00166 32.8552 8.9999 29.9999ZM53.2499 13.9859C53.7766 13.3892 54.0447 12.6077 53.9952 11.8133C53.9457 11.0189 53.5826 10.2767 52.9859 9.74994C52.3892 9.22322 51.6076 8.95513 50.8132 9.00464C50.0188 9.05415 49.2766 9.4172 48.7499 10.0139L29.4449 31.8539L19.8959 24.0749C19.5906 23.826 19.2392 23.6395 18.8618 23.5264C18.4845 23.4132 18.0885 23.3754 17.6966 23.4152C16.905 23.4957 16.1778 23.8873 15.6749 24.5039C15.4259 24.8093 15.2395 25.1606 15.1263 25.538C15.0131 25.9154 14.9754 26.3113 15.0152 26.7033C15.0957 27.4949 15.4873 28.2221 16.1039 28.7249L27.8909 38.3249C28.4914 38.8135 29.2575 39.051 30.0291 38.9879C30.8006 38.9247 31.5179 38.5657 32.0309 37.9859L53.2499 13.9859Z" fill="#07933C"/>
</svg>
