<svg width="98" height="22" viewBox="0 0 98 22" fill="none" xmlns="http://www.w3.org/2000/svg">
<path d="M1.50478 0C1.72771 0 1.9586 0.0649927 2.19746 0.194978C2.45224 0.308715 2.64332 0.463072 2.77071 0.65805L8.57486 9.77326L7.38059 9.72451L13.3281 0.65805C13.6306 0.21935 14.0207 0 14.4984 0C14.8806 0 15.223 0.138109 15.5255 0.414328C15.8281 0.690546 15.9793 1.048 15.9793 1.4867V15.5982C15.9793 16.0207 15.844 16.3781 15.5733 16.6706C15.3026 16.9468 14.9443 17.0849 14.4984 17.0849C14.0526 17.0849 13.6863 16.9468 13.3997 16.6706C13.129 16.3781 12.9937 16.0207 12.9937 15.5982V4.1189L13.9252 4.33825L9.05257 11.918C8.90926 12.0967 8.72614 12.2511 8.50321 12.3811C8.2962 12.5111 8.08123 12.5679 7.8583 12.5517C7.65129 12.5679 7.43633 12.5111 7.21339 12.3811C7.00639 12.2511 6.83123 12.0967 6.68791 11.918L2.1258 4.5576L2.74682 3.26588V15.5982C2.74682 16.0207 2.61943 16.3781 2.36466 16.6706C2.10988 16.9468 1.77548 17.0849 1.36147 17.0849C0.963378 17.0849 0.636944 16.9468 0.382166 16.6706C0.127389 16.3781 0 16.0207 0 15.5982V1.4867C0 1.0805 0.143313 0.731166 0.429937 0.4387C0.732486 0.146233 1.09077 0 1.50478 0Z" fill="black" fill-opacity="0.5"/>
<path d="M25.3504 17.3286C23.9969 17.3286 22.8186 17.0443 21.8154 16.4756C20.8281 15.8907 20.0638 15.1026 19.5224 14.1115C18.9969 13.1204 18.7342 11.9993 18.7342 10.7481C18.7342 9.28581 19.0208 8.04283 19.5941 7.0192C20.1832 5.97931 20.9476 5.18316 21.8871 4.63072C22.8266 4.07828 23.8218 3.80207 24.8727 3.80207C25.6848 3.80207 26.4492 3.97267 27.1657 4.31388C27.8982 4.65509 28.5431 5.12629 29.1005 5.72747C29.6578 6.3124 30.0957 6.99482 30.4142 7.77473C30.7485 8.55464 30.9157 9.3833 30.9157 10.2607C30.8998 10.6507 30.7485 10.9675 30.4619 11.2112C30.1753 11.4549 29.8409 11.5768 29.4587 11.5768H20.3345L19.6179 9.13958H28.3839L27.8584 9.62702V8.96897C27.8266 8.49778 27.6594 8.07532 27.3568 7.70162C27.0702 7.32791 26.704 7.03544 26.2581 6.82422C25.8282 6.59674 25.3664 6.48301 24.8727 6.48301C24.395 6.48301 23.9492 6.548 23.5352 6.67799C23.1211 6.80797 22.7629 7.02732 22.4603 7.33603C22.1578 7.64475 21.9189 8.05908 21.7438 8.57902C21.5686 9.09896 21.481 9.75701 21.481 10.5532C21.481 11.4306 21.6562 12.178 22.0065 12.7954C22.3727 13.3966 22.8345 13.8597 23.3918 14.1846C23.9651 14.4933 24.5702 14.6477 25.2071 14.6477C25.7963 14.6477 26.2661 14.599 26.6164 14.5015C26.9667 14.404 27.2454 14.2902 27.4524 14.1603C27.6753 14.014 27.8743 13.8922 28.0495 13.7947C28.3361 13.6484 28.6068 13.5753 28.8616 13.5753C29.2119 13.5753 29.4985 13.6972 29.7215 13.9409C29.9603 14.1846 30.0798 14.469 30.0798 14.7939C30.0798 15.2326 29.8568 15.6307 29.411 15.9882C28.997 16.3456 28.4157 16.6625 27.6673 16.9387C26.9189 17.1987 26.1466 17.3286 25.3504 17.3286Z" fill="black" fill-opacity="0.5"/>
<path d="M32.6795 15.062C32.5203 14.8346 32.4486 14.5421 32.4646 14.1846C32.4805 13.8272 32.6875 13.5185 33.0856 13.2585C33.3404 13.096 33.6111 13.031 33.8977 13.0635C34.1843 13.0798 34.463 13.226 34.7337 13.5022C35.1955 13.9734 35.6811 14.339 36.1907 14.599C36.7002 14.8589 37.3372 14.9889 38.1015 14.9889C38.3404 14.9727 38.6031 14.9402 38.8897 14.8914C39.1764 14.8264 39.4232 14.6964 39.6302 14.5015C39.8531 14.2902 39.9646 13.9734 39.9646 13.5509C39.9646 13.1935 39.8452 12.9091 39.6063 12.6979C39.3675 12.4867 39.049 12.308 38.6509 12.1617C38.2687 12.0155 37.8388 11.8774 37.3611 11.7474C36.8674 11.6012 36.3579 11.4387 35.8324 11.26C35.3229 11.0812 34.8531 10.8538 34.4232 10.5775C33.9932 10.2851 33.6429 9.90324 33.3722 9.43205C33.1015 8.96085 32.9662 8.36779 32.9662 7.65287C32.9662 6.84047 33.1891 6.14992 33.635 5.58124C34.0808 5.01255 34.6541 4.57385 35.3547 4.26514C36.0713 3.95642 36.8197 3.80207 37.5999 3.80207C38.0936 3.80207 38.6111 3.86706 39.1525 3.99704C39.6939 4.11078 40.2114 4.30576 40.705 4.58198C41.1987 4.84195 41.6127 5.19128 41.9471 5.62998C42.1222 5.8737 42.2257 6.16617 42.2576 6.50738C42.2894 6.84859 42.1382 7.1573 41.8038 7.43352C41.5649 7.6285 41.2862 7.71787 40.9678 7.70162C40.6493 7.66912 40.3866 7.55538 40.1796 7.36041C39.9089 7.00295 39.5426 6.71861 39.0808 6.50738C38.635 6.29615 38.1174 6.19054 37.5283 6.19054C37.2894 6.19054 37.0267 6.22304 36.7401 6.28803C36.4694 6.33677 36.2305 6.45863 36.0235 6.65361C35.8165 6.83234 35.713 7.12481 35.713 7.53101C35.713 7.90472 35.8324 8.20531 36.0713 8.43278C36.3101 8.64401 36.6286 8.82274 37.0267 8.96897C37.4407 9.09896 37.8786 9.22894 38.3404 9.35893C38.8181 9.48891 39.3038 9.64327 39.7974 9.822C40.291 10.0007 40.7448 10.2363 41.1589 10.5288C41.5729 10.8213 41.9073 11.2031 42.162 11.6743C42.4168 12.1292 42.5442 12.7142 42.5442 13.4291C42.5442 14.2577 42.3054 14.9645 41.8276 15.5495C41.3499 16.1344 40.7528 16.5812 40.0362 16.8899C39.3197 17.1824 38.5872 17.3286 37.8388 17.3286C36.8993 17.3286 35.9598 17.1662 35.0203 16.8412C34.0808 16.5 33.3006 15.9069 32.6795 15.062Z" fill="black" fill-opacity="0.5"/>
<path d="M44.2024 15.062C44.0431 14.8346 43.9715 14.5421 43.9874 14.1846C44.0033 13.8272 44.2103 13.5185 44.6084 13.2585C44.8632 13.096 45.1339 13.031 45.4205 13.0635C45.7072 13.0798 45.9858 13.226 46.2565 13.5022C46.7183 13.9734 47.204 14.339 47.7135 14.599C48.2231 14.8589 48.86 14.9889 49.6244 14.9889C49.8632 14.9727 50.126 14.9402 50.4126 14.8914C50.6992 14.8264 50.946 14.6964 51.153 14.5015C51.376 14.2902 51.4874 13.9734 51.4874 13.5509C51.4874 13.1935 51.368 12.9091 51.1291 12.6979C50.8903 12.4867 50.5718 12.308 50.1737 12.1617C49.7916 12.0155 49.3616 11.8774 48.8839 11.7474C48.3903 11.6012 47.8807 11.4387 47.3553 11.26C46.8457 11.0812 46.376 10.8538 45.946 10.5775C45.5161 10.2851 45.1658 9.90324 44.8951 9.43205C44.6244 8.96085 44.489 8.36779 44.489 7.65287C44.489 6.84047 44.7119 6.14992 45.1578 5.58124C45.6037 5.01255 46.1769 4.57385 46.8775 4.26514C47.5941 3.95642 48.3425 3.80207 49.1228 3.80207C49.6164 3.80207 50.1339 3.86706 50.6753 3.99704C51.2167 4.11078 51.7342 4.30576 52.2279 4.58198C52.7215 4.84195 53.1355 5.19128 53.4699 5.62998C53.6451 5.8737 53.7486 6.16617 53.7804 6.50738C53.8123 6.84859 53.661 7.1573 53.3266 7.43352C53.0878 7.6285 52.8091 7.71787 52.4906 7.70162C52.1721 7.66912 51.9094 7.55538 51.7024 7.36041C51.4317 7.00295 51.0655 6.71861 50.6037 6.50738C50.1578 6.29615 49.6403 6.19054 49.0511 6.19054C48.8123 6.19054 48.5495 6.22304 48.2629 6.28803C47.9922 6.33677 47.7533 6.45863 47.5463 6.65361C47.3393 6.83234 47.2358 7.12481 47.2358 7.53101C47.2358 7.90472 47.3553 8.20531 47.5941 8.43278C47.833 8.64401 48.1514 8.82274 48.5495 8.96897C48.9635 9.09896 49.4014 9.22894 49.8632 9.35893C50.3409 9.48891 50.8266 9.64327 51.3202 9.822C51.8139 10.0007 52.2677 10.2363 52.6817 10.5288C53.0957 10.8213 53.4301 11.2031 53.6849 11.6743C53.9397 12.1292 54.0671 12.7142 54.0671 13.4291C54.0671 14.2577 53.8282 14.9645 53.3505 15.5495C52.8728 16.1344 52.2756 16.5812 51.5591 16.8899C50.8425 17.1824 50.11 17.3286 49.3616 17.3286C48.4221 17.3286 47.4826 17.1662 46.5431 16.8412C45.6037 16.5 44.8234 15.9069 44.2024 15.062Z" fill="black" fill-opacity="0.5"/>
<path d="M67.1141 3.80207C67.5281 3.80207 67.8705 3.94017 68.1412 4.21639C68.4119 4.49261 68.5472 4.85007 68.5472 5.28877V15.5982C68.5472 16.0207 68.4119 16.3781 68.1412 16.6706C67.8705 16.9468 67.5281 17.0849 67.1141 17.0849C66.7001 17.0849 66.3577 16.9468 66.087 16.6706C65.8163 16.3781 65.681 16.0207 65.681 15.5982V14.404L66.2064 14.6233C66.2064 14.8346 66.095 15.0945 65.872 15.4032C65.6491 15.6957 65.3466 15.9882 64.9644 16.2806C64.5822 16.5731 64.1284 16.8249 63.6029 17.0362C63.0934 17.2312 62.536 17.3286 61.9309 17.3286C60.8322 17.3286 59.837 17.0443 58.9453 16.4756C58.0535 15.8907 57.345 15.0945 56.8195 14.0871C56.3099 13.0635 56.0551 11.8936 56.0551 10.5775C56.0551 9.24519 56.3099 8.07533 56.8195 7.06794C57.345 6.04431 58.0456 5.24815 58.9214 4.67946C59.7972 4.09453 60.7685 3.80207 61.8354 3.80207C62.5201 3.80207 63.1491 3.90768 63.7224 4.1189C64.2956 4.33013 64.7892 4.59822 65.2032 4.92319C65.6332 5.24815 65.9596 5.58124 66.1826 5.92245C66.4214 6.24741 66.5408 6.52363 66.5408 6.7511L65.681 7.06794V5.28877C65.681 4.86632 65.8163 4.51698 66.087 4.24076C66.3577 3.9483 66.7001 3.80207 67.1141 3.80207ZM62.2892 14.6477C62.9899 14.6477 63.6029 14.469 64.1284 14.1115C64.6539 13.7541 65.0599 13.2666 65.3466 12.6492C65.6491 12.0317 65.8004 11.3412 65.8004 10.5775C65.8004 9.79763 65.6491 9.09896 65.3466 8.48153C65.0599 7.8641 64.6539 7.37665 64.1284 7.0192C63.6029 6.66174 62.9899 6.48301 62.2892 6.48301C61.6045 6.48301 60.9994 6.66174 60.4739 7.0192C59.9485 7.37665 59.5344 7.8641 59.2319 8.48153C58.9453 9.09896 58.802 9.79763 58.802 10.5775C58.802 11.3412 58.9453 12.0317 59.2319 12.6492C59.5344 13.2666 59.9485 13.7541 60.4739 14.1115C60.9994 14.469 61.6045 14.6477 62.2892 14.6477Z" fill="black" fill-opacity="0.5"/>
<path d="M76.9532 3.80207C77.622 3.80207 78.235 3.90768 78.7924 4.1189C79.3497 4.33013 79.8274 4.59822 80.2255 4.92319C80.6395 5.24815 80.958 5.58124 81.1809 5.92245C81.4198 6.24741 81.5392 6.52363 81.5392 6.7511L80.9182 7.06794V5.28877C80.9182 4.86632 81.0535 4.51698 81.3242 4.24076C81.5949 3.9483 81.9373 3.80207 82.3513 3.80207C82.7653 3.80207 83.1077 3.94017 83.3784 4.21639C83.6491 4.49261 83.7844 4.85007 83.7844 5.28877V16.1344C83.7844 17.548 83.4819 18.6772 82.8768 19.5221C82.2876 20.3833 81.5073 21.0007 80.536 21.3744C79.5647 21.7644 78.5217 21.9594 77.407 21.9594C77.0885 21.9594 76.6745 21.9187 76.165 21.8375C75.6554 21.7563 75.1697 21.6588 74.708 21.545C74.2462 21.4313 73.8959 21.3257 73.657 21.2282C73.1793 21.017 72.8449 20.7489 72.6538 20.4239C72.4787 20.1152 72.4468 19.7821 72.5583 19.4247C72.7016 18.9535 72.9325 18.6285 73.2509 18.4498C73.5694 18.2873 73.9038 18.271 74.2541 18.401C74.4134 18.4498 74.6761 18.5472 75.0424 18.6935C75.4086 18.8397 75.8067 18.9697 76.2366 19.0834C76.6825 19.2134 77.0726 19.2784 77.407 19.2784C78.6013 19.2784 79.485 19.0347 80.0583 18.5473C80.6315 18.0598 80.9182 17.3855 80.9182 16.5244V14.404L81.2048 14.6233C81.2048 14.8346 81.0933 15.0945 80.8704 15.4032C80.6634 15.6957 80.3688 15.9882 79.9866 16.2806C79.6204 16.5731 79.1825 16.8249 78.6729 17.0362C78.1634 17.2312 77.622 17.3286 77.0487 17.3286C75.9182 17.3286 74.8991 17.0443 73.9914 16.4756C73.0838 15.8907 72.3672 15.0945 71.8417 14.0871C71.3162 13.0635 71.0535 11.8936 71.0535 10.5775C71.0535 9.24519 71.3162 8.07533 71.8417 7.06794C72.3672 6.04431 73.0758 5.24815 73.9675 4.67946C74.8592 4.09453 75.8545 3.80207 76.9532 3.80207ZM77.407 6.48301C76.6905 6.48301 76.0615 6.66174 75.5201 7.0192C74.9787 7.37665 74.5567 7.8641 74.2541 8.48153C73.9516 9.09896 73.8003 9.79763 73.8003 10.5775C73.8003 11.3412 73.9516 12.0317 74.2541 12.6492C74.5567 13.2666 74.9787 13.7541 75.5201 14.1115C76.0615 14.469 76.6905 14.6477 77.407 14.6477C78.1395 14.6477 78.7764 14.469 79.3178 14.1115C79.8592 13.7541 80.2812 13.2666 80.5838 12.6492C80.8863 12.0317 81.0376 11.3412 81.0376 10.5775C81.0376 9.79763 80.8863 9.09896 80.5838 8.48153C80.2812 7.8641 79.8592 7.37665 79.3178 7.0192C78.7764 6.66174 78.1395 6.48301 77.407 6.48301Z" fill="black" fill-opacity="0.5"/>
<path d="M92.4349 17.3286C91.0813 17.3286 89.903 17.0443 88.8998 16.4756C87.9125 15.8907 87.1482 15.1026 86.6068 14.1115C86.0813 13.1204 85.8186 11.9993 85.8186 10.7481C85.8186 9.28581 86.1052 8.04283 86.6785 7.0192C87.2676 5.97931 88.032 5.18316 88.9715 4.63072C89.911 4.07828 90.9062 3.80207 91.9571 3.80207C92.7693 3.80207 93.5336 3.97267 94.2501 4.31388C94.9826 4.65509 95.6275 5.12629 96.1849 5.72747C96.7422 6.3124 97.1801 6.99482 97.4986 7.77473C97.833 8.55464 98.0002 9.3833 98.0002 10.2607C97.9842 10.6507 97.833 10.9675 97.5463 11.2112C97.2597 11.4549 96.9253 11.5768 96.5431 11.5768H87.4189L86.7024 9.13958H95.4683L94.9428 9.62702V8.96897C94.911 8.49778 94.7438 8.07532 94.4412 7.70162C94.1546 7.32791 93.7884 7.03544 93.3425 6.82422C92.9126 6.59674 92.4508 6.48301 91.9571 6.48301C91.4794 6.48301 91.0336 6.548 90.6196 6.67799C90.2055 6.80797 89.8473 7.02732 89.5447 7.33603C89.2422 7.64475 89.0033 8.05908 88.8282 8.57902C88.653 9.09896 88.5654 9.75701 88.5654 10.5532C88.5654 11.4306 88.7406 12.178 89.0909 12.7954C89.4571 13.3966 89.9189 13.8597 90.4762 14.1846C91.0495 14.4933 91.6546 14.6477 92.2915 14.6477C92.8807 14.6477 93.3505 14.599 93.7008 14.5015C94.0511 14.404 94.3298 14.2902 94.5368 14.1603C94.7597 14.014 94.9587 13.8922 95.1339 13.7947C95.4205 13.6484 95.6912 13.5753 95.946 13.5753C96.2963 13.5753 96.583 13.6972 96.8059 13.9409C97.0447 14.1846 97.1642 14.469 97.1642 14.7939C97.1642 15.2326 96.9412 15.6307 96.4954 15.9882C96.0814 16.3456 95.5002 16.6625 94.7517 16.9387C94.0033 17.1987 93.231 17.3286 92.4349 17.3286Z" fill="black" fill-opacity="0.5"/>
</svg>
