<svg width="60" height="60" viewBox="0 0 60 60" fill="none" xmlns="http://www.w3.org/2000/svg">
<path fill-rule="evenodd" clip-rule="evenodd" d="M17.5 22.5C17.5 15.5964 23.0964 10 30 10C36.9035 10 42.5 15.5964 42.5 22.5V27.9268C45.413 28.9562 47.5 31.7345 47.5 35V45C47.5 49.1423 44.1423 52.5 40 52.5H20C15.8579 52.5 12.5 49.1423 12.5 45V35C12.5 31.7345 14.587 28.9562 17.5 27.9268V22.5ZM22.5 27.5H37.5V22.5C37.5 18.3579 34.1423 15 30 15C25.8577 15 22.5 18.3579 22.5 22.5V27.5Z" fill="#ED893E"/>
</svg>
