<svg width="6" height="13" viewBox="0 0 6 13" fill="none" xmlns="http://www.w3.org/2000/svg">
<path d="M1.91625 12.4094C1.52982 12.0271 1.30779 11.5092 1.29741 10.9657C1.28703 10.4223 1.48912 9.89625 1.86067 9.49953C1.93747 9.42008 2.02071 9.34713 2.10954 9.28142L0 2.31427L3.15866 0L5.01658 9.85655C5.26056 10.246 5.36876 10.7053 5.32429 11.1627C5.27982 11.62 5.08517 12.0499 4.77074 12.385C4.58999 12.574 4.37379 12.7255 4.13448 12.8309C3.89517 12.9364 3.63742 12.9936 3.37598 12.9995C3.11454 13.0053 2.85451 12.9595 2.61074 12.8649C2.36697 12.7702 2.14425 12.6284 1.95527 12.4477C1.94209 12.4351 1.92908 12.4223 1.91625 12.4094Z" fill="#FFB6B6"/>
</svg>
