<svg width="70" height="70" viewBox="0 0 70 70" fill="none" xmlns="http://www.w3.org/2000/svg">
<path d="M34.4401 29.155V34.3H35.9101C37.9051 34.3 38.8851 33.425 38.8851 31.71C38.8851 30.03 37.9051 29.155 35.9101 29.155H34.4401ZM49.3501 29.155H47.8451V34.3H49.3151C51.3101 34.3 52.2901 33.425 52.2901 31.71C52.2901 30.03 51.3101 29.155 49.3501 29.155ZM20.8251 29.295H20.7201C20.6851 29.75 20.5801 30.205 20.4401 30.625L18.6201 36.19H22.8551L21.0351 30.66C20.9651 30.31 20.8951 29.855 20.8251 29.295Z" fill="#07933C"/>
<path d="M54.2153 22.505V8.15503C54.2153 6.05503 52.5003 4.34003 50.4003 4.34003H19.7753C17.6753 4.34003 15.9603 6.05503 15.9603 8.15503V22.505H8.82031V46.41H15.9603V61.705C15.9603 63.805 17.6753 65.52 19.7753 65.52H50.4003C52.5003 65.52 54.2153 63.805 54.2153 61.705V46.41H61.2853V22.505H54.2153ZM50.4003 9.10003V22.505H19.7753V9.10003H50.4003ZM42.4553 31.57C42.4553 33.215 41.8603 34.51 40.6703 35.49C39.4803 36.47 37.9753 36.96 36.1903 36.89H34.4403V42.455H31.0453V26.53H36.5403C40.4953 26.53 42.4553 28.21 42.4553 31.57ZM17.9203 38.815L16.7653 42.455H13.0553L18.9003 26.53H22.8903L28.5953 42.455H24.8853L23.6953 38.815H17.9203ZM35.0703 63.665C34.0203 63.665 33.1453 62.825 33.1453 61.74C33.1453 60.69 34.0203 59.815 35.0703 59.815C36.1203 59.815 36.9953 60.655 36.9953 61.74C36.9953 62.79 36.1553 63.665 35.0703 63.665ZM19.7753 57.89V46.41H50.4003V57.89H19.7753ZM54.0753 35.49C52.8853 36.47 51.3803 36.96 49.5953 36.89H47.8453V42.455H44.4503V26.53H49.9453C53.9003 26.53 55.8953 28.21 55.8953 31.57C55.8603 33.215 55.2653 34.51 54.0753 35.49Z" fill="black"/>
</svg>
