<svg width="21" height="20" viewBox="0 0 21 20" fill="none" xmlns="http://www.w3.org/2000/svg">
<path d="M19.934 5.11104C19.4876 2.51801 17.9488 1.83362 14.4078 1.62957C12.2348 1.5195 10.0628 1.86557 8.03153 2.64553C8.03153 2.64553 9.14101 0.520095 5.37474 0.711384C1.60846 0.902673 0.188672 4.96226 0.860311 6.97293C1.53195 8.98359 5.62979 10.0208 5.62979 10.0208C5.62979 10.0208 10.5778 9.91028 13.0433 8.27369C13.0433 8.27369 11.343 10.5479 11.6448 11.9464C11.6824 12.1309 11.7567 12.3059 11.8632 12.4611C11.9698 12.6163 12.1063 12.7486 12.2649 12.85C12.4234 12.9515 12.6007 13.0201 12.7863 13.0518C12.9718 13.0836 13.1619 13.0777 13.3451 13.0347L13.8212 15.0411C13.8212 15.0411 14.969 15.7 15.2028 15.1218C15.4366 14.5437 15.394 11.7722 16.9031 12.8476C18.4122 13.9231 18.5057 15.904 17.681 16.4524C16.8564 17.0007 16.291 16.5671 16.8308 17.7871C17.3707 19.0071 19.1178 19.3005 19.1178 19.3005C19.1178 19.3005 20.3591 7.68707 19.934 5.11104Z" fill="#263238" stroke="#263238" stroke-width="1.35048" stroke-linecap="round" stroke-linejoin="round"/>
</svg>
