<svg width="22" height="25" viewBox="0 0 22 25" fill="none" xmlns="http://www.w3.org/2000/svg">
<path d="M5.4572 9.75931L5.10871 15.7211L7.02128 16.0239C7.02128 16.0239 8.7596 22.6827 9.31553 23.1017C9.87147 23.5207 14.2567 21.073 14.2567 21.073L16.9617 24.3173L20.5794 21.828L18.6253 18.816C18.6253 18.816 19.87 7.50239 19.4551 4.98825C19.0402 2.47411 17.5176 1.78956 14.0617 1.59042C11.9409 1.48299 9.82102 1.82076 7.83858 2.58198C7.83858 2.58198 8.9214 0.5076 5.24561 0.694293C1.56982 0.880987 0.18414 4.84305 0.839642 6.80541C1.49514 8.76776 5.4572 9.75931 5.4572 9.75931Z" fill="white" stroke="#263238" stroke-width="1.35048" stroke-linecap="round" stroke-linejoin="round"/>
</svg>
