<svg width="11" height="10" viewBox="0 0 11 10" fill="none" xmlns="http://www.w3.org/2000/svg">
<path d="M4.21721 9.55126C3.94879 9.66279 3.66021 9.71766 3.3696 9.71242C3.07898 9.70718 2.7926 9.64195 2.52838 9.52082C1.4216 8.97091 0.902236 7.34034 0.484929 6.03012C0.363504 5.64897 0.248822 5.2889 0.132047 4.99464L0.13039 4.99017C-0.0727846 4.4064 -0.0374257 3.76604 0.228816 3.2082C0.495058 2.65036 0.970661 2.2201 1.5523 2.0109L6.78356 0.16134C7.05169 0.0499512 7.33992 -0.00486246 7.63021 0.000338298C7.92051 0.00553906 8.20661 0.0706376 8.47058 0.191559C9.57707 0.740789 10.0969 2.37079 10.5145 3.68051C10.6363 4.06243 10.7514 4.42322 10.8686 4.71793C11.0729 5.30226 11.0382 5.94365 10.772 6.50252C10.5058 7.06139 10.0297 7.49252 9.44721 7.70212L4.21721 9.55126Z" fill="white"/>
</svg>
