<svg width="29" height="50" viewBox="0 0 29 50" fill="none" xmlns="http://www.w3.org/2000/svg">
<path d="M22.0155 5.52105L15.901 3.9366L13.0468 0L6.26852 0.8333L4.82562 6.20285L0 9.00392C0 9.00392 2.66718 37.2146 2.03275 38.7636C1.39831 40.3126 -0.876481 40.1847 1.06628 42.1815C3.00904 44.1784 3.26635 43.3741 2.81554 45.548C2.36473 47.7219 -0.921526 50.0226 2.81554 49.9998C6.5526 49.9769 29.1027 49.6548 28.4584 47.0777C27.8141 44.5005 27.8243 45.1549 26.8528 43.5391C25.8813 41.9233 25.2274 42.8263 25.5543 40.4419C25.8813 38.0576 25.5591 36.4469 25.5591 35.1583C25.5591 33.8697 24.4797 22.1603 24.4797 22.1603L22.0155 5.52105Z" fill="#3F3D56"/>
</svg>
