<svg width="42" height="40" viewBox="0 0 42 40" fill="none" xmlns="http://www.w3.org/2000/svg">
<path fill-rule="evenodd" clip-rule="evenodd" d="M20.7843 40C32.2635 40 41.5686 31.046 41.5686 20C41.5686 8.954 32.2635 0 20.7843 0C9.30514 0 0 8.954 0 20C0 31.046 9.30514 40 20.7843 40ZM27.5018 22.722L30.7109 25.818C31.349 26.436 31.3282 27.458 30.6693 28.098L29.7507 28.962L29.7299 28.944C28.96 29.5127 28.0455 29.8719 27.082 29.984C26.8741 30.006 22.021 30.444 15.9977 24.636C11.6392 20.434 10.0326 17.336 10.4587 13.948C10.5065 13.524 10.6146 13.104 10.7912 12.662C10.9783 12.198 11.2318 11.766 11.5353 11.394L11.5104 11.37L12.4145 10.492C13.0775 9.852 14.1375 9.834 14.7735 10.45L17.9847 13.546C18.6227 14.162 18.604 15.182 17.9431 15.822L17.4069 16.336L16.3219 17.382C16.381 17.4815 16.4392 17.5815 16.4965 17.682L16.4986 17.688C17.066 18.674 17.8433 20.022 19.3149 21.44C20.7864 22.86 22.1831 23.608 23.2057 24.154L23.5237 24.326L25.1407 22.766C25.8037 22.126 26.8617 22.108 27.5018 22.724V22.722Z" fill="#07933C"/>
</svg>
