<svg width="77" height="140" viewBox="0 0 77 140" fill="none" xmlns="http://www.w3.org/2000/svg">
<path d="M57.7006 20.3708C58.3268 19.827 58.9119 19.2254 59.5094 18.6279C60.1068 18.0305 60.6878 17.4454 61.2646 16.8397C63.5653 14.4175 65.6344 11.7856 67.4451 8.97817C69.2758 6.18995 70.7279 3.1708 71.7632 0C70.6647 3.13992 69.1545 6.12019 67.272 8.8628C65.4142 11.6136 63.3052 14.1861 60.9721 16.5472C56.382 21.3391 50.7455 24.8702 45.6486 29.143C46.1389 28.1476 46.5588 27.1192 46.9053 26.0651C47.4162 24.3717 47.4451 22.6741 45.8134 21.9448C43.7986 20.9724 41.5736 22.773 42.3977 25.5253C42.9103 27.113 43.7946 28.5553 44.977 29.7322C43.9181 30.6593 42.8715 31.5863 41.8456 32.534C41.0998 33.2592 40.3705 33.9926 39.6618 34.7466C39.9516 34.1107 40.2007 33.457 40.4076 32.7895C40.9185 31.0919 40.9556 29.4232 39.3157 28.6485C37.3009 27.6968 35.0635 29.4932 35.8835 32.2497C36.3626 33.7569 37.1832 35.1331 38.2815 36.2711C36.2863 38.5667 34.5187 41.0506 33.0034 43.6877C33.14 42.9494 33.2336 42.2037 33.2836 41.4545C33.3701 39.6869 33.0034 38.0593 31.2234 37.7009C29.0314 37.2641 27.2926 39.555 28.7512 42.0272C29.5907 43.3825 30.7314 44.5259 32.0845 45.3688C30.6105 48.2165 29.4182 51.2014 28.5246 54.281C28.4512 53.6546 28.3425 53.0328 28.1991 52.4186C27.7871 50.7005 26.963 49.2419 25.1542 49.4067C22.9374 49.6086 21.9197 52.2909 24.0252 54.2481C25.1496 55.2602 26.4853 56.009 27.9354 56.4401C27.3472 58.8179 26.9 61.2283 26.5963 63.6589C26.551 64.042 26.5139 64.4211 26.4727 64.8043C26.3945 64.8818 26.3215 64.9644 26.2543 65.0515L25.9164 64.108C25.2407 62.4598 24.2065 61.1578 22.4513 61.5987C20.284 62.1426 19.6906 64.9485 22.0763 66.5431C23.2876 67.3357 24.6546 67.8597 26.0854 68.08C26.0977 68.1486 26.1229 68.2143 26.1595 68.2736C26.0442 70.0866 25.9933 71.9091 26.0071 73.7413C26.0071 75.101 26.0689 76.4648 26.1389 77.8286C24.2436 77.9687 23.0487 80.1401 24.5238 82.3074C25.1424 83.2094 25.9101 83.9995 26.7941 84.6436C27.1319 87.19 27.5646 89.7199 28.092 92.2332C27.806 92.0054 27.4657 91.856 27.1045 91.7996C26.7432 91.7433 26.3735 91.7819 26.0318 91.9119C24.8658 92.3239 24.3837 93.3169 24.2848 94.5159C23.9091 94.9938 23.7254 95.5948 23.7698 96.2011C22.7685 94.965 21.8456 93.6424 20.9391 92.3239C22.1116 91.2782 23.0557 90.0018 23.7121 88.5744C24.9482 85.8014 23.1723 83.6053 21.1286 84.3181C19.4805 84.8991 19.2086 86.6337 19.4063 88.5044C19.4822 89.2039 19.5977 89.8986 19.7524 90.5851C19.4228 90.0948 19.0973 89.6004 18.7718 89.1059C17.9478 87.8698 17.2185 86.5472 16.4438 85.2699C16.2458 84.9597 16.0642 84.6392 15.9 84.3099C17.2473 83.506 18.4133 82.4313 19.3239 81.1537C21.0462 78.6815 19.736 76.1681 17.5728 76.4978C15.834 76.7573 15.2572 78.4302 15.1006 80.2885C15.0388 81.0959 15.0264 81.9064 15.0635 82.7153L14.3342 81.3144C12.7747 78.1434 11.4406 74.8665 10.3416 71.5081C11.8812 70.8372 13.2542 69.8356 14.3631 68.5744C16.3408 66.267 15.2613 63.6547 13.0775 63.7413C11.3223 63.8278 10.5806 65.4388 10.2345 67.2641C10.0658 68.2412 9.95842 69.2279 9.91314 70.2184C9.31157 68.2956 8.77319 66.3453 8.29798 64.3676C7.98071 63.1315 7.75409 61.8954 7.49863 60.6593C9.18341 60.2086 10.7415 59.3753 12.0516 58.2242C14.3095 56.1928 13.5802 53.4611 11.4253 53.2798C9.67416 53.1356 8.74297 54.6354 8.12904 56.4071C7.7865 57.5241 7.51132 58.6606 7.30498 59.8105C7.066 58.3684 6.81466 56.9263 6.64573 55.48C6.23632 52.4951 6.02983 49.4859 6.02768 46.473C5.9404 49.4919 6.05327 52.5132 6.36555 55.5171C6.48504 56.9057 6.68281 58.2818 6.85998 59.6621C6.41417 58.7568 5.90759 57.8827 5.34371 57.0458C4.32599 55.5913 3.04045 54.5282 1.41293 55.3317C-0.585424 56.3288 -0.560701 59.2007 2.10926 60.2761C3.70156 60.8569 5.4121 61.038 7.09072 60.8035C7.29674 62.0396 7.50275 63.2757 7.76645 64.4788C8.16475 66.4016 8.63172 68.3244 9.16736 70.2472C8.69669 69.5407 8.18488 68.8624 7.63461 68.2159C6.43971 66.9098 5.01821 66.0116 3.51429 67.0375C1.65603 68.2736 2.0557 71.1249 4.85339 71.85C6.42521 72.2142 8.06022 72.2071 9.62884 71.8294C10.6281 75.2365 11.8673 78.5685 13.3371 81.8006L13.8027 82.7689C13.4128 82.3288 13.0002 81.9093 12.5666 81.5122C11.2522 80.3338 9.75244 79.5962 8.35154 80.754C6.63337 82.1755 7.31734 84.965 10.1604 85.3894C11.7319 85.5954 13.3297 85.4346 14.8287 84.9197C14.9935 85.2534 15.1583 85.5789 15.3437 85.8962C16.0936 87.2106 16.7982 88.5785 17.5934 89.8682C17.8159 90.239 18.0508 90.6057 18.2815 90.9765C17.9148 90.6987 17.5338 90.4401 17.1402 90.2019C15.628 89.2872 14.0128 88.8422 12.8509 90.2019C11.4294 91.9283 12.6202 94.5406 15.4962 94.417C16.9792 94.3362 18.4265 93.9311 19.736 93.2304C20.6589 94.6601 21.6148 96.0651 22.6202 97.4578C23.0047 97.9797 23.3934 98.4989 23.7862 99.0153C23.2292 98.5686 22.6458 98.1558 22.0392 97.7792C20.5271 96.8645 18.9119 96.4195 17.75 97.7792C16.3285 99.5015 17.5192 102.118 20.3993 101.994C22.0398 101.895 23.6329 101.406 25.0471 100.569C25.5703 101.199 26.106 101.825 26.6581 102.439C25.6816 103.754 26.1719 105.81 28.4133 106.601C29.502 106.962 30.6452 107.133 31.792 107.103C31.9362 107.202 32.0763 107.297 32.2288 107.388L32.2988 107.437C34.0403 112.464 36.0291 117.395 38.265 122.229C39.6714 125.278 41.1643 128.283 42.7438 131.244C44.3425 134.211 45.9782 137.112 47.8365 140L50.593 138.142C48.7965 135.468 47.0949 132.604 45.4756 129.745C43.8563 126.885 42.3359 123.947 40.8897 120.989C38.9737 117.038 37.2061 113.02 35.6198 108.925C35.8546 108.962 36.0648 109.019 36.3202 109.036C36.6181 109.07 36.9193 109.06 37.2143 109.007L36.7158 106.844L36.6581 106.869H36.4686C36.3491 106.869 36.1884 106.823 36.0565 106.811C35.7436 106.748 35.4363 106.66 35.1377 106.547L34.7834 106.407C36.0328 105.876 37.1728 105.117 38.1455 104.17C40.3128 102.04 39.4599 99.3449 37.2967 99.2666C35.5415 99.2048 34.6639 100.746 34.1612 102.534C34.0211 103.041 33.9098 103.568 33.8151 104.087C33.6379 103.622 33.4731 103.185 33.3454 102.715C32.9004 101.364 32.476 100.006 32.0722 98.6403C33.4278 98.0987 34.665 97.2982 35.7145 96.2835C37.8736 94.1533 37.0248 91.4586 34.8658 91.3762C33.1064 91.3144 32.2329 92.8554 31.7302 94.6436C31.5853 95.1661 31.4671 95.6955 31.3759 96.23C31.1039 95.2287 30.8361 94.2316 30.5848 93.2304C30.4035 92.4846 30.2304 91.7347 30.0697 90.9889C29.9461 89.9176 29.8555 88.8422 29.7854 87.7627C29.7566 87.1694 29.7277 86.5802 29.7112 85.9827C31.0421 86.3027 32.4198 86.3795 33.778 86.2093C36.7858 85.7973 37.7211 83.1356 36.0318 81.7718C34.668 80.6634 33.0446 81.3803 31.5654 82.5134C30.9103 83.0361 30.2857 83.596 29.6948 84.1904C29.6971 81.6501 29.8983 79.1138 30.2963 76.6049C30.5439 75.1327 30.8698 73.6748 31.2728 72.2374C32.6956 72.6188 34.1788 72.721 35.6404 72.5381C38.6482 72.1261 39.5794 69.4644 37.8942 68.1006C36.5304 67.0169 34.8987 67.6885 33.4278 68.8422C32.9042 69.2512 32.4036 69.6886 31.928 70.1525C32.4137 68.7407 32.996 67.364 33.6709 66.0322C35.0334 63.3513 36.7981 60.8946 38.9037 58.7474C40.1382 59.728 41.5641 60.4396 43.0899 60.8364C46.0277 61.5781 47.886 59.4479 46.8394 57.5402C45.9741 56.0074 44.2024 56.061 42.4059 56.5513C41.7287 56.7491 41.0629 56.9844 40.4117 57.2559H40.4611C42.7926 55.1451 45.336 53.2811 48.0508 51.6935C49.1352 52.928 50.475 53.9122 51.9774 54.5777C54.7669 55.7726 56.9424 53.9679 56.1966 51.9283C55.5786 50.2802 53.8274 50.0495 51.9857 50.2802C51.263 50.3777 50.5464 50.5153 49.839 50.6922C52.7232 49.0729 55.6816 47.5072 58.5164 45.7479L58.5823 45.7231C59.9837 46.7653 61.6066 47.4703 63.3248 47.7833C66.3161 48.3024 67.9849 46.0363 66.8147 44.2357C65.8423 42.7689 64.0747 42.9584 62.3235 43.5971C61.8332 43.7783 61.3511 44.0091 60.8855 44.211C62.7673 42.9308 64.5826 41.5556 66.3244 40.0907L66.4933 40.2431L66.5221 40.1689C67.9306 41.2286 69.5674 41.944 71.3017 42.2579C74.2972 42.7771 75.9577 40.5109 74.7916 38.7104C73.8151 37.2435 72.0557 37.4331 70.3005 38.0676C69.0663 38.571 67.8612 39.1433 66.6911 39.7816C67.3174 39.2419 67.9272 38.6939 68.5452 38.1335C71.3369 35.5474 73.9705 32.7955 76.4315 29.8929C73.5372 33.156 70.4099 36.2048 67.0743 39.0153C67.5032 38.137 67.8734 37.2313 68.1826 36.3041C68.6935 34.6065 68.7183 32.9131 67.0866 32.1838C65.0677 31.2279 62.8303 33.0078 63.6544 35.7849C64.1413 37.3088 64.9764 38.6984 66.0936 39.8434C63.9151 41.5884 61.6248 43.1892 59.2374 44.6354L59.0067 44.7755C59.4677 43.831 59.8642 42.8564 60.1933 41.8583C60.7001 40.1607 60.7372 38.492 59.0973 37.738C57.0784 36.7862 54.841 38.5867 55.6692 41.3391C56.1459 42.8453 56.9653 44.2204 58.0631 45.3564C55.1789 47.0375 52.1958 48.5085 49.2127 50.0865L48.7677 50.3214C49.3235 49.636 49.8315 48.9133 50.2881 48.1582C51.1781 46.6255 51.6025 45.0062 50.1851 43.8731C48.4463 42.4804 45.867 43.7001 46.0112 46.5802C46.1295 48.1625 46.6102 49.6963 47.4162 51.0631C44.6516 52.5611 42.0465 54.3365 39.6412 56.3618L39.5629 56.4359C39.8683 55.8658 40.1434 55.2799 40.387 54.6807C41.0215 53.0326 41.1822 51.3638 39.6 50.4697C39.3189 50.3071 39.0086 50.2013 38.6866 50.1587C38.3647 50.116 38.0375 50.1371 37.7237 50.2209C37.41 50.3047 37.1158 50.4495 36.858 50.647C36.6002 50.8445 36.3839 51.0909 36.2213 51.3721C36.1313 51.5322 36.0568 51.7005 35.9988 51.8748C35.7794 51.5762 35.4891 51.3369 35.1542 51.1784C33.5679 50.4079 32.1464 51.4627 30.9597 52.8966C30.6503 53.2707 30.3614 53.6613 30.0944 54.0668C30.8848 51.2529 31.9359 48.5189 33.2341 45.9003C34.6863 46.4167 36.2283 46.6325 37.7665 46.5348C40.7908 46.3123 41.8868 43.7042 40.2922 42.2497C38.9943 41.0548 37.3256 41.6687 35.7846 42.7071C35.2722 43.0544 34.7785 43.4285 34.3054 43.8278C35.6726 41.3963 37.2645 39.0981 39.0602 36.9633C40.3956 37.8986 41.9181 38.5326 43.5225 38.8216C46.518 39.3408 48.1785 37.0746 47.0083 35.274C46.0401 33.8072 44.2766 33.9967 42.5172 34.6395C41.6951 34.953 40.8929 35.3162 40.115 35.7272C40.8732 34.9032 41.6313 34.0791 42.4224 33.2551C43.4552 32.2332 44.5265 31.2389 45.6363 30.272C46.9573 31.1791 48.4557 31.7956 50.0326 32.0808C53.0281 32.5917 54.6927 30.3296 53.5184 28.5291C52.5502 27.0622 50.7867 27.2518 49.0314 27.8904C48.6193 28.0388 48.215 28.2079 47.82 28.3972C49.7813 26.7491 51.7961 25.1998 53.7945 23.6012C55.1707 22.5464 56.4521 21.4792 57.7006 20.3708ZM30.8608 67.3342C31.1011 67.2474 31.3351 67.1441 31.5613 67.0252C31.3099 67.569 31.0751 68.117 30.8526 68.6733C30.8526 68.3766 30.8773 68.08 30.8773 67.7833C30.8824 67.6334 30.8769 67.4833 30.8608 67.3342ZM26.4109 99.3738L26.8229 98.9411C27.6689 99.1418 28.537 99.2346 29.4063 99.2172L29.4517 99.3408L29.8637 99.2254C30.148 100.264 30.4447 101.286 30.7537 102.312C30.4553 101.976 30.079 101.719 29.658 101.563C29.237 101.407 28.7841 101.357 28.3392 101.417C27.6657 100.765 27.0276 100.077 26.4274 99.3573L26.4109 99.3738ZM28.677 76.3C28.5287 77.0952 28.4092 77.8945 28.3062 78.6939L28.162 78.5744C28.0219 76.9634 27.9354 75.3482 27.8859 73.7289C27.8571 72.5999 27.8571 71.4669 27.8859 70.3338C28.4711 70.8555 29.1107 71.3127 29.7937 71.6976C29.3334 73.2104 28.9605 74.7484 28.677 76.3041V76.3ZM33.9881 55.9498C34.8743 55.6526 35.6243 55.0473 36.1019 54.2439C36.4846 55.5639 37.1276 56.7939 37.9931 57.8616C36.4743 59.3568 35.113 61.004 33.9304 62.7771C33.7958 62.5242 33.6114 62.3011 33.3884 62.1213C33.1653 61.9415 32.9082 61.8085 32.6326 61.7306C30.9515 61.2155 29.7236 62.4722 28.7306 64.0833L28.6935 64.1615L28.5823 64.1409C28.4685 64.1306 28.3541 64.1306 28.2403 64.1409C28.2403 64.0462 28.2403 63.9514 28.2691 63.8649C28.5321 61.4314 28.9449 59.0164 29.5052 56.6337C31.0291 56.7111 32.5527 56.4784 33.984 55.9498H33.9881Z" fill="#FFC100"/>
</svg>
