<svg width="18" height="5" viewBox="0 0 18 5" fill="none" xmlns="http://www.w3.org/2000/svg">
<path d="M15.5681 4.86414H2.43492C2.11529 4.86452 1.79874 4.8019 1.50334 4.67984C1.20793 4.55779 0.939494 4.3787 0.713354 4.15282C0.487213 3.92695 0.307798 3.65871 0.185397 3.36345C0.062996 3.06819 0 2.7517 0 2.43207C0 2.11245 0.062996 1.79597 0.185397 1.50071C0.307798 1.20546 0.487213 0.937217 0.713354 0.711341C0.939494 0.485466 1.20793 0.306376 1.50334 0.184321C1.79874 0.0622653 2.11529 -0.000372494 2.43492 1.66639e-06H15.5681C16.2131 1.66639e-06 16.8317 0.256237 17.2878 0.712338C17.7439 1.16844 18.0002 1.78705 18.0002 2.43207C18.0002 3.0771 17.7439 3.6957 17.2878 4.15181C16.8317 4.60791 16.2131 4.86414 15.5681 4.86414Z" fill="#92E3A9"/>
</svg>
