<svg width="208" height="230" viewBox="0 0 208 230" fill="none" xmlns="http://www.w3.org/2000/svg">
<g clip-path="url(#clip0_1_634)">
<path d="M141.177 142.489C254.343 218.208 217.563 246.422 70.5886 220.725C32.1861 214.01 0 185.697 0 142.489C0 99.2807 31.6036 64.2534 70.5886 64.2534C109.574 64.2534 105.266 118.461 141.177 142.489Z" fill="#3F3D56"/>
<path opacity="0.1" d="M151.295 216.254C175.985 216.254 196.001 214.464 196.001 212.254C196.001 210.045 175.985 208.254 151.295 208.254C126.604 208.254 106.589 210.045 106.589 212.254C106.589 214.464 126.604 216.254 151.295 216.254Z" fill="black"/>
<path opacity="0.1" d="M63.1241 84.4073C76.2107 84.4073 86.8195 82.6164 86.8195 80.4072C86.8195 78.1981 76.2107 76.4072 63.1241 76.4072C50.0375 76.4072 39.4287 78.1981 39.4287 80.4072C39.4287 82.6164 50.0375 84.4073 63.1241 84.4073Z" fill="black"/>
<path opacity="0.1" d="M61.8823 90.2539C51.7153 90.2519 41.7552 93.1261 33.1524 98.5446C24.5497 103.963 17.6553 111.705 13.2656 120.875C18.3115 115.301 24.4708 110.847 31.3455 107.801C38.2202 104.756 45.6573 103.187 53.1764 103.195C82.9341 103.195 107.059 127.32 107.059 157.078C107.071 165.128 105.271 173.079 101.793 180.339C110.801 170.436 115.784 157.524 115.765 144.137C115.765 114.379 91.6401 90.2539 61.8823 90.2539Z" fill="black"/>
<path opacity="0.3" d="M107.059 156.843C107.071 164.893 105.272 172.843 101.793 180.104C96.7475 185.678 90.5882 190.132 83.7135 193.178C76.8388 196.223 69.4017 197.792 61.8827 197.784C32.1249 197.784 8.00006 173.659 8.00006 143.901C7.98791 135.851 9.78768 127.901 13.266 120.64C18.3119 115.066 24.4712 110.612 31.3459 107.566C38.2205 104.521 45.6577 102.952 53.1767 102.96C82.9345 102.96 107.059 127.085 107.059 156.843Z" fill="#92E3A9"/>
<path d="M61.883 198.049C32.026 198.049 7.73554 173.758 7.73554 143.901C7.71385 135.81 9.523 127.819 13.0275 120.526C17.4387 111.31 24.367 103.53 33.012 98.0853C41.6571 92.6402 51.6661 89.7519 61.883 89.7539C91.74 89.7539 116.03 114.044 116.03 143.901C116.031 151.012 114.631 158.054 111.91 164.623C109.189 171.193 105.2 177.162 100.172 182.19C95.1438 187.218 89.1745 191.207 82.6048 193.928C76.0351 196.649 68.9939 198.049 61.883 198.049ZM61.883 90.2834C41.3675 90.2834 22.3779 102.244 13.505 120.755C10.0348 127.976 8.24344 135.889 8.26505 143.901C8.26505 173.466 32.3179 197.519 61.883 197.519C68.9243 197.52 75.8968 196.133 82.4022 193.439C88.9076 190.744 94.8186 186.795 99.7976 181.816C104.777 176.837 108.726 170.926 111.42 164.421C114.115 157.915 115.501 150.943 115.501 143.901C115.501 114.336 91.448 90.2834 61.883 90.2834Z" fill="white"/>
<path d="M185.156 198.733C181.243 203.851 181.69 210.768 181.69 210.768C181.69 210.768 188.483 209.387 192.396 204.269C196.31 199.15 195.862 192.233 195.862 192.233C195.862 192.233 189.07 193.615 185.156 198.733Z" fill="#D0CDE1"/>
<path d="M187.722 199.882C186.962 206.28 181.821 210.93 181.821 210.93C181.821 210.93 177.912 205.206 178.671 198.808C179.431 192.41 184.571 187.761 184.571 187.761C184.571 187.761 188.481 193.484 187.722 199.882Z" fill="#92E3A9"/>
<path d="M45.7572 50.009C58.0365 50.009 67.9909 40.0546 67.9909 27.7753C67.9909 15.4959 58.0365 5.5415 45.7572 5.5415C33.4778 5.5415 23.5234 15.4959 23.5234 27.7753C23.5234 40.0546 33.4778 50.009 45.7572 50.009Z" fill="white"/>
<path d="M93.961 50.4442C93.9718 72.6528 80.7727 80.4126 64.4877 80.4205C64.1095 80.4207 63.733 80.4166 63.3584 80.4084C62.6036 80.3924 61.8568 80.3584 61.1177 80.3063C46.4195 79.2728 34.9954 71.1268 34.9854 50.4728C34.975 29.0985 62.2797 2.11133 64.3275 0.115883C64.3292 0.115883 64.3293 0.115882 64.3311 0.114069C64.4089 0.0380183 64.4487 0 64.4487 0C64.4487 0 93.9502 28.2374 93.961 50.4442Z" fill="#92E3A9"/>
<path d="M63.4131 77.0239L74.1907 61.9498L63.3868 78.6781L63.3587 80.4083C62.6039 80.3924 61.8571 80.3584 61.118 80.3062L62.2692 58.088L62.26 57.9161L62.2799 57.8835L62.3893 55.784L51.542 39.0247L62.4211 54.2112L62.4485 54.6565L63.3181 37.8697L54.0306 20.5504L63.4307 34.9196L64.3278 0.115824L64.3313 0L64.3314 0.11401L64.1927 27.5604L73.423 16.6751L64.154 29.9241L63.917 44.955L72.5375 30.5263L63.8837 47.1648L63.752 55.5227L76.2627 35.4382L63.7045 58.4384L63.4131 77.0239Z" fill="#3F3D56"/>
<path d="M151.692 63.1682C148.865 58.3929 143.274 58.1704 143.274 58.1704C143.274 58.1704 137.826 57.4736 134.331 64.7465C131.073 71.5254 126.577 78.0705 133.607 79.6574L134.877 75.7052L135.663 79.9516C136.664 80.0236 137.668 80.0408 138.671 80.0031C146.199 79.76 153.369 80.0742 153.138 77.3726C152.831 73.7813 154.411 67.763 151.692 63.1682Z" fill="#2F2E41"/>
<path d="M139.224 107.978L139.951 115.247L156.792 113.43L157.156 107.978H139.224Z" fill="#A0616A"/>
<path d="M137.407 111.976L136.922 116.217C136.922 116.217 131.348 123.971 131.833 137.299C132.318 150.627 124.2 209.875 130.016 210.36C135.831 210.845 146.251 211.572 146.736 209.754C147.221 207.937 148.19 138.995 148.19 138.995C148.19 138.995 150.734 209.84 155.096 210.082C159.458 210.325 174.119 210.809 174.119 208.992C174.119 207.175 161.276 126.031 161.276 126.031L159.216 119.246L157.156 110.886C157.156 110.886 144.313 113.067 140.799 112.219C137.285 111.37 137.407 111.976 137.407 111.976Z" fill="#2F2E41"/>
<path d="M143.222 78.414C147.505 78.414 150.977 74.9423 150.977 70.6597C150.977 66.377 147.505 62.9053 143.222 62.9053C138.94 62.9053 135.468 66.377 135.468 70.6597C135.468 74.9423 138.94 78.414 143.222 78.414Z" fill="#A0616A"/>
<path d="M156.792 83.5028L155.32 85.645L154.377 87.0153L152.794 89.3186L144.918 89.9244C144.918 89.9244 143.005 89.3065 140.797 88.4038C139.982 88.0694 139.125 87.6963 138.311 87.3001C135.152 85.7661 132.618 83.8942 135.467 82.6547C135.973 82.4374 136.46 82.1763 136.92 81.8744C137.339 81.6005 137.729 81.2847 138.085 80.9318C138.815 80.2003 139.355 79.3017 139.659 78.3139C139.963 77.3262 140.022 76.2792 139.829 75.2638L147.463 74.1733C147.241 76.1095 149.166 78.2214 151.324 79.9455C152.033 80.5138 152.768 81.0384 153.46 81.5012C155.274 82.7153 156.792 83.5028 156.792 83.5028Z" fill="#A0616A"/>
<path d="M146.373 85.805C146.373 85.805 138.921 84.5328 137.225 81.8672C137.225 81.8672 129.895 82.7759 130.5 86.6531C131.106 90.5303 137.164 111.734 137.164 111.734C137.164 111.734 152.31 108.826 157.883 111.007L161.276 83.9875C161.276 83.9875 160.064 81.322 157.762 82.0489C155.46 82.7759 154.551 82.1095 154.551 82.1095C154.551 82.1095 151.946 85.805 146.373 85.805Z" fill="#D0CDE1"/>
<path d="M153.158 128.333C153.158 128.333 158.368 134.149 155.46 135.118C152.552 136.087 149.038 131.241 149.038 131.241L153.158 128.333Z" fill="#A0616A"/>
<path d="M154.853 128.817C154.853 128.817 150.613 131.725 152.188 133.664C153.763 135.602 159.215 131.968 159.215 131.241C159.215 130.514 154.853 128.817 154.853 128.817Z" fill="#A0616A"/>
<path d="M144.433 113.066L140.919 113.672L138.617 96.5882C138.75 93.4888 138.648 90.3838 138.311 87.2999C138.054 85.2402 137.625 83.2604 136.92 81.8743C137.339 81.6004 137.729 81.2845 138.084 80.9316C138.928 82.2681 140.466 85.0984 140.797 88.4037C140.884 89.2314 140.884 90.0658 140.798 90.8936C140.193 96.5882 140.314 97.6787 140.314 97.6787L144.433 113.066Z" fill="#2F2E41"/>
<path d="M136.316 82.8969C136.316 82.8969 130.621 81.3218 130.136 84.7143C129.652 88.1069 130.258 96.8305 131.59 100.102C132.923 103.373 137.527 114.036 137.527 114.036C137.527 114.036 145.888 124.698 146.251 127.242C146.615 129.787 148.432 132.452 148.432 132.452L154.248 128.696L142.858 109.431L137.891 96.1036C137.891 96.1036 139.951 83.9873 136.316 82.8969Z" fill="#D0CDE1"/>
<path d="M158.61 83.3818L161.275 83.9876C161.275 83.9876 163.699 94.4076 162.729 99.9811C161.76 105.555 161.639 107.493 161.639 107.493L160.791 123.365C160.791 123.365 161.033 133.543 159.337 131.968C157.641 130.393 154.248 129.666 154.248 129.666C154.248 129.666 154.612 125.183 155.944 124.092C155.944 124.092 157.519 115.732 156.55 112.097C155.581 108.462 158.61 83.3818 158.61 83.3818Z" fill="#D0CDE1"/>
<path d="M159.579 95.1342L156.489 113.006L154.611 112.218L157.883 95.1342L154.377 87.0151L151.324 79.9453C152.033 80.5136 152.768 81.0382 153.46 81.501L155.32 85.6448L159.579 95.1342Z" fill="#2F2E41"/>
<path d="M150.442 62.7079L144.918 59.8145L137.29 60.9982L135.712 67.9689L139.641 67.8177L140.738 65.2567V67.7756L142.551 67.7057L143.603 63.6285L144.261 67.9689L150.705 67.8373L150.442 62.7079Z" fill="#2F2E41"/>
<path d="M139.53 212.254C141.61 212.254 143.295 211.622 143.295 210.842C143.295 210.063 141.61 209.431 139.53 209.431C137.451 209.431 135.766 210.063 135.766 210.842C135.766 211.622 137.451 212.254 139.53 212.254Z" fill="#2F2E41"/>
<path d="M164.941 212.254C167.021 212.254 168.706 211.622 168.706 210.842C168.706 210.063 167.021 209.431 164.941 209.431C162.862 209.431 161.177 210.063 161.177 210.842C161.177 211.622 162.862 212.254 164.941 212.254Z" fill="#2F2E41"/>
<path d="M69.7744 171.77C65.9234 174.276 61.4856 175.735 56.8988 176.002C52.312 176.269 47.7349 175.336 43.619 173.294L44.2017 172.105C49.1629 174.542 54.786 175.287 60.2104 174.224C65.6348 173.162 70.5615 170.351 74.2364 166.222C77.9114 162.093 80.1321 156.874 80.5586 151.363C80.9851 145.852 79.5939 140.353 76.5979 135.708C73.602 131.063 69.1664 127.527 63.9701 125.643C58.7738 123.758 53.1031 123.628 47.8261 125.273C42.549 126.918 37.9564 130.247 34.7511 134.75C31.5459 139.253 29.9046 144.683 30.0786 150.208L28.7554 150.248C28.6088 145.6 29.6832 140.994 31.8714 136.89C34.0596 132.786 37.2853 129.328 41.2268 126.859C45.1683 124.39 49.688 122.998 54.3355 122.82C58.9829 122.643 63.5957 123.686 67.714 125.847C71.8324 128.008 75.3125 131.211 77.8073 135.136C80.3022 139.061 81.7248 143.571 81.9333 148.217C82.1417 152.863 81.1287 157.483 78.9954 161.615C76.862 165.748 73.6827 169.249 69.7744 171.77Z" fill="white"/>
<path d="M57.8001 147.832C53.8856 148.698 48.6759 149.226 44.8799 148.675L49.6452 152.304L36.3047 160.908L37.0222 162.02L50.3628 153.416L51.7038 159.255C52.7672 155.569 55.397 151.041 57.8001 147.832Z" fill="white"/>
</g>
<defs>
<clipPath id="clip0_1_634">
<rect width="207.547" height="230" fill="white"/>
</clipPath>
</defs>
</svg>
