<svg width="251" height="231" viewBox="0 0 251 231" fill="none" xmlns="http://www.w3.org/2000/svg">
<path d="M41.0506 171.834L77.1234 177.401V188.595H96.254V195.722H162.28V208.302L196.004 203.272V191.803L216.705 188.195L214.826 167.814L190.985 169.899L189.736 152.833L211.371 150.396L209.337 131.03L233.956 127.655V110.691H209.337V93.2605L231.762 93.1171L232.701 74.7012L207.297 73.1481L207.606 53.663L177.498 50.7062L175.869 33.1325L136.93 29.6859L134.64 45.1151L95.9388 43.795L96.5692 28.4494H70.2192L67.7097 41.7103L54.2226 42.1583L52.6526 55.8731L77.7478 56.2256L76.8082 70.6931L41.3598 72.8435L39.1655 87.7351L19.7197 89.2822V103.278H47.3244L44.8149 118.373L30.073 119.938L29.1274 136.418L57.1305 138.33L55.7925 154.302L40.7354 155.294L41.0506 171.834Z" fill="#263238"/>
<path d="M67.7099 41.7103C67.7099 41.7103 43.6198 42.4151 29.7461 43.789" stroke="#263238" stroke-linecap="round" stroke-linejoin="round"/>
<path d="M77.7478 56.2256C77.7478 56.2256 38.5292 54.5172 23.9062 56.7752" stroke="#263238" stroke-linecap="round" stroke-linejoin="round"/>
<path d="M76.8081 70.6931L20.8911 73.1482" stroke="#263238" stroke-linecap="round" stroke-linejoin="round"/>
<path d="M32.101 55.9986L29.7461 67.8677" stroke="#263238" stroke-linecap="round" stroke-linejoin="round"/>
<path d="M39.1653 87.7411L5.83398 90.6143" stroke="#263238" stroke-linecap="round" stroke-linejoin="round"/>
<path d="M47.3242 103.278L5.83398 103.5" stroke="#263238" stroke-linecap="round" stroke-linejoin="round"/>
<path d="M13.0479 103.499V119.31L23.9066 119.633" stroke="#263238" stroke-linecap="round" stroke-linejoin="round"/>
<path d="M41.6338 28.4494H96.5696L121.189 29.0527" stroke="#263238" stroke-linecap="round" stroke-linejoin="round"/>
<path d="M56.4766 28.4494L57.9335 15.5529H84.67L83.433 26.8306" stroke="#263238" stroke-linecap="round" stroke-linejoin="round"/>
<path d="M116.134 25.0087L116.443 13.9759C116.443 13.9759 138.297 14.3642 155.81 17.1657L156.405 28.4434" stroke="#263238" stroke-linecap="round" stroke-linejoin="round"/>
<path d="M136.929 29.6859L200.821 36.0237" stroke="#263238" stroke-linecap="round" stroke-linejoin="round"/>
<path d="M177.499 50.7062L221.011 54.9234L220.071 39.6793" stroke="#263238" stroke-linecap="round" stroke-linejoin="round"/>
<path d="M197.253 33.2938L196.064 23.4677" stroke="#263238" stroke-linecap="round" stroke-linejoin="round"/>
<path d="M204.104 73.1481L240.147 75.2866" stroke="#263238" stroke-linecap="round" stroke-linejoin="round"/>
<path d="M221.01 54.9233L238.262 57.8802V66.8761" stroke="#263238" stroke-linecap="round" stroke-linejoin="round"/>
<path d="M209.337 93.2605C211.287 93.2605 250.5 93.6786 250.5 93.6786" stroke="#263238" stroke-linecap="round" stroke-linejoin="round"/>
<path d="M209.337 110.691L250.5 110.553" stroke="#263238" stroke-linecap="round" stroke-linejoin="round"/>
<path d="M189.736 152.833L243.281 148.478" stroke="#263238" stroke-linecap="round" stroke-linejoin="round"/>
<path d="M190.985 169.899L226.648 167.145L225.298 153.311" stroke="#263238" stroke-linecap="round" stroke-linejoin="round"/>
<path d="M127.629 200.321L130.412 213.761L196.004 203.272L231.679 200.321" stroke="#263238" stroke-linecap="round" stroke-linejoin="round"/>
<path d="M196.004 191.803L245.166 183.847L243.281 169.899" stroke="#263238" stroke-linecap="round" stroke-linejoin="round"/>
<path d="M77.1234 177.401L23.9062 168.662L20.8853 185.603L47.3244 189.133" stroke="#263238" stroke-linecap="round" stroke-linejoin="round"/>
<path d="M98.1984 195.722L68.566 197.221L68.3638 215.296L104.014 213.881" stroke="#263238" stroke-linecap="round" stroke-linejoin="round"/>
<path d="M64.3259 216.599L41.6392 218.349" stroke="#263238" stroke-linecap="round" stroke-linejoin="round"/>
<path d="M55.7924 154.302L5.83398 156.769V165.753" stroke="#263238" stroke-linecap="round" stroke-linejoin="round"/>
<path d="M57.1306 138.33L0.5 138.067" stroke="#263238" stroke-linecap="round" stroke-linejoin="round"/>
<path d="M96.2539 195.722V208.302" stroke="#263238" stroke-linecap="round" stroke-linejoin="round"/>
<path d="M86.7275 214.884V229.901" stroke="#263238" stroke-linecap="round" stroke-linejoin="round"/>
<path d="M153.64 210.978L155.816 227.512" stroke="#263238" stroke-linecap="round" stroke-linejoin="round"/>
<path d="M119.72 215.296V229.901H97.0928" stroke="#263238" stroke-linecap="round" stroke-linejoin="round"/>
<path d="M231.679 185.603L233.956 194.443" stroke="#263238" stroke-linecap="round" stroke-linejoin="round"/>
<path d="M183.249 205.655L185.645 221.61L212.227 219.245" stroke="#263238" stroke-linecap="round" stroke-linejoin="round"/>
<path d="M217.275 201.51L218.037 213.152" stroke="#263238" stroke-linecap="round" stroke-linejoin="round"/>
<path d="M135.639 14.9257L135.312 0.5" stroke="#263238" stroke-linecap="round" stroke-linejoin="round"/>
<path d="M163.137 17.7571L187.054 21.2097" stroke="#263238" stroke-linecap="round" stroke-linejoin="round"/>
<path d="M176.772 19.7283V6.48535" stroke="#263238" stroke-linecap="round" stroke-linejoin="round"/>
<path d="M71.147 1.63498L100.559 1.16309V13.1039H110.235" stroke="#263238" stroke-linecap="round" stroke-linejoin="round"/>
<path d="M151.707 105.04C151.707 105.04 158.683 108.343 160.913 111.336C163.143 114.329 165.046 120.66 164.552 123.88C163.749 129.131 155.941 141.728 156.322 143.467C156.703 145.205 145.618 160.192 145.618 160.192C145.618 160.192 150.375 162.229 152.677 160.951C154.978 159.672 157.767 162.313 157.767 162.313L162.215 160.951C162.215 160.951 171.557 166.386 165.23 176.601L159.206 178.763C159.206 178.763 155.478 183.423 151.695 184.683C147.913 185.943 131.381 187.956 124.079 185.28C116.776 182.604 115.73 173.304 113.714 167.689C111.698 162.074 130.121 123.892 130.121 123.892L151.707 105.04Z" fill="white"/>
<mask id="mask0_169_420" style="mask-type:luminance" maskUnits="userSpaceOnUse" x="113" y="105" width="55" height="82">
<path d="M151.707 105.04C151.707 105.04 158.683 108.343 160.913 111.336C163.143 114.329 165.046 120.66 164.552 123.88C163.749 129.131 155.941 141.728 156.322 143.467C156.703 145.205 145.618 160.192 145.618 160.192C145.618 160.192 150.375 162.229 152.677 160.951C154.978 159.672 157.767 162.313 157.767 162.313L162.215 160.951C162.215 160.951 171.557 166.386 165.23 176.601L159.206 178.763C159.206 178.763 155.478 183.423 151.695 184.683C147.913 185.943 131.381 187.956 124.079 185.28C116.776 182.604 115.73 173.304 113.714 167.689C111.698 162.074 130.121 123.892 130.121 123.892L151.707 105.04Z" fill="white"/>
</mask>
<g mask="url(#mask0_169_420)">
<path opacity="0.3" d="M145.63 160.222C146.763 160.687 147.94 161.033 149.144 161.255C145.273 163.746 141.621 167.038 140.515 171.201C138.63 178.19 145.683 182.861 150.28 185.095C144.815 186.32 130.703 187.723 124.114 185.31C116.883 182.664 115.789 173.513 113.803 167.874L130.132 123.916L152.73 126.365C152.73 126.365 153.093 130.982 157.82 130.379C159.878 130.116 162.298 127.649 164.362 124.955C162.857 130.666 155.995 141.872 156.351 143.502C156.708 145.229 145.63 160.222 145.63 160.222Z" fill="black" fill-opacity="0.7"/>
<path opacity="0.3" d="M165.242 176.631L159.218 178.793C159.218 178.793 158.689 179.45 157.832 180.34C155.317 177.186 150.78 169.875 156.798 163.848C156.798 163.848 156.084 169.6 159.218 173.077C162.352 176.553 163.708 175.311 163.708 175.311C163.708 175.311 159.92 173.805 160.045 167.145C160.074 165.413 160.806 162.617 162.179 160.993H162.227C162.227 160.993 171.569 166.416 165.242 176.631Z" fill="black" fill-opacity="0.7"/>
</g>
<path d="M151.707 105.04C151.707 105.04 158.683 108.343 160.913 111.336C163.143 114.329 165.046 120.66 164.552 123.88C163.749 129.131 155.941 141.728 156.322 143.467C156.703 145.205 145.618 160.192 145.618 160.192C145.618 160.192 150.375 162.229 152.677 160.951C154.978 159.672 157.767 162.313 157.767 162.313L162.215 160.951C162.215 160.951 171.557 166.386 165.23 176.601L159.206 178.763C159.206 178.763 155.478 183.423 151.695 184.683C147.913 185.943 131.381 187.956 124.079 185.28C116.776 182.604 115.73 173.304 113.714 167.689C111.698 162.074 130.121 123.892 130.121 123.892L151.707 105.04Z" stroke="#263238" stroke-linecap="round" stroke-linejoin="round"/>
<path d="M157.761 162.342C156.488 163.983 155.797 166.003 155.798 168.083C155.751 171.667 157.761 174.982 157.761 174.982" stroke="#263238" stroke-linecap="round" stroke-linejoin="round"/>
<path d="M159.218 178.793C159.218 178.793 155.793 175.771 155.055 171.834" stroke="#263238" stroke-linecap="round" stroke-linejoin="round"/>
<path d="M145.629 160.222C145.629 160.222 138.565 160.431 137.048 163.848" stroke="#263238" stroke-linecap="round" stroke-linejoin="round"/>
<path d="M163.113 121.652C163.113 121.652 158.094 130.242 149.625 131.03" stroke="#263238" stroke-linecap="round" stroke-linejoin="round"/>
<path d="M155.442 127.446C155.364 128.276 155.275 129.125 155.168 129.985C154.924 132.093 154.603 134.262 154.223 136.406C152.784 144.632 150.452 152.397 147.652 154.995C141.705 160.443 137.613 175.777 138.761 177.431C139.909 179.086 132.529 190.901 132.529 190.901C132.529 190.901 134.349 193.888 132.85 195.722H95.4393V188.596H76.2909V177.401L71.6763 176.691C75.8033 157.391 76.725 132.697 78.2831 122.608C80.4061 108.899 85.8116 101.337 94.0002 91.6477C101.588 82.6877 114.921 82.4487 125.268 86.7316C125.987 86.2264 126.736 85.7656 127.51 85.3518C129.746 84.1571 133.302 82.6638 136.472 83.3029C141.568 84.3244 152.052 102.352 152.98 106.067L153.729 112.638" fill="white"/>
<mask id="mask1_169_420" style="mask-type:luminance" maskUnits="userSpaceOnUse" x="71" y="83" width="85" height="113">
<path d="M155.442 127.446C155.364 128.276 155.275 129.125 155.168 129.985C154.924 132.093 154.603 134.262 154.223 136.406C152.784 144.632 150.452 152.397 147.652 154.995C141.705 160.443 137.613 175.777 138.761 177.431C139.909 179.086 132.529 190.901 132.529 190.901C132.529 190.901 134.349 193.888 132.85 195.722H95.4393V188.596H76.2909V177.401L71.6763 176.691C75.8033 157.391 76.725 132.697 78.2831 122.608C80.4061 108.899 85.8116 101.337 94.0002 91.6477C101.588 82.6877 114.921 82.4487 125.268 86.7316C125.987 86.2264 126.736 85.7656 127.51 85.3518C129.746 84.1571 133.302 82.6638 136.472 83.3029C141.568 84.3244 152.052 102.352 152.98 106.067L153.729 112.638" fill="white"/>
</mask>
<g mask="url(#mask1_169_420)">
<path opacity="0.3" d="M132.499 190.901C132.499 190.901 134.319 193.888 132.82 195.722H95.4393V188.595H76.2909V177.401L71.6763 176.691C73.05 170.275 74.055 163.262 74.8697 156.381C82.8977 166.637 100.036 186.648 112.929 188.584C130.347 191.2 134.218 181.511 134.218 181.511C134.218 181.511 115.872 184.133 102.29 169.708C88.7077 155.282 112.013 170.275 126.011 169.708C131.048 169.506 136.024 168.537 140.771 166.835C138.987 171.864 138.113 176.547 138.72 177.419C139.879 179.086 132.499 190.901 132.499 190.901Z" fill="black" fill-opacity="0.7"/>
<path opacity="0.3" d="M148.359 117.56L151.749 120.636C151.749 120.636 156.708 112.274 148.121 99.0428C139.534 85.8117 128.741 86.6301 128.741 86.6301C126.493 88.6192 123.9 89.6825 124.275 95.847C123.05 93.6966 121.587 92.0181 119.839 91.0683C107.707 84.3542 84.2475 108.558 84.2475 108.558C84.2475 108.558 75.7793 134.841 85.6628 145.778C95.5462 156.716 130.406 138.33 130.406 138.33C130.614 130.701 130.304 123.068 129.478 115.481C129.793 116.348 130.12 117.238 130.471 118.164L134.955 112.399C134.955 112.399 141.098 119.251 142.02 126.341C142.733 131.819 140.135 150.778 145.534 157.403C146.146 156.537 146.843 155.737 147.616 155.013C148.763 153.962 149.834 152.027 150.791 149.607C149.976 148.926 149.31 148.082 148.835 147.128C145.059 139.96 145.624 122.948 145.624 122.948L148.359 117.56Z" fill="black" fill-opacity="0.7"/>
</g>
<path d="M155.442 127.446C155.364 128.276 155.275 129.125 155.168 129.985C154.924 132.093 154.603 134.262 154.223 136.406C152.784 144.632 150.452 152.397 147.652 154.995C141.705 160.443 137.613 175.777 138.761 177.431C139.909 179.086 132.529 190.901 132.529 190.901C132.529 190.901 134.349 193.888 132.85 195.722H95.4393V188.596H76.2909V177.401L71.6763 176.691C75.8033 157.391 76.725 132.697 78.2831 122.608C80.4061 108.899 85.8116 101.337 94.0002 91.6477C101.588 82.6877 114.921 82.4487 125.268 86.7316C125.987 86.2264 126.736 85.7656 127.51 85.3518C129.746 84.1571 133.302 82.6638 136.472 83.3029C141.568 84.3244 152.052 102.352 152.98 106.067L153.729 112.638" stroke="#263238" stroke-linecap="round" stroke-linejoin="round"/>
<path d="M132.546 105.04C132.546 105.04 137.863 114.323 142.656 117.584L147.615 123.342C147.615 123.342 152.004 139.883 165.176 145.079C178.348 150.276 186.204 125.009 194.036 126.114L198.43 119.991L189.962 115.105C186.526 115.57 183.365 117.245 181.042 119.83C176.968 124.244 171.319 140.056 166.455 139.238C161.59 138.419 149.679 124.22 149.364 121.634V116.258C149.364 116.258 152.474 110.482 151.742 106.73L149.364 106.42C149.364 106.42 148.894 112.118 147.639 113.677L142.68 114.317C139.397 111.174 136.769 107.408 134.949 103.236L131.976 105.93" fill="#92E3A9"/>
<path d="M132.546 105.04C132.546 105.04 137.863 114.323 142.656 117.584L147.615 123.342C147.615 123.342 152.004 139.883 165.176 145.079C178.348 150.276 186.204 125.009 194.036 126.114L198.43 119.991L189.962 115.105C186.526 115.57 183.365 117.245 181.042 119.83C176.968 124.244 171.319 140.056 166.455 139.238C161.59 138.419 149.679 124.22 149.364 121.634V116.258C149.364 116.258 152.474 110.482 151.742 106.73L149.364 106.42C149.364 106.42 148.894 112.118 147.639 113.677L142.68 114.317C139.397 111.174 136.769 107.408 134.949 103.236L131.976 105.93" stroke="#263238" stroke-linecap="round" stroke-linejoin="round"/>
<path d="M142.662 113.492L136.483 106.324L131.726 111.778C131.726 111.778 124.459 94.1863 124.929 89.999C125.279 86.7316 129.763 81.1345 138.731 81.8453C147.699 82.5562 154.561 103.349 153.895 111.384C153.775 113.078 153.373 114.739 152.706 116.3L149.245 107.806L144.814 111.264" fill="white"/>
<path d="M142.662 113.492L136.483 106.324L131.726 111.778C131.726 111.778 124.459 94.1863 124.929 89.999C125.279 86.7316 129.763 81.1345 138.731 81.8453C147.699 82.5562 154.561 103.349 153.895 111.384C153.775 113.078 153.373 114.739 152.706 116.3L149.245 107.806L144.814 111.264" stroke="#263238" stroke-linecap="round" stroke-linejoin="round"/>
<path d="M116.365 195.722C116.51 195.47 116.595 195.188 116.614 194.899C116.634 194.609 116.587 194.318 116.478 194.049C115.539 192.418 116.728 179.874 117.918 176.559C119.107 173.244 138.731 137.547 141.365 122.93" stroke="#263238" stroke-linecap="round" stroke-linejoin="round"/>
<path d="M99.0251 89.5391C103.141 87.4128 107.741 86.4135 112.364 86.642C120.98 86.881 124.816 101.259 124.816 101.259C124.816 101.259 139.683 108.821 142.151 120.009C144.619 131.197 131.75 145.695 111.228 146.615C90.7057 147.535 84.9076 132.685 83.6528 123.916C83.0582 119.794 83.6528 111.199 87.096 103.302" fill="white"/>
<mask id="mask2_169_420" style="mask-type:luminance" maskUnits="userSpaceOnUse" x="83" y="86" width="60" height="61">
<path d="M99.0251 89.5391C103.141 87.4128 107.741 86.4135 112.364 86.642C120.98 86.881 124.816 101.259 124.816 101.259C124.816 101.259 139.683 108.821 142.151 120.009C144.619 131.197 131.75 145.695 111.228 146.615C90.7057 147.535 84.9076 132.685 83.6528 123.916C83.0582 119.794 83.6528 111.199 87.096 103.302" fill="white"/>
</mask>
<g mask="url(#mask2_169_420)">
<path opacity="0.3" d="M141.973 126.562C139.517 136.161 127.879 145.85 111.204 146.615C91.1342 147.535 85.1578 133.366 83.7246 124.513C83.8971 118.474 85.8357 111.372 92.3533 105.584C92.2225 106.02 87.0607 122.524 88.9577 131.03C88.9644 123.762 91.0873 116.655 95.065 110.583C101.66 100.811 111.02 101.552 113.714 102.681C116.408 103.81 134.599 107.322 139.85 119.741C140.773 121.941 141.484 124.225 141.973 126.562Z" fill="black" fill-opacity="0.7"/>
<path opacity="0.3" d="M102.605 99.0428C102.605 99.0428 109.117 92.8245 114.498 93.2606C119.88 93.6966 123.579 100.942 123.579 100.942L117.983 100.309C117.983 100.309 114.998 97.7286 102.605 99.0428Z" fill="black" fill-opacity="0.7"/>
</g>
<path d="M99.0251 89.5391C103.141 87.4128 107.741 86.4135 112.364 86.642C120.98 86.881 124.816 101.259 124.816 101.259C124.816 101.259 139.683 108.821 142.151 120.009C144.619 131.197 131.75 145.695 111.228 146.615C90.7057 147.535 84.9076 132.685 83.6528 123.916C83.0582 119.794 83.6528 111.199 87.096 103.302" stroke="#263238" stroke-linecap="round" stroke-linejoin="round"/>
<path d="M124.816 101.259C124.816 101.259 112.328 97.3224 102.605 105.04" stroke="#263238" stroke-linecap="round" stroke-linejoin="round"/>
<path d="M91.4669 138.33C91.4669 138.33 87.3874 135.654 86.7571 123.892C86.1267 112.13 95.6296 100.942 95.6296 100.942" stroke="#263238" stroke-linecap="round" stroke-linejoin="round"/>
<path d="M105.27 98.2602C105.27 98.2602 115.974 96.1575 119.72 100.363" stroke="#263238" stroke-linecap="round" stroke-linejoin="round"/>
<path d="M139.279 120.636C139.279 120.636 143.525 136.042 133.475 144.178C123.425 152.313 104.627 151.405 98.2641 147.11C91.9011 142.816 90.688 131.353 90.688 131.353C91.1221 118.462 94.6604 108.391 107.684 102.681C120.707 96.97 137.447 112.19 139.279 120.636Z" fill="white"/>
<path opacity="0.3" d="M139.421 116.64C139.421 116.64 141.705 137.696 132.785 144.888C123.865 152.08 107.279 151.28 101.654 147.481C96.0279 143.682 94.9575 133.551 94.9575 133.551C95.3381 122.154 98.4839 114.651 109.997 109.604C121.51 104.556 137.804 109.174 139.421 116.64Z" fill="black" fill-opacity="0.7"/>
<path d="M139.279 120.636C139.279 120.636 143.525 136.042 133.475 144.178C123.425 152.313 104.627 151.405 98.2641 147.11C91.9011 142.816 90.688 131.353 90.688 131.353" stroke="#263238" stroke-linecap="round" stroke-linejoin="round"/>
<path d="M168.316 160.33C168.316 160.33 166.116 162.82 163.297 162.952C161.994 164.766 161.363 166.98 161.513 169.212C161.53 170.259 161.863 171.276 162.467 172.129C163.071 172.982 163.918 173.631 164.897 173.991L170.956 172.097" fill="white"/>
<mask id="mask3_169_420" style="mask-type:luminance" maskUnits="userSpaceOnUse" x="161" y="160" width="10" height="14">
<path d="M168.316 160.33C168.316 160.33 166.116 162.82 163.297 162.952C161.994 164.766 161.363 166.98 161.513 169.212C161.53 170.259 161.863 171.276 162.467 172.129C163.071 172.982 163.918 173.631 164.897 173.991L170.956 172.097" fill="white"/>
</mask>
<g mask="url(#mask3_169_420)">
<path opacity="0.4" d="M168.316 160.33C168.316 160.33 166.116 162.82 163.297 162.952C161.994 164.766 161.363 166.98 161.513 169.212C161.53 170.259 161.863 171.276 162.467 172.129C163.071 172.982 163.918 173.631 164.897 173.991L170.956 172.097" fill="#92E3A9"/>
</g>
<path d="M168.316 160.33C168.316 160.33 166.116 162.82 163.297 162.952C161.994 164.766 161.363 166.98 161.513 169.212C161.53 170.259 161.863 171.276 162.467 172.129C163.071 172.982 163.918 173.631 164.897 173.991L170.956 172.097" stroke="#263238" stroke-linecap="round" stroke-linejoin="round"/>
<path d="M166.324 171.912C167.121 173.704 173.752 173.357 177.296 171.368C180.84 169.379 182.446 167.187 182.535 165.843C182.624 164.499 184.539 162.826 184.379 162.008C184.218 161.19 184.652 159.911 184.557 158.956C184.462 158 179.919 153.627 179.104 153.58C178.289 153.532 176.892 154.685 176.892 154.685C176.892 154.685 174.144 151.829 172.652 153.155C168.079 157.229 166.223 164.857 166.223 164.857C166.003 166.136 166.223 166.392 166.223 166.392" fill="white"/>
<mask id="mask4_169_420" style="mask-type:luminance" maskUnits="userSpaceOnUse" x="166" y="152" width="19" height="22">
<path d="M166.324 171.912C167.121 173.704 173.752 173.357 177.296 171.368C180.84 169.379 182.446 167.187 182.535 165.843C182.624 164.499 184.539 162.826 184.379 162.008C184.218 161.19 184.652 159.911 184.557 158.956C184.462 158 179.919 153.627 179.104 153.58C178.289 153.532 176.892 154.685 176.892 154.685C176.892 154.685 174.144 151.829 172.652 153.155C168.079 157.229 166.223 164.857 166.223 164.857C166.003 166.136 166.223 166.392 166.223 166.392" fill="white"/>
</mask>
<g mask="url(#mask4_169_420)">
<path opacity="0.4" d="M170.844 164.081C170.131 164.881 169.531 165.776 169.06 166.739C169.06 166.739 170.302 167.091 170.487 167.677C170.671 168.262 171.468 169.947 172.55 169.606C173.633 169.266 175.958 168.644 175.958 168.644C175.958 168.644 173.942 167.061 173.882 165.986C173.884 165.642 173.958 165.303 174.098 164.989C174.238 164.675 174.442 164.394 174.697 164.164C174.697 164.164 175.161 162.098 175.987 161.614C176.313 161.383 176.678 161.215 177.064 161.118C177.064 161.118 178.937 159.123 178.931 157.988C178.925 156.853 178.396 156.793 178.336 156.793C178.432 156.757 178.979 156.53 179.02 155.342C179.036 155.057 178.996 154.773 178.902 154.504C178.808 154.236 178.662 153.989 178.473 153.777C177.962 154.001 177.481 154.288 177.04 154.631C177.208 154.812 177.307 155.047 177.319 155.294C177.331 155.541 177.255 155.784 177.105 155.981C176.291 157.277 175.619 160.335 174.322 159.774C173.026 159.212 172.907 157.749 172.889 157.576C172.806 157.845 171.753 163.149 170.844 164.081Z" fill="#92E3A9"/>
</g>
<path d="M166.324 171.912C167.121 173.704 173.752 173.357 177.296 171.368C180.84 169.379 182.446 167.187 182.535 165.843C182.624 164.499 184.539 162.826 184.379 162.008C184.218 161.19 184.652 159.911 184.557 158.956C184.462 158 179.919 153.627 179.104 153.58C178.289 153.532 176.892 154.685 176.892 154.685C176.892 154.685 174.144 151.829 172.652 153.155C168.079 157.229 166.223 164.857 166.223 164.857C166.003 166.136 166.223 166.392 166.223 166.392" stroke="#263238" stroke-linecap="round" stroke-linejoin="round"/>
<path d="M176.891 154.708C177.855 155.64 176.618 156.262 175.512 158.818C174.406 161.375 172.283 158.179 173.002 156.674" stroke="#263238" stroke-linecap="round" stroke-linejoin="round"/>
<path d="M182.6 160.33C182.6 160.33 179.591 157.182 178.919 156.853C178.247 156.524 176.267 157.259 176.267 157.259" stroke="#263238" stroke-linecap="round" stroke-linejoin="round"/>
<path d="M180.911 163.848C180.911 163.848 177.51 161.136 177.052 161.118C176.594 161.1 173.484 161.446 173.484 161.446C173.484 161.446 173.073 160.777 173.888 159.553" stroke="#263238" stroke-linecap="round" stroke-linejoin="round"/>
<path d="M179.169 166.339L174.691 164.164C174.376 164.015 172.627 164.164 172.312 163.669C171.997 163.173 172.859 161.518 173.472 161.446" stroke="#263238" stroke-linecap="round" stroke-linejoin="round"/>
<path d="M176.671 169.212L173.46 166.733C173.46 166.733 172.116 166.733 171.866 166.428" stroke="#263238" stroke-linecap="round" stroke-linejoin="round"/>
<path d="M172.663 163.914C172.017 164.345 171.463 164.902 171.034 165.55C170.683 166.303 172.003 167.689 172.818 167.999C173.073 168.082 173.347 168.088 173.606 168.017C173.864 167.946 174.097 167.801 174.275 167.599" stroke="#263238" stroke-linecap="round" stroke-linejoin="round"/>
<path d="M112.364 146.913C112.364 146.913 106.417 149.303 104.52 147.875C102.623 146.447 96.1945 133.234 96.1945 133.234C96.1945 133.234 93.9823 131.257 94.018 129.095C94.0537 126.932 95.6831 117.68 97.5444 116.592C99.4057 115.505 103.301 116.15 104.942 115.625C106.583 115.099 108.403 111.216 110.068 110.942C111.733 110.667 116.015 110.978 117.835 110.721C119.654 110.464 122.741 107.8 124.019 107.812C125.298 107.824 128.878 109.347 131.048 109.191C133.219 109.036 135.77 107.77 137.191 107.806C138.612 107.842 143.001 111.557 143.804 112.345C144.607 113.134 146.944 127.398 146.944 127.398C146.944 127.398 151.291 130.714 152.468 132.35C153.646 133.987 154.847 139.566 155.685 141.878C156.524 144.189 153.997 148.18 152.76 148.448C151.523 148.717 144.381 149.972 139.171 152.295C137.459 153.066 135.77 150.378 135.77 150.378C135.77 150.378 129.104 151.573 128.039 151.483C126.975 151.393 124.947 149.566 124.947 149.566C124.947 149.566 123.704 151.184 119.868 151.579C116.39 151.949 115.426 151.895 112.364 146.913Z" fill="white"/>
<path opacity="0.4" d="M155.68 141.878C154.847 139.566 153.64 133.993 152.463 132.35C151.285 130.708 146.938 127.398 146.938 127.398C146.938 127.398 144.595 113.128 143.798 112.345C143.424 111.981 142.282 110.984 141.027 110.022C143.406 113.636 142.508 118.833 142.46 119.125L143.781 116.3C143.781 116.3 148.538 136.442 147.89 138.33C147.242 140.217 139.772 140.641 138.732 139.435C137.691 138.228 136.127 130.475 136.038 129.752C136.074 128.401 136.42 127.076 137.049 125.881C137.644 125.063 135.182 120.2 134.23 120.302C133.279 120.404 132.363 126.228 132.946 127.398C133.528 128.569 133.891 132.135 134.23 133.79C134.569 135.444 136.484 144.225 134.962 145.737C133.439 147.248 126.714 147.588 126.006 146.633C125.298 145.677 122.717 131.281 123.062 129.728C123.407 128.175 122.949 123.486 121.189 122.906C119.429 122.327 118.81 125.965 119.72 127.458C120.367 128.705 120.86 130.027 121.189 131.395C120.725 136.227 123.062 148.006 123.062 148.006C123.062 148.006 116.836 149.004 115.427 148.006C114.017 147.009 111.424 134.238 111.424 134.238C111.424 134.238 113.209 134.471 111.424 132.111C109.64 129.752 107.071 124.549 106.483 127.458C105.894 130.367 108.481 133.879 108.481 133.879C108.826 136.95 109.42 142.314 109.42 142.314C109.42 142.314 107.541 143.688 105.775 143.568C104.009 143.449 100.132 133.646 100.661 132.583C101.19 131.52 104.485 136.006 104.485 136.006C104.485 136.006 103.89 132.936 102.606 131.639C101.321 130.343 97.6459 123.36 97.0929 122.906C96.7837 122.655 97.1583 121.019 97.5508 119.621C97.9017 118.385 98.8174 116.634 100.102 116.634C102.38 116.634 105.995 117.5 106.834 117.554C108.13 117.632 109.212 112.393 110.021 111.688C110.83 110.984 117.657 112.985 118.346 112.985C119.036 112.985 123.169 108.732 124.799 108.534C126.428 108.337 129.99 109.795 132.886 110.685C135.17 111.384 137.483 109.18 138.351 108.224C137.989 108 137.584 107.856 137.162 107.8C135.741 107.764 133.195 109.03 131.019 109.186C128.842 109.341 125.263 107.812 123.99 107.806C122.717 107.8 119.619 110.458 117.805 110.715C115.992 110.972 111.71 110.661 110.039 110.936C108.368 111.21 106.548 115.117 104.913 115.619C103.277 116.121 99.3705 115.499 97.5151 116.587C95.6597 117.674 94.0244 126.932 93.9887 129.089C93.953 131.245 96.1652 133.228 96.1652 133.228C96.1652 133.228 102.635 146.429 104.491 147.869C106.346 149.309 112.334 146.907 112.334 146.907C115.397 151.889 116.36 151.943 119.827 151.59C123.663 151.196 124.906 149.577 124.906 149.577C124.906 149.577 126.922 151.405 127.998 151.495C129.074 151.584 135.729 150.39 135.729 150.39C135.729 150.39 137.418 153.078 139.13 152.307C144.34 149.984 151.476 148.723 152.718 148.46C153.961 148.198 156.512 144.189 155.68 141.878Z" fill="#92E3A9"/>
<path d="M112.364 146.913C112.364 146.913 106.417 149.303 104.52 147.875C102.623 146.447 96.1945 133.234 96.1945 133.234C96.1945 133.234 93.9823 131.257 94.018 129.095C94.0537 126.932 95.6831 117.68 97.5444 116.593C99.4057 115.505 103.301 116.15 104.942 115.625C106.583 115.099 108.403 111.216 110.068 110.942C111.733 110.667 116.015 110.978 117.835 110.721C119.654 110.464 122.741 107.8 124.019 107.812C125.298 107.824 128.878 109.347 131.048 109.191C133.219 109.036 135.77 107.77 137.191 107.806C138.612 107.842 143.001 111.557 143.804 112.345C144.607 113.134 146.944 127.398 146.944 127.398C146.944 127.398 151.291 130.714 152.468 132.35C153.646 133.987 154.847 139.566 155.685 141.878C156.524 144.189 153.997 148.18 152.76 148.448C151.523 148.717 144.381 149.972 139.171 152.295C137.459 153.066 135.77 150.378 135.77 150.378C135.77 150.378 129.104 151.573 128.039 151.483C126.975 151.393 124.947 149.566 124.947 149.566C124.947 149.566 123.704 151.184 119.868 151.579C116.39 151.949 115.426 151.895 112.364 146.913Z" stroke="#263238" stroke-linecap="round" stroke-linejoin="round"/>
<path d="M96.1887 133.234C96.1887 133.234 94.8328 129.776 95.1004 127.482" stroke="#263238" stroke-linecap="round" stroke-linejoin="round"/>
<path d="M114.665 113.719C115.736 114.723 114.487 121.401 114.487 121.401" stroke="#263238" stroke-linecap="round" stroke-linejoin="round"/>
<path d="M126.838 110.583C128.081 112.148 127.558 115.894 127.284 118.193" stroke="#263238" stroke-linecap="round" stroke-linejoin="round"/>
<path d="M134.384 124.43C134.384 124.43 134.021 129.053 134.414 129.961C134.806 130.869 135.603 138.676 135.936 140.773C136.269 142.869 136.775 146.226 136.977 147.057C137.179 147.887 137.042 150.175 135.788 150.396" stroke="#263238" stroke-linecap="round" stroke-linejoin="round"/>
<path d="M136.484 144.225C136.484 144.225 137.548 146.495 138.304 146.615C140.43 146.528 142.547 146.282 144.637 145.88C145.624 145.641 148.675 140.701 148.829 139.309C148.984 137.917 146.938 127.428 146.938 127.428" stroke="#263238" stroke-linecap="round" stroke-linejoin="round"/>
<path d="M124.935 149.583C124.073 148.544 122.842 143.353 122.265 138.3C121.688 133.246 121.557 130.289 121.188 128.933" stroke="#263238" stroke-linecap="round" stroke-linejoin="round"/>
<path d="M112.364 146.913C112.364 146.913 110.806 141.221 110.532 139.745C110.259 138.27 109.783 133.216 109.783 133.216C108.866 132.205 108.153 131.024 107.684 129.74" stroke="#263238" stroke-linecap="round" stroke-linejoin="round"/>
<path d="M140.878 110.691C141.473 112.065 141.521 116.3 141.521 116.3" stroke="#263238" stroke-linecap="round" stroke-linejoin="round"/>
<path d="M148.841 139.255C148.3 140.755 140.391 142.475 138.731 141.048" stroke="#263238" stroke-linecap="round" stroke-linejoin="round"/>
<path d="M134.961 147.11C134.134 148.215 126.243 149.327 125.28 148.813" stroke="#263238" stroke-linecap="round" stroke-linejoin="round"/>
<path d="M97.1045 121.652C97.3126 123.444 99.3167 126.132 99.3167 126.132" stroke="#263238" stroke-linecap="round" stroke-linejoin="round"/>
<path d="M150.887 140.564C152.409 139.936 154.49 144.177 154.49 144.177" stroke="#263238" stroke-linecap="round" stroke-linejoin="round"/>
<path d="M155.679 98.6365C155.106 99.4187 154.478 100.159 153.8 100.853C153.146 101.54 152.438 102.203 151.719 102.836C149.261 104.964 146.629 106.88 143.851 108.564C135.912 101.002 127.635 89.5032 131.31 86.9825C134.985 84.4617 133.908 77.7297 133.908 77.7297C134.433 77.7103 134.957 77.7323 135.478 77.7954C142.947 78.6496 152.557 87.1019 155.418 93.3799C156.387 95.5005 156.571 97.3702 155.679 98.6365Z" fill="white"/>
<mask id="mask5_169_420" style="mask-type:luminance" maskUnits="userSpaceOnUse" x="130" y="77" width="27" height="32">
<path d="M155.679 98.6365C155.106 99.4187 154.478 100.159 153.8 100.853C153.146 101.54 152.438 102.203 151.719 102.836C149.261 104.964 146.629 106.88 143.851 108.564C135.912 101.002 127.635 89.5032 131.31 86.9825C134.985 84.4617 133.908 77.7297 133.908 77.7297C134.433 77.7103 134.957 77.7323 135.478 77.7954C142.947 78.6496 152.557 87.1019 155.418 93.3799C156.387 95.5005 156.571 97.3702 155.679 98.6365Z" fill="white"/>
</mask>
<g mask="url(#mask5_169_420)">
<path opacity="0.4" d="M153.8 100.829C153.146 101.516 152.438 102.179 151.719 102.812C149.261 104.94 146.629 106.856 143.851 108.54C135.912 100.978 127.635 89.4793 131.31 86.9586C134.985 84.4378 133.908 77.7297 133.908 77.7297C134.433 77.7103 134.957 77.7323 135.478 77.7954C135.823 81.6303 136.115 87.1736 135.068 88.5475C133.421 90.674 131.964 91.0623 131.964 91.0623C131.964 91.0623 137.91 102.657 144.678 106.742C144.678 106.73 147.372 101.223 153.8 100.829Z" fill="#92E3A9"/>
<path d="M155.68 98.6366C154.514 100.17 153.186 101.572 151.719 102.818C149.787 103.883 147.7 104.635 145.535 105.046C139.653 99.9328 137.887 89.4854 137.887 89.4854C137.887 89.4854 149.977 90.5606 155.418 93.3919C156.387 95.5005 156.572 97.3702 155.68 98.6366Z" fill="#263238"/>
</g>
<path d="M155.679 98.6365C155.106 99.4187 154.478 100.159 153.8 100.853C153.146 101.54 152.438 102.203 151.719 102.836C149.261 104.964 146.629 106.88 143.851 108.564C135.912 101.002 127.635 89.5032 131.31 86.9825C134.985 84.4617 133.908 77.7297 133.908 77.7297C134.433 77.7103 134.957 77.7323 135.478 77.7954C142.947 78.6496 152.557 87.1019 155.418 93.3799C156.387 95.5005 156.571 97.3702 155.679 98.6365Z" stroke="#263238" stroke-linecap="round" stroke-linejoin="round"/>
<path d="M135.996 85.1487C135.996 85.1487 135.8 87.538 136.067 88.4519C137.477 93.2963 143.715 101.593 146.534 102.28C149.352 102.967 152.98 102.878 154.889 101.086C158.403 97.8421 165.593 92.5795 166.532 88.0876C167.472 83.5956 172.063 75.9318 172.063 67.5272C172.063 62.9218 171.409 51.2916 158.296 47.8748C139.558 42.9886 135.824 54.6128 134.378 62.5275C133.748 65.9921 133.701 70.7588 133.754 74.1816" fill="white"/>
<mask id="mask6_169_420" style="mask-type:luminance" maskUnits="userSpaceOnUse" x="133" y="46" width="40" height="57">
<path d="M135.996 85.1487C135.996 85.1487 135.8 87.538 136.067 88.4519C137.477 93.2963 143.715 101.593 146.534 102.28C149.352 102.967 152.98 102.878 154.889 101.086C158.403 97.8421 165.593 92.5795 166.532 88.0876C167.472 83.5956 172.063 75.9318 172.063 67.5272C172.063 62.9218 171.409 51.2916 158.296 47.8748C139.558 42.9886 135.824 54.6128 134.378 62.5275C133.748 65.9921 133.701 70.7588 133.754 74.1816" fill="white"/>
</mask>
<g mask="url(#mask6_169_420)">
<path opacity="0.4" d="M172.063 67.5392C172.063 75.9437 167.472 83.6075 166.533 88.0995C165.593 92.5915 158.403 97.854 154.889 101.098C153.875 101.941 152.632 102.457 151.321 102.579C155.21 100.19 154.199 98.1826 154.199 98.1826C153.318 98.5759 152.338 98.6865 151.392 98.4991C149.828 98.1826 150.001 96.2532 150.001 96.2532C150.944 95.9068 151.981 95.9217 152.915 96.295C154.437 96.8923 156.257 94.4014 156.28 94.1685C156.304 93.9355 153.658 93.607 153.658 93.607L157.042 92.8424L154.3 91.3192C154.3 91.3192 153.985 91.8807 152.57 92.0419C151.154 92.2032 150.292 88.661 150.292 88.661L158.314 84.85C158.314 84.85 158.314 83.7688 158.16 81.7797C158.078 80.6148 158.13 79.4443 158.314 78.2912L158.713 77.007L159.831 77.7297C159.831 77.7297 165.432 75.418 165.421 73.7634C165.409 72.1088 166.842 70.6155 167.799 67.8677C168.757 65.12 167.478 61.0043 167.478 61.0043C167.478 61.0043 165.694 58.0893 169.155 59.1167C170.011 59.3676 170.838 60.4368 171.599 61.9003C171.931 63.761 172.086 65.649 172.063 67.5392Z" fill="#92E3A9"/>
</g>
<path d="M135.996 85.1487C135.996 85.1487 135.8 87.538 136.067 88.4519C137.477 93.2963 143.715 101.593 146.534 102.28C149.352 102.967 152.98 102.878 154.889 101.086C158.403 97.8421 165.593 92.5795 166.532 88.0876C167.472 83.5956 172.063 75.9318 172.063 67.5272C172.063 62.9218 171.409 51.2916 158.296 47.8748C139.558 42.9886 135.824 54.6128 134.378 62.5275C133.748 65.9921 133.701 70.7588 133.754 74.1816" stroke="#263238" stroke-linecap="round" stroke-linejoin="round"/>
<path d="M141.36 72.6225C142.418 72.3835 147.241 75.5733 151.005 76.995C154.77 78.4166 153.384 75.9138 153.384 75.9138" stroke="#263238" stroke-linecap="round" stroke-linejoin="round"/>
<path d="M158.885 76.4036L158.29 78.2912C158.29 78.2912 160.764 78.7631 164.052 76.4036C167.341 74.0442 168.643 74.5818 169.113 75.0178" stroke="#263238" stroke-linecap="round" stroke-linejoin="round"/>
<path d="M147.652 77.8432C147.563 78.5361 147.123 79.0379 146.671 78.9841C146.219 78.9304 145.927 78.3151 146.022 77.6282C146.118 76.9412 146.552 76.4335 147.004 76.4872C147.456 76.541 147.729 77.1324 147.652 77.8432Z" fill="#263238"/>
<path d="M162.916 79.6949C162.827 80.3819 162.387 80.8896 161.935 80.8299C161.483 80.7701 161.192 80.1609 161.287 79.4739C161.382 78.787 161.816 78.2792 162.268 78.333C162.72 78.3868 163.012 79.002 162.916 79.6949Z" fill="#263238"/>
<path d="M145.986 92.8662C147.81 92.7763 149.637 92.9779 151.398 93.4636C152.315 93.7108 153.281 93.7108 154.199 93.4636C154.199 93.4636 156.256 92.9618 157.511 93.6487" fill="white"/>
<path d="M145.986 92.8662C147.81 92.7763 149.637 92.9779 151.398 93.4636C152.315 93.7108 153.281 93.7108 154.199 93.4636C154.199 93.4636 156.256 92.9618 157.511 93.6487" stroke="#263238" stroke-linecap="round" stroke-linejoin="round"/>
<path d="M148.841 95.387C148.841 95.387 149.626 96.2531 150.03 96.2531C150.435 96.2531 152.92 96.0142 153.438 96.2531C153.955 96.492 155.132 95.6199 155.132 95.387" fill="white"/>
<path d="M148.841 95.387C148.841 95.387 149.626 96.2531 150.03 96.2531C150.435 96.2531 152.92 96.0142 153.438 96.2531C153.955 96.492 155.132 95.6199 155.132 95.387" stroke="#263238" stroke-linecap="round" stroke-linejoin="round"/>
<path d="M136.579 75.0178L137.673 74.6355C137.673 74.6355 137.203 69.4685 138.773 68.0648C140.343 66.6611 143.631 65.2274 143.631 64.439C143.631 63.6505 144.262 57.4621 144.731 57.0141C144.731 57.0141 154.454 62.2348 159.628 63.4952C164.802 64.7555 170.296 62.5514 170.296 62.5514C170.296 62.5514 170.766 68.8533 170.296 71.0575C169.827 73.2616 170.505 76.7381 170.505 76.7381C170.505 76.7381 176.493 67.5929 172.063 58.137C172.063 58.137 173.745 51.5245 169.119 46.0111C164.492 40.4977 149.982 42.5406 149.982 42.5406C149.982 42.5406 152.664 42.8572 153.64 43.6457C151.283 42.8708 148.768 42.7099 146.332 43.1779C143.896 43.646 141.618 44.7277 139.712 46.3217C132.969 51.8351 131.756 67.0314 133.908 77.7476C133.908 77.7476 134.224 72.0012 135.009 71.2128C135.794 70.4243 136.579 75.0178 136.579 75.0178Z" fill="#263238"/>
<path d="M135.556 72.6105C135.556 72.6105 134.616 68.7697 133.974 68.0529C133.332 67.3361 130.447 68.8294 130.21 70.3287C129.972 71.828 130.525 77.5804 131.072 78.333C131.619 79.0857 133.112 79.8682 133.974 81.5228C134.836 83.1774 135.859 83.0162 136.091 81.5228C136.165 81.0982 136.133 80.6618 135.997 80.2529C135.861 79.844 135.625 79.4757 135.312 79.1812" fill="white"/>
<path d="M135.556 72.6105C135.556 72.6105 134.616 68.7697 133.974 68.0529C133.332 67.3361 130.447 68.8294 130.21 70.3287C129.972 71.828 130.525 77.5804 131.072 78.333C131.619 79.0857 133.112 79.8682 133.974 81.5228C134.836 83.1774 135.859 83.0162 136.091 81.5228C136.165 81.0982 136.133 80.6618 135.997 80.2529C135.861 79.844 135.625 79.4757 135.312 79.1812" stroke="#263238" stroke-linecap="round" stroke-linejoin="round"/>
<path d="M161.031 61.8585C161.792 62.1883 162.521 62.5882 163.208 63.0531C163.919 63.5067 164.549 64.0783 165.069 64.7436C165.34 65.1009 165.542 65.5061 165.664 65.9383C165.793 66.3812 165.808 66.8501 165.706 67.3002C165.459 68.1169 164.969 68.8381 164.302 69.367C163.726 69.9633 163.019 70.4172 162.239 70.6931C161.82 70.8186 161.373 70.8186 160.954 70.6931C160.542 70.5464 160.195 70.2588 159.973 69.8807C159.768 69.5174 159.669 69.1036 159.687 68.6864C159.704 68.2692 159.839 67.8655 160.074 67.5212C160.266 67.1655 160.561 66.8764 160.92 66.692C161.278 66.5076 161.684 66.4364 162.084 66.4878C161.695 66.459 161.307 66.5499 160.972 66.7484C160.636 66.947 160.368 67.2436 160.205 67.5989C160.005 67.9161 159.899 68.2838 159.899 68.6591C159.899 69.0345 160.005 69.4022 160.205 69.7194C160.402 70.0123 160.698 70.2243 161.037 70.3168C161.383 70.3874 161.742 70.3584 162.072 70.2331C162.761 69.9364 163.372 69.4824 163.856 68.907C164.393 68.4218 164.77 67.7844 164.938 67.0792C164.983 66.7464 164.953 66.4079 164.85 66.0885C164.747 65.7691 164.574 65.4769 164.344 65.2334C163.293 64.1776 162.007 63.3891 160.591 62.9337L161.031 61.8585Z" fill="#263238"/>
<path d="M170.903 59.1167C170.903 59.1167 173.793 48.2691 166.039 44.3027C161.573 42.0209 152.896 42.5705 152.896 42.5705" stroke="white" stroke-linecap="round" stroke-linejoin="round"/>
<path d="M133.498 66.5177C133.498 66.5177 132.63 55.6462 137.179 49.1949C141.729 42.7437 150.042 42.1822 155.923 44.7866" stroke="white" stroke-linecap="round" stroke-linejoin="round"/>
<path d="M172.063 59.1167C173.201 61.7123 173.626 64.5671 173.294 67.3838C172.99 69.9121 172.245 72.3668 171.093 74.6355" stroke="white" stroke-linecap="round" stroke-linejoin="round"/>
<path d="M163.708 61.9481C163.708 61.9481 169.41 56.5123 166.277 48.6394" stroke="white" stroke-linecap="round" stroke-linejoin="round"/>
<path d="M161.258 61.9481C161.258 61.9481 165.295 50.527 154.984 47.379" stroke="white" stroke-linecap="round" stroke-linejoin="round"/>
<path d="M158.296 61.0043C158.296 61.0043 154.163 48.8724 141.36 51.3155" stroke="white" stroke-linecap="round" stroke-linejoin="round"/>
<path d="M158.296 79.5815C157.826 80.1788 158.296 82.2516 158.296 84.85C158.296 85.8296 158.843 90.6143 157.006 90.9727C154.187 91.5282 153.277 89.0075 151.79 88.9238C150.304 88.8402 150.006 88.7685 150.006 87.8247C150.033 87.5847 150.107 87.3524 150.224 87.1419C150.342 86.9314 150.501 86.7469 150.692 86.5996C150.882 86.4523 151.1 86.3452 151.333 86.2848C151.566 86.2243 151.808 86.2117 152.046 86.2478" fill="white"/>
<path d="M158.296 79.5815C157.826 80.1788 158.296 82.2516 158.296 84.85C158.296 85.8296 158.843 90.6143 157.006 90.9727C154.187 91.5282 153.277 89.0075 151.79 88.9238C150.304 88.8402 150.006 88.7685 150.006 87.8247C150.033 87.5847 150.107 87.3524 150.224 87.1419C150.342 86.9314 150.501 86.7469 150.692 86.5996C150.882 86.4523 151.1 86.3452 151.333 86.2848C151.566 86.2243 151.808 86.2117 152.046 86.2478" stroke="#263238" stroke-linecap="round" stroke-linejoin="round"/>
<path d="M54.6094 188.374L96.1889 186.63L99.4714 199.604L94.1491 205.584L56.4767 207.806L52.8789 193.87L54.6094 188.374Z" fill="white"/>
<path d="M147.414 210.034L151.386 201.349L188.268 210.303L189.956 219.771L186.638 227.512L152.183 219.107L147.414 210.034Z" fill="white"/>
<path d="M57.2734 89.2823L89.582 72.6106L98.1987 74.7013V91.6179L68.5662 105.375H59.1585L57.2734 89.2823Z" fill="white"/>
<path d="M97.0926 23.4677L90.688 37.1646L93.8873 44.5596L127.629 52.1458L138.547 42.1583L134.961 30.1937L97.0926 23.4677Z" fill="white"/>
<path d="M184.569 82.7056L179.431 95.1242L179.811 101.617L214.112 109.831L220.071 97.7346V91.6178L184.569 82.7056Z" fill="white"/>
<path d="M23.5731 130.242L18.0664 144.016L20.005 150.426L55.2691 160.33L61.6677 146.913V140.128L23.5731 130.242Z" fill="white"/>
<path d="M204.104 128.521L201.886 135.349L204.58 149.81L244.809 149.924L248.716 144.912L246.213 128.712L204.104 128.521Z" fill="white"/>
<path opacity="0.4" d="M90.688 37.1646L124.816 43.3231L134.961 30.1937L138.547 42.1583L127.629 52.1458L93.8873 44.5596L90.688 37.1646Z" fill="#92E3A9"/>
<path opacity="0.4" d="M98.1987 74.7013L67.7813 90.7696L68.5662 105.375H59.1585L57.2734 89.2823L89.582 72.6106L98.1987 74.7013Z" fill="#92E3A9"/>
<path opacity="0.4" d="M18.0664 144.016L53.9013 154.111L61.6677 140.128V146.913L55.2691 160.33L20.005 150.426L18.0664 144.016Z" fill="#92E3A9"/>
<path opacity="0.4" d="M54.6094 188.374L59.3133 202.555L99.4714 199.604L94.1491 205.584L56.4767 207.806L52.8789 193.87L54.6094 188.374Z" fill="#92E3A9"/>
<path opacity="0.4" d="M151.386 201.349L156.797 211.533L189.956 219.771L186.638 227.512L152.183 219.107L147.414 210.034L151.386 201.349Z" fill="#92E3A9"/>
<path opacity="0.4" d="M204.104 128.521L208.939 144.178L248.716 144.912L244.809 149.924L204.58 149.81L201.886 135.349L204.104 128.521Z" fill="#92E3A9"/>
<path opacity="0.4" d="M179.811 101.617L187.054 87.7053L220.071 97.7346V91.6178L184.569 82.7056L179.431 95.1242L179.811 101.617Z" fill="#92E3A9"/>
<path opacity="0.4" d="M57.2734 89.2822L67.7813 90.7696L68.5662 105.374H59.1585L57.2734 89.2822Z" fill="#92E3A9"/>
<path opacity="0.4" d="M124.816 43.3232L127.629 52.1458L93.8873 44.5596L90.688 37.1646L124.816 43.3232Z" fill="#92E3A9"/>
<path opacity="0.4" d="M184.569 82.7056L187.054 87.7053L179.811 101.617L179.431 95.1242L184.569 82.7056Z" fill="#92E3A9"/>
<path opacity="0.4" d="M204.58 149.81L208.939 144.178L248.716 144.912L244.809 149.924L204.58 149.81Z" fill="#92E3A9"/>
<path opacity="0.4" d="M156.797 211.533L152.183 219.107L147.414 210.034L151.386 201.349L156.797 211.533Z" fill="#92E3A9"/>
<path opacity="0.4" d="M59.3131 202.555L56.4766 207.806L94.149 205.584L99.4713 199.604L59.3131 202.555Z" fill="#92E3A9"/>
<path opacity="0.4" d="M18.0664 144.016L53.9013 154.111L55.2691 160.33L20.005 150.426L18.0664 144.016Z" fill="#92E3A9"/>
<path d="M54.6094 188.374L96.1888 186.63L99.4714 199.604L94.1491 205.584L56.4767 207.806L52.8789 193.87L54.6094 188.374Z" stroke="#263238" stroke-linecap="round" stroke-linejoin="round"/>
<path d="M147.414 210.034L151.386 201.349L188.268 210.303L189.956 219.771L186.638 227.512L152.183 219.107L147.414 210.034Z" stroke="#263238" stroke-linecap="round" stroke-linejoin="round"/>
<path d="M57.2734 89.2823L89.582 72.6106L98.1987 74.7013V91.6179L68.5662 105.375H59.1585L57.2734 89.2823Z" stroke="#263238" stroke-linecap="round" stroke-linejoin="round"/>
<path d="M97.0926 23.4677L90.688 37.1646L93.8873 44.5596L127.629 52.1458L138.547 42.1583L134.961 30.1937L97.0926 23.4677Z" stroke="#263238" stroke-linecap="round" stroke-linejoin="round"/>
<path d="M184.569 82.7056L179.431 95.1242L179.811 101.617L214.112 109.831L220.071 97.7346V91.6178L184.569 82.7056Z" stroke="#263238" stroke-linecap="round" stroke-linejoin="round"/>
<path d="M23.5731 130.242L18.0664 144.016L20.005 150.426L55.2691 160.33L61.6677 146.913V140.128L23.5731 130.242Z" stroke="#263238" stroke-linecap="round" stroke-linejoin="round"/>
<path d="M204.104 128.521L201.886 135.349L204.58 149.81L244.809 149.924L248.716 144.912L246.213 128.712L204.104 128.521Z" stroke="#263238" stroke-linecap="round" stroke-linejoin="round"/>
<path d="M106.054 39.9362L124.816 43.3231L126.838 49.6609" stroke="#263238" stroke-linecap="round" stroke-linejoin="round"/>
<path d="M134.961 30.1937L130.168 36.394" stroke="#263238" stroke-linecap="round" stroke-linejoin="round"/>
<path d="M128.741 38.2458L127.629 39.6794" stroke="#263238" stroke-linecap="round" stroke-linejoin="round"/>
<path d="M90.688 37.1646L94.2382 37.8038" stroke="#263238" stroke-linecap="round" stroke-linejoin="round"/>
<path d="M184.568 82.7056L187.054 87.7053L184.229 93.1351" stroke="#263238" stroke-linecap="round" stroke-linejoin="round"/>
<path d="M189.832 88.5475L197.253 90.8055" stroke="#263238" stroke-linecap="round" stroke-linejoin="round"/>
<path d="M199.751 91.564L201.886 92.2092" stroke="#263238" stroke-linecap="round" stroke-linejoin="round"/>
<path d="M181.155 99.0427L179.811 101.617" stroke="#263238" stroke-linecap="round" stroke-linejoin="round"/>
<path d="M221.01 144.399L208.939 144.178L207.803 140.498" stroke="#263238" stroke-linecap="round" stroke-linejoin="round"/>
<path d="M225.304 144.398H226.648" stroke="#263238" stroke-linecap="round" stroke-linejoin="round"/>
<path d="M204.104 128.521L206.25 135.486" stroke="#263238" stroke-linecap="round" stroke-linejoin="round"/>
<path d="M204.58 149.81L207.047 146.615" stroke="#263238" stroke-linecap="round" stroke-linejoin="round"/>
<path d="M154.431 207.071L156.797 211.533L163.327 213.152" stroke="#263238" stroke-linecap="round" stroke-linejoin="round"/>
<path d="M166.241 213.881L169.452 214.675" stroke="#263238" stroke-linecap="round" stroke-linejoin="round"/>
<path d="M189.957 219.771L184.569 218.432" stroke="#263238" stroke-linecap="round" stroke-linejoin="round"/>
<path d="M155.442 213.761L153.711 216.599" stroke="#263238" stroke-linecap="round" stroke-linejoin="round"/>
<path d="M57.9336 205.106L59.3132 202.555L67.7695 201.934" stroke="#263238" stroke-linecap="round" stroke-linejoin="round"/>
<path d="M72.9551 201.552L75.7144 201.349" stroke="#263238" stroke-linecap="round" stroke-linejoin="round"/>
<path d="M54.6094 188.374L56.4766 194.007" stroke="#263238" stroke-linecap="round" stroke-linejoin="round"/>
<path d="M59.3132 202.555L57.9336 198.087" stroke="#263238" stroke-linecap="round" stroke-linejoin="round"/>
<path d="M54.6095 157.241L53.9019 154.111L56.7622 148.956" stroke="#263238" stroke-linecap="round" stroke-linejoin="round"/>
<path d="M61.668 140.128L59.5034 144.016" stroke="#263238" stroke-linecap="round" stroke-linejoin="round"/>
<path d="M18.0664 144.016L29.7458 147.308" stroke="#263238" stroke-linecap="round" stroke-linejoin="round"/>
<path d="M33.9146 148.478L49.3582 152.833" stroke="#263238" stroke-linecap="round" stroke-linejoin="round"/>
<path d="M74.2691 87.3469L67.7812 90.7697L68.1559 97.7346" stroke="#263238" stroke-linecap="round" stroke-linejoin="round"/>
<path d="M68.566 105.38L68.3638 101.617" stroke="#263238" stroke-linecap="round" stroke-linejoin="round"/>
<path d="M81.2207 83.6732L88.1189 80.0295" stroke="#263238" stroke-linecap="round" stroke-linejoin="round"/>
<path d="M57.2734 89.2822L64.3262 90.2798" stroke="#263238" stroke-linecap="round" stroke-linejoin="round"/>
<path d="M67.7814 90.7701L66.6753 90.6143" stroke="#263238" stroke-linecap="round" stroke-linejoin="round"/>
</svg>
