<svg width="468" height="421" viewBox="0 0 468 421" fill="none" xmlns="http://www.w3.org/2000/svg">
<path d="M0.000244206 239.051L156.703 239.051L156.703 0.0115082L0.000244206 0.0115082L0.000244206 239.051Z" fill="#EBEBEB"/>
<path d="M90.4679 115.898L156.703 115.898V9.5708L90.4679 9.5708L90.4679 115.898Z" fill="white"/>
<path d="M16.9999 115.898L83.2353 115.898L83.2353 9.5708L16.9999 9.5708L16.9999 115.898Z" fill="white"/>
<path d="M90.4679 229.469H156.703V123.142L90.4679 123.142L90.4679 229.469Z" fill="white"/>
<path d="M16.9999 229.469H83.2353L83.2353 123.142L16.9999 123.142L16.9999 229.469Z" fill="white"/>
<path d="M60.4538 0H0V341.992H34.9893L10.5728 167.967L60.4538 0Z" fill="#DBDBDB"/>
<path d="M49.9846 9.24831L40.4023 48.9942L30.6472 88.7055L11.1255 168.105L11.137 167.909L20.1665 250.891L24.6813 292.387L29.0002 333.895L24.1169 292.445L19.4064 250.971L9.99683 168.036V167.932L10.0199 167.829L29.9101 88.5213L39.861 48.8675L49.9846 9.24831Z" fill="#EBEBEB"/>
<path d="M3.605 16.2623L3.88141 50.5605L4.04265 84.8588L4.18086 153.455L4.04265 222.04L3.88141 256.339L3.605 290.637L3.31707 256.339L3.15583 222.04L3.02914 153.455L3.16734 84.8588L3.32858 50.5605L3.605 16.2623Z" fill="#EBEBEB"/>
<path d="M14.9035 22.6889L13.0262 59.1409L10.9876 95.5928L6.93355 168.474C7.33666 182.018 7.60155 195.551 7.93555 209.083L8.89148 249.693L9.84741 290.303L10.6191 330.924L9.23699 290.337L8.08527 249.728L6.93355 209.129C6.565 195.585 6.11583 182.053 5.78183 168.52L10.2505 95.6504L12.4964 59.2215L14.9035 22.6889Z" fill="#EBEBEB"/>
<path d="M22.7693 325.615L18.8073 286.272L14.9951 246.906C12.542 220.658 9.98515 194.422 7.62413 168.163V168.013L18.8304 106.73L24.5084 76.1173L30.267 45.5045L24.9806 76.2094L19.602 106.88L8.69523 168.255V168.105C11.206 194.353 13.5209 220.612 15.9396 246.871L19.3947 286.26L22.7693 325.615Z" fill="#EBEBEB"/>
<path d="M0.000319567 173.081H13.6482L13.6482 165.111H0.000319567L0.000319567 173.081Z" fill="#DBDBDB"/>
<path d="M96.2603 0H156.714V341.992H121.725L146.141 167.967L96.2603 0Z" fill="#DBDBDB"/>
<path d="M106.73 9.24831L116.854 48.8675L126.804 88.5213L146.695 167.829L146.729 167.932L146.718 168.036L137.308 250.971L132.598 292.445L127.714 333.895L132.033 292.387L136.548 250.891L145.577 167.909L145.589 168.105L126.067 88.7055L116.312 48.9942L106.73 9.24831Z" fill="#EBEBEB"/>
<path d="M153.109 16.2623L153.397 50.5605L153.558 84.8588L153.685 153.455L153.558 222.04L153.397 256.339L153.109 290.637L152.833 256.339L152.671 222.04L152.533 153.455L152.671 84.8588L152.833 50.5605L153.109 16.2623Z" fill="#EBEBEB"/>
<path d="M141.823 22.6889L144.219 59.1178L146.522 95.5468L150.899 168.416C150.599 181.949 150.15 195.482 149.747 209.026L148.596 249.624L147.444 290.337L146.096 330.935L146.868 290.314L147.824 249.705L148.78 209.095C149.125 195.562 149.379 182.029 149.782 168.485L145.682 95.6043L143.643 59.1524L141.823 22.6889Z" fill="#EBEBEB"/>
<path d="M133.945 325.615L137.297 286.214L140.752 246.825C143.17 220.566 145.485 194.307 147.996 168.059V168.255L137.078 106.88L131.699 76.1978L126.401 45.493L132.16 76.1057L137.849 106.73L149.056 168.013V168.163C146.683 194.422 144.138 220.658 141.685 246.906L137.849 286.272L133.945 325.615Z" fill="#EBEBEB"/>
<path d="M156.703 165.099H143.055V173.069H156.703V165.099Z" fill="#DBDBDB"/>
<path d="M333.85 262.903V421H429.443V262.903H333.85ZM420.736 362.654H342.522V321.491H420.736V362.654ZM420.736 311.69H342.522V270.539H420.736V311.69Z" fill="#EBEBEB"/>
<path d="M467.633 262.903H429.418V420.988H467.633V262.903Z" fill="#DBDBDB"/>
<path d="M361.111 270.539H342.522V311.69H361.111V270.539Z" fill="#DBDBDB"/>
<path d="M421.311 411.648H342.441V371.257H421.311V411.648ZM343.593 410.496H420.159V372.409H343.593V410.496Z" fill="#DBDBDB"/>
<path d="M386.333 382.867H370.9V390.675H386.333V382.867Z" fill="#DBDBDB"/>
<path d="M391.482 390.675H374.885V382.89H391.482V390.675ZM376.037 389.523H390.33V384.041H376.037V389.523Z" fill="#DBDBDB"/>
<path d="M361.111 321.503H342.522V362.654H361.111V321.503Z" fill="#DBDBDB"/>
<path d="M428.36 196.645C439.301 207.356 441.133 223.918 438.829 238.429C438.771 238.763 438.265 238.671 438.265 238.36C438.265 235.055 438.357 231.784 438.345 228.524L438.184 228.087C435.238 226.147 432.801 223.529 431.078 220.451C429.247 216.858 428.533 212.803 427.128 209.049C427.001 208.692 427.381 208.795 427.634 208.98C434.291 213.886 436.41 219.172 438.322 226.256C438.287 222.565 437.901 218.886 437.171 215.268C435.731 208.577 432.886 201.931 428.084 196.967C428.062 196.949 428.045 196.927 428.032 196.902C428.02 196.877 428.012 196.85 428.01 196.822C428.008 196.795 428.011 196.767 428.02 196.74C428.029 196.714 428.042 196.689 428.06 196.668C428.079 196.647 428.101 196.629 428.126 196.617C428.151 196.604 428.178 196.596 428.205 196.594C428.233 196.592 428.261 196.596 428.288 196.604C428.314 196.613 428.339 196.627 428.36 196.645Z" fill="#A6A6A6"/>
<path d="M426.298 197.889C424.421 197.958 423.246 200.964 421.772 201.839C421.619 201.965 421.441 202.057 421.25 202.109C421.059 202.162 420.859 202.173 420.663 202.143C420.467 202.112 420.28 202.041 420.114 201.933C419.948 201.825 419.806 201.683 419.699 201.517C418.248 199.49 420.24 196.979 422.117 195.585C420.77 196.138 419.664 197.105 418.213 197.382C418.028 197.441 417.832 197.459 417.639 197.437C417.446 197.414 417.259 197.35 417.093 197.25C416.926 197.15 416.783 197.015 416.672 196.855C416.561 196.695 416.486 196.514 416.451 196.322C415.817 193.558 419.284 192.326 421.668 192.268C420.516 191.462 417.2 189.285 418.962 188.214C420.724 187.143 424.617 190.253 425.872 191.278C427.738 192.787 429.961 195.044 430.041 197.405C430.156 200.169 427.749 198.465 426.298 197.889Z" fill="#DBDBDB"/>
<path d="M426.851 198.349C424.444 197.255 419.814 198.833 419.422 197.923C418.628 196.069 422.325 194.802 424.317 194.549C422.474 194.053 418.962 193.259 419.065 191.497C419.204 189.331 424.467 191.186 427.127 193.236C430.49 195.804 430.467 198.292 429.915 198.787C429.154 199.467 427.243 198.534 426.851 198.349Z" fill="#EBEBEB"/>
<path d="M453.271 195.585C441.938 205.87 439.45 222.351 441.224 236.944C441.224 237.278 441.777 237.208 441.788 236.944C441.915 233.638 441.938 230.367 442.076 227.108C442.145 226.958 442.191 226.82 442.26 226.67C445.282 224.849 447.819 222.324 449.654 219.311C451.612 215.786 452.488 211.767 454.031 208.07C454.169 207.713 453.778 207.805 453.524 207.989C446.694 212.596 444.368 217.836 442.191 224.816C442.369 221.127 442.898 217.463 443.769 213.875C445.462 207.241 448.549 200.71 453.547 195.931C453.731 195.7 453.467 195.401 453.271 195.585Z" fill="#A6A6A6"/>
<path d="M455.275 196.91C457.153 197.048 458.224 200.088 459.652 201.021C459.799 201.155 459.973 201.255 460.162 201.316C460.352 201.377 460.552 201.397 460.749 201.374C460.947 201.351 461.137 201.286 461.307 201.183C461.477 201.081 461.624 200.943 461.737 200.779C463.268 198.81 461.379 196.173 459.548 194.756C460.873 195.366 461.944 196.368 463.383 196.702C463.566 196.769 463.761 196.796 463.955 196.782C464.149 196.767 464.337 196.711 464.508 196.617C464.678 196.523 464.826 196.393 464.942 196.237C465.058 196.081 465.139 195.902 465.18 195.712C465.917 192.971 462.508 191.612 460.124 191.462C461.276 190.713 464.731 188.652 462.98 187.523C461.23 186.394 457.222 189.343 455.943 190.322C454.031 191.762 451.728 193.927 451.555 196.288C451.336 199.029 453.801 197.428 455.275 196.91Z" fill="#DBDBDB"/>
<path d="M454.722 197.347C457.164 196.345 461.725 198.096 462.151 197.198C463.015 195.378 459.375 193.973 457.394 193.65C459.248 193.224 462.796 192.568 462.75 190.794C462.75 188.617 457.371 190.276 454.688 192.222C451.232 194.664 451.163 197.152 451.693 197.67C452.373 198.372 454.307 197.52 454.722 197.347Z" fill="#EBEBEB"/>
<path d="M441.674 222.743C440.908 228.247 439.734 233.687 438.161 239.017C438.139 239.122 438.077 239.215 437.987 239.274C437.898 239.333 437.788 239.355 437.683 239.333C437.577 239.312 437.485 239.25 437.425 239.16C437.366 239.07 437.345 238.961 437.366 238.855C438.103 233.834 439.462 228.916 440.211 223.883C441.04 218.822 441.348 213.689 441.132 208.565C440.649 200.123 438.357 191.14 432.851 184.529C432.725 184.367 432.978 184.149 433.105 184.298C444.138 197.163 442.388 212.93 442.376 214.347C443.942 209.026 445.543 202.922 451.452 197.497C451.705 197.255 451.912 197.37 451.866 197.774C450.807 207.644 448.066 212.803 442.342 218.09C442.123 219.656 441.927 221.234 441.674 222.743Z" fill="#A6A6A6"/>
<path d="M432.702 186.003C430.721 185.128 427.98 187.65 426.01 187.823C425.788 187.876 425.558 187.882 425.333 187.84C425.109 187.798 424.896 187.708 424.709 187.578C424.521 187.447 424.364 187.278 424.247 187.082C424.13 186.886 424.056 186.667 424.029 186.441C423.534 183.607 426.863 182.018 429.512 181.5C427.842 181.408 426.206 181.845 424.571 181.408C424.349 181.376 424.136 181.298 423.946 181.178C423.757 181.058 423.595 180.899 423.472 180.711C423.349 180.524 423.267 180.312 423.232 180.091C423.197 179.869 423.21 179.643 423.269 179.427C424.006 176.236 428.222 176.709 430.721 177.837C429.926 176.432 427.588 172.505 429.949 172.274C432.31 172.044 434.798 177.238 435.593 178.943C436.744 181.442 437.896 184.909 436.836 187.396C435.558 190.31 433.911 187.339 432.702 186.003Z" fill="#DBDBDB"/>
<path d="M433.07 186.763C431.124 184.46 425.526 183.723 425.584 182.582C425.688 180.279 430.191 180.797 432.356 181.546C430.698 180.106 427.45 177.515 428.452 175.787C429.672 173.61 434.21 178.194 435.938 181.649C438.126 186.014 436.859 188.56 436.03 188.813C434.855 189.078 433.358 187.155 433.07 186.763Z" fill="#EBEBEB"/>
<path d="M448.941 225.726L453.801 262.903H424.19C424.801 259.609 430.318 225.68 430.318 225.68L448.941 225.726Z" fill="#EBEBEB"/>
</svg>
