<svg width="500" height="500" viewBox="0 0 500 500" fill="none" xmlns="http://www.w3.org/2000/svg">
<path d="M328.68 308.5C215.86 369.89 -36.0004 177.11 125.34 107.88C187.08 81.3802 273.59 98.9702 329.25 147.38C391.24 201.31 399.93 269.73 328.68 308.5Z" fill="#07933C"/>
<path opacity="0.9" d="M328.68 308.5C215.86 369.89 -36.0004 177.11 125.34 107.88C187.08 81.3802 273.59 98.9702 329.25 147.38C391.24 201.31 399.93 269.73 328.68 308.5Z" fill="white"/>
<path d="M250 427.56C357.083 427.56 443.89 422.492 443.89 416.24C443.89 409.988 357.083 404.92 250 404.92C142.918 404.92 56.1104 409.988 56.1104 416.24C56.1104 422.492 142.918 427.56 250 427.56Z" fill="#F5F5F5"/>
<path d="M377.26 416.24H272.94C271.215 416.249 269.507 415.907 267.918 415.235C266.329 414.562 264.894 413.574 263.698 412.331C262.503 411.087 261.573 409.613 260.965 407.999C260.357 406.385 260.083 404.664 260.16 402.94L271.8 102.52C271.978 98.9625 273.505 95.6064 276.071 93.1353C278.637 90.6643 282.048 89.2642 285.61 89.2203H389.93C391.655 89.2132 393.363 89.5564 394.951 90.2289C396.539 90.9015 397.974 91.8895 399.169 93.133C400.364 94.3766 401.294 95.8498 401.903 97.4634C402.511 99.077 402.786 100.797 402.71 102.52L391.07 402.94C390.892 406.498 389.365 409.854 386.799 412.325C384.233 414.796 380.822 416.196 377.26 416.24Z" fill="#263238"/>
<path d="M261.24 120.27H260.24L260.94 102.42C261.15 97.9588 263.059 93.7467 266.276 90.6486C269.493 87.5505 273.774 85.8013 278.24 85.7603V86.7603C274.032 86.8015 270 88.4508 266.969 91.3699C263.938 94.2891 262.139 98.257 261.94 102.46L261.24 120.27Z" fill="#07933C"/>
<path d="M293.83 85.7202H285.33V86.7202H293.83V85.7202Z" fill="#07933C"/>
<path d="M369.89 416.24H265.57C263.845 416.249 262.136 415.907 260.548 415.235C258.959 414.562 257.523 413.574 256.328 412.331C255.133 411.087 254.203 409.613 253.595 407.999C252.987 406.385 252.713 404.664 252.79 402.94L264.43 102.52C264.608 98.9625 266.135 95.6064 268.701 93.1353C271.267 90.6643 274.678 89.2642 278.24 89.2203H382.56C384.285 89.2132 385.993 89.5564 387.581 90.2289C389.169 90.9015 390.604 91.8895 391.799 93.133C392.994 94.3766 393.924 95.8498 394.532 97.4634C395.141 99.077 395.416 100.797 395.34 102.52L383.7 402.94C383.522 406.498 381.995 409.854 379.429 412.325C376.863 414.796 373.452 416.196 369.89 416.24Z" fill="#07933C"/>
<path opacity="0.8" d="M373.21 381.68H264.93C263.965 381.686 263.009 381.496 262.12 381.122C261.232 380.747 260.428 380.195 259.759 379.5C259.09 378.805 258.57 377.981 258.23 377.079C257.889 376.176 257.736 375.214 257.78 374.25L267.88 113.61C267.976 111.618 268.831 109.738 270.268 108.355C271.704 106.972 273.615 106.191 275.61 106.17H383.88C384.845 106.165 385.801 106.356 386.69 106.732C387.579 107.108 388.382 107.661 389.051 108.356C389.719 109.052 390.24 109.877 390.58 110.78C390.92 111.683 391.073 112.646 391.03 113.61L380.93 374.25C380.833 376.239 379.98 378.117 378.545 379.498C377.11 380.879 375.201 381.659 373.21 381.68Z" fill="white"/>
<path opacity="0.4" d="M327.24 381.68H300.24L345.78 106.17H372.78L327.24 381.68Z" fill="white"/>
<path opacity="0.4" d="M295.49 381.68H281.99L327.53 106.17H341.03L295.49 381.68Z" fill="white"/>
<path d="M344.61 301.12H291.37C288.91 301.12 286.96 298.43 286.85 294.89L285.34 245.46C285.22 241.39 287.56 237.86 290.39 237.86H350.39C353.22 237.86 355.29 241.39 354.86 245.46L349.6 294.89C349.22 298.43 347.06 301.12 344.61 301.12Z" fill="#07933C"/>
<path d="M344.61 303H291.37C287.86 303 285.121 299.53 284.981 294.95L283.47 245.52C283.325 242.729 284.288 239.994 286.15 237.91C286.692 237.321 287.346 236.848 288.075 236.518C288.803 236.188 289.591 236.008 290.391 235.99H350.39C351.188 236.009 351.971 236.197 352.69 236.542C353.409 236.887 354.047 237.381 354.56 237.99C355.428 239.06 356.067 240.296 356.439 241.622C356.81 242.948 356.906 244.336 356.72 245.7L351.46 295.13C351 299.59 348 303 344.61 303ZM290.391 239.73C290.093 239.754 289.803 239.835 289.537 239.971C289.271 240.106 289.034 240.293 288.84 240.52C287.686 241.875 287.102 243.624 287.21 245.4L288.72 294.83C288.79 297.27 289.98 299.25 291.37 299.25H344.61C345.88 299.25 347.45 297.42 347.74 294.69L353 245.26C353.126 244.419 353.083 243.562 352.874 242.737C352.664 241.913 352.293 241.139 351.78 240.46C351.616 240.244 351.407 240.067 351.167 239.94C350.927 239.814 350.662 239.743 350.39 239.73H290.391Z" fill="#07933C"/>
<path d="M349.6 296.76H349.4C349.156 296.734 348.919 296.66 348.704 296.542C348.488 296.424 348.298 296.265 348.143 296.074C347.989 295.883 347.874 295.663 347.805 295.427C347.736 295.191 347.714 294.944 347.74 294.7L353.52 240.37C354.42 231.88 359.77 225.48 365.96 225.48H370C370.496 225.48 370.972 225.677 371.323 226.028C371.673 226.378 371.87 226.854 371.87 227.35C371.87 227.846 371.673 228.322 371.323 228.672C370.972 229.023 370.496 229.22 370 229.22H366C361.8 229.22 358 234.29 357.28 240.77L351.5 295.1C351.45 295.565 351.227 295.994 350.875 296.301C350.523 296.609 350.068 296.773 349.6 296.76Z" fill="#07933C"/>
<path d="M302.32 319.51C301.279 319.492 300.253 319.261 299.306 318.831C298.358 318.401 297.509 317.781 296.81 317.01C294.37 314.47 293.01 310.32 293.17 305.91C293.46 298.44 297.99 292.37 303.28 292.37C304.321 292.386 305.347 292.616 306.296 293.046C307.244 293.476 308.093 294.097 308.79 294.87C311.23 297.41 312.59 301.56 312.43 305.97C312.14 313.44 307.61 319.51 302.32 319.51ZM303.32 294C298.9 294 295.09 299.37 294.84 306C294.69 310 295.84 313.68 298.03 315.91C298.577 316.522 299.243 317.015 299.988 317.359C300.732 317.703 301.54 317.89 302.36 317.91C306.78 317.91 310.59 312.54 310.84 305.91C310.99 301.91 309.84 298.23 307.65 296C307.099 295.384 306.426 294.888 305.674 294.543C304.922 294.199 304.107 294.014 303.28 294H303.32Z" fill="#07933C"/>
<path d="M331.41 319.51C330.371 319.492 329.347 319.261 328.401 318.831C327.455 318.401 326.607 317.781 325.91 317.01C323.46 314.47 322.1 310.32 322.27 305.91C322.55 298.44 327.09 292.37 332.38 292.37C333.42 292.386 334.445 292.616 335.391 293.046C336.337 293.476 337.185 294.097 337.88 294.87C340.33 297.41 341.69 301.56 341.52 305.97C341.24 313.44 336.7 319.51 331.41 319.51ZM332.41 294C327.98 294 324.18 299.37 323.93 306C323.78 310 324.93 313.68 327.11 315.91C327.657 316.522 328.323 317.015 329.068 317.359C329.813 317.703 330.62 317.89 331.44 317.91C335.87 317.91 339.67 312.54 339.92 305.91C340.07 301.91 338.92 298.23 336.74 296C336.19 295.385 335.519 294.89 334.769 294.545C334.018 294.201 333.205 294.016 332.38 294H332.41Z" fill="#07933C"/>
<path d="M343.569 189.254C344.83 171.836 336.122 157.012 324.119 156.143C312.116 155.274 301.364 168.69 300.103 186.108C298.842 203.525 307.551 218.349 319.553 219.218C331.556 220.087 342.309 206.671 343.569 189.254Z" fill="#07933C"/>
<path d="M320.651 221.15C318.096 221.107 315.577 220.539 313.251 219.481C310.925 218.423 308.842 216.897 307.131 215C301.131 208.74 297.751 198.5 298.131 187.63C298.831 169.22 309.991 154.25 323.011 154.25C325.565 154.29 328.084 154.856 330.41 155.912C332.736 156.969 334.819 158.493 336.531 160.39C342.531 166.66 345.921 176.89 345.531 187.77C344.831 206.17 333.671 221.15 320.651 221.15ZM323.001 158C312.001 158 302.48 171.36 301.86 187.78C301.48 197.66 304.451 206.87 309.791 212.42C311.157 213.949 312.822 215.181 314.683 216.041C316.544 216.901 318.561 217.37 320.61 217.42C331.61 217.42 341.131 204.06 341.751 187.64C342.131 177.76 339.17 168.55 333.83 163C332.463 161.47 330.797 160.237 328.934 159.377C327.071 158.517 325.052 158.048 323.001 158Z" fill="white"/>
<path d="M307 187C307 187 315.3 195 318.66 205.28C321.56 197.28 325.89 186.07 336.2 173.52C323.73 181.8 318.98 192.19 318.98 192.19C315.505 189.449 311.376 187.66 307 187Z" fill="white"/>
<path d="M318.11 406.93C317.228 406.923 316.357 406.734 315.552 406.374C314.747 406.014 314.024 405.492 313.43 404.84C312.482 403.778 311.756 402.538 311.294 401.192C310.832 399.845 310.644 398.42 310.74 397C310.96 391.54 314.59 387.1 318.84 387.1C319.723 387.11 320.594 387.302 321.399 387.663C322.204 388.024 322.926 388.548 323.52 389.2C324.463 390.257 325.186 391.491 325.646 392.83C326.106 394.169 326.295 395.587 326.201 397C326.001 402.49 322.36 406.93 318.11 406.93ZM318.84 388.16C315.15 388.16 311.99 392.16 311.84 397.04C311.748 398.317 311.912 399.599 312.322 400.812C312.733 402.024 313.382 403.142 314.231 404.1C314.727 404.649 315.331 405.09 316.006 405.395C316.68 405.699 317.41 405.861 318.15 405.87C321.84 405.87 325 401.87 325.15 397C325.243 395.722 325.079 394.438 324.669 393.224C324.259 392.01 323.61 390.89 322.761 389.93C322.264 389.381 321.66 388.94 320.985 388.635C320.311 388.331 319.581 388.169 318.84 388.16Z" fill="white"/>
<path d="M329.94 101.62C329.531 101.61 329.128 101.516 328.757 101.344C328.385 101.172 328.053 100.925 327.78 100.62C327.36 100.151 327.039 99.6015 326.834 99.0056C326.63 98.4096 326.547 97.7788 326.59 97.1503C326.68 94.7303 328.32 92.7603 330.24 92.7603C330.649 92.7708 331.052 92.8649 331.424 93.0369C331.795 93.2088 332.127 93.455 332.4 93.7603C332.822 94.2288 333.146 94.7774 333.352 95.3735C333.558 95.9696 333.643 96.601 333.6 97.2303C333.51 99.6503 331.86 101.62 329.94 101.62ZM330.24 93.8603C328.88 93.8603 327.71 95.3703 327.64 97.2303C327.575 98.2103 327.899 99.1765 328.54 99.9202C328.717 100.118 328.932 100.277 329.173 100.387C329.414 100.497 329.675 100.556 329.94 100.56C331.3 100.56 332.47 99.0503 332.54 97.1903C332.61 96.2065 332.286 95.2354 331.64 94.4902C331.462 94.295 331.246 94.1384 331.006 94.0301C330.765 93.9217 330.504 93.8639 330.24 93.8603Z" fill="white"/>
<path d="M188.701 124.25C177.251 122.72 171.061 129.66 174.321 142.25C177.391 154.11 171.451 152.53 170.321 163.76C169.191 174.99 178.451 175.45 181.461 184.62C184.471 193.79 201.101 204.21 207.601 199.51C214.101 194.81 227.001 195.89 228.181 180.37C229.361 164.85 217.081 164.01 221.291 155.53C226.771 144.53 214.631 147.21 214.631 133.19C214.661 121.9 198.291 109.67 188.701 124.25Z" fill="#263238"/>
<path d="M174.291 184C174.041 188.79 173.601 193.42 172.901 198.13C172.288 202.999 171.22 207.801 169.711 212.47C169.242 213.833 168.646 215.149 167.931 216.4C167.441 217.25 166.839 218.031 166.141 218.72L165.791 219.04L165.601 219.19L165.491 219.28L165.071 219.57L164.241 220.15C162.126 221.507 159.902 222.685 157.591 223.67C153.211 225.592 148.662 227.099 144.001 228.17L142.391 223.74C146.341 221.55 150.391 219.31 154.091 216.99C155.898 215.886 157.634 214.67 159.291 213.35L159.831 212.88L160.111 212.65V212.6C160.111 212.6 160.221 212.41 160.361 212.12C160.716 211.326 161.014 210.507 161.251 209.67C161.818 207.635 162.266 205.568 162.591 203.48C162.971 201.32 163.281 199.11 163.541 196.88C164.051 192.44 164.491 187.88 164.831 183.45L174.291 184Z" fill="#FFB573"/>
<path d="M145.33 223.84L137.69 221.48L139.12 230.72C139.12 230.72 144.12 230.1 146.53 227.31L145.33 223.84Z" fill="#FFB573"/>
<path d="M131.451 227.43L131.871 228.64C132.113 229.326 132.569 229.917 133.172 230.324C133.775 230.731 134.494 230.933 135.221 230.9L139.121 230.72L137.691 221.48L133.401 223.16C132.588 223.483 131.93 224.107 131.567 224.903C131.204 225.699 131.162 226.604 131.451 227.43Z" fill="#FFB573"/>
<path d="M183.32 175.07C183.32 177.96 181.92 183.65 180.73 187.93C179.85 191.01 179.11 193.35 179.11 193.35L177.36 192.91L162.91 189.25C162.68 181.83 162.97 173.67 170.35 168.79C175 165.73 183.28 169.93 183.32 175.07Z" fill="#07933C"/>
<g opacity="0.5">
<path d="M183.32 175.07C183.32 177.96 181.92 183.65 180.73 187.93C179.85 191.01 179.11 193.35 179.11 193.35L177.36 192.91L162.91 189.25C162.68 181.83 162.97 173.67 170.35 168.79C175 165.73 183.28 169.93 183.32 175.07Z" fill="black"/>
</g>
<path opacity="0.3" d="M183.3 175.57C182.36 174.57 180.22 174.4 175.56 175.88C168.88 177.99 167.01 185.31 166.92 190.27L177.36 192.91L178.26 193.14L179.11 193.35C179.11 193.35 179.48 192.18 180 190.4C180.21 189.67 180.47 188.83 180.72 187.93C181.86 183.89 183.18 178.57 183.3 175.57Z" fill="black"/>
<path d="M153.661 407.27L144.841 404.18L150.381 385.08L159.191 388.18L153.661 407.27Z" fill="#FFB573"/>
<path d="M271.48 384.64L264.31 389.98L249.62 375.09L256.79 369.74L271.48 384.64Z" fill="#FFB573"/>
<path d="M261.37 387.81L269.12 381.4C269.25 381.285 269.417 381.222 269.59 381.222C269.764 381.222 269.931 381.285 270.06 381.4L276.01 386.8C276.156 386.94 276.271 387.11 276.346 387.298C276.421 387.486 276.456 387.688 276.447 387.89C276.439 388.093 276.388 388.291 276.297 388.472C276.206 388.653 276.078 388.812 275.92 388.94C273.18 391.13 271.74 392.05 268.34 394.86C266.24 396.59 261.86 400.73 258.96 403.12C256.06 405.51 253.54 402.78 254.54 401.52C258.98 395.9 260.01 392.2 260.54 389.16C260.65 388.627 260.944 388.149 261.37 387.81Z" fill="#263238"/>
<path d="M144.24 401.43L154.04 405.52C154.214 405.598 154.358 405.729 154.452 405.895C154.545 406.06 154.583 406.251 154.56 406.44L153.45 415.08C153.426 415.284 153.353 415.48 153.239 415.652C153.125 415.823 152.973 415.965 152.794 416.067C152.615 416.17 152.415 416.228 152.21 416.239C152.004 416.25 151.799 416.213 151.61 416.13C148.14 414.72 146.51 414.02 142.21 412.22L129 406.72C125.42 405.22 126.19 401.29 127.81 401.58C135.06 402.89 139.73 402.46 142.59 401.38C143.126 401.181 143.718 401.199 144.24 401.43Z" fill="#263238"/>
<path opacity="0.2" d="M150.38 385.09L147.53 394.93L156.11 398.81L159.2 388.18L150.38 385.09Z" fill="black"/>
<path opacity="0.2" d="M256.8 369.74L249.62 375.09L257.19 382.77L264.37 377.42L256.8 369.74Z" fill="black"/>
<path d="M210.44 221.77L174.11 222.29C169.11 194.17 167.96 180.74 167.96 174.29C167.955 172.681 168.51 171.121 169.53 169.876C170.55 168.632 171.971 167.781 173.55 167.47C175.77 167.04 178.55 166.54 181.3 166.16C182.25 166.03 183.21 165.91 184.15 165.81C189.634 165.335 195.145 165.254 200.64 165.57C201.46 165.57 202.27 165.64 203.08 165.69C206.76 165.93 210.22 166.4 212.65 166.78C213.098 166.852 213.526 167.013 213.909 167.256C214.292 167.499 214.622 167.817 214.877 168.192C215.133 168.566 215.309 168.989 215.396 169.434C215.482 169.879 215.477 170.337 215.38 170.78C214.32 175.78 213.45 180.17 212.75 184.1C211.64 190.35 210.94 195.4 210.53 199.83C209.915 207.13 209.884 214.466 210.44 221.77Z" fill="#07933C"/>
<g opacity="0.5">
<path d="M210.44 221.77L174.11 222.29C169.11 194.17 167.96 180.74 167.96 174.29C167.955 172.681 168.51 171.121 169.53 169.876C170.55 168.632 171.971 167.781 173.55 167.47C175.77 167.04 178.55 166.54 181.3 166.16C182.25 166.03 183.21 165.91 184.15 165.81C189.634 165.335 195.145 165.254 200.64 165.57C201.46 165.57 202.27 165.64 203.08 165.69C206.76 165.93 210.22 166.4 212.65 166.78C213.098 166.852 213.526 167.013 213.909 167.256C214.292 167.499 214.622 167.817 214.877 168.192C215.133 168.566 215.309 168.989 215.396 169.434C215.482 169.879 215.477 170.337 215.38 170.78C214.32 175.78 213.45 180.17 212.75 184.1C211.64 190.35 210.94 195.4 210.53 199.83C209.915 207.13 209.884 214.466 210.44 221.77Z" fill="black"/>
</g>
<path opacity="0.3" d="M210.531 199.86C208.701 194.38 208.801 183 210.771 179.31L212.771 184.13C211.641 190.38 210.941 195.43 210.531 199.86Z" fill="black"/>
<path d="M197.931 154.34C197.761 158.8 198.291 163.43 200.651 165.61C200.651 165.61 196.751 170.7 187.571 175.7C182.711 171.02 184.151 165.85 184.151 165.85C190.051 164.35 190.151 160.42 188.421 153.9L193.101 152C193.531 151.621 194.063 151.377 194.631 151.3C195.199 151.222 195.778 151.314 196.294 151.564C196.81 151.814 197.24 152.211 197.531 152.705C197.823 153.199 197.961 153.767 197.931 154.34Z" fill="#FFB573"/>
<path opacity="0.2" d="M193.11 152C193.513 151.648 194.005 151.414 194.532 151.324C195.059 151.234 195.601 151.29 196.098 151.488C196.595 151.685 197.028 152.015 197.349 152.443C197.671 152.87 197.868 153.378 197.92 153.91C195.856 157.093 192.839 159.543 189.3 160.91C189.448 158.522 189.149 156.128 188.42 153.85L193.11 152Z" fill="black"/>
<path d="M206.38 141.24C203.22 149.54 202.05 153.11 196.38 156.12C187.91 160.64 178.38 154.94 179.04 145.86C179.6 137.69 184.68 125.5 194.04 124.72C196.099 124.536 198.171 124.881 200.058 125.724C201.946 126.567 203.586 127.879 204.823 129.535C206.06 131.191 206.852 133.136 207.125 135.185C207.398 137.234 207.141 139.318 206.38 141.24Z" fill="#FFB573"/>
<path d="M190.491 124.68C184.601 132.99 201.491 130.95 200.651 136.81C200.161 140.37 195.081 147 204.001 148.24C212.921 149.48 215.131 134.92 210.541 129.45C205.951 123.98 196.281 120.43 190.491 124.68Z" fill="#263238"/>
<path d="M192.36 124.43C191.14 127.43 184.65 131.54 182.28 130.78C183 127.19 189.05 123.78 192.36 124.43Z" fill="#263238"/>
<path d="M205.84 149.71C204.946 151.176 203.508 152.229 201.84 152.64C199.62 153.16 198.61 151.16 199.3 149.11C199.92 147.28 201.83 144.79 204.01 145.18C204.487 145.272 204.933 145.482 205.308 145.791C205.683 146.099 205.975 146.497 206.157 146.947C206.339 147.398 206.405 147.886 206.35 148.369C206.295 148.851 206.119 149.313 205.84 149.71Z" fill="#FFB573"/>
<path d="M174.11 222.29C174.11 222.29 167.96 275.17 162.29 308.09C157.85 333.88 146.63 387.58 146.63 387.58L161.19 392.74C161.19 392.74 177.87 336.74 180.79 312.86C192.55 278.4 201 222 201 222L174.11 222.29Z" fill="#07933C"/>
<path d="M144.261 391.21L161.121 397.15L163.371 391.74L145.091 384.75L144.261 391.21Z" fill="#263238"/>
<path opacity="0.3" d="M192.52 238L187.08 248.43C185.08 256.29 185.56 275.43 188.08 287.52C192.61 269.29 196.23 250.11 198.48 237.24L192.52 238Z" fill="black"/>
<path d="M182 222.29C182 222.29 188.51 281.47 200.66 314.29C206.75 330.78 251.96 379.63 251.96 379.63L262.16 371.47C262.16 371.47 233.49 322.18 220.96 309.3C215.85 280.67 222.27 237.8 210.4 221.75L182 222.29Z" fill="#07933C"/>
<path d="M252.83 383.17L264.79 373.36L261.56 368.06L248.46 379.46L252.83 383.17Z" fill="#263238"/>
<path d="M211 219.64L212.68 222.86C212.81 223.11 212.52 223.38 212.1 223.38L173.99 223.93C173.66 223.93 173.39 223.77 173.36 223.57L172.99 220.32C172.99 220.1 173.25 219.9 173.6 219.9L210.4 219.37C210.515 219.36 210.631 219.379 210.736 219.426C210.841 219.474 210.932 219.547 211 219.64Z" fill="#263238"/>
<path d="M206.071 223.82H207.071C207.261 223.82 207.411 223.71 207.401 223.59L206.871 219.37C206.871 219.24 206.691 219.15 206.491 219.15H205.491C205.301 219.15 205.151 219.26 205.171 219.38L205.691 223.6C205.701 223.72 205.881 223.82 206.071 223.82Z" fill="#07933C"/>
<path d="M176.72 224.24H177.72C177.92 224.24 178.06 224.13 178.05 224.01L177.53 219.79C177.53 219.66 177.34 219.56 177.14 219.57H176.14C175.94 219.57 175.79 219.68 175.81 219.8L176.33 224.02C176.35 224.14 176.53 224.24 176.72 224.24Z" fill="#07933C"/>
<path d="M191.4 224H192.4C192.6 224 192.75 223.89 192.73 223.77L192.211 219.55C192.211 219.42 192.021 219.32 191.831 219.33H190.831C190.631 219.33 190.491 219.44 190.501 219.56L191.021 223.78C191.001 223.93 191.2 224 191.4 224Z" fill="#07933C"/>
<path d="M191.78 139.21C191.57 139.9 191.03 140.34 190.58 140.21C190.13 140.08 189.94 139.4 190.15 138.71C190.36 138.02 190.91 137.57 191.36 137.71C191.81 137.85 192 138.52 191.78 139.21Z" fill="#263238"/>
<path d="M184 136.77C183.78 137.46 183.24 137.9 182.79 137.77C182.34 137.64 182.15 136.96 182.37 136.27C182.59 135.58 183.12 135.14 183.57 135.27C184.02 135.4 184.21 136.08 184 136.77Z" fill="#263238"/>
<path d="M183.761 135.37L182.261 134.37C182.261 134.37 182.701 135.93 183.761 135.37Z" fill="#263238"/>
<path d="M185.921 138.59C184.818 139.971 183.529 141.193 182.091 142.22C182.364 142.58 182.712 142.876 183.111 143.088C183.51 143.301 183.95 143.424 184.401 143.45L185.921 138.59Z" fill="#ED893E"/>
<path d="M186.7 147.27C186.665 147.244 186.639 147.208 186.627 147.167C186.614 147.125 186.615 147.081 186.63 147.04C186.649 146.986 186.687 146.942 186.737 146.916C186.787 146.89 186.846 146.884 186.9 146.9C187.75 147.188 188.656 147.272 189.544 147.143C190.432 147.014 191.277 146.678 192.01 146.16C192.032 146.142 192.057 146.129 192.084 146.121C192.11 146.113 192.139 146.11 192.166 146.113C192.194 146.116 192.221 146.124 192.246 146.137C192.271 146.15 192.293 146.168 192.31 146.19C192.328 146.212 192.341 146.237 192.349 146.263C192.357 146.29 192.36 146.318 192.357 146.346C192.355 146.374 192.346 146.401 192.333 146.426C192.32 146.45 192.302 146.472 192.28 146.49C191.494 147.057 190.583 147.427 189.625 147.569C188.666 147.712 187.687 147.623 186.77 147.31L186.7 147.27Z" fill="#263238"/>
<path d="M194.77 137.35C194.713 137.302 194.668 137.24 194.64 137.17C194.477 136.665 194.196 136.205 193.821 135.83C193.445 135.454 192.986 135.173 192.48 135.01C192.371 134.984 192.276 134.916 192.216 134.821C192.156 134.725 192.136 134.61 192.16 134.5C192.187 134.391 192.255 134.296 192.35 134.236C192.445 134.176 192.56 134.156 192.67 134.18C193.314 134.377 193.901 134.725 194.383 135.194C194.865 135.664 195.227 136.242 195.44 136.88C195.479 136.986 195.475 137.104 195.428 137.207C195.381 137.31 195.296 137.39 195.19 137.43C195.119 137.453 195.044 137.457 194.97 137.443C194.897 137.429 194.828 137.397 194.77 137.35Z" fill="#263238"/>
<path d="M181.681 132.3C181.681 132.3 181.681 132.25 181.681 132.23C181.671 132.176 181.672 132.12 181.683 132.066C181.695 132.011 181.717 131.96 181.749 131.914C181.78 131.869 181.821 131.83 181.867 131.8C181.914 131.77 181.966 131.75 182.021 131.74C182.68 131.606 183.363 131.632 184.01 131.817C184.658 132.001 185.251 132.338 185.741 132.8C185.781 132.839 185.812 132.886 185.834 132.938C185.856 132.989 185.867 133.044 185.867 133.1C185.867 133.156 185.856 133.211 185.834 133.263C185.812 133.314 185.781 133.361 185.741 133.4C185.661 133.478 185.553 133.522 185.441 133.522C185.329 133.522 185.221 133.478 185.141 133.4C184.743 133.034 184.262 132.769 183.74 132.628C183.218 132.487 182.669 132.474 182.141 132.59C182.042 132.604 181.942 132.583 181.858 132.53C181.773 132.477 181.711 132.395 181.681 132.3Z" fill="#263238"/>
<path d="M147.18 171.8C145.7 169.41 144.42 164.74 146.95 162.1C149.48 159.46 151.45 158.71 150.82 154.1C150.19 149.49 157.23 149.62 157.82 146.1C161.33 149.1 165.05 156.1 163.06 159.31C161.07 162.52 162.14 164.93 161.71 168.82C161.28 172.71 152.78 180.86 147.18 171.8Z" fill="#07933C"/>
<path opacity="0.5" d="M147.18 171.8C145.7 169.41 144.42 164.74 146.95 162.1C149.48 159.46 151.45 158.71 150.82 154.1C150.19 149.49 157.23 149.62 157.82 146.1C161.33 149.1 165.05 156.1 163.06 159.31C161.07 162.52 162.14 164.93 161.71 168.82C161.28 172.71 152.78 180.86 147.18 171.8Z" fill="white"/>
<path d="M158.11 153.51C156.41 164.19 153.28 176.66 148.79 185.93C149.882 185.841 150.907 185.366 151.68 184.59C151.68 184.59 158.79 165.28 158.11 153.51Z" fill="#07933C"/>
<path d="M143.81 177.05C141.56 175.37 138.66 171.5 140.03 168.11C141.4 164.72 142.97 163.3 140.68 159.24C138.39 155.18 145 152.7 144.25 149.24C148.64 150.78 154.67 155.91 153.98 159.59C153.29 163.27 155.19 165.16 156.22 168.93C157.25 172.7 152.36 183.41 143.81 177.05Z" fill="#07933C"/>
<path opacity="0.6" d="M143.81 177.05C141.56 175.37 138.66 171.5 140.03 168.11C141.4 164.72 142.97 163.3 140.68 159.24C138.39 155.18 145 152.7 144.25 149.24C148.64 150.78 154.67 155.91 153.98 159.59C153.29 163.27 155.19 165.16 156.22 168.93C157.25 172.7 152.36 183.41 143.81 177.05Z" fill="white"/>
<path d="M159.881 180.27C162.241 180.1 166.071 178.67 166.641 175.63C167.211 172.59 166.741 170.87 170.221 169.02C173.701 167.17 170.121 162.41 172.221 160.29C168.401 159.39 161.781 160.29 160.581 163.23C159.381 166.17 157.191 166.63 154.741 168.85C152.291 171.07 150.901 180.91 159.881 180.27Z" fill="#07933C"/>
<path opacity="0.7" d="M159.881 180.27C162.241 180.1 166.071 178.67 166.641 175.63C167.211 172.59 166.741 170.87 170.221 169.02C173.701 167.17 170.121 162.41 172.221 160.29C168.401 159.39 161.781 160.29 160.581 163.23C159.381 166.17 157.191 166.63 154.741 168.85C152.291 171.07 150.901 180.91 159.881 180.27Z" fill="white"/>
<path d="M146.73 160.39C148.52 169.74 149.38 180.87 147.73 189.55C148.797 189.338 149.747 188.739 150.4 187.87C150.4 187.87 151.45 170.22 146.73 160.39Z" fill="#07933C"/>
<path d="M165.42 165.5C159.16 172.36 152.47 181.13 148.66 189.11C148.138 188.327 147.907 187.386 148.01 186.45C148.01 186.45 157.16 171.34 165.42 165.5Z" fill="#07933C"/>
<path d="M137.18 174.88C134.35 173.33 128.76 177.66 131.7 182.69C134.64 187.72 140.7 190.05 143.5 187.35C147.36 186.66 149.04 180.42 146.72 175.08C144.4 169.74 137.61 171.68 137.18 174.88Z" fill="#07933C"/>
<path d="M137.18 174.88C137.18 174.88 136.18 171.63 137.83 170.59C138.054 170.871 138.261 171.165 138.45 171.47C138.45 171.47 137.33 171.78 137.18 174.88Z" fill="#263238"/>
<path d="M169.17 166.4C168.83 173.27 161.77 178.49 154.1 180.17C153.628 180.655 153.285 181.249 153.1 181.9C153.036 182.049 153.024 182.216 153.068 182.373C153.112 182.529 153.208 182.666 153.34 182.76C153.922 183.242 154.606 183.584 155.34 183.76C159.391 183.858 163.341 182.487 166.46 179.9C170.46 176.84 174.11 170.78 172.96 167.97C171.81 165.16 170.9 166.1 170.46 163.97C170.216 163.106 170.111 162.208 170.15 161.31C170.15 161.31 169.15 161.78 168.9 162.39C169.23 163.25 169.28 164.16 169.17 166.4Z" fill="#07933C"/>
<path opacity="0.2" d="M173.001 168C172.739 167.246 172.308 166.562 171.741 166C171.821 168.26 171.241 171 168.741 175C166.131 179.18 159.131 182.9 153.091 182.53C153.139 182.627 153.211 182.709 153.301 182.77C153.882 183.252 154.566 183.594 155.301 183.77C159.352 183.869 163.302 182.498 166.421 179.91C170.431 176.88 174.111 170.82 173.001 168Z" fill="black"/>
<path d="M169.19 163.8C169.043 163.285 168.87 162.778 168.67 162.28C169.08 161.75 169.636 161.35 170.27 161.13V162.78C170.27 162.78 169.72 163.73 169.19 163.8Z" fill="#263238"/>
<path d="M153.341 181.22C153.187 181.389 153.044 181.566 152.911 181.75C152.842 181.949 152.839 182.164 152.9 182.365C152.961 182.566 153.083 182.743 153.251 182.87C153.313 182.935 153.387 182.987 153.47 183.023C153.552 183.059 153.641 183.079 153.731 183.08C153.535 182.773 153.393 182.435 153.311 182.08C153.303 181.793 153.313 181.506 153.341 181.22Z" fill="#263238"/>
<path d="M174.67 169.5C172.9 176.14 164.91 179.77 157.05 179.81C156.476 180.175 156.005 180.681 155.68 181.28C155.578 181.408 155.522 181.566 155.522 181.73C155.522 181.894 155.578 182.052 155.68 182.18C156.154 182.796 156.767 183.29 157.47 183.62C158.27 183.83 163 185.14 169.15 182.18C173.66 180 178.53 174.85 178 171.87C177.47 168.89 176.37 169.61 176.39 167.45C176.323 166.556 176.407 165.656 176.64 164.79C176.094 164.91 175.592 165.18 175.19 165.57C175.38 166.42 175.24 167.33 174.67 169.5Z" fill="#07933C"/>
<path opacity="0.2" d="M178.05 171.87C177.954 171.072 177.677 170.306 177.24 169.63C176.84 171.86 175.7 174.45 172.45 177.8C169.03 181.34 161.45 183.53 155.58 181.9C155.607 182.004 155.659 182.1 155.73 182.18C156.207 182.793 156.82 183.286 157.52 183.62C158.32 183.83 163.05 185.13 169.2 182.17C173.71 180 178.58 174.85 178.05 171.87Z" fill="black"/>
<path d="M175.23 167C175.23 167 175.14 165.83 175.04 165.41C175.553 164.981 176.177 164.707 176.84 164.62L176.48 166.23C176.48 166.23 175.76 167 175.23 167Z" fill="#263238"/>
<path d="M156.091 180.68C156.091 180.68 155.741 180.94 155.561 181.11C155.454 181.29 155.407 181.498 155.425 181.706C155.443 181.914 155.525 182.111 155.661 182.27C155.901 182.57 156.091 182.58 156.091 182.58C155.962 182.241 155.891 181.883 155.881 181.52C155.941 181.18 156.091 180.68 156.091 180.68Z" fill="#263238"/>
<path d="M179.312 176.946L130.5 183.649L138.004 238.287L186.816 231.583L179.312 176.946Z" fill="#07933C"/>
<path opacity="0.8" d="M179.312 176.946L130.5 183.649L138.004 238.287L186.816 231.583L179.312 176.946Z" fill="white"/>
<path opacity="0.2" d="M179.313 176.949L164.908 178.928L172.412 233.565L186.817 231.587L179.313 176.949Z" fill="#07933C"/>
<path opacity="0.2" d="M186.83 231.58L178.9 227.32L172.12 177.94L179.32 176.95L186.83 231.58Z" fill="#07933C"/>
<path opacity="0.3" d="M178.9 227.32L172.42 233.56L186.83 231.58L178.9 227.32Z" fill="#07933C"/>
<path d="M194.701 223.92L187.261 221L187.991 230.32C187.991 230.32 192.991 230.08 195.641 227.47L194.701 223.92Z" fill="#FFB573"/>
<path d="M218.17 177.47C220.17 183.07 221.89 188.63 223.37 194.39C224.11 197.26 224.81 200.15 225.37 203.15C225.64 204.64 225.88 206.15 226.06 207.73C226.258 209.389 226.328 211.061 226.27 212.73C226.236 213.813 226.068 214.888 225.77 215.93C225.364 217.213 224.681 218.39 223.77 219.38C222.437 220.803 220.854 221.969 219.1 222.82C216.232 224.215 213.212 225.272 210.1 225.97C204.279 227.321 198.342 228.115 192.37 228.34L191.79 223.66C194.51 223.01 197.3 222.29 200.01 221.53C202.72 220.77 205.42 219.93 208.01 218.98C210.482 218.134 212.863 217.046 215.12 215.73C215.941 215.25 216.674 214.635 217.29 213.91C217.45 213.66 217.45 213.59 217.42 213.59C217.446 213.224 217.446 212.856 217.42 212.49C217.375 211.283 217.248 210.08 217.04 208.89C216.84 207.59 216.57 206.26 216.27 204.89C215.64 202.22 214.95 199.5 214.17 196.78C212.61 191.38 210.86 185.89 209.1 180.56L218.17 177.47Z" fill="#FFB573"/>
<path d="M180.36 225.6L180.94 227.76C181.125 228.447 181.527 229.055 182.085 229.494C182.644 229.934 183.329 230.182 184.04 230.2L188.04 230.31L187.31 220.99L183.23 221.46C182.754 221.508 182.293 221.659 181.88 221.902C181.468 222.145 181.113 222.474 180.84 222.868C180.567 223.262 180.383 223.71 180.3 224.181C180.217 224.653 180.238 225.137 180.36 225.6Z" fill="#FFB573"/>
<path d="M213.93 167.05C218.11 168.75 221.53 182.49 221.53 182.49L209.98 191.49C209.98 191.49 201.8 178.68 203.47 173.12C204.89 168.43 208.61 164.9 213.93 167.05Z" fill="#07933C"/>
<g opacity="0.5">
<path d="M213.93 167.05C218.11 168.75 221.53 182.49 221.53 182.49L209.98 191.49C209.98 191.49 201.8 178.68 203.47 173.12C204.89 168.43 208.61 164.9 213.93 167.05Z" fill="black"/>
</g>
<path d="M258.54 391.69H258.39C258.182 391.678 257.979 391.612 257.804 391.498C257.629 391.384 257.486 391.226 257.39 391.04C257.317 390.934 257.273 390.811 257.262 390.683C257.252 390.555 257.275 390.426 257.33 390.31C257.84 389.31 261.05 388.91 261.41 388.87C261.453 388.864 261.496 388.871 261.533 388.891C261.571 388.91 261.602 388.942 261.62 388.98C261.643 389.014 261.655 389.054 261.655 389.095C261.655 389.136 261.643 389.176 261.62 389.21C260.94 390.12 259.64 391.61 258.54 391.69ZM260.97 389.36C259.69 389.55 257.97 389.96 257.73 390.5C257.7 390.548 257.684 390.603 257.684 390.66C257.684 390.717 257.7 390.772 257.73 390.82C257.788 390.946 257.88 391.053 257.994 391.13C258.109 391.208 258.242 391.253 258.38 391.26C259 391.29 260 390.59 261 389.36H260.97Z" fill="#263238"/>
<path d="M261.26 389.32C260.17 389.39 258.01 388.94 257.55 388.1C257.472 387.951 257.447 387.779 257.48 387.613C257.513 387.448 257.601 387.298 257.73 387.19C257.841 387.072 257.976 386.979 258.126 386.919C258.277 386.858 258.438 386.831 258.6 386.84C259.9 386.84 261.55 388.84 261.6 388.95C261.62 388.98 261.631 389.014 261.631 389.05C261.631 389.086 261.62 389.12 261.6 389.15C261.591 389.187 261.57 389.22 261.542 389.244C261.513 389.269 261.478 389.285 261.44 389.29L261.26 389.32ZM258.5 387.26C258.325 387.275 258.162 387.353 258.04 387.48C257.85 387.68 257.88 387.81 257.93 387.9C258.22 388.45 259.93 388.9 261.02 388.9C260.43 388.27 259.36 387.28 258.59 387.25L258.5 387.26Z" fill="#263238"/>
<path d="M139.221 401.23C138.537 401.002 137.938 400.573 137.501 400C137.398 399.828 137.336 399.636 137.318 399.437C137.301 399.237 137.329 399.037 137.401 398.85C137.434 398.743 137.495 398.647 137.577 398.571C137.66 398.496 137.761 398.444 137.871 398.42C139.011 398.2 141.711 401.1 142.241 401.69C142.265 401.725 142.278 401.767 142.278 401.81C142.278 401.853 142.265 401.895 142.241 401.93C142.219 401.97 142.185 402.002 142.143 402.022C142.102 402.041 142.056 402.048 142.011 402.04C141.056 401.862 140.122 401.591 139.221 401.23ZM138.371 398.89C138.241 398.825 138.096 398.798 137.951 398.81C137.951 398.81 137.841 398.81 137.801 398.96C137.75 399.09 137.729 399.229 137.742 399.368C137.754 399.507 137.798 399.641 137.871 399.76C138.261 400.43 139.591 401.06 141.481 401.47C140.581 400.457 139.532 399.587 138.371 398.89Z" fill="#263238"/>
<path d="M142.001 402C141.974 401.989 141.95 401.972 141.931 401.95C141.011 401.04 139.531 398.32 140.041 397.45C140.161 397.26 140.401 397.06 140.931 397.21C142.931 397.79 142.321 401.67 142.291 401.84C142.285 401.879 142.268 401.915 142.241 401.944C142.214 401.973 142.179 401.992 142.141 402C142.119 402.01 142.095 402.015 142.071 402.015C142.047 402.015 142.023 402.01 142.001 402ZM141.001 397.66H140.861C140.651 397.6 140.511 397.61 140.461 397.66C140.161 398.17 141.111 400.22 141.981 401.31C142.001 400.35 142.121 398.15 141.001 397.66Z" fill="#263238"/>
<path d="M191.55 137.81L190.04 136.81C190.04 136.81 190.49 138.37 191.55 137.81Z" fill="#263238"/>
</svg>
