<svg width="230" height="230" viewBox="0 0 230 230" fill="none" xmlns="http://www.w3.org/2000/svg">
<path opacity="0.7" d="M31.2471 76.8613C31.2471 76.8613 18.4223 109.981 36.4451 143.331C54.4679 176.681 91.5899 194.299 121.301 209.364C151.013 224.429 181.865 217.092 196.525 192.418C211.185 167.743 191.079 150.13 191.051 114.945C191.023 79.7593 196.318 70.4443 177.251 40.7191C158.184 10.9939 111.443 4.41127 76.0971 26.4591C40.7507 48.5069 31.2471 76.8613 31.2471 76.8613Z" fill="white"/>
<path d="M114.135 12.0199C11.7894 17.7469 -10.1802 153.493 24.0944 195.008C50.6962 227.231 98.1268 221.913 123.16 190.371C143.777 164.404 177.146 183.586 204.654 155.508C240.492 118.924 228.974 5.59368 114.135 12.0199Z" fill="#FFC100"/>
<path opacity="0.7" d="M114.135 12.0199C11.7894 17.7469 -10.1802 153.493 24.0944 195.008C50.6962 227.231 98.1268 221.913 123.16 190.371C143.777 164.404 177.146 183.586 204.654 155.508C240.492 118.924 228.974 5.59368 114.135 12.0199Z" fill="white"/>
<path d="M199.805 35.1944V164.887C199.805 165.231 199.669 165.562 199.425 165.806C199.182 166.05 198.852 166.187 198.508 166.189H120.662C120.317 166.189 119.986 166.051 119.742 165.807C119.498 165.563 119.36 165.232 119.36 164.887V35.1944C119.36 34.8491 119.498 34.518 119.742 34.2739C119.986 34.0297 120.317 33.8926 120.662 33.8926H142.14L142.843 36.2846H176.368L177.077 33.8926H198.531C198.871 33.8998 199.195 34.0401 199.434 34.2835C199.672 34.5268 199.805 34.8538 199.805 35.1944Z" fill="#FFC100"/>
<mask id="mask0_1_16" style="mask-type:luminance" maskUnits="userSpaceOnUse" x="119" y="33" width="81" height="134">
<path d="M199.805 35.1944V164.887C199.805 165.231 199.669 165.562 199.425 165.806C199.182 166.05 198.852 166.187 198.508 166.189H120.662C120.317 166.189 119.986 166.051 119.742 165.807C119.498 165.563 119.36 165.232 119.36 164.887V35.1944C119.36 34.8491 119.498 34.518 119.742 34.2739C119.986 34.0297 120.317 33.8926 120.662 33.8926H142.14L142.843 36.2846H176.368L177.077 33.8926H198.531C198.871 33.8998 199.195 34.0401 199.434 34.2835C199.672 34.5268 199.805 34.8538 199.805 35.1944Z" fill="white"/>
</mask>
<g mask="url(#mask0_1_16)">
<path opacity="0.5" d="M199.805 46.4321V164.887C199.805 165.231 199.669 165.562 199.425 165.806C199.182 166.05 198.852 166.187 198.508 166.189H120.662C120.317 166.189 119.986 166.051 119.742 165.807C119.498 165.563 119.36 165.232 119.36 164.887V46.4321H199.805Z" fill="white"/>
<g opacity="0.2">
<path d="M186.157 58.4751H119.241V87.5793H186.157C186.572 87.5793 186.97 87.4145 187.263 87.1212C187.557 86.8279 187.721 86.4301 187.721 86.0153V60.0391C187.721 59.6243 187.557 59.2265 187.263 58.9332C186.97 58.6399 186.572 58.4751 186.157 58.4751Z" fill="black"/>
<path d="M179.234 89.5112H119.241V120.092H179.234C179.67 120.092 180.088 119.919 180.396 119.611C180.704 119.303 180.877 118.885 180.877 118.45V91.1488C180.877 90.9334 180.834 90.7201 180.752 90.5211C180.669 90.3221 180.548 90.1414 180.395 89.9892C180.243 89.8371 180.062 89.7166 179.863 89.6346C179.663 89.5525 179.45 89.5106 179.234 89.5112Z" fill="black"/>
<path d="M186.157 119.49H119.241V148.58H186.157C186.571 148.58 186.969 148.416 187.262 148.124C187.555 147.831 187.72 147.435 187.721 147.021V121.054C187.721 120.639 187.557 120.241 187.263 119.948C186.97 119.655 186.572 119.49 186.157 119.49Z" fill="black"/>
<path d="M187.716 151.561V166.189H120.662C120.317 166.189 119.986 166.051 119.742 165.807C119.498 165.563 119.36 165.232 119.36 164.887V149.997H186.157C186.571 149.998 186.968 150.163 187.26 150.456C187.552 150.749 187.716 151.147 187.716 151.561Z" fill="black"/>
<path d="M194 60.2599V67.7395C193.999 68.049 193.917 68.3529 193.762 68.6209C193.607 68.8888 193.385 69.1115 193.117 69.2667V166.189H191.36V69.2483C191.092 69.0931 190.869 68.8704 190.714 68.6025C190.56 68.3345 190.477 68.0306 190.477 67.7211V60.2599C190.5 59.8064 190.696 59.3791 191.025 59.0663C191.354 58.7535 191.791 58.5791 192.245 58.5791C192.699 58.5791 193.136 58.7535 193.465 59.0663C193.794 59.3791 193.991 59.8064 194.014 60.2599H194Z" fill="black"/>
</g>
</g>
<path d="M199.805 35.1944V164.887C199.805 165.231 199.669 165.562 199.425 165.806C199.182 166.05 198.852 166.187 198.508 166.189H120.662C120.317 166.189 119.986 166.051 119.742 165.807C119.498 165.563 119.36 165.232 119.36 164.887V35.1944C119.36 34.8491 119.498 34.518 119.742 34.2739C119.986 34.0297 120.317 33.8926 120.662 33.8926H142.14L142.843 36.2846H176.368L177.077 33.8926H198.531C198.871 33.8998 199.195 34.0401 199.434 34.2835C199.672 34.5268 199.805 34.8538 199.805 35.1944Z" stroke="#263238" stroke-width="1.14453" stroke-linecap="round" stroke-linejoin="round"/>
<path d="M119.36 46.5425H199.805" stroke="#263238" stroke-width="1.14453" stroke-linecap="round" stroke-linejoin="round"/>
<path d="M177.73 54.7905H111.715C110.852 54.7905 110.151 55.4908 110.151 56.3545V80.9185C110.151 81.7823 110.852 82.4825 111.715 82.4825H177.73C178.594 82.4825 179.294 81.7823 179.294 80.9185V56.3545C179.294 55.4908 178.594 54.7905 177.73 54.7905Z" fill="white"/>
<mask id="mask1_1_16" style="mask-type:luminance" maskUnits="userSpaceOnUse" x="110" y="54" width="70" height="29">
<path d="M177.73 54.7905H111.715C110.852 54.7905 110.151 55.4908 110.151 56.3545V80.9185C110.151 81.7823 110.852 82.4825 111.715 82.4825H177.73C178.594 82.4825 179.294 81.7823 179.294 80.9185V56.3545C179.294 55.4908 178.594 54.7905 177.73 54.7905Z" fill="white"/>
</mask>
<g mask="url(#mask1_1_16)">
<path d="M135.995 58.0151H113.51V79.2533H135.995V58.0151Z" fill="white" stroke="#263238" stroke-width="1.14453" stroke-linecap="round" stroke-linejoin="round"/>
<path d="M160.999 59.883H140.879C140.635 59.883 140.401 59.786 140.228 59.6135C140.056 59.441 139.959 59.207 139.959 58.963C139.959 58.719 140.056 58.485 140.228 58.3124C140.401 58.1399 140.635 58.043 140.879 58.043H160.999C161.243 58.043 161.477 58.1399 161.65 58.3124C161.822 58.485 161.919 58.719 161.919 58.963C161.919 59.207 161.822 59.441 161.65 59.6135C161.477 59.786 161.243 59.883 160.999 59.883Z" fill="#263238"/>
<path d="M149.159 64.0046H140.879C140.635 64.0046 140.401 63.9076 140.228 63.7351C140.056 63.5626 139.959 63.3285 139.959 63.0846C139.959 62.8406 140.056 62.6065 140.228 62.434C140.401 62.2615 140.635 62.1646 140.879 62.1646H149.159C149.403 62.1646 149.637 62.2615 149.81 62.434C149.982 62.6065 150.079 62.8406 150.079 63.0846C150.079 63.3285 149.982 63.5626 149.81 63.7351C149.637 63.9076 149.403 64.0046 149.159 64.0046Z" fill="#263238"/>
<path d="M166.455 74.3774C166.108 74.261 165.731 74.2659 165.387 74.3912C165.043 74.5166 164.751 74.7549 164.56 75.0674C164.373 74.7517 164.085 74.5085 163.743 74.3774C163.4 74.2463 163.024 74.2349 162.674 74.3452C161.579 74.6764 161.193 76.061 162.099 77.3398C162.707 78.112 163.478 78.7403 164.358 79.1798L164.532 79.2626L164.703 79.1844C165.593 78.762 166.378 78.1478 167.003 77.3858C167.9 76.1116 167.545 74.7178 166.455 74.3774Z" fill="#FFC100" stroke="#263238" stroke-width="1.14453" stroke-linecap="round" stroke-linejoin="round"/>
<path d="M174.271 77.5743H170.926L170.586 74.2715H174.611L174.271 77.5743Z" fill="white" stroke="#263238" stroke-width="1.14453" stroke-linecap="round" stroke-linejoin="round"/>
<path d="M170.706 75.3984H174.492" stroke="#263238" stroke-width="1.14453" stroke-linecap="round" stroke-linejoin="round"/>
<path d="M170.825 76.4473H174.372" stroke="#263238" stroke-width="1.14453" stroke-linecap="round" stroke-linejoin="round"/>
<path d="M171.852 74.2715L171.934 77.5743" stroke="#263238" stroke-width="1.14453" stroke-linecap="round" stroke-linejoin="round"/>
<path d="M173.346 74.2715L173.245 77.5743" stroke="#263238" stroke-width="1.14453" stroke-linecap="round" stroke-linejoin="round"/>
<path d="M174.593 74.2623L175.527 73.9219" stroke="#263238" stroke-width="1.14453" stroke-linecap="round" stroke-linejoin="round"/>
<path d="M175.158 79.1754C175.158 79.26 175.133 79.3427 175.086 79.413C175.039 79.4834 174.972 79.5382 174.894 79.5706C174.816 79.603 174.73 79.6114 174.647 79.5949C174.564 79.5784 174.488 79.5377 174.428 79.4779C174.368 79.418 174.327 79.3418 174.311 79.2588C174.294 79.1758 174.303 79.0898 174.335 79.0116C174.368 78.9335 174.423 78.8667 174.493 78.8197C174.563 78.7727 174.646 78.7476 174.731 78.7476C174.844 78.7476 174.953 78.7926 175.033 78.8729C175.113 78.9531 175.158 79.0619 175.158 79.1754Z" fill="white" stroke="#263238" stroke-width="1.14453" stroke-linecap="round" stroke-linejoin="round"/>
<path d="M170.798 79.1754C170.798 79.26 170.773 79.3427 170.726 79.413C170.679 79.4834 170.612 79.5382 170.534 79.5706C170.456 79.603 170.37 79.6114 170.287 79.5949C170.204 79.5784 170.128 79.5377 170.068 79.4779C170.008 79.418 169.967 79.3418 169.951 79.2588C169.934 79.1758 169.943 79.0898 169.975 79.0116C170.007 78.9335 170.062 78.8667 170.133 78.8197C170.203 78.7727 170.286 78.7476 170.37 78.7476C170.484 78.7476 170.592 78.7926 170.673 78.8729C170.753 78.9531 170.798 79.0619 170.798 79.1754Z" fill="white" stroke="#263238" stroke-width="1.14453" stroke-linecap="round" stroke-linejoin="round"/>
<path d="M170.48 78.1587H174.731" stroke="#263238" stroke-width="1.14453" stroke-linecap="round" stroke-linejoin="round"/>
<path d="M118.68 67.1184L120.06 74.9798H129.26L131.044 67.1184C131.044 67.1184 129.462 65.5222 129.526 61.7686L128.404 61.373C128.404 61.373 128.735 64.593 124.77 64.593C120.805 64.593 120.676 61.6904 120.676 61.6904L119.554 62.1228C119.554 62.1228 120.262 65.3198 118.68 67.1184Z" fill="#FFC100" stroke="#263238" stroke-width="1.14453" stroke-linecap="round" stroke-linejoin="round"/>
<path d="M127.488 67.6199C126.788 67.5554 126.082 67.5554 125.381 67.6199L124.852 66.4331L124.438 67.6613C123.376 67.7119 122.438 67.7671 122.438 67.7671L124.057 68.7975C123.776 69.6071 123.505 70.3753 123.38 70.6375C123.38 70.6375 124.185 70.0809 125.082 69.4461L126.651 70.4397L125.933 68.8389C126.489 68.4831 127.01 68.0749 127.488 67.6199Z" fill="#FFC100" stroke="#263238" stroke-width="1.14453" stroke-linecap="round" stroke-linejoin="round"/>
<path opacity="0.2" d="M175.844 77.5742H110.151V80.9184C110.151 81.3332 110.316 81.731 110.609 82.0243C110.903 82.3176 111.301 82.4824 111.715 82.4824H177.353V79.083C177.353 78.8849 177.314 78.6887 177.238 78.5056C177.162 78.3226 177.051 78.1562 176.911 78.0161C176.771 77.876 176.604 77.7649 176.421 77.6891C176.238 77.6132 176.042 77.5742 175.844 77.5742Z" fill="black"/>
</g>
<path d="M177.73 54.7905H111.715C110.852 54.7905 110.151 55.4908 110.151 56.3545V80.9185C110.151 81.7823 110.852 82.4825 111.715 82.4825H177.73C178.594 82.4825 179.294 81.7823 179.294 80.9185V56.3545C179.294 55.4908 178.594 54.7905 177.73 54.7905Z" stroke="#263238" stroke-width="1.14453" stroke-linecap="round" stroke-linejoin="round"/>
<path d="M179.294 114.402V138.975C179.293 139.18 179.252 139.382 179.174 139.571C179.095 139.76 178.979 139.932 178.834 140.076C178.689 140.221 178.517 140.335 178.327 140.413C178.138 140.491 177.935 140.53 177.73 140.53H111.715C111.511 140.53 111.308 140.491 111.118 140.413C110.929 140.335 110.757 140.221 110.611 140.076C110.466 139.932 110.351 139.76 110.272 139.571C110.193 139.382 110.152 139.18 110.151 138.975V114.402C110.153 113.988 110.318 113.591 110.611 113.299C110.904 113.006 111.301 112.842 111.715 112.842H177.73C178.144 112.842 178.541 113.006 178.834 113.299C179.127 113.591 179.293 113.988 179.294 114.402Z" fill="white"/>
<mask id="mask2_1_16" style="mask-type:luminance" maskUnits="userSpaceOnUse" x="110" y="112" width="70" height="29">
<path d="M179.294 114.402V138.975C179.293 139.18 179.252 139.382 179.174 139.571C179.095 139.76 178.979 139.932 178.834 140.076C178.689 140.221 178.517 140.335 178.327 140.413C178.138 140.491 177.935 140.53 177.73 140.53H111.715C111.511 140.53 111.308 140.491 111.118 140.413C110.929 140.335 110.757 140.221 110.611 140.076C110.466 139.932 110.351 139.76 110.272 139.571C110.193 139.382 110.152 139.18 110.151 138.975V114.402C110.153 113.988 110.318 113.591 110.611 113.299C110.904 113.006 111.301 112.842 111.715 112.842H177.73C178.144 112.842 178.541 113.006 178.834 113.299C179.127 113.591 179.293 113.988 179.294 114.402Z" fill="white"/>
</mask>
<g mask="url(#mask2_1_16)">
<path d="M135.995 116.067H113.51V137.305H135.995V116.067Z" fill="white" stroke="#263238" stroke-width="1.14453" stroke-linecap="round" stroke-linejoin="round"/>
<path d="M160.999 117.935H140.879C140.635 117.935 140.401 117.838 140.228 117.665C140.056 117.493 139.959 117.259 139.959 117.015C139.959 116.771 140.056 116.537 140.228 116.364C140.401 116.192 140.635 116.095 140.879 116.095H160.999C161.243 116.095 161.477 116.192 161.65 116.364C161.822 116.537 161.919 116.771 161.919 117.015C161.919 117.259 161.822 117.493 161.65 117.665C161.477 117.838 161.243 117.935 160.999 117.935Z" fill="#263238"/>
<path d="M149.279 120.188H140.76C140.31 120.188 139.945 120.553 139.945 121.003V121.242C139.945 121.692 140.31 122.056 140.76 122.056H149.279C149.728 122.056 150.093 121.692 150.093 121.242V121.003C150.093 120.553 149.728 120.188 149.279 120.188Z" fill="#263238"/>
<path d="M166.455 132.429C166.107 132.313 165.73 132.319 165.386 132.445C165.042 132.571 164.751 132.811 164.56 133.124C164.374 132.808 164.086 132.564 163.743 132.433C163.401 132.302 163.024 132.291 162.674 132.402C161.579 132.728 161.193 134.118 162.099 135.392C162.706 136.165 163.477 136.794 164.358 137.232L164.532 137.319L164.703 137.236C165.593 136.814 166.378 136.2 167.003 135.438C167.9 134.168 167.545 132.774 166.455 132.429Z" fill="#FFC100" stroke="#263238" stroke-width="1.14453" stroke-linecap="round" stroke-linejoin="round"/>
<path d="M174.271 135.626H170.926L170.586 132.328H174.611L174.271 135.626Z" fill="white" stroke="#263238" stroke-width="1.14453" stroke-linecap="round" stroke-linejoin="round"/>
<path d="M170.706 133.45H174.492" stroke="#263238" stroke-width="1.14453" stroke-linecap="round" stroke-linejoin="round"/>
<path d="M170.825 134.499H174.372" stroke="#263238" stroke-width="1.14453" stroke-linecap="round" stroke-linejoin="round"/>
<path d="M171.852 132.328L171.934 135.626" stroke="#263238" stroke-width="1.14453" stroke-linecap="round" stroke-linejoin="round"/>
<path d="M173.346 132.328L173.245 135.626" stroke="#263238" stroke-width="1.14453" stroke-linecap="round" stroke-linejoin="round"/>
<path d="M174.593 132.314L175.527 131.974" stroke="#263238" stroke-width="1.14453" stroke-linecap="round" stroke-linejoin="round"/>
<path d="M175.158 137.227C175.158 137.312 175.133 137.394 175.086 137.465C175.039 137.535 174.972 137.59 174.894 137.622C174.816 137.655 174.73 137.663 174.647 137.647C174.564 137.63 174.488 137.589 174.428 137.53C174.368 137.47 174.327 137.394 174.311 137.311C174.294 137.228 174.303 137.142 174.335 137.063C174.368 136.985 174.423 136.918 174.493 136.871C174.563 136.824 174.646 136.799 174.731 136.799C174.844 136.799 174.953 136.844 175.033 136.925C175.113 137.005 175.158 137.114 175.158 137.227Z" fill="white" stroke="#263238" stroke-width="1.14453" stroke-linecap="round" stroke-linejoin="round"/>
<path d="M170.798 137.227C170.798 137.312 170.773 137.394 170.726 137.465C170.679 137.535 170.612 137.59 170.534 137.622C170.456 137.655 170.37 137.663 170.287 137.647C170.204 137.63 170.128 137.589 170.068 137.53C170.008 137.47 169.967 137.394 169.951 137.311C169.934 137.228 169.943 137.142 169.975 137.063C170.007 136.985 170.062 136.918 170.133 136.871C170.203 136.824 170.286 136.799 170.37 136.799C170.484 136.799 170.592 136.844 170.673 136.925C170.753 137.005 170.798 137.114 170.798 137.227Z" fill="white" stroke="#263238" stroke-width="1.14453" stroke-linecap="round" stroke-linejoin="round"/>
<path d="M170.48 136.21H174.731" stroke="#263238" stroke-width="1.14453" stroke-linecap="round" stroke-linejoin="round"/>
<path d="M119.269 133.091V133.975H124.554C124.554 133.975 126.155 132.084 127.047 132.314C127.94 132.544 127.838 133.975 127.838 133.975H129.177L129.637 133.091L129.26 128.234L119.269 133.091Z" fill="white" stroke="#263238" stroke-width="1.14453" stroke-linecap="round" stroke-linejoin="round"/>
<path d="M119.269 133.092H124.25C124.25 133.092 125.81 131.656 127.01 131.252C128.211 130.847 128.496 133.092 128.496 133.092H129.637C129.637 133.092 130.557 130.612 130.557 130.332C130.557 130.051 129.665 125.773 129.665 122.999C129.665 122.999 126.642 122.949 126.247 123.459C126.247 123.459 125.603 122.516 125.203 122.617C125.429 123.742 125.513 124.89 125.451 126.035C125.304 127.521 123.271 129.899 121.339 130.594C120.083 131.022 119.568 131.505 119.269 133.092Z" fill="#FFC100" stroke="#263238" stroke-width="1.14453" stroke-linecap="round" stroke-linejoin="round"/>
<path d="M126.255 123.432C126.255 123.432 126.352 126.353 126.255 126.946C126.159 127.539 123.528 130.465 123.279 130.566" stroke="#263238" stroke-width="1.14453" stroke-linecap="round" stroke-linejoin="round"/>
<path d="M125.47 124.559H126.749" stroke="#263238" stroke-width="1.14453" stroke-linecap="round" stroke-linejoin="round"/>
<path d="M125.46 126.007L126.748 125.81" stroke="#263238" stroke-width="1.14453" stroke-linecap="round" stroke-linejoin="round"/>
<path d="M125.102 126.997L126.748 127.194" stroke="#263238" stroke-width="1.14453" stroke-linecap="round" stroke-linejoin="round"/>
<path d="M124.554 127.833L126.109 128.234" stroke="#263238" stroke-width="1.14453" stroke-linecap="round" stroke-linejoin="round"/>
<path d="M123.854 128.708L125.101 129.425" stroke="#263238" stroke-width="1.14453" stroke-linecap="round" stroke-linejoin="round"/>
<path d="M121.348 130.566C121.807 130.811 122.191 131.174 122.462 131.618C122.732 132.063 122.878 132.571 122.884 133.091H119.269C119.358 132.523 119.598 131.989 119.964 131.545C120.329 131.101 120.807 130.763 121.348 130.566Z" fill="white" stroke="#263238" stroke-width="1.14453" stroke-linecap="round" stroke-linejoin="round"/>
<path d="M128.892 129.333C128.892 129.457 128.855 129.578 128.786 129.681C128.718 129.784 128.62 129.864 128.506 129.911C128.391 129.958 128.266 129.971 128.144 129.947C128.023 129.923 127.911 129.863 127.824 129.775C127.736 129.688 127.677 129.577 127.653 129.455C127.629 129.334 127.641 129.208 127.688 129.094C127.736 128.979 127.816 128.882 127.919 128.813C128.022 128.744 128.142 128.708 128.266 128.708C128.432 128.708 128.591 128.773 128.709 128.891C128.826 129.008 128.892 129.167 128.892 129.333Z" fill="white" stroke="#263238" stroke-width="1.14453" stroke-linecap="round" stroke-linejoin="round"/>
<path opacity="0.2" d="M177.353 112.842H111.715C111.301 112.842 110.904 113.006 110.611 113.299C110.318 113.591 110.153 113.988 110.151 114.402V123.74H175.844C176.244 123.74 176.628 123.581 176.911 123.298C177.194 123.015 177.353 122.631 177.353 122.231V112.842Z" fill="black"/>
</g>
<path d="M179.294 114.402V138.975C179.293 139.18 179.252 139.382 179.173 139.571C179.095 139.76 178.979 139.932 178.834 140.076C178.689 140.221 178.516 140.335 178.327 140.413C178.138 140.491 177.935 140.53 177.73 140.53H111.715C111.511 140.53 111.308 140.491 111.118 140.413C110.929 140.335 110.757 140.221 110.611 140.076C110.466 139.932 110.351 139.76 110.272 139.571C110.193 139.382 110.152 139.18 110.151 138.975V114.402C110.153 113.988 110.318 113.591 110.611 113.299C110.904 113.006 111.301 112.842 111.715 112.842H177.73C178.144 112.842 178.541 113.006 178.834 113.299C179.127 113.591 179.293 113.988 179.294 114.402Z" stroke="#263238" stroke-width="1.14453" stroke-linecap="round" stroke-linejoin="round"/>
<path d="M177.928 141.868H111.518C110.763 141.868 110.151 142.48 110.151 143.234V168.194C110.151 168.949 110.763 169.56 111.518 169.56H177.928C178.682 169.56 179.294 168.949 179.294 168.194V143.234C179.294 142.48 178.682 141.868 177.928 141.868Z" fill="white" stroke="#263238" stroke-width="1.14453" stroke-linecap="round" stroke-linejoin="round"/>
<path d="M135.994 145.093H113.509V166.331H135.994V145.093Z" fill="white" stroke="#263238" stroke-width="1.14453" stroke-linecap="round" stroke-linejoin="round"/>
<path d="M160.999 146.965H140.879C140.635 146.965 140.401 146.868 140.228 146.696C140.056 146.523 139.959 146.289 139.959 146.045C139.959 145.801 140.056 145.567 140.228 145.394C140.401 145.222 140.635 145.125 140.879 145.125H160.999C161.243 145.125 161.477 145.222 161.65 145.394C161.822 145.567 161.919 145.801 161.919 146.045C161.919 146.289 161.822 146.523 161.65 146.696C161.477 146.868 161.243 146.965 160.999 146.965Z" fill="#263238"/>
<path d="M149.159 151.087H140.879C140.635 151.087 140.401 150.99 140.228 150.817C140.056 150.645 139.959 150.411 139.959 150.167C139.959 149.923 140.056 149.689 140.228 149.516C140.401 149.344 140.635 149.247 140.879 149.247H149.159C149.403 149.247 149.637 149.344 149.81 149.516C149.982 149.689 150.079 149.923 150.079 150.167C150.079 150.411 149.982 150.645 149.81 150.817C149.637 150.99 149.403 151.087 149.159 151.087Z" fill="#263238"/>
<path d="M166.455 161.46C166.107 161.344 165.73 161.349 165.386 161.475C165.042 161.602 164.751 161.841 164.56 162.154C164.374 161.838 164.086 161.594 163.743 161.463C163.401 161.332 163.024 161.321 162.674 161.432C161.579 161.759 161.193 163.148 162.099 164.422C162.706 165.196 163.477 165.824 164.358 166.262L164.532 166.349L164.703 166.267C165.595 165.847 166.381 165.233 167.003 164.468C167.9 163.194 167.545 161.8 166.455 161.46Z" fill="#FFC100" stroke="#263238" stroke-width="1.14453" stroke-linecap="round" stroke-linejoin="round"/>
<path d="M174.271 164.652H170.926L170.586 161.354H174.611L174.271 164.652Z" fill="white" stroke="#263238" stroke-width="1.14453" stroke-linecap="round" stroke-linejoin="round"/>
<path d="M170.705 162.481H174.491" stroke="#263238" stroke-width="1.14453" stroke-linecap="round" stroke-linejoin="round"/>
<path d="M170.825 163.525H174.372" stroke="#263238" stroke-width="1.14453" stroke-linecap="round" stroke-linejoin="round"/>
<path d="M171.851 161.354L171.933 164.652" stroke="#263238" stroke-width="1.14453" stroke-linecap="round" stroke-linejoin="round"/>
<path d="M173.346 161.354L173.245 164.652" stroke="#263238" stroke-width="1.14453" stroke-linecap="round" stroke-linejoin="round"/>
<path d="M174.593 161.34L175.527 161" stroke="#263238" stroke-width="1.14453" stroke-linecap="round" stroke-linejoin="round"/>
<path d="M175.158 166.253C175.158 166.338 175.133 166.42 175.086 166.491C175.039 166.561 174.972 166.616 174.894 166.648C174.816 166.681 174.73 166.689 174.647 166.673C174.564 166.656 174.488 166.615 174.428 166.555C174.368 166.496 174.327 166.419 174.311 166.336C174.294 166.253 174.303 166.167 174.335 166.089C174.368 166.011 174.423 165.944 174.493 165.897C174.563 165.85 174.646 165.825 174.731 165.825C174.844 165.825 174.953 165.87 175.033 165.95C175.113 166.031 175.158 166.14 175.158 166.253Z" fill="white" stroke="#263238" stroke-width="1.14453" stroke-linecap="round" stroke-linejoin="round"/>
<path d="M170.798 166.253C170.798 166.338 170.773 166.42 170.726 166.491C170.679 166.561 170.612 166.616 170.534 166.648C170.456 166.681 170.37 166.689 170.287 166.673C170.204 166.656 170.128 166.615 170.068 166.555C170.008 166.496 169.967 166.419 169.951 166.336C169.934 166.253 169.943 166.167 169.975 166.089C170.007 166.011 170.062 165.944 170.133 165.897C170.203 165.85 170.286 165.825 170.37 165.825C170.484 165.825 170.592 165.87 170.673 165.95C170.753 166.031 170.798 166.14 170.798 166.253Z" fill="white" stroke="#263238" stroke-width="1.14453" stroke-linecap="round" stroke-linejoin="round"/>
<path d="M170.48 165.236H174.731" stroke="#263238" stroke-width="1.14453" stroke-linecap="round" stroke-linejoin="round"/>
<path d="M126.748 151.869C126.748 151.869 127.553 147.655 129.476 149.219C132.746 151.869 130.101 159.666 130.101 159.666" stroke="#263238" stroke-width="1.14453" stroke-linecap="round" stroke-linejoin="round"/>
<path d="M122.437 151.869C122.437 151.869 121.687 148.994 119.884 149.141C118.081 149.288 116.494 155.172 118.674 160.453" stroke="#263238" stroke-width="1.14453" stroke-linecap="round" stroke-linejoin="round"/>
<path d="M122.884 150.507C122.977 150.151 123.181 149.833 123.468 149.602C123.754 149.37 124.107 149.236 124.475 149.219C124.831 149.226 125.172 149.359 125.438 149.595C125.704 149.832 125.876 150.155 125.924 150.507" stroke="#263238" stroke-width="1.14453" stroke-linecap="round" stroke-linejoin="round"/>
<path d="M120.588 150.544L128.266 150.415V152.172C128.266 152.172 131.656 159.946 130.731 161.644C129.807 163.341 118.739 163.815 118.279 161.34C117.819 158.865 120.786 152.526 120.786 152.526L120.588 150.544Z" fill="#FFC100" stroke="#263238" stroke-width="1.14453" stroke-linecap="round" stroke-linejoin="round"/>
<path d="M120.786 152.527C120.786 152.527 120.588 155.696 121.706 156.294C122.824 156.892 127.093 156.952 127.635 156.027C128.178 155.103 128.261 152.172 128.261 152.172" stroke="#263238" stroke-width="1.14453" stroke-linecap="round" stroke-linejoin="round"/>
<path d="M120.772 157.614C120.772 157.614 123.215 158.272 124.452 158.074C124.452 158.074 124.162 161.708 123.569 161.708C122.976 161.708 120.133 161.823 119.935 161.17C119.737 160.517 120.266 158.208 120.266 158.208" stroke="#263238" stroke-width="1.14453" stroke-linecap="round" stroke-linejoin="round"/>
<path d="M128.891 157.614C127.775 157.921 126.626 158.099 125.469 158.143C125.469 158.143 125.446 160.797 125.929 161.363C126.412 161.929 128.983 161.625 129.379 161.009C129.775 160.393 128.896 158.35 128.896 158.35" stroke="#263238" stroke-width="1.14453" stroke-linecap="round" stroke-linejoin="round"/>
<path d="M125.257 155.388C125.257 155.505 125.222 155.62 125.157 155.718C125.092 155.815 124.999 155.891 124.891 155.936C124.782 155.981 124.663 155.993 124.548 155.97C124.433 155.947 124.327 155.89 124.244 155.807C124.161 155.724 124.105 155.619 124.082 155.504C124.059 155.389 124.071 155.269 124.115 155.161C124.16 155.052 124.236 154.96 124.334 154.894C124.432 154.829 124.546 154.794 124.664 154.794C124.742 154.794 124.819 154.809 124.892 154.838C124.964 154.868 125.029 154.912 125.085 154.967C125.14 155.022 125.184 155.088 125.213 155.16C125.243 155.232 125.258 155.31 125.257 155.388Z" stroke="#263238" stroke-width="1.14453" stroke-linecap="round" stroke-linejoin="round"/>
<path d="M173.719 78.8252H88.4023C87.6478 78.8252 87.0361 79.4369 87.0361 80.1914V112.723C87.0361 113.477 87.6478 114.089 88.4023 114.089H173.719C174.473 114.089 175.085 113.477 175.085 112.723V80.1914C175.085 79.4369 174.473 78.8252 173.719 78.8252Z" fill="white" stroke="#263238" stroke-width="1.14453" stroke-linecap="round" stroke-linejoin="round"/>
<path d="M119.94 82.9331H91.3096V109.981H119.94V82.9331Z" fill="white" stroke="#263238" stroke-width="1.14453" stroke-linecap="round" stroke-linejoin="round"/>
<path d="M152.117 82.9331H125.828C125.356 82.9331 124.973 83.3162 124.973 83.7887V84.4557C124.973 84.9282 125.356 85.3113 125.828 85.3113H152.117C152.59 85.3113 152.973 84.9282 152.973 84.4557V83.7887C152.973 83.3162 152.59 82.9331 152.117 82.9331Z" fill="#263238"/>
<path d="M125.828 88.1817H137.038C137.151 88.1817 137.262 88.2038 137.366 88.2468C137.469 88.2898 137.564 88.3528 137.643 88.4323C137.723 88.5117 137.786 88.606 137.829 88.7098C137.872 88.8136 137.894 88.9249 137.894 89.0373V89.6997C137.894 89.9278 137.803 90.1466 137.642 90.3079C137.481 90.4692 137.262 90.5599 137.034 90.5599H125.828C125.6 90.5599 125.381 90.4692 125.22 90.3079C125.058 90.1466 124.968 89.9278 124.968 89.6997V89.0373C124.968 88.9245 124.99 88.8129 125.033 88.7088C125.077 88.6047 125.14 88.5101 125.22 88.4306C125.3 88.3511 125.395 88.2882 125.499 88.2455C125.603 88.2027 125.715 88.181 125.828 88.1817Z" fill="#263238"/>
<path d="M158.736 103.767C158.293 103.62 157.813 103.627 157.375 103.788C156.937 103.948 156.565 104.252 156.321 104.65C156.082 104.248 155.714 103.939 155.278 103.772C154.841 103.605 154.361 103.59 153.915 103.73C152.535 104.148 152.029 105.915 153.184 107.543C153.959 108.523 154.941 109.319 156.059 109.875L156.28 109.981L156.501 109.875C157.63 109.337 158.624 108.551 159.408 107.575C160.595 105.979 160.121 104.204 158.736 103.767Z" fill="#FFC100" stroke="#263238" stroke-width="1.14453" stroke-linecap="round" stroke-linejoin="round"/>
<path d="M168.686 107.842H164.422L163.989 103.638H169.118L168.686 107.842Z" fill="white" stroke="#263238" stroke-width="1.14453" stroke-linecap="round" stroke-linejoin="round"/>
<path d="M164.146 105.073H168.966" stroke="#263238" stroke-width="1.14453" stroke-linecap="round" stroke-linejoin="round"/>
<path d="M164.298 106.407H168.81" stroke="#263238" stroke-width="1.14453" stroke-linecap="round" stroke-linejoin="round"/>
<path d="M165.604 103.638L165.71 107.837" stroke="#263238" stroke-width="1.14453" stroke-linecap="round" stroke-linejoin="round"/>
<path d="M167.504 103.638L167.38 107.837" stroke="#263238" stroke-width="1.14453" stroke-linecap="round" stroke-linejoin="round"/>
<path d="M169.096 103.624L170.287 103.191" stroke="#263238" stroke-width="1.14453" stroke-linecap="round" stroke-linejoin="round"/>
<path d="M169.27 110.418C169.57 110.418 169.813 110.175 169.813 109.875C169.813 109.576 169.57 109.333 169.27 109.333C168.971 109.333 168.728 109.576 168.728 109.875C168.728 110.175 168.971 110.418 169.27 110.418Z" fill="white" stroke="#263238" stroke-width="1.14453" stroke-linecap="round" stroke-linejoin="round"/>
<path d="M163.719 110.418C164.018 110.418 164.261 110.175 164.261 109.875C164.261 109.576 164.018 109.333 163.719 109.333C163.419 109.333 163.176 109.576 163.176 109.875C163.176 110.175 163.419 110.418 163.719 110.418Z" fill="white" stroke="#263238" stroke-width="1.14453" stroke-linecap="round" stroke-linejoin="round"/>
<path d="M163.86 108.583H169.27" stroke="#263238" stroke-width="1.14453" stroke-linecap="round" stroke-linejoin="round"/>
<path d="M101.116 86.9673H109.99L110.201 88.8073L116.931 101.687C116.931 101.687 116.342 104.958 114.746 103.826C113.15 102.695 112.304 106.701 110.119 105.708C107.934 104.714 106.825 107.028 104.35 106.375C101.875 105.721 101.13 105.915 99.8559 106.494C98.5817 107.074 97.5007 104.084 96.4887 104.272C95.4767 104.461 94.4785 102.699 94.4785 102.699L100.698 89.5755L101.116 86.9673Z" fill="#FFC100" stroke="#263238" stroke-width="1.14453" stroke-linecap="round" stroke-linejoin="round"/>
<path d="M101.788 88.8213H109.107" stroke="#263238" stroke-width="1.14453" stroke-linecap="round" stroke-linejoin="round"/>
<path d="M105.749 87.8595C105.749 87.9388 105.718 88.0149 105.662 88.071C105.606 88.127 105.53 88.1585 105.45 88.1585C105.371 88.1585 105.295 88.127 105.239 88.071C105.183 88.0149 105.151 87.9388 105.151 87.8595C105.151 87.7802 105.183 87.7042 105.239 87.6481C105.295 87.592 105.371 87.5605 105.45 87.5605C105.53 87.5605 105.606 87.592 105.662 87.6481C105.718 87.7042 105.749 87.7802 105.749 87.8595Z" fill="#263238"/>
<path d="M97.6572 102.58C97.6572 102.58 99.8652 96.9034 100.215 95.6108" stroke="#263238" stroke-width="1.14453" stroke-linecap="round" stroke-linejoin="round"/>
<path d="M104.608 101.103C104.64 98.8903 104.663 96.5029 104.663 96.5029L104.571 101.103H104.608Z" fill="white" stroke="#263238" stroke-width="1.14453" stroke-linecap="round" stroke-linejoin="round"/>
<path d="M104.548 102.506L104.502 104.77C104.534 104.558 104.562 103.652 104.58 102.516L104.548 102.506Z" fill="white" stroke="#263238" stroke-width="1.14453" stroke-linecap="round" stroke-linejoin="round"/>
<path d="M110.749 103.697C110.749 103.569 108.697 96.4433 108.638 95.5923L110.749 103.697Z" fill="white"/>
<path d="M110.749 103.697C110.749 103.569 108.697 96.4433 108.638 95.5923" stroke="#263238" stroke-width="1.14453" stroke-linecap="round" stroke-linejoin="round"/>
<path d="M112.189 95.5879L111.443 93.7939L112.189 95.5879Z" fill="white"/>
<path d="M112.189 95.5879L111.443 93.7939" stroke="#263238" stroke-width="1.14453" stroke-linecap="round" stroke-linejoin="round"/>
<path d="M114.788 101.867C114.132 100.284 113.476 98.7002 112.819 97.1147L114.788 101.867Z" fill="white"/>
<path d="M114.788 101.867C114.132 100.284 113.476 98.7002 112.819 97.1147" stroke="#263238" stroke-width="1.14453" stroke-linecap="round" stroke-linejoin="round"/>
<path d="M100.685 94.3597L101.099 93.4121" stroke="#263238" stroke-width="1.14453" stroke-linecap="round" stroke-linejoin="round"/>
<path d="M183.806 170.053C183.572 170.053 183.347 169.96 183.182 169.794C183.016 169.628 182.923 169.404 182.923 169.169V57.9276C182.923 57.6934 183.016 57.4687 183.182 57.3031C183.347 57.1375 183.572 57.0444 183.806 57.0444C184.04 57.0444 184.265 57.1375 184.431 57.3031C184.596 57.4687 184.689 57.6934 184.689 57.9276V169.169C184.689 169.404 184.596 169.628 184.431 169.794C184.265 169.96 184.04 170.053 183.806 170.053Z" fill="#263238"/>
<path d="M183.806 65.8026C183.574 65.8032 183.344 65.758 183.129 65.6695C182.914 65.581 182.719 65.4509 182.554 65.2869C182.39 65.1228 182.259 64.9278 182.17 64.7132C182.081 64.4986 182.035 64.2686 182.035 64.0362V56.5796C182.035 56.1099 182.222 55.6594 182.554 55.3273C182.886 54.9952 183.336 54.8086 183.806 54.8086C184.039 54.8086 184.269 54.8544 184.484 54.9434C184.699 55.0324 184.894 55.1629 185.058 55.3273C185.223 55.4918 185.353 55.687 185.442 55.9019C185.531 56.1167 185.577 56.347 185.577 56.5796V64.0546C185.571 64.5203 185.382 64.9649 185.05 65.292C184.719 65.6192 184.272 65.8026 183.806 65.8026Z" fill="white" stroke="#263238" stroke-width="1.14453" stroke-linecap="round" stroke-linejoin="round"/>
<g opacity="0.6">
<path d="M151.965 41.3449L151.712 43.7001H150.76L150.268 39.2749H150.944L151.339 42.7801L151.671 39.2933H152.342L152.692 42.8077L153.051 39.2933H153.639L153.143 43.7001H152.223L151.965 41.3449Z" fill="black"/>
<path d="M153.979 39.2793H154.674V43.6999H153.979V39.2793Z" fill="black"/>
<path d="M155.093 40.342C155.071 40.0447 155.163 39.7503 155.351 39.5186C155.562 39.3323 155.835 39.2295 156.117 39.2295C156.399 39.2295 156.671 39.3323 156.883 39.5186C157.068 39.7512 157.16 40.0449 157.14 40.342V40.48H156.482V40.296C156.493 40.1766 156.461 40.0573 156.39 39.9602C156.357 39.9271 156.318 39.9015 156.274 39.8848C156.231 39.8682 156.184 39.8609 156.137 39.8636C156.09 39.8606 156.043 39.8676 155.998 39.8843C155.954 39.9009 155.914 39.9268 155.88 39.9602C155.81 40.0573 155.777 40.1766 155.788 40.296C155.785 40.4375 155.82 40.5773 155.889 40.7008C155.96 40.8196 156.045 40.9293 156.142 41.0274C156.243 41.1286 156.354 41.2344 156.469 41.3356C156.584 41.441 156.692 41.5548 156.791 41.676C156.895 41.8006 156.98 41.9402 157.044 42.09C157.115 42.2651 157.149 42.453 157.145 42.642C157.164 42.9397 157.071 43.2338 156.883 43.4654C156.669 43.6527 156.394 43.7559 156.11 43.7559C155.826 43.7559 155.551 43.6527 155.337 43.4654C155.149 43.2338 155.055 42.9397 155.075 42.642V42.3706H155.733V42.6834C155.719 42.8036 155.754 42.9243 155.829 43.0192C155.902 43.0814 155.995 43.1155 156.091 43.1155C156.187 43.1155 156.28 43.0814 156.354 43.0192C156.429 42.9243 156.463 42.8036 156.45 42.6834C156.454 42.5432 156.419 42.4047 156.349 42.2832C156.28 42.1633 156.195 42.0534 156.096 41.9566C155.995 41.8508 155.889 41.7496 155.774 41.6484C155.656 41.5441 155.547 41.4302 155.447 41.308C155.344 41.1812 155.258 41.0402 155.194 40.8894C155.122 40.7162 155.088 40.5295 155.093 40.342Z" fill="black"/>
<path d="M158.24 43.6999H157.545V39.2793H158.24V41.1745H159.031V39.2793H159.735V43.6999H159.031V41.8093H158.24V43.6999Z" fill="black"/>
<path d="M160.24 39.2793H160.935V43.0697H162.08V43.6999H160.24V39.2793Z" fill="black"/>
<path d="M162.379 39.2793H163.074V43.6999H162.379V39.2793Z" fill="black"/>
<path d="M163.493 40.342C163.473 40.045 163.565 39.7512 163.75 39.5186C163.963 39.3319 164.236 39.229 164.518 39.229C164.801 39.229 165.074 39.3319 165.287 39.5186C165.472 39.7512 165.564 40.045 165.544 40.342V40.48H164.886V40.296C164.897 40.1766 164.865 40.0573 164.794 39.9602C164.761 39.9268 164.72 39.9009 164.676 39.8843C164.632 39.8676 164.584 39.8606 164.537 39.8636C164.49 39.8611 164.442 39.8685 164.398 39.8851C164.354 39.9017 164.313 39.9273 164.279 39.9602C164.211 40.058 164.18 40.1772 164.192 40.296C164.189 40.4375 164.224 40.5773 164.293 40.7008C164.362 40.8195 164.445 40.9292 164.541 41.0274C164.647 41.1286 164.753 41.2344 164.868 41.3356C164.985 41.441 165.094 41.5548 165.195 41.676C165.297 41.8018 165.383 41.9411 165.448 42.09C165.519 42.2651 165.553 42.453 165.549 42.642C165.568 42.9397 165.475 43.2338 165.287 43.4654C165.072 43.6521 164.796 43.7549 164.512 43.7549C164.227 43.7549 163.952 43.6521 163.736 43.4654C163.548 43.2338 163.455 42.9397 163.474 42.642V42.3706H164.132V42.6834C164.12 42.8043 164.156 42.925 164.233 43.0192C164.268 43.0522 164.309 43.0778 164.354 43.0944C164.399 43.111 164.447 43.1183 164.495 43.1158C164.592 43.1193 164.686 43.0846 164.758 43.0192C164.833 42.9243 164.867 42.8036 164.854 42.6834C164.858 42.5432 164.823 42.4047 164.753 42.2832C164.682 42.1643 164.597 42.0546 164.5 41.9566C164.399 41.8508 164.288 41.7496 164.173 41.6484C164.057 41.5429 163.947 41.4291 163.847 41.308C163.743 41.1822 163.659 41.0409 163.598 40.8894C163.525 40.7165 163.489 40.5299 163.493 40.342Z" fill="black"/>
<path d="M165.742 39.2793H167.9V39.9141H167.177V43.6999H166.478V39.9141H165.751L165.742 39.2793Z" fill="black"/>
</g>
<path d="M25.4798 50.1401C25.144 40.5307 34.183 32.4209 45.6646 32.0207C57.1462 31.6205 66.728 39.1001 67.0592 48.6957C67.372 57.5461 59.7222 65.1223 49.5378 66.5759C48.7328 71.8291 51.2168 74.2717 51.2168 74.2717C49.509 73.5879 47.958 72.5642 46.658 71.2626C45.358 69.961 44.3361 68.4087 43.6544 66.7001C33.654 65.7801 25.7834 58.8387 25.4798 50.1401Z" fill="white" stroke="#263238" stroke-width="1.14453" stroke-linecap="round" stroke-linejoin="round"/>
<path d="M41.0005 43.0792C43.8663 42.2604 45.5591 44.0452 46.3135 45.1906C47.1139 44.0774 48.8803 42.357 51.7093 43.2862C54.7821 44.2982 55.7803 48.2542 53.0893 51.8008C51.1665 54.3492 48.1167 56.0604 46.5573 56.8148C46.3733 56.9068 46.2031 56.9804 46.0651 57.0448L45.5775 56.7964C44.0503 55.9822 41.0695 54.156 39.2525 51.534C36.7363 47.8908 37.8909 43.9716 41.0005 43.0792Z" fill="#FFC100"/>
<path d="M39.56 135.489C39.56 135.489 26.0406 148.659 21.8224 157.615C17.6042 166.571 19.9824 166.185 24.1224 169.018C32.4024 174.713 50.117 182.041 50.117 182.041C50.117 182.041 50.4666 187.818 53.452 189.75C56.4374 191.682 64.8692 180.665 63.641 178.798C62.4128 176.93 53.981 177.524 53.981 177.524C53.981 177.524 49.7582 175.835 43.7874 170.936C39.5232 167.534 35.0694 164.376 30.4474 161.479C30.4474 161.479 37.8074 151.235 41.7082 148.438C45.609 145.641 51.8742 141.63 51.8742 141.63" fill="white"/>
<path d="M39.56 135.489C39.56 135.489 26.0406 148.659 21.8224 157.615C17.6042 166.571 19.9824 166.185 24.1224 169.018C32.4024 174.713 50.117 182.041 50.117 182.041C50.117 182.041 50.4666 187.818 53.452 189.75C56.4374 191.682 64.8692 180.665 63.641 178.798C62.4128 176.93 53.981 177.524 53.981 177.524C53.981 177.524 49.7582 175.835 43.7874 170.936C39.5232 167.534 35.0694 164.376 30.4474 161.479C30.4474 161.479 37.8074 151.235 41.7082 148.438C45.609 145.641 51.8742 141.63 51.8742 141.63" stroke="#263238" stroke-width="1.14453" stroke-linecap="round" stroke-linejoin="round"/>
<path d="M97.0601 211.494C89.0469 214.181 81.3695 216.14 74.6995 216.655C74.2073 216.692 73.715 216.724 73.232 216.747C73.1447 215.147 73.0021 212.147 72.8411 211.227C72.6824 210.315 72.2301 209.48 71.5531 208.849L68.7425 210.344L67.9605 216.752C55.7015 216.568 47.9229 213.072 47.9229 213.072L49.0314 206.384C48.4637 204.372 48.2138 202.285 48.2909 200.197C48.6313 187.712 58.1395 173.365 58.1395 173.365C58.1395 173.365 79.9849 157.95 87.2207 170.448C94.4565 182.947 97.0601 211.494 97.0601 211.494Z" fill="#BFBFBF"/>
<path opacity="0.2" d="M86.2818 210.51C86.1438 211.757 78.0018 213.431 74.7036 210.538C75.0164 210.832 77.7856 213.482 77.0542 214.397C76.3228 215.312 74.676 214.397 74.676 214.397C74.8913 215.135 74.8913 215.918 74.676 216.656C74.1838 216.692 73.6916 216.725 73.2086 216.748C73.1212 215.147 72.9786 212.148 72.8176 211.228C72.659 210.316 72.2067 209.481 71.5296 208.849L68.719 210.344L67.937 216.752C55.678 216.568 47.8994 213.072 47.8994 213.072L49.008 206.384C48.4403 204.373 48.1904 202.285 48.2674 200.197C49.606 202.497 51.9474 205.514 55.1674 206.016C60.5402 206.839 64.763 203.012 64.763 203.012C64.763 203.012 63.5164 199.548 64.763 196.14C64.763 196.14 64.165 204.815 74.6622 206.016C84.8926 207.184 87.0822 204.93 87.1788 204.829C87.0132 205.064 84.4188 208.849 82.8686 209.259C82.8824 209.263 86.4244 209.263 86.2818 210.51Z" fill="black"/>
<path d="M97.0596 211.494C97.0596 211.494 94.4514 182.974 87.2202 170.453C79.989 157.932 58.139 173.37 58.139 173.37C58.139 173.37 45.0796 193.062 49.008 206.393L47.8994 213.072" stroke="#263238" stroke-width="1.14453" stroke-linecap="round" stroke-linejoin="round"/>
<path d="M50.457 206.209C55.7332 208.012 61.8466 207.318 65.8716 204.829" stroke="#263238" stroke-width="1.14453" stroke-linecap="round" stroke-linejoin="round"/>
<path d="M66.5297 183.158C66.5297 183.158 62.5737 198.361 66.5297 202.938C70.4857 207.515 82.0501 207.846 85.1735 207.216C88.2969 206.586 89.3365 204.396 89.3365 204.396" stroke="#263238" stroke-width="1.14453" stroke-linecap="round" stroke-linejoin="round"/>
<path d="M72.4681 185.38C72.4681 185.38 71.3733 193.154 72.5785 196.903L78.2641 198.987L82.8641 195.933C82.8641 195.933 82.3535 188.711 82.4363 185.38C82.4501 185.38 76.7093 184.405 72.4681 185.38Z" stroke="#263238" stroke-width="1.14453" stroke-linecap="round" stroke-linejoin="round"/>
<path d="M72.0127 193.573C72.0127 193.573 75.4305 192.28 77.4453 195.238C77.4453 195.238 77.7857 192.184 82.4501 192.74" stroke="#263238" stroke-width="1.14453" stroke-linecap="round" stroke-linejoin="round"/>
<path d="M73.1953 186.7C73.1953 186.7 80.1459 186.24 82.4505 187.16" stroke="#263238" stroke-width="1.14453" stroke-linecap="round" stroke-linejoin="round"/>
<path d="M53.328 186.728C53.328 186.728 50.6002 193.66 50.6968 197.276L55.2968 199.314L60.2602 196.025C60.2602 196.025 61.0698 189.083 61.6862 186.13C61.6632 186.13 56.9804 185.661 53.328 186.728Z" stroke="#263238" stroke-width="1.14453" stroke-linecap="round" stroke-linejoin="round"/>
<path d="M51.0596 194.042C51.0596 194.042 54.2796 192.699 55.402 195.486C55.402 195.486 56.3588 192.51 60.4252 192.855" stroke="#263238" stroke-width="1.14453" stroke-linecap="round" stroke-linejoin="round"/>
<path d="M53.6318 187.8C53.6318 187.8 59.5382 187.018 61.3782 187.675" stroke="#263238" stroke-width="1.14453" stroke-linecap="round" stroke-linejoin="round"/>
<path d="M54.2432 182.041C54.2432 182.041 60.5958 180.905 66.1158 184.948C73.0424 181.169 81.0076 179.737 88.8168 180.868" stroke="#263238" stroke-width="1.14453" stroke-linecap="round" stroke-linejoin="round"/>
<path d="M90.4404 180.467C93.2576 190.699 94.9149 201.214 95.3808 211.816" stroke="#263238" stroke-width="1.14453" stroke-linecap="round" stroke-linejoin="round"/>
<path d="M58.8252 209.815C58.8252 209.815 65.9046 207.212 68.0942 205.339C68.0942 205.339 73.2278 210.027 80.3992 209.815" stroke="#263238" stroke-width="1.14453" stroke-linecap="round" stroke-linejoin="round"/>
<path d="M73.2093 216.747C73.2093 216.747 73.3059 211.273 72.4687 210.547C71.6315 209.82 71.4199 207.58 71.4199 207.58" stroke="#263238" stroke-width="1.14453" stroke-linecap="round" stroke-linejoin="round"/>
<path d="M71.5301 208.32C70.7302 209.166 69.7763 209.852 68.7195 210.34L67.9375 216.748" stroke="#263238" stroke-width="1.14453" stroke-linecap="round" stroke-linejoin="round"/>
<path d="M87.1697 128.138C88.6555 131.914 102.943 150.646 104.112 156.032C105.28 161.419 105.165 166.101 98.5915 164.464C92.0181 162.826 89.2673 142.816 82.0039 132.149" fill="white"/>
<path d="M87.1697 128.138C88.6555 131.914 102.943 150.646 104.112 156.032C105.28 161.419 105.165 166.101 98.5915 164.464C92.0181 162.826 89.2673 142.816 82.0039 132.149" stroke="#263238" stroke-width="1.14453" stroke-linecap="round" stroke-linejoin="round"/>
<path d="M86.5033 130.364C86.8144 129.996 87.0296 129.557 87.1299 129.086C87.2303 128.615 87.2125 128.127 87.0783 127.664C86.7418 125.765 86.092 123.935 85.1555 122.25C83.7433 119.95 84.7691 117.723 83.8215 117.769C82.8739 117.815 82.6761 119.895 82.6761 119.895C82.6761 119.895 80.8361 117.829 79.6953 117.217C79.1755 116.937 75.9141 115.598 75.9141 115.598L72.5791 115.759C72.5791 115.759 72.5515 117.337 75.6151 117.139L77.6575 118.758C77.6575 118.758 75.7301 119.329 75.6289 120.194C75.5277 121.058 74.4789 121.114 74.5893 122.287C74.6997 123.46 74.1569 123.616 75.1229 125.111C76.2775 126.905 77.4551 126.316 77.4551 126.316C77.4551 126.316 78.4349 131.376 79.4975 132.37C80.0403 132.871 81.1627 132.949 82.3909 132.692" fill="white"/>
<path d="M86.5033 130.364C86.8144 129.996 87.0296 129.557 87.1299 129.086C87.2303 128.615 87.2125 128.127 87.0783 127.664C86.7418 125.765 86.092 123.935 85.1555 122.25C83.7433 119.95 84.7691 117.723 83.8215 117.769C82.8739 117.815 82.6761 119.895 82.6761 119.895C82.6761 119.895 80.8361 117.829 79.6953 117.217C79.1755 116.937 75.9141 115.598 75.9141 115.598L72.5791 115.759C72.5791 115.759 72.5515 117.337 75.6151 117.139L77.6575 118.758C77.6575 118.758 75.7301 119.329 75.6289 120.194C75.5277 121.058 74.4789 121.114 74.5893 122.287C74.6997 123.46 74.1569 123.616 75.1229 125.111C76.2775 126.905 77.4551 126.316 77.4551 126.316C77.4551 126.316 78.4349 131.376 79.4975 132.37C80.0403 132.871 81.1627 132.949 82.3909 132.692" stroke="#263238" stroke-width="1.14453" stroke-linecap="round" stroke-linejoin="round"/>
<path d="M75.6289 120.212C75.6289 120.212 76.8111 122.907 77.5103 123.616C78.2095 124.324 79.4607 123.574 79.9391 123.515C80.5555 123.441 80.9833 123.515 80.8867 123.262C80.3623 121.882 78.8673 122.231 78.8673 122.231C78.8673 122.231 78.4073 120.745 77.5425 120.138" stroke="#263238" stroke-width="1.14453" stroke-linecap="round" stroke-linejoin="round"/>
<path d="M82.6759 119.895C82.6465 120.588 82.7146 121.281 82.8783 121.955C82.8783 121.955 81.8663 124.301 82.0457 125.41" stroke="#263238" stroke-width="1.14453" stroke-linecap="round" stroke-linejoin="round"/>
<path d="M74.5889 122.503C75.0489 123.501 76.0333 124.849 76.8889 125.056C77.7445 125.263 80.6333 124.453 80.4033 123.478" stroke="#263238" stroke-width="1.14453" stroke-linecap="round" stroke-linejoin="round"/>
<path d="M78.1172 120.713C78.1172 120.713 78.7244 120.713 78.7244 119.743" stroke="#263238" stroke-width="1.14453" stroke-linecap="round" stroke-linejoin="round"/>
<path d="M77.6572 118.777C77.6572 118.777 78.8532 119.2 79.396 118.257" stroke="#263238" stroke-width="1.14453" stroke-linecap="round" stroke-linejoin="round"/>
<path d="M47.6791 91.5403C50.5035 81.8527 67.8179 82.0781 71.7969 89.8429C75.7759 97.6077 74.1383 95.8735 74.3729 98.6151C74.6075 101.357 76.7143 103.367 76.2497 108.096C75.7851 112.824 76.0151 114.623 74.8421 115.833C73.6691 117.043 65.0763 115.69 63.2869 114.609C63.2869 114.609 42.7801 108.418 47.6791 91.5403Z" fill="white" stroke="#263238" stroke-width="1.14453" stroke-linecap="round" stroke-linejoin="round"/>
<path d="M53.6456 109.411C54.9382 112.13 55.3614 123.483 52.6934 126.178C52.6934 126.178 59.7406 129.223 69.81 125.594C69.81 125.594 66.7648 121.73 66.7648 118.39C66.7648 115.051 70.6288 114.586 70.6288 114.586" fill="white"/>
<path d="M53.6456 109.411C54.9382 112.13 55.3614 123.483 52.6934 126.178C52.6934 126.178 59.7406 129.223 69.81 125.594C69.81 125.594 66.7648 121.73 66.7648 118.39C66.7648 115.051 70.6288 114.586 70.6288 114.586" stroke="#263238" stroke-width="1.14453" stroke-linecap="round" stroke-linejoin="round"/>
<path d="M74.2252 96.1862C74.6392 96.4438 73.618 98.4264 72.2978 99.2314H73.2592C73.2592 99.2314 72.7348 101.071 72.2978 101.237C71.8608 101.403 70.628 96.7842 67.6426 99.2314C67.6426 99.2314 68.696 92.7178 74.2252 96.1862Z" fill="#FFC100" stroke="#263238" stroke-width="1.14453" stroke-linecap="round" stroke-linejoin="round"/>
<path d="M65.3567 82.4276C65.3567 82.4276 73.0847 83.6788 75.0167 88.5962C76.9487 93.5136 73.4343 98.5966 70.6283 99.2314C66.2353 100.225 66.5895 105.115 68.1673 109.411C69.7451 113.708 72.3073 116.771 71.6219 121.173C71.6219 121.173 68.8941 117.953 66.9621 119.977C65.0301 122.001 62.8543 122.218 58.6821 121.27C54.5099 120.322 54.6203 121.799 52.7021 123.018C50.7839 124.237 46.6669 120.41 46.3127 123.368C45.9585 126.325 44.8223 126.611 44.8223 126.611C44.8223 126.611 39.3759 123.239 40.9583 118.39C42.5407 113.542 44.1185 112.346 43.4147 108.27C42.7109 104.195 41.6483 97.0602 43.2399 89.8428C44.8315 82.6254 57.8173 79.1202 65.3567 82.4276Z" fill="#FFC100" stroke="#263238" stroke-width="1.14453" stroke-linecap="round" stroke-linejoin="round"/>
<path d="M71.2729 101.356C71.2729 101.356 70.6289 97.9019 69.9251 97.9019C69.2213 97.9019 68.9315 100.202 68.9315 100.202C68.9315 100.202 68.0989 101.122 68.0529 103.206C68.0069 105.289 69.4007 106.016 69.4007 106.016C69.4007 106.016 70.0447 108.008 71.2729 107.599C72.5011 107.189 70.0999 105.607 70.1597 100.699" fill="white"/>
<path d="M71.2729 101.356C71.2729 101.356 70.6289 97.9019 69.9251 97.9019C69.2213 97.9019 68.9315 100.202 68.9315 100.202C68.9315 100.202 68.0989 101.122 68.0529 103.206C68.0069 105.289 69.4007 106.016 69.4007 106.016C69.4007 106.016 70.0447 108.008 71.2729 107.599C72.5011 107.189 70.0999 105.607 70.1597 100.699" stroke="#263238" stroke-width="1.14453" stroke-linecap="round" stroke-linejoin="round"/>
<path d="M71.332 109.89C71.332 109.89 71.5942 113.137 73.632 115.244L71.332 109.89Z" fill="white"/>
<path d="M71.332 109.89C71.332 109.89 71.5942 113.137 73.632 115.244" stroke="#263238" stroke-width="1.14453" stroke-linecap="round" stroke-linejoin="round"/>
<path d="M73.3747 91.1953C72.5145 92.9663 71.0748 94.1025 69.5614 95.2893C65.2282 98.6841 58.7789 101.982 58.6777 108.34C58.6755 109.644 58.9384 110.935 59.4506 112.135" stroke="#263238" stroke-width="1.14453" stroke-linecap="round" stroke-linejoin="round"/>
<path d="M66.125 113.846C66.263 114.665 66.4056 115.488 66.5298 116.311" stroke="#263238" stroke-width="1.14453" stroke-linecap="round" stroke-linejoin="round"/>
<path d="M68.0527 100.791C64.7177 103.261 65.2927 108.427 65.8309 112.005" stroke="#263238" stroke-width="1.14453" stroke-linecap="round" stroke-linejoin="round"/>
<path d="M52.9002 96.5542C53.788 103.528 54.8414 110.897 51.626 117.687" stroke="#263238" stroke-width="1.14453" stroke-linecap="round" stroke-linejoin="round"/>
<path d="M64.4003 82.8369C62.2165 82.6743 60.0272 83.0701 58.0385 83.9869C54.0779 85.9189 53.2177 90.5005 52.9785 94.5209" stroke="#263238" stroke-width="1.14453" stroke-linecap="round" stroke-linejoin="round"/>
<path d="M45.4616 117.622C45.2414 118.471 45.1622 119.351 45.227 120.226" stroke="#263238" stroke-width="1.14453" stroke-linecap="round" stroke-linejoin="round"/>
<path d="M45.4203 91.752C45.0569 95.892 45.4203 100.087 45.9815 104.213C46.2575 106.279 46.5703 108.353 46.8555 110.405C47.1407 112.457 46.5657 114.191 45.9355 116.086" stroke="#263238" stroke-width="1.14453" stroke-linecap="round" stroke-linejoin="round"/>
<path d="M46.9202 85.9604C46.0968 87.1472 45.83 88.7205 45.623 90.1327" stroke="#263238" stroke-width="1.14453" stroke-linecap="round" stroke-linejoin="round"/>
<path d="M66.7002 117.962C67.2054 117.7 67.7794 117.6 68.3435 117.677C68.9076 117.754 69.4342 118.003 69.8512 118.39" stroke="#263238" stroke-width="1.14453" stroke-linecap="round" stroke-linejoin="round"/>
<path d="M55.5586 118.34C57.3158 118.068 58.8108 119.186 60.4024 119.72C62.1826 120.299 63.5948 119.899 65.122 118.896" stroke="#263238" stroke-width="1.14453" stroke-linecap="round" stroke-linejoin="round"/>
<path d="M43.5156 123.74C44.4954 124.053 44.7254 122.668 45.0152 122.038C45.5718 120.833 45.9674 120.598 47.2784 120.897C50.3282 121.597 52.2556 122.277 54.1784 119.389" stroke="#263238" stroke-width="1.14453" stroke-linecap="round" stroke-linejoin="round"/>
<path d="M42.1776 130.106C42.1776 130.106 48.498 125.102 59.9152 124.149C71.3324 123.197 78.881 123.896 81.6916 126.707C84.5022 129.518 89.3138 139.339 89.3598 144.09C89.392 147.08 85.8132 155.508 85.8132 155.508L91.1584 179.984C91.1584 179.984 75.6426 178.802 61.6586 180.035C54.5562 180.656 52.6932 182.04 52.6932 182.04C52.6932 182.04 55.7016 171.419 56.226 168.82C56.7504 166.221 39.5602 139.306 42.1776 130.106Z" fill="#263238"/>
<path d="M104.378 162.564C103.293 168.208 101.301 167.04 97.5564 165.283C93.812 163.526 87.4732 157.205 80.3984 148.07L88.5174 137.908C88.5174 137.908 94.8608 146.901 97.5564 149.827C100.252 152.752 101.77 157.187 101.77 157.187" fill="white"/>
<path d="M104.378 162.564C103.293 168.208 101.301 167.04 97.5564 165.283C93.812 163.526 87.4732 157.205 80.3984 148.07L88.5174 137.908C88.5174 137.908 94.8608 146.901 97.5564 149.827C100.252 152.752 101.77 157.187 101.77 157.187" stroke="#263238" stroke-width="1.14453" stroke-linecap="round" stroke-linejoin="round"/>
<path d="M70.6289 123.92C70.6289 123.92 77.4645 123.211 80.9007 126.059C84.3369 128.906 88.2607 136.091 90.4411 139.399C90.4411 139.399 85.8779 147.844 80.5373 149.252C80.5373 149.252 78.2373 145.503 76.3145 144.334C74.3917 143.166 72.5793 140.351 72.5793 140.351" fill="#263238"/>
<path d="M47.0214 127.374C41.299 129.163 35.6778 138.12 32.3428 141.105C32.3428 141.105 34.6842 147.651 41.6716 150.052C41.6716 150.052 45.1906 147.076 47.0214 147.78C48.8522 148.483 47.0214 127.374 47.0214 127.374Z" fill="#263238"/>
<path d="M73.5996 87.1426C73.6364 87.9338 73.687 88.725 73.664 89.5162" stroke="#263238" stroke-width="1.14453" stroke-linecap="round" stroke-linejoin="round"/>
<path d="M30.4105 161.46C30.4105 161.46 28.5199 164.082 25.6035 163.976" stroke="#263238" stroke-width="1.14453" stroke-linecap="round" stroke-linejoin="round"/>
<path d="M80.3993 148.07C80.3993 148.07 77.6669 143.079 76.3145 143.166C74.9621 143.253 72.4321 134.325 77.6577 128.138" stroke="white" stroke-width="1.14453" stroke-linecap="round" stroke-linejoin="round"/>
<path d="M51.6396 126.611C51.6396 126.611 54.8596 129.224 66.7368 125.41" stroke="white" stroke-width="1.14453" stroke-linecap="round" stroke-linejoin="round"/>
<path d="M51.6396 131.919C51.6396 131.919 60.4808 131.716 64.7726 128.138" stroke="white" stroke-width="1.14453" stroke-linecap="round" stroke-linejoin="round"/>
<path d="M41.6574 133.727C41.6574 133.727 40.765 143.796 46.9198 146.469" stroke="white" stroke-width="1.14453" stroke-linecap="round" stroke-linejoin="round"/>
<path d="M40.0889 143.166C40.0889 143.166 41.4689 146.713 46.1057 146.469" stroke="white" stroke-width="1.14453" stroke-linecap="round" stroke-linejoin="round"/>
<path d="M71.5303 139.417C71.5303 139.417 72.1421 143.617 77.8231 144.224" stroke="white" stroke-width="1.14453" stroke-linecap="round" stroke-linejoin="round"/>
<path d="M58.1162 166.727C58.1162 166.727 72.0634 164.133 74.3128 159.694" stroke="white" stroke-width="1.14453" stroke-linecap="round" stroke-linejoin="round"/>
<path d="M61.3779 170.384C61.3779 170.384 66.3275 177.05 74.5017 175.522" stroke="white" stroke-width="1.14453" stroke-linecap="round" stroke-linejoin="round"/>
</svg>
