<svg width="20" height="33" viewBox="0 0 20 33" fill="none" xmlns="http://www.w3.org/2000/svg">
<path d="M7.79948 5.96044C5.55405 1.78978 2.26185 0.455654 0 0C0.989302 0.488493 4.0393 2.17975 5.40626 5.11892C7.04826 8.65742 4.90136 13.9652 4.90136 13.9652C4.90136 13.9652 4.90136 13.6614 4.87673 13.2057C3.76017 17.2615 1.90472 23.382 0.578805 27.3187L2.24542 23.0618L3.00485 20.2827L8.57532 22.4502L5.66899 19.5438C5.66899 19.5438 11.7362 23.2096 13.3782 24.7284C15.0202 26.2473 15.5251 28.1397 14.6425 30.2866C14.1657 31.2723 13.5521 32.1858 12.8199 33C14.3098 32.0714 15.6755 30.9568 16.8838 29.6832L19.1621 27.2653C19.1621 27.2653 10.9357 11.7772 7.79948 5.96044Z" fill="#FFC100"/>
</svg>
