<svg width="4" height="2" viewBox="0 0 4 2" fill="none" xmlns="http://www.w3.org/2000/svg">
<path d="M0.819857 1.96018C0.724027 1.99811 0.619677 2.00923 0.518005 1.99235C0.416333 1.97547 0.321171 1.93122 0.242744 1.86435C0.150944 1.78412 0.0813439 1.6816 0.0406678 1.56667C-8.17239e-06 1.45173 -0.0103885 1.32826 0.0105073 1.20815C0.0299163 1.10479 0.0775591 1.00883 0.148158 0.930894C0.218758 0.852957 0.309557 0.796082 0.410494 0.766581L2.45573 0.0434767C2.55279 0.00324843 2.65908 -0.00939669 2.76287 0.0069352C2.86667 0.0232671 2.96392 0.0679382 3.04394 0.136031C3.13569 0.216291 3.20523 0.318826 3.24585 0.433758C3.28648 0.54869 3.29682 0.672148 3.27589 0.792238C3.25611 0.895381 3.20832 0.991084 3.13775 1.06886C3.06718 1.14664 2.97656 1.2035 2.87582 1.23319L0.830546 1.95631L0.819857 1.96018Z" fill="white"/>
</svg>
