<svg width="125" height="241" viewBox="0 0 125 241" fill="none" xmlns="http://www.w3.org/2000/svg">
<path d="M72.9093 124.221C71.5723 129.903 70.1546 135.493 69.878 141.325C70.0394 141.614 70.0048 142.674 69.878 142.386C69.878 143.331 68.4142 143.158 68.4142 142.224C68.4142 141.625 68.4142 141.014 68.4142 140.438C65.0718 136.277 60.2194 133.649 56.3007 130.065C53.1467 127.229 50.8474 123.568 49.6619 119.496C46.4116 108.281 49.4544 96.4442 45.5472 85.2066C42.1701 75.5711 36.1191 67.1804 31.0017 58.4439C25.5961 49.2233 21.6082 39.4955 21.2048 28.6729C20.8936 20.3859 21.8733 9.3442 28.1894 3.14335C34.8744 -3.44937 43.1729 1.48365 48.3018 7.36178C63.147 24.4083 70.0163 45.9499 72.794 67.9756C74.3269 80.1699 75.9175 92.4333 75.5487 104.731C75.3172 111.299 74.433 117.828 72.9093 124.221Z" fill="#92E3A9"/>
<path d="M69.9126 145.809C70.7256 134.292 70.5906 122.727 69.5092 111.232C69.5113 111.193 69.5113 111.155 69.5092 111.116C69.6937 101.781 70.4313 92.4793 70.0625 83.132C69.6105 73.0388 68.2371 63.0081 65.9593 53.165C65.9593 53.0498 65.7519 53.0844 65.7749 53.165C67.5943 62.8509 68.6808 72.6603 69.0252 82.5096C69.2096 87.7884 69.1673 93.0633 68.8984 98.3344C68.8062 100.052 68.6448 101.792 68.5296 103.509C64.6524 77.3001 55.1788 52.2324 40.7525 30.0098C40.5681 29.7102 40.0264 30.0098 40.2108 30.3441C50.5139 47.2337 58.1419 65.6157 62.8243 84.8378C55.6784 71.6062 44.8903 60.7259 36.8914 48.013C36.8914 47.9439 36.73 48.0131 36.7646 48.0822C43.9567 62.2473 55.8397 73.4388 63.4121 87.3504C64.7145 93.0326 65.798 98.7724 66.5932 104.547C67.6636 112.464 68.241 120.44 68.3221 128.428C63.9654 120.302 59.4473 112.523 55.8973 103.924C55.8875 103.902 55.8733 103.881 55.8555 103.864C55.8377 103.847 55.8167 103.833 55.7937 103.824C55.7707 103.815 55.7461 103.811 55.7214 103.811C55.6967 103.811 55.6722 103.817 55.6495 103.826C55.6268 103.836 55.6063 103.85 55.5891 103.868C55.5719 103.886 55.5583 103.907 55.5492 103.93C55.5401 103.953 55.5357 103.978 55.5361 104.002C55.5365 104.027 55.5417 104.052 55.5516 104.074C58.5713 113.007 62.6399 122.631 68.3451 130.249C68.3451 135.904 68.1876 141.56 67.8726 147.215C66.9851 162.291 64.4149 177.182 63.2623 192.165C63.2516 192.257 63.2778 192.349 63.335 192.422C63.3923 192.494 63.476 192.541 63.5677 192.552C63.6594 192.562 63.7516 192.536 63.824 192.479C63.8964 192.422 63.9431 192.338 63.9538 192.246C66.9918 176.92 68.9827 161.405 69.9126 145.809Z" fill="#263238"/>
<path d="M53.9381 29.5258C53.9381 29.4221 53.7306 29.5258 53.7652 29.6064C56.5198 37.2249 58.0758 44.9357 60.0698 52.7386C60.0893 52.8064 60.133 52.8646 60.1926 52.9023C60.2521 52.94 60.3235 52.9546 60.3931 52.9432C60.4627 52.9319 60.5257 52.8954 60.5702 52.8407C60.6147 52.786 60.6376 52.7169 60.6345 52.6464C59.8277 44.7282 57.0039 36.8331 53.9381 29.5258Z" fill="#263238"/>
<path d="M123.864 61.4636C122.026 65.9277 119.913 70.2736 117.536 74.4761C112.569 83.4778 107.405 91.7647 106.46 102.219C106.045 106.898 105.895 111.601 104.466 116.049C103.172 119.931 101.308 123.598 98.9339 126.93C93.5629 134.756 86.8434 141.51 81.8642 149.635C76.6787 158.105 72.8483 167.334 70.5114 176.986C70.3961 177.516 69.5663 177.366 69.6816 176.848C69.6867 176.806 69.6867 176.763 69.6816 176.721C69.6742 176.705 69.6705 176.687 69.6705 176.669C69.6705 176.651 69.6742 176.634 69.6816 176.617C68.8863 154.131 70.6843 131.471 77.5421 109.929C80.5684 100.465 84.2027 91.2059 88.4224 82.2099C92.0991 74.407 96.6748 66.8922 103.129 61.0602C107.313 57.2913 116.384 50.1453 122.343 53.9257C125.236 55.7699 124.994 58.6398 123.864 61.4636Z" fill="#92E3A9"/>
<path d="M101.274 112.419C97.3056 118.943 92.9407 125.217 88.2036 131.206C86.0252 134.041 83.8238 136.865 81.6454 139.712C80.6196 141.049 79.4671 142.386 78.522 143.838C79.1213 141.475 79.6745 139.101 80.2969 136.738C83.2014 125.385 85.9906 113.917 90.3128 103.002C94.5312 92.318 100.156 82.256 105.919 72.39C106.08 72.1364 105.654 71.9405 105.504 72.1941C100.755 80.0085 95.9258 87.8114 91.9379 96.0524C89.7284 100.648 87.8038 105.374 86.175 110.206C88.01 99.9559 90.5713 89.8492 93.8397 79.9624C93.8397 79.8702 93.7474 79.8126 93.7129 79.9048C89.4162 89.9038 86.7283 100.52 85.7486 111.359C84.7728 114.278 83.8699 117.225 83.04 120.199C79.5016 132.773 76.3897 145.486 73.5083 158.234C73.4579 149.848 74.1833 141.475 75.6751 133.223C75.6751 133.038 75.4215 132.992 75.3754 133.223C73.1835 141.826 72.451 150.736 73.2086 159.582C72.1175 164.438 71.0533 169.291 70.016 174.139C67.8145 184.512 65.0945 195.058 63.8036 205.581C63.799 205.609 63.7999 205.637 63.8062 205.663C63.8124 205.69 63.8238 205.716 63.8399 205.738C63.856 205.761 63.8763 205.78 63.8997 205.794C63.9231 205.809 63.9492 205.819 63.9765 205.823C64.0037 205.828 64.0316 205.827 64.0585 205.821C64.0854 205.815 64.1108 205.803 64.1333 205.787C64.1558 205.771 64.1749 205.751 64.1895 205.727C64.2041 205.704 64.214 205.678 64.2185 205.651C65.763 199.98 66.6966 194.125 67.9529 188.362C69.2092 182.599 70.5231 176.836 71.8601 171.073C73.8195 162.706 75.848 154.357 77.9457 146.028C79.3403 142.974 82.0258 140.265 84.0428 137.706C86.2557 134.894 88.4687 132.082 90.624 129.223C94.6676 123.935 98.2865 118.336 101.447 112.477C101.539 112.384 101.343 112.304 101.274 112.419Z" fill="#263238"/>
<path d="M102.185 102.806C97.2769 109.126 93.0287 115.931 89.5064 123.115C89.5064 123.207 89.5986 123.311 89.6562 123.218C93.9553 116.476 98.1852 109.676 102.484 102.933C102.496 102.818 102.311 102.703 102.185 102.806Z" fill="#263238"/>
<path d="M6.52069 82.7632C9.4367 87.7884 12.7561 93.8048 11.5113 99.8328C10.7161 103.648 7.92683 106.748 7.4197 110.632C6.26712 119.219 14.8423 124.901 21.0431 128.958C36.4761 139.089 57.6489 148.114 60.4612 168.803C60.5649 169.54 61.8327 169.356 61.7405 168.63C61.7495 168.588 61.7495 168.545 61.7405 168.503C61.7405 168.503 61.8212 168.434 61.8212 168.376C63.8411 157.933 63.7431 147.19 61.533 136.784C59.2279 126.123 54.6176 116.545 49.0852 107.175C39.7955 91.3268 29.9525 75.087 15.9026 62.9504C12.0185 59.5965 4.05418 53.5454 0.919183 61.1294C-2.08903 68.5058 2.94771 76.643 6.52069 82.7632Z" fill="#92E3A9"/>
<path d="M20.6517 116.372C30.8865 127.448 47.1609 133.661 55.9665 146.074C50.7454 127.057 42.1357 109.941 28.8234 95.0842C28.7652 95.0065 28.7369 94.9104 28.7438 94.8135C28.7507 94.7167 28.7922 94.6256 28.8609 94.5569C28.9296 94.4882 29.0207 94.4466 29.1176 94.4397C29.2144 94.4328 29.3105 94.4611 29.3882 94.5194C38.8145 103.676 46.3526 114.594 51.5752 126.653C49.1428 118.234 45.9445 110.055 42.0204 102.219C41.9988 102.16 41.9983 102.096 42.0191 102.038C42.04 101.979 42.0807 101.93 42.1343 101.898C42.1878 101.866 42.2508 101.855 42.3122 101.865C42.3735 101.875 42.4294 101.906 42.4699 101.954C47.3358 110.521 50.8099 119.808 52.7624 129.465C64.3803 157.565 65.4407 190.552 63.0203 220.15C63.0203 220.576 62.3403 220.588 62.3518 220.15C63.0203 196.81 62.6399 173.056 57.05 150.258C56.9347 149.774 56.7964 149.313 56.6811 148.84C47.0917 135.47 30.8865 129.246 20.4673 116.568C20.352 116.43 20.5364 116.245 20.6517 116.372Z" fill="#263238"/>
<path d="M18.2775 106.852C23.6485 111.785 28.9388 116.822 34.3214 121.755C34.3214 121.755 34.3214 121.893 34.2407 121.858C28.1555 117.745 22.6741 112.803 17.9548 107.175C17.9215 107.13 17.9053 107.075 17.9093 107.02C17.9132 106.965 17.937 106.913 17.9762 106.873C18.0155 106.834 18.0675 106.81 18.1229 106.806C18.1782 106.803 18.2331 106.819 18.2775 106.852Z" fill="#263238"/>
<path d="M17.4246 85.4948C22.1999 93.2892 27.596 100.686 33.5606 107.613C33.569 107.622 33.5754 107.632 33.5796 107.644C33.5839 107.656 33.5857 107.668 33.5852 107.68C33.5847 107.692 33.5817 107.705 33.5765 107.716C33.5713 107.727 33.564 107.737 33.5549 107.745C33.5458 107.754 33.5352 107.76 33.5236 107.764C33.512 107.768 33.4997 107.77 33.4874 107.77C33.4751 107.769 33.463 107.766 33.4519 107.761C33.4407 107.756 33.4307 107.749 33.4223 107.739C26.7317 101.403 21.2177 93.9297 17.1365 85.6677C17.1249 85.6306 17.1261 85.5908 17.1399 85.5546C17.1537 85.5184 17.1793 85.4878 17.2126 85.4679C17.2458 85.448 17.2848 85.4398 17.3232 85.4447C17.3617 85.4495 17.3974 85.4672 17.4246 85.4948Z" fill="#263238"/>
<path d="M41.6172 241H88.6883L82.3376 177.678H48.8669L41.6172 241Z" fill="#455A64"/>
<path d="M47.6907 187.97H83.3744L82.3486 177.678H48.8663L47.6907 187.97Z" fill="#263238"/>
<path d="M43.0925 180.778H87.213V170.67H43.0925V180.778Z" fill="#455A64"/>
</svg>
