<svg width="63" height="60" viewBox="0 0 63 60" fill="none" xmlns="http://www.w3.org/2000/svg">
<path d="M22.8903 9.42168L23.6502 11.6605C23.6502 11.6605 10.5051 20.439 7.05858 23.9347C3.61208 27.4305 0.36687 30.7168 0.699607 32.4586C1.03234 34.2003 5.01697 59.2172 5.01697 59.2172L10.0368 58.8557C10.0368 58.8557 10.3572 34.5371 11.0432 33.9251C11.7292 33.313 31.6113 20.135 31.6113 20.135C31.6113 20.135 33.3694 19.8022 34.2115 20.287C35.0536 20.7717 39.6955 38.2013 40.9443 39.142C42.1931 40.0827 58.0412 59.324 58.0412 59.324L62.2312 58.26C62.2312 58.26 48.2645 33.046 48.2645 32.3805C48.2892 32.0108 45.274 18.4138 42.1931 9.65172C39.8804 3.07915 37.2637 0.676048 37.2637 0.676048L22.8903 9.42168Z" fill="#263238" stroke="#263238" stroke-width="1.35048" stroke-linecap="round" stroke-linejoin="round"/>
</svg>
