<svg width="53" height="40" viewBox="0 0 53 40" fill="none" xmlns="http://www.w3.org/2000/svg">
<path d="M50.277 26.1469L11.7089 39.7831C10.7553 40.119 9.70737 40.063 8.79504 39.6273C7.88271 39.1916 7.18048 38.4117 6.84238 37.4589L0.216918 18.7196C-0.119023 17.766 -0.0629954 16.7181 0.372718 15.8057C0.808431 14.8934 1.58824 14.1912 2.54107 13.8531L41.1092 0.216918C42.0628 -0.119023 43.1107 -0.0629957 44.0231 0.372717C44.9354 0.80843 45.6376 1.58824 45.9757 2.54107L52.6012 21.2804C52.9371 22.234 52.8811 23.2819 52.4454 24.1942C52.0097 25.1066 51.2299 25.8088 50.277 26.1469Z" fill="#92E3A9"/>
</svg>
