<svg width="120" height="120" viewBox="0 0 120 120" fill="none" xmlns="http://www.w3.org/2000/svg">
<path d="M95 50H25C23.6739 50 22.4021 50.5268 21.4645 51.4645C20.5268 52.4021 20 53.6739 20 55V100C20 102.652 21.0536 105.196 22.9289 107.071C24.8043 108.946 27.3478 110 30 110H90C92.6522 110 95.1957 108.946 97.0711 107.071C98.9464 105.196 100 102.652 100 100V55C100 53.6739 99.4732 52.4021 98.5355 51.4645C97.5979 50.5268 96.3261 50 95 50Z" fill="#FFC100"/>
<path d="M108.75 45L100.85 17.2C100.244 15.1228 98.9811 13.2982 97.2501 12C95.5192 10.7018 93.4138 10 91.2501 10H28.7501C26.5735 10.0062 24.4584 10.7224 22.7258 12.0399C20.9932 13.3574 19.7378 15.2042 19.1501 17.3L11.2501 45C10.4122 47.8408 9.99115 50.7882 10.0001 53.75C10.0303 55.9025 10.4878 58.0276 11.3462 60.0017C12.2045 61.9759 13.4465 63.7599 15.0001 65.25C18.0848 68.1359 22.151 69.7414 26.3751 69.7414C30.5993 69.7414 34.6655 68.1359 37.7501 65.25C40.675 68.1809 44.6112 69.8806 48.7501 70C52.9521 70.0195 56.9931 68.3851 60.0001 65.45C63.02 68.3646 67.0532 69.9934 71.2501 69.9934C75.4471 69.9934 79.4802 68.3646 82.5001 65.45C85.5131 68.376 89.5502 70.0088 93.7501 70C95.886 70.0066 98.002 69.5908 99.9765 68.7765C101.951 67.9622 103.745 66.7655 105.255 65.2552C106.766 63.7449 107.962 61.9509 108.777 59.9764C109.591 58.0019 110.007 55.8858 110 53.75C110.018 50.7876 109.597 47.839 108.75 45Z" fill="black"/>
</svg>
