<svg width="40" height="40" viewBox="0 0 40 40" fill="none" xmlns="http://www.w3.org/2000/svg">
<g clip-path="url(#clip0_72_4479)">
<path d="M0.000236511 18.1247C0.534496 17.3821 1.2691 17.1631 2.04645 17.0883C4.2476 16.8746 6.46211 16.7544 8.65257 16.4552C11.0053 16.1812 13.3741 16.0696 15.7422 16.1213C16.3406 16.1213 16.9363 16.0438 17.5854 15.9984C18.1517 14.5399 17.5266 13.2122 17.4785 11.8793C18.1437 10.6371 19.1721 10.4581 20.417 10.8107C24.2155 11.9407 28.0302 13.0493 31.8368 14.1766C33.4395 14.6547 35.0423 15.1516 36.6451 15.6832C37.4465 15.9503 38.2105 16.2949 38.9771 16.6342C39.2973 16.7654 39.5682 16.9937 39.7517 17.287C39.9352 17.5803 40.0222 17.9237 40.0002 18.269C40.0231 18.611 39.9386 18.9516 39.7585 19.2432C39.5785 19.5349 39.3118 19.763 38.9958 19.8958C34.9381 22.0329 30.8884 24.1699 26.8628 26.3497C25.3856 27.1511 23.9618 28.0459 22.5487 28.9569C22.2018 29.1961 21.7934 29.3304 21.3723 29.3437C20.9511 29.357 20.5351 29.2486 20.1739 29.0317C19.8933 28.9107 19.65 28.7173 19.4688 28.4714C19.2876 28.2254 19.1751 27.9357 19.1428 27.6319C18.9985 26.5046 18.7795 25.3853 18.5791 24.1752C17.9861 24.0737 17.4732 23.9081 16.9763 23.9081C14.0753 23.9936 11.1743 24.1378 8.27325 24.242C6.36861 24.3088 4.4613 24.4317 2.55934 24.3702C0.908478 24.3168 0.403603 23.7024 0.296749 22.1183C0.197914 20.8361 0.104416 19.5512 0.000236511 18.1247ZM3.32066 21.8646C3.52744 21.9308 3.74049 21.9755 3.95643 21.9981C4.33854 22.0022 4.72049 21.9807 5.09975 21.934C9.42222 21.4178 13.7754 21.2027 18.1277 21.2902C18.6624 21.3013 19.1948 21.3648 19.7171 21.4799C21.2184 21.8058 21.4427 22.0809 21.587 23.5982C21.6698 24.3996 21.587 25.2438 22.2228 25.9784C23.7668 25.0808 25.1959 24.218 26.6571 23.4112C28.1931 22.5618 29.7825 21.8085 31.3078 20.9349C32.753 20.1122 34.4867 19.8531 35.9479 18.5575C35.1011 18.2156 34.4252 17.9057 33.7227 17.668C30.5839 16.5994 22.0304 14.3555 20.5906 14.2086C20.5666 15.1169 20.4864 16.0224 20.5345 16.92C20.5879 17.9271 19.8132 18.5949 18.8302 18.7098C18.5255 18.719 18.2205 18.711 17.9166 18.6857C16.5436 18.6857 15.1652 18.6082 13.8002 18.7151C11.5937 18.8887 9.4032 19.2494 7.19671 19.4016C5.92631 19.5159 4.66908 19.7466 3.44087 20.0908C3.04819 20.6919 2.90394 21.2368 3.32066 21.8646Z" fill="black"/>
<path d="M3.32059 21.8645C2.90387 21.2368 3.05346 20.6918 3.45148 20.0908C4.6797 19.7466 5.93692 19.5159 7.20733 19.4016C9.41382 19.2467 11.6043 18.8887 13.8108 18.7151C15.1758 18.6082 16.5542 18.6884 17.9272 18.6857C18.2311 18.711 18.5361 18.719 18.8408 18.7097C19.8239 18.5949 20.5985 17.927 20.5451 16.92C20.497 16.0224 20.5772 15.1168 20.6012 14.2086C22.041 14.3555 30.5945 16.6128 33.7333 17.6679C34.4359 17.9057 35.1117 18.2155 35.9585 18.5575C34.4973 19.853 32.7529 20.1122 31.3185 20.9349C29.7931 21.8058 28.2037 22.5617 26.6677 23.4112C25.2065 24.2126 23.7774 25.0808 22.2334 25.9783C21.6029 25.2437 21.6804 24.3943 21.5976 23.5982C21.4427 22.0809 21.2183 21.8058 19.7277 21.4799C19.2054 21.3648 18.673 21.3013 18.1383 21.2902C13.786 21.2027 9.43284 21.4178 5.11036 21.934C4.7311 21.9807 4.34915 22.0021 3.96704 21.9981C3.74749 21.9762 3.53083 21.9315 3.32059 21.8645Z" fill="white"/>
</g>
<defs>
<clipPath id="clip0_72_4479">
<rect width="40" height="40" fill="white" transform="matrix(-1 0 0 -1 40 40)"/>
</clipPath>
</defs>
</svg>
