<svg width="454" height="58" viewBox="0 0 454 58" fill="none" xmlns="http://www.w3.org/2000/svg">
<path fill-rule="evenodd" clip-rule="evenodd" d="M442.052 2.03181H11.9474C6.44874 2.03181 1.99123 6.58017 1.99123 12.1909V45.7157C1.99123 51.3264 6.44875 55.8748 11.9474 55.8748H442.052C447.551 55.8748 452.009 51.3264 452.009 45.7157V12.1909C452.009 6.58017 447.551 2.03181 442.052 2.03181ZM11.9474 0C5.34902 0 0 5.45803 0 12.1909V45.7157C0 52.4485 5.34903 57.9066 11.9474 57.9066H442.052C448.651 57.9066 454 52.4485 454 45.7157V12.1909C454 5.45803 448.651 0 442.052 0H11.9474Z" fill="#07933C" fill-opacity="0.8"/>
<path d="M21.4493 20.5213C21.8316 20.5213 22.1423 20.6514 22.3812 20.9114C22.6202 21.1715 22.7396 21.4966 22.7396 21.8867V36.1012C22.7396 36.5239 22.5963 36.8815 22.3095 37.174C22.0387 37.4504 21.6962 37.5885 21.2821 37.5885C21.075 37.5885 20.8599 37.556 20.6369 37.491C20.4298 37.4097 20.2705 37.3041 20.159 37.174L10.7684 25.0076L11.3896 24.6175V36.2232C11.3896 36.6133 11.2622 36.9383 11.0073 37.1984C10.7684 37.4585 10.4498 37.5885 10.0515 37.5885C9.66922 37.5885 9.35858 37.4585 9.11964 37.1984C8.88069 36.9383 8.76122 36.6133 8.76122 36.2232V22.0086C8.76122 21.586 8.89662 21.2365 9.16743 20.9602C9.45416 20.6676 9.80462 20.5213 10.2188 20.5213C10.4418 20.5213 10.6728 20.5701 10.9117 20.6676C11.1507 20.7489 11.3259 20.8789 11.4374 21.0577L20.5413 32.9072L20.1351 33.1998V21.8867C20.1351 21.4966 20.2546 21.1715 20.4935 20.9114C20.7325 20.6514 21.0511 20.5213 21.4493 20.5213Z" fill="black" fill-opacity="0.5"/>
<path d="M36.5592 24.3005C36.9734 24.3005 37.3159 24.4387 37.5867 24.715C37.8575 24.9913 37.9929 25.3489 37.9929 25.7878V36.1012C37.9929 36.5239 37.8575 36.8815 37.5867 37.174C37.3159 37.4504 36.9734 37.5885 36.5592 37.5885C36.145 37.5885 35.8025 37.4504 35.5317 37.174C35.2609 36.8815 35.1255 36.5239 35.1255 36.1012V34.9065L35.6512 35.126C35.6512 35.3373 35.5397 35.5974 35.3167 35.9062C35.0936 36.1988 34.791 36.4913 34.4087 36.7839C34.0263 37.0765 33.5723 37.3285 33.0467 37.5398C32.5369 37.7348 31.9794 37.8323 31.374 37.8323C30.2749 37.8323 29.2793 37.5479 28.3872 36.979C27.4951 36.3938 26.7862 35.5974 26.2606 34.5896C25.7508 33.5655 25.4959 32.3952 25.4959 31.0786C25.4959 29.7457 25.7508 28.5754 26.2606 27.5676C26.7862 26.5436 27.4872 25.7471 28.3633 25.1782C29.2394 24.5931 30.2112 24.3005 31.2784 24.3005C31.9634 24.3005 32.5927 24.4061 33.1661 24.6175C33.7396 24.8288 34.2334 25.097 34.6476 25.4221C35.0777 25.7471 35.4043 26.0804 35.6273 26.4217C35.8662 26.7468 35.9857 27.0231 35.9857 27.2507L35.1255 27.5676V25.7878C35.1255 25.3652 35.2609 25.0157 35.5317 24.7394C35.8025 24.4468 36.145 24.3005 36.5592 24.3005ZM31.7325 35.1504C32.4334 35.1504 33.0467 34.9716 33.5723 34.614C34.098 34.2564 34.5042 33.7687 34.791 33.1511C35.0936 32.5334 35.245 31.8426 35.245 31.0786C35.245 30.2984 35.0936 29.5995 34.791 28.9818C34.5042 28.3641 34.098 27.8765 33.5723 27.5189C33.0467 27.1613 32.4334 26.9825 31.7325 26.9825C31.0475 26.9825 30.4421 27.1613 29.9164 27.5189C29.3908 27.8765 28.9766 28.3641 28.6739 28.9818C28.3872 29.5995 28.2438 30.2984 28.2438 31.0786C28.2438 31.8426 28.3872 32.5334 28.6739 33.1511C28.9766 33.7687 29.3908 34.2564 29.9164 34.614C30.4421 34.9716 31.0475 35.1504 31.7325 35.1504Z" fill="black" fill-opacity="0.5"/>
<path d="M47.8119 24.3005C49.0863 24.3005 50.0262 24.6175 50.6315 25.2514C51.2368 25.8691 51.6351 26.6736 51.8262 27.6652L51.42 27.4457L51.6112 27.0556C51.8023 26.6818 52.097 26.2835 52.4953 25.8609C52.8935 25.4221 53.3714 25.0563 53.929 24.7637C54.5024 24.4549 55.1396 24.3005 55.8405 24.3005C56.9875 24.3005 57.8557 24.5524 58.4451 25.0563C59.0504 25.5602 59.4646 26.2348 59.6876 27.08C59.9106 27.909 60.0221 28.8355 60.0221 29.8595V36.1012C60.0221 36.5239 59.8867 36.8815 59.6159 37.174C59.3451 37.4504 59.0026 37.5885 58.5884 37.5885C58.1743 37.5885 57.8318 37.4504 57.561 37.174C57.2902 36.8815 57.1548 36.5239 57.1548 36.1012V29.8595C57.1548 29.3231 57.091 28.8436 56.9636 28.421C56.8362 27.9821 56.6052 27.6327 56.2707 27.3726C55.9361 27.1125 55.4582 26.9825 54.837 26.9825C54.2316 26.9825 53.7139 27.1125 53.2838 27.3726C52.8537 27.6327 52.5271 27.9821 52.3041 28.421C52.097 28.8436 51.9935 29.3231 51.9935 29.8595V36.1012C51.9935 36.5239 51.8581 36.8815 51.5873 37.174C51.3165 37.4504 50.974 37.5885 50.5598 37.5885C50.1456 37.5885 49.8031 37.4504 49.5323 37.174C49.2615 36.8815 49.1261 36.5239 49.1261 36.1012V29.8595C49.1261 29.3231 49.0624 28.8436 48.935 28.421C48.8075 27.9821 48.5765 27.6327 48.242 27.3726C47.9075 27.1125 47.4296 26.9825 46.8083 26.9825C46.203 26.9825 45.6853 27.1125 45.2552 27.3726C44.8251 27.6327 44.4985 27.9821 44.2755 28.421C44.0684 28.8436 43.9649 29.3231 43.9649 29.8595V36.1012C43.9649 36.5239 43.8295 36.8815 43.5587 37.174C43.2879 37.4504 42.9454 37.5885 42.5312 37.5885C42.117 37.5885 41.7745 37.4504 41.5037 37.174C41.2329 36.8815 41.0975 36.5239 41.0975 36.1012V26.0316C41.0975 25.609 41.2329 25.2595 41.5037 24.9832C41.7745 24.6906 42.117 24.5443 42.5312 24.5443C42.9454 24.5443 43.2879 24.6906 43.5587 24.9832C43.8295 25.2595 43.9649 25.609 43.9649 26.0316V27.08L43.6065 27.0069C43.7498 26.7305 43.9489 26.438 44.2038 26.1291C44.4587 25.804 44.7693 25.5033 45.1357 25.227C45.5021 24.9507 45.9083 24.7312 46.3543 24.5687C46.8004 24.3899 47.2862 24.3005 47.8119 24.3005Z" fill="black" fill-opacity="0.5"/>
<path d="M69.1469 37.8323C67.7929 37.8323 66.6141 37.5479 65.6105 36.979C64.6229 36.3938 63.8582 35.6055 63.3166 34.614C62.7909 33.6224 62.5281 32.5009 62.5281 31.2493C62.5281 29.7864 62.8148 28.5429 63.3883 27.5189C63.9777 26.4786 64.7423 25.6821 65.6822 25.1295C66.622 24.5768 67.6177 24.3005 68.669 24.3005C69.4815 24.3005 70.2461 24.4712 70.9629 24.8125C71.6957 25.1539 72.3408 25.6252 72.8984 26.2267C73.4559 26.8118 73.894 27.4945 74.2126 28.2747C74.5471 29.0549 74.7144 29.8839 74.7144 30.7616C74.6985 31.1518 74.5471 31.4687 74.2604 31.7125C73.9737 31.9564 73.6391 32.0783 73.2568 32.0783H64.129L63.4122 29.6401H72.1816L71.6559 30.1277V29.4694C71.624 28.998 71.4567 28.5754 71.1541 28.2016C70.8673 27.8277 70.501 27.5351 70.0549 27.3238C69.6248 27.0963 69.1629 26.9825 68.669 26.9825C68.1911 26.9825 67.7451 27.0475 67.3309 27.1775C66.9168 27.3076 66.5583 27.527 66.2557 27.8358C65.953 28.1447 65.714 28.5592 65.5388 29.0793C65.3636 29.5995 65.276 30.2578 65.276 31.0542C65.276 31.932 65.4512 32.6797 65.8017 33.2973C66.168 33.8988 66.63 34.362 67.1876 34.6871C67.761 34.9959 68.3664 35.1504 69.0036 35.1504C69.593 35.1504 70.0629 35.1016 70.4133 35.0041C70.7638 34.9065 71.0426 34.7928 71.2497 34.6627C71.4727 34.5164 71.6718 34.3945 71.847 34.297C72.1338 34.1507 72.4046 34.0776 72.6594 34.0776C73.0099 34.0776 73.2966 34.1995 73.5197 34.4433C73.7586 34.6871 73.8781 34.9716 73.8781 35.2966C73.8781 35.7355 73.6551 36.1338 73.209 36.4913C72.7949 36.8489 72.2134 37.1659 71.4647 37.4422C70.716 37.7023 69.9434 37.8323 69.1469 37.8323Z" fill="black" fill-opacity="0.5"/>
</svg>
