<svg width="200" height="26" viewBox="0 0 200 26" fill="none" xmlns="http://www.w3.org/2000/svg">
<path d="M200 4.80027C200 2.14944 176.188 0 146.815 0C120.619 0 98.8657 1.70968 94.4599 3.95775H91.4762C40.9543 3.95775 0 8.88953 0 14.9721C0 21.0546 40.9543 25.9822 91.4762 25.9822C141.998 25.9822 182.952 21.0422 182.952 14.9803C182.952 12.8473 177.91 10.8705 169.189 9.16899C187.391 8.40457 200 6.72777 200 4.80027Z" fill="#FFC100"/>
<path opacity="0.4" d="M200 4.80027C200 2.14944 176.188 0 146.815 0C120.619 0 98.8657 1.70968 94.4599 3.95775H91.4762C40.9543 3.95775 0 8.88953 0 14.9721C0 21.0546 40.9543 25.9822 91.4762 25.9822C141.998 25.9822 182.952 21.0422 182.952 14.9803C182.952 12.8473 177.91 10.8705 169.189 9.16899C187.391 8.40457 200 6.72777 200 4.80027Z" fill="white"/>
</svg>
