<svg width="36" height="36" viewBox="0 0 36 36" fill="none" xmlns="http://www.w3.org/2000/svg">
<path d="M30.8214 2H5.67857C4.76926 2 3.89719 2.36122 3.25421 3.00421C2.61122 3.64719 2.25 4.51926 2.25 5.42857L2.25 30.5714C2.25 31.4807 2.61122 32.3528 3.25421 32.9958C3.89719 33.6388 4.76926 34 5.67857 34H15.4821V23.1207H10.9821V18H15.4821V14.0971C15.4821 9.65786 18.125 7.20571 22.1729 7.20571C24.1114 7.20571 26.1386 7.55143 26.1386 7.55143V11.9086H23.905C21.7043 11.9086 21.0179 13.2743 21.0179 14.675V18H25.9307L25.145 23.1207H21.0179V34H30.8214C31.7307 34 32.6028 33.6388 33.2458 32.9958C33.8888 32.3528 34.25 31.4807 34.25 30.5714V5.42857C34.25 4.51926 33.8888 3.64719 33.2458 3.00421C32.6028 2.36122 31.7307 2 30.8214 2Z" fill="black"/>
</svg>
