<svg width="102" height="73" viewBox="0 0 102 73" fill="none" xmlns="http://www.w3.org/2000/svg">
<path d="M87.3206 72.0741L4.40734 56.9146C3.22286 56.6951 2.17355 56.0153 1.48894 55.0241C0.804322 54.0329 0.540134 52.8109 0.754156 51.6254L9.39009 4.40734C9.60966 3.22286 10.2894 2.17355 11.2806 1.48894C12.2718 0.804322 13.4938 0.540134 14.6793 0.754156L97.5926 15.9219C98.7771 16.1415 99.8264 16.8212 100.511 17.8125C101.196 18.8037 101.46 20.0257 101.246 21.2112L92.6098 68.4292C92.3884 69.6122 91.7078 70.6595 90.7168 71.3424C89.7258 72.0253 88.5049 72.2883 87.3206 72.0741Z" fill="#263238" stroke="#263238" stroke-width="1.35048" stroke-linecap="round" stroke-linejoin="round"/>
<path d="M86.0079 13.8096C80.0932 17.0817 73.1679 19.7988 65.9278 20.2503C46.0672 21.4929 37.6301 12.5297 15.5163 15.3877C12.6557 15.7569 9.828 16.3468 7.05843 17.1521L3.35554 37.3896C9.36491 32.8697 16.2931 29.7238 23.651 28.1738C43.1761 24.0816 51.3647 31.3258 69.0052 28.8034C79.4678 27.3081 88.8244 20.6023 94.7059 15.3959L86.0079 13.8096Z" fill="#FFC100" stroke="#263238" stroke-width="1.35048" stroke-linecap="round" stroke-linejoin="round"/>
<path d="M8.05222 11.7385C8.8309 11.5397 9.62201 11.3243 10.4338 11.1752C29.9631 7.07884 38.1517 14.3231 55.788 11.8048C58.4723 11.4104 61.1037 10.7157 63.6328 9.73382L15.1722 0.870081C13.8518 0.628447 12.4895 0.92122 11.3849 1.684C10.2804 2.44677 9.52408 3.61707 9.28237 4.93746L8.05222 11.7385Z" fill="#FFC100" stroke="#263238" stroke-width="1.35048" stroke-linecap="round" stroke-linejoin="round"/>
<path d="M24.1423 16.6402L17.6887 15.4592C16.7571 15.2888 15.8637 15.9058 15.6932 16.8373L14.5727 22.961C14.4022 23.8925 15.0192 24.7859 15.9508 24.9564L22.4044 26.1374C23.336 26.3078 24.2294 25.6908 24.3998 24.7593L25.5204 18.6356C25.6909 17.7041 25.0739 16.8107 24.1423 16.6402Z" fill="white" stroke="#263238" stroke-width="1.35048" stroke-linecap="round" stroke-linejoin="round"/>
<path d="M21.0082 19.4613L19.6148 19.2063C19.158 19.1227 18.7199 19.4252 18.6363 19.882L18.4 21.1736C18.3164 21.6304 18.6189 22.0684 19.0757 22.152L20.4691 22.407C20.9259 22.4906 21.364 22.188 21.4476 21.7313L21.6839 20.4397C21.7675 19.9829 21.4649 19.5449 21.0082 19.4613Z" fill="white" stroke="#263238" stroke-width="1.35048" stroke-linecap="round" stroke-linejoin="round"/>
<path d="M15.8062 16.2118L18.7056 16.7419C18.8391 16.7658 18.9666 16.816 19.0807 16.8894C19.1947 16.9629 19.2931 17.0582 19.3701 17.1699C19.4471 17.2815 19.5013 17.4074 19.5294 17.5401C19.5575 17.6728 19.5591 17.8098 19.534 17.9431L19.3186 19.1401" stroke="#263238" stroke-width="1.35048" stroke-linecap="round" stroke-linejoin="round"/>
<path d="M25.6351 18.0094L22.7896 17.4917C22.6563 17.4672 22.5195 17.4691 22.387 17.4975C22.2545 17.5258 22.1289 17.58 22.0173 17.657C21.9058 17.7339 21.8105 17.8321 21.7369 17.9458C21.6633 18.0596 21.6129 18.1868 21.5884 18.3201L21.3689 19.5171" stroke="#263238" stroke-width="1.35048" stroke-linecap="round" stroke-linejoin="round"/>
<path d="M14.4434 23.6631L17.3221 24.1933C17.5911 24.2417 17.8683 24.1818 18.0933 24.0266C18.3183 23.8714 18.4729 23.6335 18.5232 23.3649L18.7428 22.1679" stroke="#263238" stroke-width="1.35048" stroke-linecap="round" stroke-linejoin="round"/>
<path d="M24.2679 25.4649L21.4265 24.943C21.1579 24.8927 20.92 24.7381 20.7648 24.5131C20.6097 24.2881 20.5497 24.0109 20.5981 23.7419L20.8135 22.5365" stroke="#263238" stroke-width="1.35048" stroke-linecap="round" stroke-linejoin="round"/>
<path d="M15.1103 20.13L18.4818 20.7472" stroke="#263238" stroke-width="1.35048" stroke-linecap="round" stroke-linejoin="round"/>
<path d="M21.4433 21.2898L24.8149 21.907" stroke="#263238" stroke-width="1.35048" stroke-linecap="round" stroke-linejoin="round"/>
<path d="M79.8281 65.8612C81.0474 66.0842 82.3054 65.8137 83.3253 65.1091C84.3452 64.4046 85.0434 63.3238 85.2664 62.1045C85.4894 60.8851 85.2189 59.6271 84.5144 58.6072C83.8099 57.5873 82.7291 56.8891 81.5097 56.6661L75.2678 55.5229C74.0485 55.2999 72.7905 55.5704 71.7706 56.275C70.7507 56.9795 70.0525 58.0603 69.8295 59.2797C69.6065 60.499 69.877 61.757 70.5815 62.7769C71.286 63.7968 72.3668 64.495 73.5862 64.718L79.8281 65.8612Z" fill="white"/>
</svg>
