<svg width="454" height="51" viewBox="0 0 454 51" fill="none" xmlns="http://www.w3.org/2000/svg">
<path fill-rule="evenodd" clip-rule="evenodd" d="M442.052 2.03181H11.9474C6.44874 2.03181 1.99123 6.58017 1.99123 12.1909V38.6044C1.99123 44.2151 6.44875 48.7634 11.9474 48.7634H442.052C447.551 48.7634 452.009 44.2151 452.009 38.6044V12.1909C452.009 6.58017 447.551 2.03181 442.052 2.03181ZM11.9474 0C5.34902 0 0 5.45803 0 12.1909V38.6044C0 45.3372 5.34903 50.7952 11.9474 50.7952H442.052C448.651 50.7952 454 45.3372 454 38.6044V12.1909C454 5.45803 448.651 0 442.052 0H11.9474Z" fill="#07933C" fill-opacity="0.8"/>
</svg>
