<svg width="137" height="427" viewBox="0 0 137 427" fill="none" xmlns="http://www.w3.org/2000/svg">
<path d="M14.9423 55.3457L14.4811 55.461C14.4938 55.4079 14.5219 55.3598 14.5618 55.3226L14.9423 55.3457Z" fill="#263238"/>
<path d="M28.0047 91.548H27.9932V99.6646H28.0047V91.548Z" fill="#DD6A57"/>
<path d="M28.2124 388.43H28.0049V388.28L28.2124 388.43Z" fill="#DD6A57"/>
<path d="M75.8288 398.264C73.2923 397.111 17.4901 346.659 16.5792 343.385C16.2218 342.151 23.1048 333.596 31.7173 323.485C33.5735 321.306 55.2719 286.591 55.2719 286.591L94.368 317.593L67.7813 355.975C67.7813 355.975 80.4636 384.867 81.1092 388.568C81.7549 392.269 78.3652 399.383 75.8288 398.264Z" fill="#DD6A57"/>
<path d="M76.5433 376.405C78.3225 380.348 79.8626 384.394 81.1551 388.522C81.7546 392.223 78.4111 399.383 75.8746 398.264C73.3382 397.146 17.5244 346.659 16.6251 343.396C16.3368 342.381 20.7987 336.559 27.1053 329.007C38.381 342.105 73.9377 382.873 76.5433 379.08C76.7832 378.204 76.7832 377.28 76.5433 376.405Z" fill="#263238"/>
<path d="M35.442 316.971L74.9878 349.599C74.9878 349.599 129.995 273.009 131.574 245.016C132.727 223.49 100.837 183.38 79.1384 149.045C77.04 145.713 78.3198 133.077 78.4005 130.967L35.4074 131.048C34.8886 135.89 31.522 160.252 38.7625 172.115C53.6584 196.512 77.7087 231.918 78.6311 239.585C79.5534 247.252 35.442 316.971 35.442 316.971Z" fill="#37474F"/>
<path d="M77.5349 337.608C71.2168 332.259 73.1076 333.711 66.7318 328.385C63.6074 325.802 47.962 312.774 44.653 310.837C44.5723 310.837 44.4916 310.906 44.5493 310.964C47.1088 313.812 62.9963 326.505 66.2015 329.042C72.6695 334.207 70.8709 332.651 77.3965 337.747C77.4012 337.767 77.4111 337.785 77.4252 337.8C77.4394 337.815 77.4573 337.826 77.4771 337.831C77.4969 337.837 77.5178 337.837 77.5377 337.832C77.5576 337.827 77.5758 337.817 77.5904 337.802C77.6049 337.788 77.6153 337.769 77.6204 337.749C77.6256 337.73 77.6253 337.709 77.6197 337.689C77.614 337.669 77.6032 337.651 77.5883 337.637C77.5733 337.623 77.5549 337.613 77.5349 337.608Z" fill="#263238"/>
<path d="M82.4353 232.403C80.9942 229.589 79.4492 226.822 77.8236 224.09C74.5953 218.567 71.0789 213.229 67.6201 207.845C64.0152 202.219 60.4027 196.6 56.7824 190.989C53.5311 185.939 50.2337 180.901 47.409 175.597C44.5234 170.405 42.4215 164.814 41.1716 159.006C39.9034 152.619 40.1686 146.047 40.722 139.591C40.8604 137.977 41.0102 136.374 41.1601 134.76C41.1601 134.483 40.7105 134.426 40.6759 134.703C39.7854 141.021 39.4805 147.409 39.765 153.784C40.2494 159.64 41.7393 165.37 44.1693 170.72C46.6043 176.035 49.4331 181.161 52.6318 186.054C56.0907 191.508 59.5495 196.927 63.0083 202.345C66.4671 207.764 70.0758 213.31 73.5231 218.844C75.2064 221.53 76.8551 224.24 78.4231 226.995C80.0421 229.696 81.5049 232.486 82.8043 235.354C83.4682 236.783 83.8778 238.316 84.0149 239.885C84.0711 241.506 83.7721 243.119 83.1386 244.612C81.9857 247.575 80.4407 250.377 79.0341 253.259C76.221 258.943 73.3617 264.604 70.4102 270.219C64.4841 281.483 48.5043 308.001 47.6627 309.361C47.605 309.465 47.7549 309.546 47.8241 309.454C54.6149 298.604 62.8699 285.968 68.9805 274.715C72.055 269.097 75.0258 263.432 77.8927 257.721C79.3378 254.877 80.752 252.01 82.1356 249.12C83.4038 246.492 84.868 243.782 84.9487 240.796C85.0294 237.81 83.7612 235.02 82.4353 232.403Z" fill="#263238"/>
<path d="M76.9017 130.944C74.1346 145.148 66.1332 186.008 61.7521 208.606C54.2349 196.592 45.5417 183.241 38.7625 172.092C31.522 160.229 34.8886 135.867 35.4074 131.025L76.9017 130.944Z" fill="#263238"/>
<path d="M85.2711 426.707C82.6309 427.549 7.37854 426.488 4.56537 424.632C3.48161 423.929 2.99736 412.964 2.78983 399.694C2.78983 396.835 3.42397 353.15 3.42397 353.15L53.7613 353.715L51.3055 400.236C51.3055 400.236 79.9445 413.529 82.8384 415.904C85.7323 418.279 87.9113 425.866 85.2711 426.707Z" fill="#DD6A57"/>
<path d="M71.3674 409.817C75.2965 411.619 79.1155 413.651 82.8046 415.904C85.6984 418.279 87.9121 425.866 85.2718 426.696C82.6316 427.526 7.37924 426.488 4.56607 424.632C3.67831 424.067 3.19407 416.746 2.94042 406.911C20.05 409.298 73.6732 416.423 73.1198 411.858C73.0507 411.431 72.3935 410.705 71.3674 409.817Z" fill="#263238"/>
<path d="M78.3999 131.048C78.3999 131.048 69.8796 172.554 69.43 173.879C65.2733 175.627 61.2301 177.633 57.3241 179.886L54.2804 390.874L0 391.231C0 391.231 6.73315 279.396 6.53715 272.202C6.23738 260.673 11.2296 182.688 10.5378 180.728C3.44727 160.713 14.5731 131.151 14.5731 131.151L78.3999 131.048Z" fill="#37474F"/>
<path d="M52.2397 380.809C36.9287 380.152 7.27507 380.428 3.52802 381.074C3.44731 381.074 3.44731 381.235 3.52802 381.247C7.32119 381.858 43.3044 381.927 52.2397 381.051C52.2655 381.043 52.288 381.027 52.3041 381.005C52.3201 380.983 52.3287 380.957 52.3287 380.93C52.3287 380.903 52.3201 380.877 52.3041 380.855C52.288 380.833 52.2655 380.817 52.2397 380.809Z" fill="#263238"/>
<path d="M12.2787 327.105C13.1434 311.241 14.0773 295.376 14.9882 279.512C15.899 263.647 16.7983 247.771 17.7091 231.907C18.1587 223.975 18.5853 216.042 19.0696 208.11L19.7959 196.212C20.1893 192.297 20.3586 188.363 20.3032 184.429C20.0841 180.14 18.2048 176.358 17.1326 172.265C16.1684 168.37 15.6997 164.368 15.7376 160.355C15.7376 152.077 17.4093 143.891 18.9889 135.809C19.0811 135.36 19.7729 135.556 19.6806 136.005C17.8439 143.417 16.7281 150.988 16.3486 158.614C16.2301 162.418 16.5591 166.222 17.3286 169.948C18.1011 173.522 19.6345 176.866 20.5568 180.324C21.4792 183.783 21.0757 187.749 20.8451 191.462C20.603 195.428 20.407 199.394 20.1994 203.36C19.7728 211.131 19.3117 218.902 18.8736 226.684C17.0634 258.251 15.311 289.83 13.3856 321.398C12.2787 339.165 11.4371 356.92 9.97286 374.71C9.97286 374.837 9.75381 374.837 9.76534 374.71C10.3649 358.834 11.4025 342.969 12.2787 327.105Z" fill="#263238"/>
<path d="M20.4419 155.905C21.3527 155.536 22.3673 155.421 23.3012 155.133C24.292 154.839 25.2625 154.481 26.2066 154.06C27.9997 153.247 29.675 152.196 31.1873 150.936C32.635 149.626 33.7293 147.973 34.3694 146.128C34.7614 145.148 35.1303 144.157 35.5223 143.165C35.7068 142.681 35.9028 142.185 36.0988 141.701C36.168 141.505 36.6753 140.467 36.756 140.144C36.7388 140.161 36.7161 140.17 36.6925 140.17C36.669 140.17 36.6463 140.161 36.6291 140.144H36.5715C36.5575 140.126 36.5499 140.104 36.5499 140.081C36.5499 140.058 36.5575 140.036 36.5715 140.018C36.6292 139.902 36.6407 139.891 36.7675 139.856C36.7937 139.85 36.8212 139.852 36.8461 139.862C36.871 139.873 36.8919 139.891 36.9058 139.914C37.1018 140.237 36.9058 140.548 36.8367 140.894C36.6868 141.551 36.5369 142.197 36.3755 142.842C36.0873 143.995 35.8221 145.148 35.4993 146.232C34.9845 148.338 33.8807 150.253 32.3172 151.754C30.6831 153.191 28.7996 154.317 26.76 155.075C25.7165 155.481 24.6403 155.797 23.5433 156.02C22.5352 156.28 21.4889 156.358 20.4534 156.251C20.2574 156.182 20.3496 155.963 20.4419 155.905Z" fill="#263238"/>
<path d="M64.2879 167.285C64.3801 165.382 64.4954 163.491 64.6338 161.589C64.9335 157.254 65.314 152.907 65.9942 148.63C66.0519 148.284 66.5246 148.411 66.5015 148.722C66.2709 152.089 65.9366 155.455 65.683 158.81C65.4293 162.166 65.0834 165.521 65.0834 168.864C65.0834 169.867 65.1756 171.574 66.4208 171.839C68.0811 172.185 68.8305 169.982 69.2109 168.783C70.1142 165.769 70.7583 162.684 71.1363 159.56C71.6206 156.02 71.8512 152.446 72.1279 148.895C72.1279 148.768 72.3469 148.78 72.3584 148.895C72.4968 155.94 72.5199 163.307 70.0526 170.006C69.875 170.694 69.5143 171.321 69.0088 171.82C68.5033 172.319 67.8719 172.673 67.1818 172.842H67.1126C67.1126 172.842 67.1126 172.922 67.1126 172.957C67.1126 172.992 67.0319 173.361 67.0088 173.557C66.9858 173.753 66.9512 173.879 66.9166 174.052C66.882 174.225 66.8128 174.733 66.7321 175.078C66.7195 175.138 66.6869 175.191 66.6396 175.229C66.5924 175.268 66.5335 175.289 66.4727 175.289C66.4119 175.289 66.353 175.268 66.3058 175.229C66.2585 175.191 66.2259 175.138 66.2133 175.078C66.1706 175.063 66.1336 175.034 66.1069 174.997C66.0802 174.96 66.0651 174.916 66.0634 174.871C66.0845 174.182 66.229 173.503 66.49 172.865C66.0816 172.79 65.6986 172.613 65.3763 172.351C65.054 172.089 64.8026 171.75 64.6453 171.366C64.2058 170.053 64.0832 168.654 64.2879 167.285Z" fill="#263238"/>
<path d="M69.4765 173.476C64.1187 175.82 58.9762 178.629 54.1078 181.869C53.9118 181.996 54.1078 182.296 54.2692 182.181C59.4575 179.552 64.761 177.015 69.7993 174.11C69.8834 174.067 69.9471 173.993 69.9762 173.903C70.0054 173.813 69.9978 173.716 69.955 173.631C69.9122 173.547 69.8377 173.484 69.748 173.455C69.6582 173.425 69.5606 173.433 69.4765 173.476Z" fill="#263238"/>
<path d="M55.7904 284.17C55.7904 283.662 55.9519 283.466 55.9749 284.089C56.1017 287.548 56.0556 292.609 56.0902 296.114C56.0902 300.242 56.0902 304.358 56.0902 308.473C56.0902 312.589 55.9403 316.717 55.7789 320.845L55.5253 327.013C55.4446 328.442 55.5253 331.256 55.3869 332.674C55.3869 333.308 55.1909 333.423 55.1333 332.789C55.0295 330.725 55.0295 329.077 54.9603 327.024L54.8911 320.833C54.8911 316.717 54.8911 312.589 54.8911 308.473C54.8911 304.358 55.0411 300.23 55.2025 296.114C55.3639 291.998 55.4907 288.286 55.7904 284.17Z" fill="#263238"/>
<path d="M82.8732 72.5014C82.8951 72.6503 82.8613 72.802 82.7784 72.9275C82.6954 73.053 82.569 73.1435 82.4235 73.1817L79.9908 73.4123C77.5581 67.3709 74.9986 62.5862 75.6903 64.4654C76.751 67.4125 77.3914 70.4942 77.5927 73.6198L72.7849 73.9887C70.4791 63.301 67.6889 55.4149 67.9426 57.8476C68.9572 67.7283 68.5421 70.9219 68.0463 74.3346C56.4362 75.1878 41.2059 76.1101 30.1838 76.5367C28.6619 70.6452 27.2899 64.2464 27.1055 64.7076C25.745 68.0857 25.5375 72.9511 25.6528 76.6981C22.1363 76.8019 19.3347 76.825 17.5822 76.6981C17.5822 76.6981 16.5561 71.729 16.3716 70.0918C15.8812 65.9121 16.1231 61.679 17.0864 57.5824C18.2309 53.538 19.7758 49.6179 21.6982 45.8801V45.7994C22.8702 43.3067 23.7522 40.6878 24.3269 37.994C24.3293 37.9748 24.3293 37.9555 24.3269 37.9363C24.7173 35.9718 24.941 33.9778 24.9956 31.9756C25.2031 24.6429 28.8003 18.2326 35.153 16.1458C46.7861 3.62485 59.1687 8.49025 63.2271 17.7829C63.6191 18.6938 64.0111 19.7314 64.38 20.8728C65.7981 25.0695 67.1355 30.5344 68.3346 34.7081C68.7857 36.3602 69.3324 37.9847 69.9718 39.5735C73.5228 47.3212 80.7172 51.4949 82.8732 72.5014Z" fill="#263238"/>
<path d="M32.5469 18.2556C30.5021 19.3731 28.7816 21.0012 27.5531 22.9813C26.3247 24.9615 25.6301 27.226 25.5371 29.5544C25.4735 32.6405 25.0321 35.7071 24.2227 38.6857C23.1141 41.5825 21.5876 44.3015 19.6917 46.7563C16.7356 50.5708 14.9961 55.1868 14.6995 60.0036C14.4573 65.3417 14.9531 71.6252 16.8324 76.5483C15.3059 70.918 14.8754 65.0469 15.5642 59.2542C16.2444 53.4895 19.1613 49.7193 22.1129 45.2459C24.5023 41.6903 25.9248 37.5738 26.2404 33.3015C26.4479 30.6613 26.298 27.9057 27.1973 25.4039C28.258 22.4062 30.5409 20.4577 32.8237 18.7283C33.1696 18.5439 32.8582 18.0596 32.5469 18.2556Z" fill="#263238"/>
<path d="M77.5584 47.7824C74.4109 43.701 71.1596 40.2306 69.1996 35.1001C67.4241 30.4883 66.3058 25.5191 64.4957 20.8728C64.4957 20.7921 64.3688 20.8728 64.3919 20.8728C67.2281 29.1278 68.0582 37.5212 73.3733 44.3927C76.2556 48.1283 79.138 51.5871 81.121 56.1066C83.1542 60.8578 84.3254 65.9331 84.5798 71.0948C84.5739 71.1138 84.5725 71.1339 84.5758 71.1535C84.5791 71.1732 84.5869 71.1917 84.5987 71.2078C84.6105 71.2238 84.6259 71.2368 84.6437 71.2458C84.6614 71.2548 84.681 71.2594 84.7009 71.2594C84.7208 71.2594 84.7404 71.2548 84.7582 71.2458C84.7759 71.2368 84.7913 71.2238 84.8031 71.2078C84.8149 71.1917 84.8227 71.1732 84.826 71.1535C84.8293 71.1339 84.8279 71.1138 84.822 71.0948C85.2126 62.7123 82.6413 54.4595 77.5584 47.7824Z" fill="#263238"/>
<path d="M105.587 25.1387L98.127 59.3118C97.7927 60.3264 98.3115 61.1104 99.28 61.0873L116.77 60.5339C117.304 60.4748 117.81 60.2659 118.231 59.9314C118.651 59.5968 118.968 59.1502 119.145 58.6431L126.616 24.4815C126.939 23.4669 126.42 22.6829 125.463 22.706L107.973 23.2594C107.439 23.3154 106.931 23.5217 106.508 23.8542C106.086 24.1868 105.766 24.6321 105.587 25.1387Z" fill="#37474F"/>
<path d="M107.662 25.058L100.202 59.2311C99.8677 60.2341 100.387 61.0297 101.355 60.9951L118.857 60.4417C119.388 60.3828 119.891 60.1752 120.309 59.8427C120.727 59.5102 121.043 59.0664 121.22 58.5624L128.726 24.3893C129.049 23.3862 128.53 22.5907 127.573 22.6253L110.083 23.1787C109.542 23.2285 109.027 23.4318 108.598 23.7648C108.169 24.0978 107.844 24.5465 107.662 25.058Z" fill="#455A64"/>
<path d="M112.504 26.453C112.507 26.6484 112.472 26.8424 112.4 27.024C112.328 27.2056 112.221 27.3713 112.085 27.5115C111.949 27.6518 111.787 27.7639 111.607 27.8414C111.428 27.9189 111.235 27.9604 111.04 27.9634C110.645 27.9634 110.267 27.8067 109.988 27.5278C109.709 27.2489 109.552 26.8706 109.552 26.4761C109.552 26.0816 109.709 25.7033 109.988 25.4244C110.267 25.1455 110.645 24.9888 111.04 24.9888C111.427 24.9918 111.798 25.1471 112.072 25.421C112.346 25.6949 112.501 26.0656 112.504 26.453Z" fill="#263238"/>
<path d="M50.8336 78.2661C61.21 99.1228 84.0728 125.998 93.2733 125.917C97.6544 125.917 105.483 126.736 111.121 121.582C123.4 110.318 133.396 89.0922 135.252 77.0325C135.909 72.732 114.914 63.9582 111.928 67.5092C104.918 75.8219 96.9396 91.9976 95.6599 91.9285C90.9443 91.744 72.2321 76.7558 59.0771 66.2756C43.1781 53.5241 46.6945 69.9534 50.8336 78.2661Z" fill="#DD6A57"/>
<path d="M135.263 54.9306C132.865 46.3066 130.928 44.4619 132.761 36.1031C133.972 30.6267 130.986 27.5022 127.227 31.9641C121.07 39.2622 121.831 51.0452 123.261 55.0228L135.263 54.9306Z" fill="#DD6A57"/>
<path d="M134.317 80.768C134.317 80.768 137.914 68.5929 136.266 59.1504C135.113 52.6247 131.066 38.6857 112.55 31.7104C108.157 30.0502 100.732 30.8111 106.923 36.1147C111.316 39.8848 115.247 40.9455 117.403 43.6088C117.403 43.6088 108.065 45.6956 106.577 50.1575C105.28 54.0623 104.259 58.0536 103.522 62.1019C104.235 62.4055 104.967 62.6635 105.713 62.8744C105.713 62.8744 104.721 67.1748 107.961 73.0548L134.317 80.768Z" fill="#DD6A57"/>
<path d="M134.191 53.0859C131.493 50.9069 125.682 46.3643 119.652 44.3005C112.942 41.9947 99.4064 39.4121 97.7462 44.3812C96.5933 48.0245 101.632 49.4657 101.632 49.4657C101.632 49.4657 95.8669 49.5695 95.4403 53.0975C95.106 56.3142 99.1067 57.2019 99.1067 57.2019C99.1067 57.2019 95.5787 57.8706 95.8554 61.0297C96.1897 64.8229 103.511 62.8052 107.166 66.3563C107.973 67.1633 134.191 53.0859 134.191 53.0859Z" fill="#DD6A57"/>
<path d="M118.406 51.7946C113.233 49.3118 107.425 48.4671 101.758 49.3735C101.62 49.3735 101.562 49.5233 101.7 49.5233C107.338 49.618 112.943 50.3922 118.395 51.8292C118.395 51.8292 118.441 51.8177 118.406 51.7946Z" fill="#263238"/>
<path d="M115.905 58.4932C113.276 57.3403 105.46 55.5647 99.1299 57.0751C98.9916 57.0751 98.9454 57.2365 99.1299 57.225C104.762 57.0325 110.398 57.4811 115.928 58.5624C115.928 58.5624 115.94 58.5047 115.905 58.4932Z" fill="#263238"/>
<path d="M60.3798 97.1858L77.6739 79.0732C77.6739 79.0732 64.761 67.2786 55.2838 62.6784C45.8066 58.0781 44.2502 64.2348 48.1817 73.7235C52.1132 83.2122 60.3798 97.1858 60.3798 97.1858Z" fill="#92E3A9"/>
<path opacity="0.1" d="M60.3798 97.1858L77.6739 79.0732C77.6739 79.0732 64.761 67.2786 55.2838 62.6784C45.8066 58.0781 44.2502 64.2348 48.1817 73.7235C52.1132 83.2122 60.3798 97.1858 60.3798 97.1858Z" fill="black"/>
<path d="M76.3593 115.241L84.4875 153.369C84.4875 153.369 21.8137 158.418 6.16834 158.349C6.16834 158.349 14.1351 85.5412 29.6883 66.264C37.4706 56.6139 47.3513 56.6485 54.0268 62.5977C55.7216 64.108 76.2901 87.8701 78.9073 97.2896C81.2016 105.579 76.3593 115.241 76.3593 115.241Z" fill="#EBEBEB"/>
<path d="M47.1094 58.8967H40.457C42.6427 58.3661 44.9237 58.3661 47.1094 58.8967Z" fill="#92E3A9"/>
<path d="M53.9576 62.54H33.343C33.6313 62.2979 33.9311 62.0673 34.2308 61.8598H53.139C53.4157 62.0788 53.6924 62.2979 53.9576 62.54Z" fill="#92E3A9"/>
<path d="M57.2433 66.1833H29.7572L30.3222 65.5031H56.6784L57.2433 66.1833Z" fill="#92E3A9"/>
<path d="M60.357 69.8381H27.2676C27.3944 69.6075 27.5328 69.377 27.6826 69.1579H59.8036L60.357 69.8381Z" fill="#92E3A9"/>
<path d="M63.3423 73.4699H25.2953C25.399 73.2393 25.5143 73.0087 25.6296 72.7897H62.8004L63.3423 73.4699Z" fill="#92E3A9"/>
<path d="M66.2242 77.1132H23.5654C23.6692 76.8826 23.7614 76.652 23.8537 76.433H65.6362L66.2242 77.1132Z" fill="#92E3A9"/>
<path d="M69.0036 80.7565H22.1827L22.4364 80.0647H68.4848L69.0036 80.7565Z" fill="#92E3A9"/>
<path d="M71.6438 84.3998H20.9145C20.9952 84.1577 21.0643 83.9386 21.1451 83.708H71.1826L71.6438 84.3998Z" fill="#92E3A9"/>
<path d="M74.1222 88.043H19.6804L19.911 87.3513H73.661L74.1222 88.043Z" fill="#92E3A9"/>
<path d="M76.3476 91.744H18.5969C18.5969 91.5019 18.7237 91.2828 18.7929 91.0522H75.9441C76.094 91.2252 76.2208 91.4557 76.3476 91.744Z" fill="#92E3A9"/>
<path d="M78.2042 95.3296H17.5712C17.6288 95.099 17.698 94.8684 17.7556 94.6378H77.8929C78.0082 94.8684 78.112 95.099 78.2042 95.3296Z" fill="#92E3A9"/>
<path d="M79.276 98.9614H16.6138L16.7868 98.2812H79.1492C79.1492 98.5118 79.2415 98.7308 79.276 98.9614Z" fill="#92E3A9"/>
<path d="M79.5298 101.924C79.5298 102.155 79.5298 102.386 79.5298 102.605H15.7377C15.7377 102.374 15.853 102.143 15.8991 101.924H79.5298Z" fill="#92E3A9"/>
<path d="M79.2879 105.579C79.2879 105.81 79.2188 106.04 79.1726 106.259H14.8732C14.8732 106.04 14.9655 105.81 15.0231 105.579H79.2879Z" fill="#92E3A9"/>
<path d="M78.5387 109.211C78.481 109.442 78.4234 109.672 78.3542 109.891H14.0548C14.0548 109.661 14.1585 109.442 14.2047 109.211H78.5387Z" fill="#92E3A9"/>
<path d="M77.3743 112.854L77.1092 113.535H13.294C13.294 113.304 13.3747 113.085 13.4323 112.854H77.3743Z" fill="#92E3A9"/>
<path d="M76.7744 117.178H12.5557C12.5557 116.947 12.6364 116.728 12.6941 116.498H76.6246L76.7744 117.178Z" fill="#92E3A9"/>
<path d="M77.5467 120.821H11.8292C11.8292 120.591 11.9099 120.371 11.956 120.141H77.3853L77.5467 120.821Z" fill="#92E3A9"/>
<path d="M78.331 124.464H11.1838C11.1838 124.234 11.2645 124.003 11.2991 123.773H78.1696L78.331 124.464Z" fill="#92E3A9"/>
<path d="M79.1488 128.108H10.5374C10.5374 127.877 10.6181 127.647 10.6527 127.416H78.9528L79.1488 128.108Z" fill="#92E3A9"/>
<path d="M79.8759 131.751H9.97319C9.97319 131.52 10.0424 131.29 10.0885 131.059H79.726L79.8759 131.751Z" fill="#92E3A9"/>
<path d="M80.6594 135.394H9.33856L9.44232 134.702H80.5095L80.6594 135.394Z" fill="#92E3A9"/>
<path d="M81.4555 139.014H8.82029C8.82029 138.784 8.901 138.553 8.93559 138.323H81.3402L81.4555 139.014Z" fill="#92E3A9"/>
<path d="M82.205 142.669H8.22086L8.32462 141.989H82.1127L82.205 142.669Z" fill="#92E3A9"/>
<path d="M82.9889 146.313H7.66739L7.77115 145.632H82.8391L82.9889 146.313Z" fill="#92E3A9"/>
<path d="M83.761 149.956H7.20584C7.20584 149.737 7.27501 149.506 7.29806 149.276H83.6111L83.761 149.956Z" fill="#92E3A9"/>
<path d="M84.488 153.369L81.6287 153.599H6.74527C6.74527 153.38 6.74525 153.161 6.82595 152.919H84.3957L84.488 153.369Z" fill="#92E3A9"/>
<path d="M41.4371 156.562C37.886 156.804 34.358 157.035 30.9568 157.242H6.29546C6.29546 157.046 6.29547 156.816 6.37617 156.562H41.4371Z" fill="#92E3A9"/>
<path d="M78.5613 108.738C79.0665 106.469 79.2298 104.138 79.0456 101.821C78.4569 97.1538 76.8553 92.6719 74.3531 88.6887C73.0042 86.3828 71.39 84.2614 70.0526 81.9671C70.0481 81.961 70.0448 81.9541 70.0429 81.9468C70.0411 81.9394 70.0406 81.9318 70.0417 81.9243C70.0428 81.9168 70.0453 81.9096 70.0492 81.9031C70.053 81.8966 70.0581 81.8909 70.0642 81.8863C70.0702 81.8818 70.0771 81.8785 70.0845 81.8766C70.0918 81.8747 70.0994 81.8743 70.1069 81.8754C70.1144 81.8765 70.1216 81.879 70.1281 81.8829C70.1347 81.8867 70.1404 81.8918 70.1449 81.8979C71.3918 83.3946 72.5469 84.9654 73.6037 86.6019C73.5839 86.5448 73.5567 86.4906 73.523 86.4405C73.1541 85.5412 72.7736 84.6534 72.3701 83.7772C72.3701 83.6849 72.4854 83.6042 72.5315 83.6965C72.9927 84.5496 73.4308 85.4028 73.8458 86.2675C74.0995 86.8325 74.3185 87.4205 74.5145 87.9739C75.8402 89.9726 76.9972 92.0782 77.9734 94.2689C80.0137 98.5788 80.5847 103.439 79.599 108.104C78.9313 110.626 77.869 113.027 76.4515 115.218C76.4383 115.234 76.4198 115.246 76.3992 115.25C76.3785 115.255 76.357 115.252 76.3381 115.243C76.3192 115.233 76.3041 115.218 76.2953 115.198C76.2866 115.179 76.2847 115.158 76.29 115.137C77.2706 113.071 78.043 110.912 78.5959 108.692" fill="#263238"/>
<path d="M39.4306 63.3471C39.9033 64.5001 46.9593 71.556 52.505 70.4262C54.3036 70.0572 52.724 60.1189 52.724 60.1189V59.358L53.4389 48.7163L40.1455 42.8363L38.2431 42.0754C38.2431 42.0754 38.2431 45.0039 38.2431 48.6471V49.8001C38.2431 50.342 38.2431 50.953 38.2431 51.4603C38.2431 51.9676 38.2431 52.2904 38.2431 52.7286C38.2431 53.1667 38.2431 53.6048 38.2431 54.0429C38.4225 57.1681 38.8193 60.277 39.4306 63.3471Z" fill="#DD6A57"/>
<path d="M38.3236 48.6471C39.8114 51.3728 41.8739 53.7425 44.3684 55.5919C46.8629 57.4414 49.7296 58.7264 52.77 59.358L53.4848 48.7163L40.1914 42.8363L38.2891 42.0754C38.2891 42.0754 38.2891 45.0039 38.3236 48.6471Z" fill="#263238"/>
<path d="M66.594 32.7366C68.5425 51.3565 57.6126 54.6424 53.6004 55.0344C49.9571 55.4149 37.4593 56.1873 33.6315 37.9248C29.8037 19.6622 37.8051 12.8138 46.1063 11.511C54.4075 10.2081 64.6456 14.1166 66.594 32.7366Z" fill="#DD6A57"/>
<path d="M62.4552 28.7243C62.0267 28.7049 61.5995 28.6626 61.1755 28.5975C60.7133 28.6152 60.2585 28.4772 59.8842 28.2055C59.7842 28.0984 59.7221 27.9614 59.7075 27.8156C59.6929 27.6698 59.7266 27.5232 59.8035 27.3984C59.9926 27.1726 60.2392 27.002 60.5172 26.9046C60.7952 26.8072 61.0943 26.7866 61.383 26.845C61.9839 26.8716 62.5541 27.1177 62.9856 27.5368C63.0816 27.6378 63.1454 27.765 63.169 27.9023C63.1926 28.0397 63.1748 28.1809 63.118 28.3081C63.0612 28.4353 62.9679 28.5428 62.8499 28.6169C62.7319 28.691 62.5945 28.7284 62.4552 28.7243Z" fill="#263238"/>
<path d="M50.1994 30.1424C50.618 30.0362 51.0299 29.9053 51.433 29.7505C51.878 29.6682 52.2833 29.4412 52.586 29.1048C52.6647 28.9806 52.6996 28.8337 52.685 28.6873C52.6703 28.541 52.6071 28.4038 52.5053 28.2977C52.2717 28.1195 51.9956 28.0055 51.7043 27.9671C51.4131 27.9287 51.1168 27.9671 50.845 28.0787C50.2604 28.2305 49.7517 28.5915 49.4154 29.0933C49.3408 29.2134 49.3041 29.3533 49.3102 29.4946C49.3163 29.6359 49.3648 29.772 49.4494 29.8853C49.5341 29.9986 49.651 30.0838 49.7848 30.1296C49.9185 30.1755 50.063 30.18 50.1994 30.1424Z" fill="#263238"/>
<path d="M53.4848 34.5813C53.4848 34.5813 53.3926 34.6504 53.4041 34.7081C53.6001 35.9648 53.6232 37.4406 52.5394 38.0055C52.5394 38.0055 52.5394 38.0862 52.5394 38.0747C53.9229 37.7057 53.8768 35.7457 53.4848 34.5813Z" fill="#263238"/>
<path d="M52.1824 33.4052C50.1301 33.5205 50.4991 37.6135 52.4014 37.5097C54.3038 37.4059 53.9118 33.313 52.1824 33.4052Z" fill="#263238"/>
<path d="M51.3982 33.6935C51.0639 33.9587 50.7526 34.3968 50.326 34.489C49.8994 34.5812 49.4152 34.1777 49.0463 33.7972C49.0463 33.7972 48.9771 33.7972 48.9771 33.8549C49.0347 34.6389 49.4152 35.4229 50.2684 35.4575C51.1216 35.4921 51.5366 34.7542 51.6634 33.9471C51.6865 33.7972 51.5366 33.5897 51.3982 33.6935Z" fill="#263238"/>
<path d="M60.4946 33.6243C60.4946 33.6243 60.5983 33.6243 60.5983 33.7281C60.6675 35.0078 60.9557 36.449 62.1317 36.7834V36.8525C60.7021 36.7718 60.3447 34.8464 60.4946 33.6243Z" fill="#263238"/>
<path d="M61.521 32.2062C63.5502 31.8834 64.046 35.9763 62.1667 36.2645C60.2874 36.5528 59.8147 32.4829 61.521 32.2062Z" fill="#263238"/>
<path d="M62.4089 32.3792C62.7548 32.5521 63.1237 32.9095 63.5042 32.8865C63.8847 32.8634 64.2421 32.3792 64.4727 31.918C64.4727 31.918 64.5303 31.918 64.5418 31.918C64.6571 32.702 64.5419 33.5436 63.7694 33.7858C62.9969 34.0279 62.5127 33.3938 62.236 32.6328C62.1783 32.5406 62.259 32.2985 62.4089 32.3792Z" fill="#263238"/>
<path d="M54.5109 44.7271C54.8338 45.0038 55.1566 45.4074 55.6639 45.4189C56.1365 45.3958 56.5978 45.2657 57.0128 45.0384C57.0128 45.0384 57.0935 45.0384 57.0705 45.1076C56.9007 45.3655 56.6641 45.5724 56.3859 45.7064C56.1077 45.8404 55.7984 45.8965 55.4909 45.8685C55.2287 45.8115 54.9891 45.6782 54.8024 45.4854C54.6157 45.2925 54.4902 45.0488 54.4418 44.7848C54.3726 44.7156 54.4648 44.681 54.5109 44.7271Z" fill="#263238"/>
<path d="M59.3537 39.5965C59.3537 39.5965 59.8034 41.4643 59.8956 42.3636C59.8956 42.4443 59.6881 42.5019 59.3883 42.5596C58.6363 42.7771 57.839 42.7847 57.083 42.5815C56.327 42.3783 55.641 41.9719 55.0994 41.4066C55.0302 41.3259 55.0994 41.2222 55.2262 41.2683C56.4453 41.927 57.8434 42.1775 59.2154 41.9831C59.2154 41.7295 58.3276 38.8125 58.466 38.7895C59.1662 38.7774 59.8646 38.8628 60.5413 39.0431C59.7111 35.1231 58.2354 31.3761 57.486 27.5137C57.4842 27.4861 57.4915 27.4586 57.5068 27.4355C57.5221 27.4125 57.5445 27.395 57.5707 27.3859C57.5968 27.3767 57.6252 27.3764 57.6516 27.3849C57.6779 27.3934 57.7007 27.4103 57.7166 27.433C59.3957 31.4091 60.6779 35.5413 61.5443 39.7695C61.6251 40.1961 59.7227 39.7118 59.3537 39.5965Z" fill="#263238"/>
<path d="M59.169 42.3406C58.7391 43.0908 58.1238 43.718 57.382 44.1622C56.9677 44.392 56.4926 44.4886 56.0215 44.4389C54.9954 44.3121 54.8685 43.4128 54.9262 42.6057C54.9687 42.1812 55.0616 41.7632 55.2029 41.3606C56.3863 42.1026 57.7763 42.446 59.169 42.3406Z" fill="#263238"/>
<path d="M57.382 44.1622C56.9677 44.392 56.4926 44.4886 56.0215 44.4389C54.9954 44.3121 54.8685 43.4128 54.9262 42.6057C55.4504 42.5544 55.9768 42.6797 56.4217 42.9617C56.8666 43.2437 57.2046 43.6662 57.382 44.1622Z" fill="#FF9ABB"/>
<path d="M35.0494 37.1292C38.5082 37.6942 39.6611 29.8888 39.6611 29.8888C39.6611 29.8888 54.3496 28.0095 56.0559 16.1918C57.7044 21.0965 61.1761 25.1792 65.7521 27.5944C65.7521 27.5944 65.7521 14.5547 55.5486 11.6147C55.5486 11.6147 42.9355 6.42645 35.3261 16.3071C27.7167 26.1878 32.7666 36.7488 35.0494 37.1292Z" fill="#263238"/>
<path d="M56.0907 15.3156C56.1856 17.1561 55.8869 18.9956 55.2145 20.7114C54.5663 22.457 53.5655 24.0504 52.2745 25.3923C51.9492 25.7252 51.6067 26.0408 51.2483 26.3377L50.7295 26.7989L50.1531 27.1909C49.7611 27.4446 49.3806 27.7097 49.0001 27.9403C48.6197 28.1709 48.17 28.3554 47.7549 28.5514C47.5474 28.6436 47.3399 28.7589 47.1324 28.8396L46.4752 29.0702L45.1724 29.5083C44.2846 29.7158 43.3853 29.8773 42.486 30.0271C43.3392 29.6928 44.2154 29.4622 45.0456 29.1278L46.2792 28.586L46.8902 28.3208L47.4667 27.9864C47.8587 27.7558 48.2392 27.5368 48.6196 27.3293C49.0001 27.1217 49.3345 26.8104 49.6919 26.5568L50.2338 26.1648L50.718 25.7267C51.0562 25.444 51.3759 25.1397 51.675 24.8158C53.5245 22.8702 54.8564 20.4918 55.5488 17.8982C55.8023 17.0543 55.9836 16.1903 56.0907 15.3156Z" fill="#263238"/>
<path d="M37.1589 38.7088C37.1589 38.7088 32.9737 32.9441 30.345 34.4429C27.7163 35.9417 30.9445 44.3582 34.0805 45.465C34.4725 45.633 34.8942 45.7202 35.3206 45.7214C35.747 45.7226 36.1693 45.6378 36.5622 45.4721C36.9551 45.3063 37.3105 45.063 37.6071 44.7567C37.9038 44.4504 38.1356 44.0874 38.2888 43.6895L37.1589 38.7088Z" fill="#DD6A57"/>
<path d="M31.3257 36.8756V36.9563C33.5278 37.8095 34.7154 39.8041 35.557 41.8909C35.4254 41.6747 35.2486 41.4897 35.0386 41.3484C34.8287 41.2071 34.5907 41.1129 34.3409 41.0724C34.0911 41.0319 33.8355 41.0459 33.5917 41.1136C33.3478 41.1812 33.1215 41.3009 32.9283 41.4643C32.9283 41.4643 32.9283 41.5911 32.986 41.5796C33.3666 41.448 33.7789 41.4384 34.1653 41.552C34.5517 41.6657 34.8931 41.897 35.1419 42.2137C35.5518 42.7496 35.9072 43.3251 36.2027 43.9316C36.3064 44.1276 36.6638 44.0123 36.5831 43.7932C36.5601 41.0147 34.3234 37.1062 31.3257 36.8756Z" fill="#263238"/>
<path d="M36.7902 16.0996C38.4619 15.4771 40.053 6.12673 33.9078 1.66485C27.7627 -2.79702 19.8881 2.29897 23.1855 9.96601C25.2723 14.8084 33.2506 17.414 36.7902 16.0996Z" fill="#263238"/>
<path d="M25.3066 1.12295C23.49 2.64075 22.2422 4.73 21.7671 7.04906C21.5221 8.12787 21.5658 9.25219 21.8937 10.3088C22.2216 11.3653 22.8221 12.3168 23.6348 13.0674C25.3566 14.6016 27.4661 15.6344 29.7339 16.0535C30.8898 16.3092 32.0671 16.4559 33.2504 16.4916C34.4442 16.5746 35.6432 16.4418 36.7899 16.0996C35.7076 16.6983 34.5073 17.0525 33.2734 17.1373C32.0381 17.2679 30.7916 17.2486 29.5609 17.0796C27.0159 16.8065 24.6206 15.742 22.7125 14.0359C21.745 13.1217 21.0437 11.9622 20.6833 10.6808C20.3712 9.40524 20.395 8.07056 20.7525 6.80694C21.086 5.59999 21.6618 4.4736 22.4447 3.49639C23.2277 2.51918 24.2014 1.71163 25.3066 1.12295Z" fill="#263238"/>
<path d="M28.5353 67.7398C13.1089 90.9484 4.3927 121.847 5.47647 128.65C6.72164 136.132 17.2826 161.428 28.1663 172.577C31.0371 175.517 52.7815 151.397 49.8415 148.134C44.1806 141.839 32.9395 123.288 32.4437 119.057C31.9825 115.149 37.678 90.003 39.1769 75.7066C40.6757 61.9751 35.7065 56.9367 28.5353 67.7398Z" fill="#DD6A57"/>
<path d="M49.173 147.362C49.173 147.362 60.9791 152.55 68.5424 156.309C72.7621 158.407 79.6798 162.65 82.0779 165.613C85.652 170.029 97.8155 190.828 92.8348 193.883C88.3268 196.65 80.1525 177.465 80.1525 177.465C80.1525 177.465 90.1139 196.097 84.0725 198.437C78.0311 200.777 71.6784 177.845 71.6784 177.845C71.6784 177.845 81.4899 197.226 74.8835 198.598C69.9259 199.728 63.0083 179.298 63.0083 179.298C63.0083 179.298 71.321 196.016 66.2365 197.342C60.6102 198.806 53.0354 180.347 53.0354 180.347C39.5344 181.5 32.6168 176.577 28.1203 172.473C27.0135 171.481 49.173 147.362 49.173 147.362Z" fill="#DD6A57"/>
<path d="M77.1545 170.79C78.3997 172.934 79.6795 175.102 80.7402 177.35C81.8009 179.598 82.7694 181.892 83.611 184.267C84.7678 187.301 85.5725 190.458 86.0091 193.675C84.8562 188.026 81.1668 179.909 80.1061 177.661C79.0454 175.413 78.1115 173.049 77.0623 170.859C77.0393 170.778 77.1199 170.743 77.1545 170.79Z" fill="#263238"/>
<path d="M68.9574 174.456C70.4331 177.258 72.0011 180.001 73.3616 182.872C74.7221 185.743 75.6675 188.568 76.8204 191.519C76.9011 191.75 76.7512 191.715 76.659 191.519C75.3908 188.614 74.0072 186.031 72.7044 183.149C71.4016 180.267 70.2256 177.384 68.8305 174.502C68.8651 174.433 68.9343 174.41 68.9574 174.456Z" fill="#263238"/>
<path d="M61.3594 176.324C63.732 180.581 65.6636 185.07 67.1241 189.721C67.2048 189.951 67.0088 189.894 66.9166 189.721C65.0949 185.236 63.6883 181.65 61.2326 176.474C61.1749 176.335 61.3018 176.243 61.3594 176.324Z" fill="#263238"/>
<path d="M13.7086 91.548L38.2893 96.2866C38.2893 96.2866 41.2293 79.0501 39.9726 68.616C38.7159 58.1819 32.6975 60.188 26.8521 68.616C21.0067 77.044 13.7086 91.548 13.7086 91.548Z" fill="#92E3A9"/>
<path opacity="0.1" d="M13.7086 91.548L38.2893 96.2866C38.2893 96.2866 41.2293 79.0501 39.9726 68.616C38.7159 58.1819 32.6975 60.188 26.8521 68.616C21.0067 77.044 13.7086 91.548 13.7086 91.548Z" fill="black"/>
</svg>
